<svg width="65" height="65" viewBox="0 0 65 65" fill="none" xmlns="http://www.w3.org/2000/svg">
<rect width="65" height="65" rx="32.5" fill="url(#paint0_linear_1587_3774)"/>
<path d="M32.4999 25.7292C32.1408 25.7292 31.7963 25.8718 31.5424 26.1258C31.2884 26.3797 31.1458 26.7242 31.1458 27.0833V32.5C31.1458 32.8591 31.2884 33.2036 31.5424 33.4575C31.7963 33.7115 32.1408 33.8542 32.4999 33.8542C32.8591 33.8542 33.2035 33.7115 33.4575 33.4575C33.7114 33.2036 33.8541 32.8591 33.8541 32.5V27.0833C33.8541 26.7242 33.7114 26.3797 33.4575 26.1258C33.2035 25.8718 32.8591 25.7292 32.4999 25.7292ZM33.7458 37.4021C33.7161 37.3158 33.6751 37.2338 33.6239 37.1583L33.4614 36.9552C33.271 36.7673 33.0291 36.64 32.7664 36.5894C32.5037 36.5388 32.2319 36.5671 31.9853 36.6708C31.8212 36.7394 31.6701 36.8356 31.5385 36.9552C31.413 37.0817 31.3137 37.2318 31.2463 37.3968C31.1789 37.5618 31.1447 37.7384 31.1458 37.9167C31.1479 38.0936 31.1847 38.2684 31.2541 38.4312C31.3149 38.5993 31.4119 38.7519 31.5383 38.8783C31.6647 39.0046 31.8173 39.1017 31.9853 39.1625C32.1474 39.2341 32.3227 39.2711 32.4999 39.2711C32.6771 39.2711 32.8524 39.2341 33.0145 39.1625C33.1826 39.1017 33.3352 39.0046 33.4615 38.8783C33.5879 38.7519 33.6849 38.5993 33.7458 38.4312C33.8151 38.2684 33.852 38.0936 33.8541 37.9167C33.8607 37.8265 33.8607 37.736 33.8541 37.6458C33.8308 37.5595 33.7942 37.4772 33.7458 37.4021ZM32.4999 18.9583C29.8216 18.9583 27.2035 19.7525 24.9766 21.2405C22.7497 22.7285 21.014 24.8434 19.9891 27.3178C18.9641 29.7922 18.6959 32.515 19.2185 35.1418C19.741 37.7687 21.0307 40.1816 22.9245 42.0754C24.8184 43.9692 27.2312 45.259 29.8581 45.7815C32.4849 46.304 35.2077 46.0358 37.6821 45.0109C40.1565 43.9859 42.2714 42.2503 43.7594 40.0233C45.2474 37.7964 46.0416 35.1783 46.0416 32.5C46.0416 30.7217 45.6913 28.9608 45.0108 27.3178C44.3303 25.6749 43.3328 24.182 42.0753 22.9246C40.8179 21.6671 39.325 20.6697 37.6821 19.9891C36.0391 19.3086 34.2782 18.9583 32.4999 18.9583ZM32.4999 43.3333C30.3573 43.3333 28.2628 42.698 26.4812 41.5076C24.6997 40.3172 23.3112 38.6253 22.4912 36.6457C21.6713 34.6662 21.4567 32.488 21.8748 30.3865C22.2928 28.2851 23.3245 26.3547 24.8396 24.8397C26.3547 23.3246 28.285 22.2928 30.3864 21.8748C32.4879 21.4568 34.6661 21.6714 36.6457 22.4913C38.6252 23.3112 40.3171 24.6998 41.5075 26.4813C42.6979 28.2628 43.3333 30.3574 43.3333 32.5C43.3333 35.3732 42.1919 38.1287 40.1602 40.1603C38.1286 42.192 35.3731 43.3333 32.4999 43.3333Z" fill="white"/>
<defs>
<linearGradient id="paint0_linear_1587_3774" x1="32.5" y1="0" x2="32.5" y2="65" gradientUnits="userSpaceOnUse">
<stop stop-color="#053269"/>
<stop offset="1" stop-color="#3570B8"/>
</linearGradient>
</defs>
</svg>
