<svg width="16" height="16" viewBox="0 0 16 16" fill="none" xmlns="http://www.w3.org/2000/svg">
<path d="M12.6668 5.3335H12.0002V3.3335C12.0002 2.80306 11.7894 2.29436 11.4144 1.91928C11.0393 1.54421 10.5306 1.3335 10.0002 1.3335H3.3335C2.80306 1.3335 2.29436 1.54421 1.91928 1.91928C1.54421 2.29436 1.3335 2.80306 1.3335 3.3335V11.3335C1.33415 11.4651 1.37375 11.5936 1.44731 11.7027C1.52087 11.8119 1.62508 11.8968 1.74683 11.9468C1.82595 11.9841 1.91271 12.0024 2.00016 12.0002C2.0879 12.0007 2.17488 11.9839 2.2561 11.9507C2.33733 11.9175 2.4112 11.8686 2.4735 11.8068L4.34683 9.92683H5.3335V10.8868C5.3335 11.4173 5.54421 11.926 5.91928 12.301C6.29436 12.6761 6.80306 12.8868 7.3335 12.8868H11.9468L13.5268 14.4735C13.5891 14.5353 13.663 14.5842 13.7442 14.6173C13.8254 14.6505 13.9124 14.6673 14.0002 14.6668C14.0876 14.6691 14.1744 14.6508 14.2535 14.6135C14.3752 14.5635 14.4795 14.4785 14.553 14.3694C14.6266 14.2603 14.6662 14.1318 14.6668 14.0002V7.3335C14.6668 6.80306 14.4561 6.29435 14.081 5.91928C13.706 5.54421 13.1973 5.3335 12.6668 5.3335ZM5.3335 7.3335V8.5935H4.0735C3.98576 8.59299 3.89878 8.60981 3.81756 8.64298C3.73633 8.67616 3.66246 8.72504 3.60016 8.78683L2.66683 9.72683V3.3335C2.66683 3.15668 2.73707 2.98712 2.86209 2.86209C2.98712 2.73707 3.15669 2.66683 3.3335 2.66683H10.0002C10.177 2.66683 10.3465 2.73707 10.4716 2.86209C10.5966 2.98712 10.6668 3.15668 10.6668 3.3335V5.3335H7.3335C6.80306 5.3335 6.29436 5.54421 5.91928 5.91928C5.54421 6.29435 5.3335 6.80306 5.3335 7.3335ZM13.3335 12.3935L12.6668 11.7268C12.6051 11.6638 12.5315 11.6137 12.4502 11.5794C12.369 11.5451 12.2817 11.5272 12.1935 11.5268H7.3335C7.15669 11.5268 6.98712 11.4566 6.86209 11.3316C6.73707 11.2065 6.66683 11.037 6.66683 10.8602V7.3335C6.66683 7.15668 6.73707 6.98712 6.86209 6.86209C6.98712 6.73707 7.15669 6.66683 7.3335 6.66683H12.6668C12.8436 6.66683 13.0132 6.73707 13.1382 6.86209C13.2633 6.98712 13.3335 7.15668 13.3335 7.3335V12.3935Z" fill="white"/>
</svg>
