<svg width="43" height="43" viewBox="0 0 43 43" fill="none" xmlns="http://www.w3.org/2000/svg">
<path d="M37.1909 22.4356C37.1063 22.2173 36.9794 22.018 36.8176 21.8489L31.4842 16.5156C31.1495 16.1808 30.6954 15.9927 30.222 15.9927C29.7486 15.9927 29.2945 16.1808 28.9598 16.5156C28.625 16.8503 28.437 17.3044 28.437 17.7778C28.437 18.2512 28.625 18.7052 28.9598 19.04L31.2709 21.3333H14.222C13.7505 21.3333 13.2983 21.146 12.9649 20.8126C12.6315 20.4792 12.4442 20.0271 12.4442 19.5556V12.4444C12.4442 11.973 12.2569 11.5208 11.9235 11.1874C11.5901 10.854 11.1379 10.6667 10.6664 10.6667C10.195 10.6667 9.74277 10.854 9.40937 11.1874C9.07597 11.5208 8.88867 11.973 8.88867 12.4444V19.5556C8.88867 20.97 9.45058 22.3266 10.4508 23.3268C11.451 24.327 12.8075 24.8889 14.222 24.8889H31.2709L28.9598 27.1822C28.7932 27.3475 28.6609 27.5441 28.5706 27.7608C28.4804 27.9774 28.4339 28.2098 28.4339 28.4445C28.4339 28.6791 28.4804 28.9115 28.5706 29.1281C28.6609 29.3448 28.7932 29.5414 28.9598 29.7067C29.1251 29.8733 29.3217 30.0056 29.5383 30.0958C29.755 30.1861 29.9873 30.2325 30.222 30.2325C30.4567 30.2325 30.6891 30.1861 30.9057 30.0958C31.1223 30.0056 31.319 29.8733 31.4842 29.7067L36.8176 24.3733C36.9794 24.2043 37.1063 24.0049 37.1909 23.7867C37.3687 23.3539 37.3687 22.8684 37.1909 22.4356Z" fill="#5280CA"/>
</svg>
