<svg width="32" height="32" viewBox="0 0 32 32" fill="none" xmlns="http://www.w3.org/2000/svg">
<path d="M11.9999 13.3334H13.3333C13.6869 13.3334 14.026 13.1929 14.2761 12.9429C14.5261 12.6928 14.6666 12.3537 14.6666 12.0001C14.6666 11.6465 14.5261 11.3073 14.2761 11.0573C14.026 10.8072 13.6869 10.6667 13.3333 10.6667H11.9999C11.6463 10.6667 11.3072 10.8072 11.0571 11.0573C10.8071 11.3073 10.6666 11.6465 10.6666 12.0001C10.6666 12.3537 10.8071 12.6928 11.0571 12.9429C11.3072 13.1929 11.6463 13.3334 11.9999 13.3334V13.3334ZM11.9999 16.0001C11.6463 16.0001 11.3072 16.1406 11.0571 16.3906C10.8071 16.6407 10.6666 16.9798 10.6666 17.3334C10.6666 17.687 10.8071 18.0262 11.0571 18.2762C11.3072 18.5263 11.6463 18.6667 11.9999 18.6667H19.9999C20.3535 18.6667 20.6927 18.5263 20.9427 18.2762C21.1928 18.0262 21.3333 17.687 21.3333 17.3334C21.3333 16.9798 21.1928 16.6407 20.9427 16.3906C20.6927 16.1406 20.3535 16.0001 19.9999 16.0001H11.9999ZM26.6666 11.9201C26.6527 11.7976 26.6259 11.6769 26.5866 11.5601V11.4401C26.5225 11.303 26.437 11.177 26.3333 11.0667V11.0667L18.3333 3.06675C18.223 2.96304 18.097 2.87752 17.9599 2.81341C17.9201 2.80776 17.8797 2.80776 17.8399 2.81341C17.7045 2.73574 17.5549 2.68587 17.3999 2.66675H9.33325C8.27239 2.66675 7.25497 3.08818 6.50482 3.83832C5.75468 4.58847 5.33325 5.60588 5.33325 6.66675V25.3334C5.33325 26.3943 5.75468 27.4117 6.50482 28.1618C7.25497 28.912 8.27239 29.3334 9.33325 29.3334H22.6666C23.7275 29.3334 24.7449 28.912 25.495 28.1618C26.2452 27.4117 26.6666 26.3943 26.6666 25.3334V12.0001C26.6666 12.0001 26.6666 12.0001 26.6666 11.9201ZM18.6666 7.21341L22.1199 10.6667H19.9999C19.6463 10.6667 19.3072 10.5263 19.0571 10.2762C18.8071 10.0262 18.6666 9.68704 18.6666 9.33341V7.21341ZM23.9999 25.3334C23.9999 25.687 23.8594 26.0262 23.6094 26.2762C23.3593 26.5263 23.0202 26.6667 22.6666 26.6667H9.33325C8.97963 26.6667 8.64049 26.5263 8.39044 26.2762C8.14039 26.0262 7.99992 25.687 7.99992 25.3334V6.66675C7.99992 6.31313 8.14039 5.97399 8.39044 5.72394C8.64049 5.47389 8.97963 5.33341 9.33325 5.33341H15.9999V9.33341C15.9999 10.3943 16.4213 11.4117 17.1715 12.1618C17.9216 12.912 18.9391 13.3334 19.9999 13.3334H23.9999V25.3334ZM19.9999 21.3334H11.9999C11.6463 21.3334 11.3072 21.4739 11.0571 21.7239C10.8071 21.974 10.6666 22.3131 10.6666 22.6667C10.6666 23.0204 10.8071 23.3595 11.0571 23.6096C11.3072 23.8596 11.6463 24.0001 11.9999 24.0001H19.9999C20.3535 24.0001 20.6927 23.8596 20.9427 23.6096C21.1928 23.3595 21.3333 23.0204 21.3333 22.6667C21.3333 22.3131 21.1928 21.974 20.9427 21.7239C20.6927 21.4739 20.3535 21.3334 19.9999 21.3334Z" fill="white"/>
</svg>
