<svg width="29" height="31" viewBox="0 0 29 31" fill="none" xmlns="http://www.w3.org/2000/svg">
<path d="M27.4487 11.5566C27.6384 11.5567 27.8263 11.5193 28.0016 11.4468C28.1769 11.3742 28.3362 11.2678 28.4703 11.1336C28.6045 10.9994 28.7109 10.8402 28.7835 10.6649C28.856 10.4896 28.8934 10.3017 28.8933 10.112V5.77796C28.8935 5.47483 28.7981 5.17936 28.6209 4.93347C28.4436 4.68758 28.1934 4.50375 27.9058 4.40807L14.9038 0.0740672C14.607 -0.0246891 14.2863 -0.0246891 13.9896 0.0740672L0.98756 4.40807C0.699931 4.50375 0.449737 4.68758 0.272473 4.93347C0.0952082 5.17936 -0.000124431 5.47483 1.21893e-07 5.77796V10.112C-4.92272e-05 10.3017 0.0372846 10.4896 0.109868 10.6649C0.182452 10.8402 0.288864 10.9994 0.423023 11.1336C0.557183 11.2678 0.716461 11.3742 0.891758 11.4468C1.06706 11.5193 1.25494 11.5567 1.44467 11.5566H2.88933V21.9355C2.04671 22.2323 1.31662 22.7826 0.799287 23.511C0.281955 24.2393 0.00274844 25.1099 1.21893e-07 26.0033V28.8926C-4.92272e-05 29.0824 0.0372846 29.2702 0.109868 29.4455C0.182452 29.6208 0.288864 29.7801 0.423023 29.9143C0.557183 30.0484 0.716461 30.1548 0.891758 30.2274C1.06706 30.3 1.25494 30.3373 1.44467 30.3373H27.4487C27.6384 30.3373 27.8263 30.3 28.0016 30.2274C28.1769 30.1548 28.3362 30.0484 28.4703 29.9143C28.6045 29.7801 28.7109 29.6208 28.7835 29.4455C28.856 29.2702 28.8934 29.0824 28.8933 28.8926V26.0033C28.8906 25.1099 28.6114 24.2393 28.094 23.511C27.5767 22.7826 26.8466 22.2323 26.004 21.9355V11.5566H27.4487ZM26.004 27.448H2.88933V26.0033C2.88972 25.6203 3.04204 25.253 3.31289 24.9822C3.58373 24.7113 3.95097 24.559 4.334 24.5586H24.5593C24.9424 24.559 25.3096 24.7113 25.5804 24.9822C25.8513 25.253 26.0036 25.6203 26.004 26.0033V27.448ZM5.77867 21.6693V11.5566H8.668V21.6693H5.77867ZM11.5573 21.6693V11.5566H17.336V21.6693H11.5573ZM20.2253 21.6693V11.5566H23.1147V21.6693H20.2253ZM2.88933 8.66729V6.81913L14.4467 2.9662L26.004 6.81913V8.66729H2.88933Z" fill="white"/>
</svg>
