<svg width="35" height="35" viewBox="0 0 35 35" fill="none" xmlns="http://www.w3.org/2000/svg">
<path d="M31.3588 29.3077L25.9999 23.9922C28.0801 21.3985 29.0875 18.1065 28.8149 14.7929C28.5423 11.4794 27.0106 8.39618 24.5346 6.17732C22.0586 3.95845 18.8266 2.77257 15.5031 2.86351C12.1796 2.95445 9.01721 4.31531 6.66626 6.66626C4.31531 9.01721 2.95445 12.1796 2.86351 15.5031C2.77257 18.8266 3.95845 22.0586 6.17732 24.5346C8.39618 27.0106 11.4794 28.5423 14.7929 28.8149C18.1065 29.0875 21.3985 28.0801 23.9922 25.9999L29.3077 31.3155C29.442 31.4509 29.6018 31.5583 29.7778 31.6317C29.9538 31.705 30.1426 31.7428 30.3333 31.7428C30.524 31.7428 30.7128 31.705 30.8888 31.6317C31.0648 31.5583 31.2246 31.4509 31.3588 31.3155C31.6192 31.0462 31.7647 30.6862 31.7647 30.3116C31.7647 29.937 31.6192 29.5771 31.3588 29.3077V29.3077ZM15.8888 25.9999C13.889 25.9999 11.9342 25.4069 10.2714 24.2959C8.60864 23.1849 7.31267 21.6058 6.54738 19.7582C5.7821 17.9106 5.58186 15.8776 5.972 13.9163C6.36214 11.9549 7.32513 10.1533 8.7392 8.7392C10.1533 7.32513 11.9549 6.36214 13.9163 5.972C15.8776 5.58186 17.9106 5.7821 19.7582 6.54738C21.6058 7.31267 23.1849 8.60864 24.2959 10.2714C25.4069 11.9342 25.9999 13.889 25.9999 15.8888C25.9999 18.5705 24.9347 21.1423 23.0385 23.0385C21.1423 24.9347 18.5705 25.9999 15.8888 25.9999V25.9999Z" fill="white"/>
</svg>
