<svg width="16" height="16" viewBox="0 0 16 16" fill="none" xmlns="http://www.w3.org/2000/svg">
<path d="M6.66667 5.33365H10.6667C10.8435 5.33365 11.013 5.26341 11.1381 5.13839C11.2631 5.01336 11.3333 4.84379 11.3333 4.66698C11.3333 4.49017 11.2631 4.3206 11.1381 4.19558C11.013 4.07055 10.8435 4.00032 10.6667 4.00032H6.66667C6.48986 4.00032 6.32029 4.07055 6.19526 4.19558C6.07024 4.3206 6 4.49017 6 4.66698C6 4.84379 6.07024 5.01336 6.19526 5.13839C6.32029 5.26341 6.48986 5.33365 6.66667 5.33365ZM5.33333 8.00032H10.6667C10.8435 8.00032 11.013 7.93008 11.1381 7.80505C11.2631 7.68003 11.3333 7.51046 11.3333 7.33365C11.3333 7.15684 11.2631 6.98727 11.1381 6.86224C11.013 6.73722 10.8435 6.66698 10.6667 6.66698H5.33333C5.15652 6.66698 4.98695 6.73722 4.86193 6.86224C4.7369 6.98727 4.66667 7.15684 4.66667 7.33365C4.66667 7.51046 4.7369 7.68003 4.86193 7.80505C4.98695 7.93008 5.15652 8.00032 5.33333 8.00032ZM5.33333 10.667H10.6667C10.8435 10.667 11.013 10.5967 11.1381 10.4717C11.2631 10.3467 11.3333 10.1771 11.3333 10.0003C11.3333 9.8235 11.2631 9.65394 11.1381 9.52891C11.013 9.40389 10.8435 9.33365 10.6667 9.33365H5.33333C5.15652 9.33365 4.98695 9.40389 4.86193 9.52891C4.7369 9.65394 4.66667 9.8235 4.66667 10.0003C4.66667 10.1771 4.7369 10.3467 4.86193 10.4717C4.98695 10.5967 5.15652 10.667 5.33333 10.667ZM13.3333 1.33365H2.66667C2.48986 1.33365 2.32029 1.40389 2.19526 1.52891C2.07024 1.65394 2 1.8235 2 2.00032V14.0003C2 14.1241 2.03448 14.2455 2.09957 14.3508C2.16466 14.4561 2.25779 14.5412 2.36852 14.5966C2.47926 14.652 2.60323 14.6754 2.72654 14.6643C2.84984 14.6532 2.96762 14.6079 3.06667 14.5336L4.44667 13.5003L5.82 14.5336C5.9354 14.6202 6.07575 14.667 6.22 14.667C6.36425 14.667 6.5046 14.6202 6.62 14.5336L8 13.5003L9.38 14.5336C9.4954 14.6202 9.63575 14.667 9.78 14.667C9.92425 14.667 10.0646 14.6202 10.18 14.5336L11.5533 13.5003L12.9333 14.5336C13.0329 14.6078 13.1511 14.6527 13.2748 14.6633C13.3985 14.6739 13.5226 14.6498 13.6333 14.5936C13.7433 14.5382 13.8357 14.4535 13.9005 14.3488C13.9652 14.244 13.9996 14.1234 14 14.0003V2.00032C14 1.8235 13.9298 1.65394 13.8047 1.52891C13.6797 1.40389 13.5101 1.33365 13.3333 1.33365ZM12.6667 12.667L11.9533 12.1336C11.8379 12.0471 11.6976 12.0003 11.5533 12.0003C11.4091 12.0003 11.2687 12.0471 11.1533 12.1336L9.78 13.167L8.4 12.1336C8.2846 12.0471 8.14425 12.0003 8 12.0003C7.85575 12.0003 7.7154 12.0471 7.6 12.1336L6.22 13.167L4.84667 12.1336C4.73127 12.0471 4.59091 12.0003 4.44667 12.0003C4.30242 12.0003 4.16206 12.0471 4.04667 12.1336L3.33333 12.667V2.66698H12.6667V12.667Z" fill="white"/>
</svg>
