<svg width="26" height="26" viewBox="0 0 26 26" fill="none" xmlns="http://www.w3.org/2000/svg">
<path d="M9.75 13H7.58333C7.29601 13 7.02046 13.1141 6.8173 13.3173C6.61414 13.5205 6.5 13.796 6.5 14.0833C6.5 14.3706 6.61414 14.6462 6.8173 14.8494C7.02046 15.0525 7.29601 15.1667 7.58333 15.1667H9.75C10.0373 15.1667 10.3129 15.0525 10.516 14.8494C10.7192 14.6462 10.8333 14.3706 10.8333 14.0833C10.8333 13.796 10.7192 13.5205 10.516 13.3173C10.3129 13.1141 10.0373 13 9.75 13ZM8.66667 10.8333H13C13.2873 10.8333 13.5629 10.7192 13.766 10.516C13.9692 10.3129 14.0833 10.0373 14.0833 9.74999C14.0833 9.46268 13.9692 9.18713 13.766 8.98396C13.5629 8.7808 13.2873 8.66666 13 8.66666H8.66667C8.37935 8.66666 8.1038 8.7808 7.90063 8.98396C7.69747 9.18713 7.58333 9.46268 7.58333 9.74999C7.58333 10.0373 7.69747 10.3129 7.90063 10.516C8.1038 10.7192 8.37935 10.8333 8.66667 10.8333ZM9.75 17.3333H7.58333C7.29601 17.3333 7.02046 17.4475 6.8173 17.6506C6.61414 17.8538 6.5 18.1293 6.5 18.4167C6.5 18.704 6.61414 18.9795 6.8173 19.1827C7.02046 19.3859 7.29601 19.5 7.58333 19.5H9.75C10.0373 19.5 10.3129 19.3859 10.516 19.1827C10.7192 18.9795 10.8333 18.704 10.8333 18.4167C10.8333 18.1293 10.7192 17.8538 10.516 17.6506C10.3129 17.4475 10.0373 17.3333 9.75 17.3333ZM22.75 13H19.5V3.24999C19.5008 3.0591 19.4511 2.87139 19.3559 2.70588C19.2608 2.54037 19.1237 2.40294 18.9583 2.30749C18.7936 2.21241 18.6068 2.16235 18.4167 2.16235C18.2265 2.16235 18.0397 2.21241 17.875 2.30749L14.625 4.17083L11.375 2.30749C11.2103 2.21241 11.0235 2.16235 10.8333 2.16235C10.6432 2.16235 10.4564 2.21241 10.2917 2.30749L7.04167 4.17083L3.79167 2.30749C3.62698 2.21241 3.44016 2.16235 3.25 2.16235C3.05983 2.16235 2.87302 2.21241 2.70833 2.30749C2.54301 2.40294 2.40585 2.54037 2.31072 2.70588C2.2156 2.87139 2.16591 3.0591 2.16667 3.24999V20.5833C2.16667 21.4453 2.50907 22.2719 3.11857 22.8814C3.72806 23.4909 4.55471 23.8333 5.41667 23.8333H20.5833C21.4453 23.8333 22.2719 23.4909 22.8814 22.8814C23.4909 22.2719 23.8333 21.4453 23.8333 20.5833V14.0833C23.8333 13.796 23.7192 13.5205 23.516 13.3173C23.3129 13.1141 23.0373 13 22.75 13ZM5.41667 21.6667C5.12935 21.6667 4.8538 21.5525 4.65063 21.3494C4.44747 21.1462 4.33333 20.8706 4.33333 20.5833V5.12416L6.5 6.35916C6.6672 6.44649 6.85303 6.4921 7.04167 6.4921C7.2303 6.4921 7.41613 6.44649 7.58333 6.35916L10.8333 4.49583L14.0833 6.35916C14.2505 6.44649 14.4364 6.4921 14.625 6.4921C14.8136 6.4921 14.9995 6.44649 15.1667 6.35916L17.3333 5.12416V20.5833C17.3363 20.9529 17.4022 21.3193 17.5283 21.6667H5.41667ZM21.6667 20.5833C21.6667 20.8706 21.5525 21.1462 21.3494 21.3494C21.1462 21.5525 20.8706 21.6667 20.5833 21.6667C20.296 21.6667 20.0205 21.5525 19.8173 21.3494C19.6141 21.1462 19.5 20.8706 19.5 20.5833V15.1667H21.6667V20.5833ZM14.69 17.5175C14.6296 17.4765 14.564 17.4437 14.495 17.42C14.4305 17.387 14.3609 17.365 14.2892 17.355C14.1151 17.3201 13.9352 17.3286 13.7652 17.3796C13.5952 17.4306 13.4403 17.5226 13.3142 17.6475C13.1162 17.8551 13.004 18.1298 13 18.4167C12.9983 18.5575 13.024 18.6973 13.0758 18.8283C13.1347 18.96 13.2153 19.0808 13.3142 19.1858C13.4195 19.2815 13.5404 19.3585 13.6717 19.4133C13.8013 19.4706 13.9416 19.5002 14.0833 19.5002C14.2251 19.5002 14.3653 19.4706 14.495 19.4133C14.6263 19.3585 14.7472 19.2815 14.8525 19.1858C14.9529 19.0846 15.0323 18.9646 15.0863 18.8326C15.1402 18.7006 15.1675 18.5592 15.1667 18.4167C15.1627 18.1298 15.0505 17.8551 14.8525 17.6475C14.801 17.6009 14.7468 17.5575 14.69 17.5175ZM14.8417 13.3142C14.7152 13.191 14.5605 13.1006 14.3911 13.0508C14.2216 13.0011 14.0426 12.9935 13.8696 13.0287C13.6966 13.064 13.5348 13.141 13.3984 13.253C13.2619 13.3651 13.1549 13.5088 13.0867 13.6717C13.0192 13.8358 12.9932 14.014 13.0107 14.1905C13.0283 14.3671 13.0889 14.5366 13.1873 14.6843C13.2858 14.8319 13.4189 14.9531 13.5752 15.0372C13.7314 15.1213 13.9059 15.1658 14.0833 15.1667C14.3706 15.1667 14.6462 15.0525 14.8494 14.8494C15.0525 14.6462 15.1667 14.3706 15.1667 14.0833C15.165 13.9418 15.1355 13.8019 15.08 13.6717C15.0278 13.5364 14.9464 13.4144 14.8417 13.3142Z" fill="white"/>
</svg>
