<svg width="53" height="53" viewBox="0 0 53 53" fill="none" xmlns="http://www.w3.org/2000/svg">
<path d="M0 10C0 4.47715 4.47715 0 10 0H42.4781C48.001 0 52.4781 4.47715 52.4781 10V42.4781C52.4781 48.001 48.001 52.4781 42.4781 52.4781H10C4.47715 52.4781 0 48.001 0 42.4781V10Z" fill="url(#paint0_linear_1415_18620)"/>
<path d="M28.2391 26.739H27.2391V25.739C27.2391 25.4738 27.1337 25.2195 26.9462 25.0319C26.7586 24.8444 26.5043 24.739 26.2391 24.739C25.9739 24.739 25.7195 24.8444 25.532 25.0319C25.3444 25.2195 25.2391 25.4738 25.2391 25.739V26.739H24.2391C23.9739 26.739 23.7195 26.8444 23.532 27.0319C23.3444 27.2195 23.2391 27.4738 23.2391 27.739C23.2391 28.0043 23.3444 28.2586 23.532 28.4461C23.7195 28.6337 23.9739 28.739 24.2391 28.739H25.2391V29.739C25.2391 30.0043 25.3444 30.2586 25.532 30.4461C25.7195 30.6337 25.9739 30.739 26.2391 30.739C26.5043 30.739 26.7586 30.6337 26.9462 30.4461C27.1337 30.2586 27.2391 30.0043 27.2391 29.739V28.739H28.2391C28.5043 28.739 28.7586 28.6337 28.9462 28.4461C29.1337 28.2586 29.2391 28.0043 29.2391 27.739C29.2391 27.4738 29.1337 27.2195 28.9462 27.0319C28.7586 26.8444 28.5043 26.739 28.2391 26.739ZM33.2391 19.739H26.9591L26.6391 18.739C26.4316 18.1523 26.0468 17.6445 25.538 17.2862C25.0291 16.9279 24.4214 16.7366 23.7991 16.739H19.2391C18.4434 16.739 17.6804 17.0551 17.1178 17.6177C16.5551 18.1803 16.2391 18.9434 16.2391 19.739V32.739C16.2391 33.5347 16.5551 34.2977 17.1178 34.8604C17.6804 35.423 18.4434 35.739 19.2391 35.739H33.2391C34.0347 35.739 34.7978 35.423 35.3604 34.8604C35.923 34.2977 36.2391 33.5347 36.2391 32.739V22.739C36.2391 21.9434 35.923 21.1803 35.3604 20.6177C34.7978 20.0551 34.0347 19.739 33.2391 19.739ZM34.2391 32.739C34.2391 33.0043 34.1337 33.2586 33.9462 33.4461C33.7586 33.6337 33.5043 33.739 33.2391 33.739H19.2391C18.9739 33.739 18.7195 33.6337 18.532 33.4461C18.3444 33.2586 18.2391 33.0043 18.2391 32.739V19.739C18.2391 19.4738 18.3444 19.2195 18.532 19.0319C18.7195 18.8444 18.9739 18.739 19.2391 18.739H23.7991C24.0087 18.7385 24.2132 18.8039 24.3837 18.9259C24.5542 19.0479 24.682 19.2204 24.7491 19.419L25.2891 21.059C25.3562 21.2577 25.484 21.4302 25.6544 21.5522C25.8249 21.6742 26.0294 21.7396 26.2391 21.739H33.2391C33.5043 21.739 33.7586 21.8444 33.9462 22.0319C34.1337 22.2195 34.2391 22.4738 34.2391 22.739V32.739Z" fill="white"/>
<defs>
<linearGradient id="paint0_linear_1415_18620" x1="26.2391" y1="0" x2="26.2391" y2="52.4781" gradientUnits="userSpaceOnUse">
<stop stop-color="#003268"/>
<stop offset="1" stop-color="#5280CA"/>
</linearGradient>
</defs>
</svg>
