<svg width="53" height="53" viewBox="0 0 53 53" fill="none" xmlns="http://www.w3.org/2000/svg">
<path d="M0 10C0 4.47715 4.47715 0 10 0H42.4781C48.001 0 52.4781 4.47715 52.4781 10V42.4781C52.4781 48.001 48.001 52.4781 42.4781 52.4781H10C4.47715 52.4781 0 48.001 0 42.4781V10Z" fill="url(#paint0_linear_1415_18636)"/>
<path d="M37.2391 24.179C37.2287 24.0871 37.2085 23.9966 37.1791 23.909V23.819C37.131 23.7162 37.0669 23.6217 36.9891 23.539L30.9891 17.539C30.9064 17.4612 30.8119 17.3971 30.7091 17.349H30.6191C30.5175 17.2908 30.4053 17.2534 30.2891 17.239H22.2391C21.4434 17.239 20.6804 17.5551 20.1178 18.1177C19.5551 18.6803 19.2391 19.4434 19.2391 20.239V21.239H18.2391C17.4434 21.239 16.6804 21.5551 16.1178 22.1177C15.5551 22.6803 15.2391 23.4434 15.2391 24.239V32.239C15.2391 33.0347 15.5551 33.7977 16.1178 34.3603C16.6804 34.9229 17.4434 35.239 18.2391 35.239H30.2391C31.0347 35.239 31.7978 34.9229 32.3604 34.3603C32.923 33.7977 33.2391 33.0347 33.2391 32.239V31.239H34.2391C35.0347 31.239 35.7978 30.9229 36.3604 30.3603C36.923 29.7977 37.2391 29.0347 37.2391 28.239V24.239C37.2391 24.239 37.2391 24.239 37.2391 24.179ZM31.2391 20.649L33.8291 23.239H32.2391C31.9739 23.239 31.7195 23.1337 31.532 22.9461C31.3444 22.7586 31.2391 22.5042 31.2391 22.239V20.649ZM31.2391 32.239C31.2391 32.5042 31.1337 32.7586 30.9462 32.9461C30.7586 33.1337 30.5043 33.239 30.2391 33.239H18.2391C17.9739 33.239 17.7195 33.1337 17.532 32.9461C17.3444 32.7586 17.2391 32.5042 17.2391 32.239V24.239C17.2391 23.9738 17.3444 23.7194 17.532 23.5319C17.7195 23.3444 17.9739 23.239 18.2391 23.239H19.2391V28.239C19.2391 29.0347 19.5551 29.7977 20.1178 30.3603C20.6804 30.9229 21.4434 31.239 22.2391 31.239H31.2391V32.239ZM35.2391 28.239C35.2391 28.5042 35.1337 28.7586 34.9462 28.9461C34.7586 29.1337 34.5043 29.239 34.2391 29.239H22.2391C21.9739 29.239 21.7195 29.1337 21.532 28.9461C21.3444 28.7586 21.2391 28.5042 21.2391 28.239V20.239C21.2391 19.9738 21.3444 19.7194 21.532 19.5319C21.7195 19.3444 21.9739 19.239 22.2391 19.239H29.2391V22.239C29.2391 23.0347 29.5551 23.7977 30.1178 24.3603C30.6804 24.9229 31.4434 25.239 32.2391 25.239H35.2391V28.239Z" fill="white"/>
<defs>
<linearGradient id="paint0_linear_1415_18636" x1="26.2391" y1="0" x2="26.2391" y2="52.4781" gradientUnits="userSpaceOnUse">
<stop stop-color="#003268"/>
<stop offset="1" stop-color="#5280CA"/>
</linearGradient>
</defs>
</svg>
