<svg width="53" height="53" viewBox="0 0 53 53" fill="none" xmlns="http://www.w3.org/2000/svg">
<path d="M0 10C0 4.47715 4.47715 0 10 0H42.4781C48.001 0 52.4781 4.47715 52.4781 10V42.4781C52.4781 48.001 48.001 52.4781 42.4781 52.4781H10C4.47715 52.4781 0 48.001 0 42.4781V10Z" fill="url(#paint0_linear_1415_18628)"/>
<path d="M33.2391 17.239H19.2391C18.4434 17.239 17.6804 17.5551 17.1178 18.1177C16.5551 18.6803 16.2391 19.4434 16.2391 20.239V28.239C16.2391 29.0347 16.5551 29.7977 17.1178 30.3603C17.6804 30.9229 18.4434 31.239 19.2391 31.239H25.2391V33.239H21.2391C20.9739 33.239 20.7195 33.3444 20.532 33.5319C20.3444 33.7194 20.2391 33.9738 20.2391 34.239C20.2391 34.5042 20.3444 34.7586 20.532 34.9461C20.7195 35.1337 20.9739 35.239 21.2391 35.239H31.2391C31.5043 35.239 31.7586 35.1337 31.9462 34.9461C32.1337 34.7586 32.2391 34.5042 32.2391 34.239C32.2391 33.9738 32.1337 33.7194 31.9462 33.5319C31.7586 33.3444 31.5043 33.239 31.2391 33.239H27.2391V31.239H33.2391C34.0347 31.239 34.7978 30.9229 35.3604 30.3603C35.923 29.7977 36.2391 29.0347 36.2391 28.239V20.239C36.2391 19.4434 35.923 18.6803 35.3604 18.1177C34.7978 17.5551 34.0347 17.239 33.2391 17.239ZM34.2391 28.239C34.2391 28.5042 34.1337 28.7586 33.9462 28.9461C33.7586 29.1337 33.5043 29.239 33.2391 29.239H19.2391C18.9739 29.239 18.7195 29.1337 18.532 28.9461C18.3444 28.7586 18.2391 28.5042 18.2391 28.239V20.239C18.2391 19.9738 18.3444 19.7194 18.532 19.5319C18.7195 19.3444 18.9739 19.239 19.2391 19.239H33.2391C33.5043 19.239 33.7586 19.3444 33.9462 19.5319C34.1337 19.7194 34.2391 19.9738 34.2391 20.239V28.239Z" fill="white"/>
<defs>
<linearGradient id="paint0_linear_1415_18628" x1="26.2391" y1="0" x2="26.2391" y2="52.4781" gradientUnits="userSpaceOnUse">
<stop stop-color="#003268"/>
<stop offset="1" stop-color="#5280CA"/>
</linearGradient>
</defs>
</svg>
