<svg width="176" height="81" viewBox="0 0 176 81" fill="none" xmlns="http://www.w3.org/2000/svg">
<g clip-path="url(#clip0_209_8668)">
<g clip-path="url(#clip1_209_8668)">
<mask id="mask0_209_8668" style="mask-type:luminance" maskUnits="userSpaceOnUse" x="19" y="-1" width="138" height="83">
<path d="M19.9844 -0.152832H156.016V81.1532H19.9844V-0.152832Z" fill="white"/>
</mask>
<g mask="url(#mask0_209_8668)">
<path d="M156.019 1.50303L117.727 22.4409H133.061C129.17 30.7566 127.52 39.9448 128.275 49.0947C129.03 58.2445 132.164 67.0381 137.365 74.6034C132.8 47.2893 143.982 20.8414 156.019 1.50146V1.50303Z" fill="#DA291C"/>
<path d="M25.2349 81.0309H26.5014V75.0268H25.2349V81.0309ZM25.0723 73.2333C25.0735 73.1296 25.0953 73.0271 25.1365 72.9319C25.1777 72.8367 25.2375 72.7506 25.3123 72.6787C25.3871 72.6069 25.4754 72.5506 25.5722 72.5132C25.669 72.4758 25.7722 72.458 25.8759 72.4609C26.3262 72.4609 26.6781 72.8174 26.6781 73.2333C26.6739 73.4422 26.5872 73.641 26.4369 73.786C26.2865 73.9311 26.0848 74.0107 25.8759 74.0073C25.7721 74.0102 25.6687 73.9924 25.5718 73.9549C25.475 73.9174 25.3865 73.861 25.3117 73.7889C25.2369 73.7169 25.1772 73.6306 25.1361 73.5352C25.0949 73.4398 25.0733 73.3372 25.0723 73.2333ZM27.7475 74.9736H28.9656V75.6069C29.3299 75.1722 29.8162 74.8735 30.4619 74.8735C30.6323 74.8735 30.8262 74.9111 30.9607 74.9486V76.0775C30.7585 76.0212 30.5498 75.9917 30.3399 75.9899C29.6707 75.9899 29.2924 76.226 28.9781 76.4981V81.0325H27.7475V74.9736ZM31.497 80.7041V79.7284C31.8879 79.8989 32.5852 80.0818 33.145 80.0818C33.9268 80.0818 34.3052 79.8254 34.3052 79.2766C34.3052 78.7762 33.9268 78.6418 33.195 78.3853C32.3147 78.1305 31.5095 77.6661 31.5095 76.5935C31.5095 75.4114 32.3757 74.8735 33.6469 74.8735C34.2692 74.8735 34.8556 75.008 35.148 75.13V76.1181C34.6861 75.9293 34.1927 75.8296 33.6938 75.8242C33.0121 75.8242 32.6822 76.0681 32.6822 76.509C32.6822 76.9468 32.9871 77.1188 33.7564 77.3628C34.5866 77.6301 35.5138 78.0194 35.5138 79.2031C35.5138 80.3492 34.6351 81.0325 33.3295 81.0325C32.6212 81.0325 31.9254 80.898 31.497 80.7041ZM36.6412 79.3V75.7945H35.7843V74.8782H36.6552L36.8851 73.2677H37.9358V74.8782H39.368V75.7945H37.9358V79.114C37.9358 79.7472 38.1641 80.0177 38.7411 80.0177C39.06 80.0177 39.343 79.9442 39.5338 79.8692V80.8589C39.1831 80.9744 38.8163 81.0335 38.4471 81.034C37.2557 81.034 36.6412 80.565 36.6412 79.3ZM47.3329 78.1664L46.5793 75.9227C46.401 75.4005 46.1884 74.7641 46.1008 74.3904H46.0742C45.9742 74.7641 45.7615 75.4005 45.5848 75.9227L44.7921 78.1664H47.3329ZM45.3831 73.2677H46.8935L49.708 81.034H48.2757L47.6722 79.2265H44.4403L43.8117 81.034H42.4796L45.3831 73.2677ZM54.0297 77.8912C54.0297 76.6842 53.667 75.7742 52.5256 75.7742C52.1112 75.7742 51.7125 75.9243 51.4686 76.1353V79.8973C51.7234 79.9833 52.0752 80.0333 52.4036 80.0333C53.545 80.0333 54.0297 79.1124 54.0297 77.8912ZM50.2427 80.6181V72.4609H51.4686V75.3129C51.6875 75.0643 52.1972 74.7406 52.9024 74.7406C54.6254 74.7406 55.329 76.1228 55.329 77.8287C55.329 79.5846 54.2971 81.0309 52.3786 81.0309C51.578 81.0309 50.7884 80.8433 50.2427 80.6181ZM56.1359 78.8904V74.8735H57.3601V78.6918C57.3601 79.5346 57.615 80.0286 58.5094 80.0286C58.9863 80.0286 59.4272 79.8066 59.7211 79.608V74.8735H60.9564V80.934H59.7321V80.4508C59.4381 80.6854 58.8643 81.0325 58.0809 81.0325C56.6268 81.0325 56.1359 80.1162 56.1359 78.8904ZM67.5093 79.9614C69.5326 79.9614 70.0282 78.6527 70.0282 77.1564C70.0282 75.66 69.5576 74.3138 67.5828 74.3138H66.5274V79.9614H67.5093ZM65.2359 73.2677H67.7329C70.391 73.2677 71.3948 75.1362 71.3948 77.1564C71.3948 79.0639 70.427 81.034 67.6938 81.034H65.2359V73.2677ZM72.4674 72.4609H73.6792V75.2691C74.1515 74.9015 74.7318 74.6999 75.3303 74.6953C76.786 74.6953 77.2879 75.599 77.2879 76.8077V80.7635H76.0527V77.0031C76.0527 76.1744 75.8072 75.685 74.9144 75.685C74.425 75.685 73.9841 75.9039 73.7042 76.0994V80.7635H72.469L72.4674 72.4609ZM81.4861 79.705V78.315C81.397 78.315 81.1687 78.3009 81.0046 78.3009C79.9538 78.3009 79.3831 78.5823 79.3831 79.2531C79.3831 79.8035 79.7631 80.1068 80.3963 80.1068C80.8654 80.1068 81.2579 79.9239 81.4861 79.705ZM81.6519 80.3617C81.3704 80.7057 80.7638 81.034 80.0304 81.034C78.864 81.034 78.0932 80.4008 78.0932 79.3501C78.0932 78.118 79.1689 77.5207 80.8795 77.5207C81.0812 77.5207 81.322 77.5347 81.4861 77.5457V77.0704C81.4861 76.2166 81.1312 75.8633 80.2196 75.8633C79.5739 75.8633 79.0298 76.0462 78.6623 76.2041V75.2034C79.0939 75.033 79.7255 74.8751 80.4479 74.8751C81.9036 74.8751 82.7651 75.4724 82.7651 76.864V79.5705C82.7651 79.9489 82.9418 80.0709 83.2186 80.0709C83.2957 80.0683 83.3726 80.0599 83.4484 80.0458V80.8996C83.2199 80.9949 82.9736 81.0402 82.7261 81.0325C82.1819 81.0325 81.8161 80.776 81.6519 80.3617ZM87.7702 77.8912C87.7702 76.6842 87.4058 75.7742 86.2644 75.7742C85.8516 75.7742 85.4514 75.9243 85.209 76.1353V79.8973C85.4639 79.9833 85.8157 80.0333 86.1425 80.0333C87.2839 80.0333 87.7702 79.1124 87.7702 77.8912ZM83.9816 80.6181V72.4609H85.209V75.3129C85.4279 75.0643 85.9361 74.7406 86.6413 74.7406C88.3643 74.7406 89.0695 76.1228 89.0695 77.8287C89.0695 79.5846 88.0375 81.0309 86.119 81.0309C85.3871 81.0268 84.6624 80.8869 83.9816 80.6181ZM90.0373 81.0309H91.3054V75.0268H90.0389L90.0373 81.0309ZM89.8747 73.2333C89.8759 73.1296 89.8978 73.0271 89.939 72.9319C89.9802 72.8367 90.0399 72.7506 90.1147 72.6787C90.1895 72.6069 90.2779 72.5506 90.3747 72.5132C90.4715 72.4758 90.5747 72.458 90.6784 72.4609C91.1303 72.4609 91.4821 72.8174 91.4821 73.2333C91.478 73.4425 91.391 73.6415 91.2404 73.7866C91.0897 73.9317 90.8876 74.0111 90.6784 74.0073C90.5746 74.0102 90.4712 73.9924 90.3743 73.9549C90.2774 73.9174 90.189 73.861 90.1142 73.7889C90.0394 73.7169 89.9796 73.6306 89.9385 73.5352C89.8974 73.4398 89.8757 73.3372 89.8747 73.2333ZM98.3102 79.9989C99.2296 79.9989 99.7143 79.5643 99.7143 78.7528C99.7143 77.9178 99.2671 77.455 98.3353 77.455H97.0531V79.9989H98.3102ZM98.2727 76.5215C99.1686 76.5215 99.5767 76.1103 99.5767 75.3754C99.5767 74.7391 99.1796 74.3028 98.2852 74.3028H97.0547V76.5215H98.2727ZM95.7632 73.2677H98.4212C100.025 73.2677 100.87 74.0542 100.87 75.2379C100.87 76.1604 100.273 76.7702 99.6143 76.9468V76.9703C100.459 77.1439 101.118 77.7552 101.118 78.7903C101.118 80.1506 100.124 81.034 98.4963 81.034H95.7632V73.2677ZM105.049 79.705V78.315C104.962 78.315 104.733 78.3009 104.569 78.3009C103.517 78.3009 102.948 78.5823 102.948 79.2531C102.948 79.8035 103.328 80.1068 103.961 80.1068C104.43 80.1068 104.821 79.9239 105.049 79.705ZM105.215 80.3617C104.937 80.7057 104.328 81.034 103.595 81.034C102.429 81.034 101.656 80.4008 101.656 79.3501C101.656 78.118 102.734 77.5207 104.443 77.5207C104.646 77.5207 104.885 77.5347 105.049 77.5457V77.0704C105.049 76.2166 104.694 75.8633 103.783 75.8633C103.139 75.8633 102.594 76.0462 102.227 76.2041V75.2034C102.659 75.033 103.29 74.8751 104.011 74.8751C105.467 74.8751 106.328 75.4724 106.328 76.864V79.5705C106.328 79.9489 106.505 80.0709 106.783 80.0709C106.846 80.0709 106.936 80.0584 107.013 80.0458V80.8996C106.784 80.9951 106.537 81.0404 106.289 81.0325C105.747 81.0325 105.378 80.776 105.215 80.3617ZM107.551 74.9736H108.761V75.4583C109.231 75.0843 109.813 74.8784 110.414 74.8735C111.868 74.8735 112.371 75.7914 112.371 77.0188V81.0325H111.136V77.2173C111.136 76.3746 110.891 75.8789 109.998 75.8789C109.507 75.8789 109.068 76.1009 108.788 76.3011V81.0325H107.551V74.9736ZM116.651 80.1787L114.947 77.8866V80.9809H113.707V72.4594H114.945V77.5332L117.068 74.8532H118.429L116.185 77.6082L117.756 79.6628C117.952 79.927 118.11 80.038 118.382 80.038C118.405 80.038 118.429 80.038 118.527 80.0271V80.9793C118.408 81.0132 118.284 81.0301 118.16 81.0293C117.572 81.0293 117.144 80.8542 116.651 80.1787ZM19.9844 73.2677H24.5359V74.3404H21.2993V76.4715H24.1951V77.4816H21.2993V81.034H19.9844V73.2677ZM87.7311 22.3905H104.144C113.494 22.3905 118.548 26.8185 118.548 33.3934C118.548 38.7205 115.295 41.9743 111.762 42.9406V43.0813C116.402 44.1195 119.864 47.3702 119.864 52.9756C119.864 60.8654 113.907 65.503 104.56 65.503H87.7311V22.3905ZM102.898 39.9682C107.191 39.9682 108.991 38.0294 108.991 34.7084C108.991 31.7329 107.123 29.794 102.967 29.794H97.2189V39.9682H102.898ZM103.104 58.0979C107.329 58.0979 109.615 56.1591 109.615 52.3533C109.615 48.4788 107.468 46.4711 103.175 46.4711H97.2189V58.0979H103.104ZM58.4109 22.3905H69.0025L84.7868 65.503H74.4719L71.7044 56.9221H54.8803L51.972 65.503H42.2106L58.4109 22.3905ZM69.2105 49.309L65.6111 38.2358C64.7793 35.6762 63.9491 33.1854 63.4643 31.1794H63.3267C62.7732 33.1182 61.9414 35.745 61.1096 38.2358L57.3726 49.309H69.2105ZM19.9844 22.3905H46.4948V30.2099H29.4909V40.2434H44.6201V47.4406H29.4925V65.5015H19.9844V22.3905ZM30.3087 11.8895H28.9562C28.7775 11.892 28.6003 11.8578 28.4354 11.7889C28.2705 11.7201 28.1215 11.6181 27.9977 11.4892C27.8694 11.3648 27.7679 11.2154 27.6993 11.0503C27.6308 10.8853 27.5966 10.7079 27.599 10.5292V9.68486C27.5957 9.506 27.6294 9.32839 27.698 9.16318C27.7666 8.99797 27.8687 8.84872 27.9977 8.72482C28.1213 8.59557 28.2702 8.49317 28.4351 8.42403C28.6 8.35489 28.7774 8.32049 28.9562 8.32298C29.3268 8.32298 29.6457 8.45745 29.91 8.72482C30.1758 8.98751 30.3087 9.30647 30.3087 9.6833V11.8895ZM28.9562 7.12685C28.2541 7.12685 27.6553 7.37858 27.1581 7.88049C26.9165 8.11373 26.7254 8.39409 26.5965 8.70419C26.4677 9.01429 26.4039 9.34754 26.4091 9.6833V10.5292C26.4091 11.2344 26.6593 11.8379 27.1565 12.3398C27.6553 12.837 28.2541 13.0856 28.9562 13.0856H30.3087C30.2944 13.3934 30.1596 13.6833 29.9334 13.8924C29.8258 13.9997 29.698 14.0845 29.5573 14.1419C29.4167 14.1993 29.266 14.2283 29.1141 14.2271H27.7741C27.6756 14.2271 27.6256 14.2771 27.6256 14.3803V15.2731C27.6256 15.3763 27.6756 15.4294 27.7741 15.4294H29.1141C29.7614 15.4294 30.3196 15.1902 30.7871 14.7149C31.2625 14.2427 31.497 13.6814 31.497 13.0309V9.68486C31.497 8.97812 31.25 8.37615 30.7559 7.88049C30.5238 7.63835 30.2444 7.4465 29.9351 7.31686C29.6258 7.18721 29.2915 7.12254 28.9562 7.12685ZM38.0468 4.44531H37.1681C37.0712 4.44531 37.0242 4.49378 37.0242 4.59073V10.7043C37.0242 11.0186 36.957 11.2437 36.821 11.3782C36.6849 11.508 36.4614 11.5737 36.1471 11.5768H32.7072C32.6181 11.5768 32.5727 11.6284 32.5727 11.7285V12.6041C32.5727 12.6979 32.6212 12.7463 32.7166 12.7463H36.1471C36.785 12.7463 37.2869 12.565 37.6512 12.1991C38.014 11.8395 38.1954 11.3391 38.1954 10.6981V4.59073C38.1954 4.49378 38.1469 4.44531 38.0468 4.44531Z" fill="black"/>
<path d="M34.3097 5.52137C34.2221 5.52137 34.1784 5.5714 34.1784 5.67147V11.2628C34.1784 11.3629 34.2221 11.4129 34.3097 11.4129H35.1134C35.2041 11.4129 35.2494 11.3629 35.2494 11.2628V5.67147C35.2494 5.5714 35.2041 5.52137 35.1134 5.52137H34.3097ZM33.7593 4.713H35.9327C36.0109 4.713 36.0515 4.67547 36.0515 4.5973V4.258C36.0515 4.18295 36.0109 4.14386 35.9327 4.14386H34.6834V3.50592C34.6834 3.40585 34.7209 3.31829 34.7975 3.24949C34.8328 3.21559 34.8745 3.18902 34.9201 3.1713C34.9657 3.15359 35.0144 3.14509 35.0633 3.1463C35.2306 3.1463 35.3448 3.21822 35.4058 3.3652L35.4761 3.52155C35.4918 3.5497 35.5121 3.57003 35.5355 3.5841C35.5514 3.59085 35.5684 3.59456 35.5856 3.59504C35.6017 3.59541 35.6177 3.59221 35.6325 3.58566L35.9608 3.44807C36.0109 3.42461 36.0359 3.39334 36.0359 3.35425C36.0351 3.3359 36.0309 3.31785 36.0234 3.30109L35.9546 3.14473C35.7873 2.76166 35.4902 2.5709 35.0633 2.5709C34.9358 2.56908 34.8092 2.5926 34.6908 2.64011C34.5724 2.68762 34.4647 2.75816 34.3738 2.84765C34.2834 2.93154 34.2116 3.03348 34.1631 3.14688C34.1147 3.26028 34.0905 3.3826 34.0924 3.50592V4.14386H33.7593C33.6796 4.14386 33.6389 4.18295 33.6389 4.258V4.5973C33.6389 4.67547 33.6796 4.713 33.7593 4.713ZM40.4733 4.44563H39.6728C39.5805 4.44563 39.5352 4.49723 39.5352 4.59573V12.6028C39.5352 12.6982 39.5805 12.7467 39.6728 12.7467H40.4733C40.5624 12.7467 40.6062 12.6998 40.6062 12.6028V4.5973C40.6062 4.49723 40.5624 4.44563 40.4733 4.44563ZM49.5217 15.4282H48.7759C48.6821 15.4282 48.6352 15.4735 48.6352 15.5627V16.3538C48.6352 16.4477 48.6821 16.4946 48.7759 16.4946H49.5217C49.6124 16.4946 49.6578 16.4477 49.6578 16.3538V15.5627C49.6578 15.4735 49.6124 15.4282 49.5217 15.4282ZM47.6423 15.4282H46.8949C46.8042 15.4282 46.7605 15.4735 46.7605 15.5627V16.3538C46.7605 16.4477 46.8042 16.4946 46.8949 16.4946H47.6423C47.7314 16.4946 47.7752 16.4477 47.7752 16.3538V15.5627C47.7752 15.4735 47.7314 15.4282 47.6423 15.4282ZM64.5164 14.0913H63.7659C63.6752 14.0913 63.6299 14.1351 63.6299 14.2258V15.017C63.6299 15.1108 63.6752 15.1561 63.7644 15.1561H64.5164C64.6071 15.1561 64.6525 15.1092 64.6525 15.0154V14.2258C64.6525 14.1351 64.6056 14.0913 64.5164 14.0913ZM72.6283 10.8282C72.6283 11.1534 72.5595 11.3832 72.4219 11.5193C72.2874 11.66 72.0607 11.7288 71.7386 11.7335H68.4864V9.80714C68.8476 9.39122 69.3307 9.01284 69.9358 8.67354C70.5409 8.33737 71.0147 8.16694 71.354 8.16694C71.8528 8.16694 72.2077 8.37177 72.4219 8.78143C72.5595 9.04411 72.6283 9.36621 72.6283 9.74772V10.8282ZM71.354 6.96768C70.5675 6.96768 69.6106 7.40548 68.4864 8.28421V4.59886C68.4864 4.49723 68.4363 4.44563 68.3347 4.44563H67.4466C67.3481 4.44563 67.2996 4.49723 67.2996 4.59886V11.7335H65.5203C65.2545 11.7335 65.0825 11.6959 64.9996 11.6178C64.9714 11.5724 64.9577 11.5195 64.9605 11.4661V7.34607C64.9605 7.24756 64.9105 7.19753 64.8088 7.19753H63.9207C63.8269 7.19753 63.78 7.24756 63.78 7.34607V11.3176C63.78 11.4739 63.7487 11.5834 63.6878 11.6459C63.6252 11.7053 63.5267 11.7335 63.386 11.7335H54.2844V9.02535C54.2844 8.45777 54.0858 7.97462 53.6887 7.57122C53.5042 7.3763 53.2812 7.22196 53.0338 7.11804C52.7864 7.01413 52.52 6.96292 52.2517 6.96768C51.692 6.96768 51.2151 7.16938 50.8211 7.57122C50.6283 7.76048 50.476 7.98701 50.3736 8.23701C50.2712 8.487 50.2208 8.75523 50.2253 9.02535V13.1594H46.945C46.7591 13.1608 46.5749 13.1246 46.4035 13.0528C46.232 12.9811 46.0769 12.8753 45.9474 12.742C45.8143 12.6104 45.7092 12.4532 45.6385 12.2798C45.5678 12.1065 45.533 11.9206 45.5362 11.7335C45.5362 11.4551 45.6081 11.1972 45.7535 10.9595C45.8896 10.7263 46.0907 10.5378 46.332 10.4169L46.7292 10.209C46.7917 10.1808 46.8214 10.1417 46.8214 10.0933C46.8196 10.0644 46.8104 10.0364 46.7949 10.012L46.393 9.21141C46.3848 9.19322 46.3729 9.1769 46.3581 9.16346C46.3433 9.15002 46.3259 9.13973 46.307 9.13323C46.2887 9.12483 46.2685 9.12141 46.2485 9.12333C46.2284 9.12526 46.2092 9.13245 46.1929 9.14418L45.7957 9.34744C45.3579 9.57573 45.0077 9.90408 44.745 10.3356C44.4884 10.7566 44.3531 11.2404 44.3541 11.7335C44.3541 12.4605 44.609 13.0813 45.1124 13.5926C45.3443 13.8359 45.6237 14.0291 45.9333 14.1601C46.2428 14.2911 46.576 14.3571 46.9121 14.354H50.8164C50.8943 14.3553 50.9716 14.3404 51.0435 14.3103C51.1154 14.2801 51.1802 14.2354 51.2339 14.1789C51.2895 14.1238 51.3335 14.058 51.3631 13.9854C51.3926 13.9129 51.4072 13.8351 51.4058 13.7567V9.02535C51.4036 8.912 51.4247 8.7994 51.4677 8.69451C51.5107 8.58962 51.5748 8.49468 51.656 8.41555C51.7325 8.33462 51.8249 8.27045 51.9274 8.22712C52.03 8.18378 52.1404 8.16223 52.2517 8.16382C52.364 8.16193 52.4755 8.18332 52.5791 8.22665C52.6827 8.26998 52.7762 8.33429 52.8537 8.41555C52.9349 8.49468 52.999 8.58962 53.042 8.69451C53.0851 8.7994 53.1061 8.912 53.1039 9.02535V12.3308C53.1039 12.4996 53.1617 12.6403 53.2759 12.7529C53.3295 12.8095 53.3943 12.8543 53.4662 12.8844C53.5381 12.9146 53.6154 12.9294 53.6934 12.928H63.3797C63.8238 12.928 64.1881 12.7983 64.4695 12.5387C64.776 12.7983 65.1982 12.9296 65.736 12.9296H71.7402C72.3906 12.9296 72.8972 12.742 73.2631 12.3698C73.6274 12.0008 73.8104 11.4864 73.8104 10.8282V9.74928C73.8104 8.91902 73.5852 8.24825 73.1333 7.7354C72.6814 7.22411 72.0889 6.96924 71.3555 6.96924L71.354 6.96768Z" fill="black"/>
<path d="M70.4599 6.05004H71.2057C71.2995 6.05004 71.3464 6.00469 71.3464 5.91401V5.12284C71.3464 5.02902 71.2995 4.98368 71.2057 4.98368H70.4599C70.3692 4.98368 70.3239 5.03059 70.3239 5.1244V5.91401C70.3239 6.00469 70.3708 6.05004 70.4599 6.05004ZM78.7594 11.89H77.4116C77.2341 11.8923 77.058 11.8579 76.8945 11.789C76.7309 11.7201 76.5833 11.6183 76.4609 11.4897C76.3333 11.3649 76.2325 11.2154 76.1645 11.0504C76.0965 10.8853 76.0627 10.7082 76.0653 10.5297V9.68536C76.0653 9.30697 76.1966 8.988 76.4609 8.72532C76.583 8.59635 76.7306 8.49407 76.8942 8.42492C77.0578 8.35576 77.2339 8.32122 77.4116 8.32348C77.7837 8.32348 78.1011 8.45795 78.3606 8.72532C78.6264 8.988 78.7578 9.30697 78.7578 9.68379L78.7594 11.89ZM88.1205 7.3525H87.2308C87.1339 7.3525 87.0838 7.40253 87.0838 7.50104V11.4725C87.0838 11.6304 87.0526 11.7399 86.9916 11.8009C86.9353 11.8603 86.8243 11.89 86.6664 11.89H79.9477V9.68536C79.9477 8.97862 79.6975 8.37664 79.2034 7.88099C78.7062 7.37908 78.1089 7.12734 77.4116 7.12734C76.7126 7.12734 76.1169 7.37908 75.6244 7.88099C75.3841 8.11497 75.1941 8.39556 75.0662 8.70557C74.9382 9.01557 74.8749 9.34845 74.8801 9.68379V10.5297C74.8801 11.2349 75.1303 11.8384 75.6244 12.3403C76.1169 12.8375 76.7126 13.0861 77.4116 13.0861H78.7578C78.7429 13.3925 78.6108 13.6813 78.3888 13.8929C78.1721 14.1076 77.8792 14.2279 77.5742 14.2275H76.2342C76.1357 14.2275 76.0872 14.2776 76.0872 14.3808V15.2736C76.0872 15.3768 76.1357 15.4299 76.2342 15.4299H77.5742C77.8809 15.4318 78.1849 15.3713 78.4676 15.2523C78.7504 15.1332 79.006 14.958 79.219 14.7373C79.4435 14.5238 79.6235 14.268 79.7485 13.9846C79.8736 13.7012 79.9413 13.3958 79.9477 13.0861H86.6679C87.1526 13.0861 87.5435 12.9407 87.8359 12.6515C88.1252 12.3528 88.269 11.9588 88.269 11.4725V7.50104C88.269 7.40253 88.219 7.3525 88.1205 7.3525ZM87.2809 14.0915H86.5335C86.4396 14.0915 86.3927 14.1353 86.3927 14.226V15.0172C86.3927 15.111 86.4396 15.1563 86.5335 15.1563H87.2809C87.37 15.1563 87.4153 15.1094 87.4153 15.0156V14.226C87.4153 14.1353 87.37 14.0915 87.2809 14.0915ZM91.3634 3.07142H90.1187V2.43348C90.1187 2.33185 90.1547 2.24585 90.2282 2.17549C90.2633 2.14124 90.3049 2.11433 90.3506 2.09634C90.3962 2.07836 90.445 2.06965 90.494 2.07073C90.6582 2.07073 90.7723 2.14266 90.8333 2.2912L90.9037 2.44912C90.9271 2.49915 90.96 2.52261 91.0037 2.52261C91.0224 2.52274 91.0409 2.51956 91.0585 2.51323L91.3915 2.38188C91.4196 2.37094 91.44 2.34905 91.4525 2.31309C91.4583 2.29974 91.4615 2.28541 91.4619 2.27087C91.4616 2.25631 91.4584 2.24196 91.4525 2.22865L91.3868 2.0723C91.2179 1.69235 90.9209 1.50315 90.4956 1.50315C90.3686 1.5004 90.2423 1.52304 90.1241 1.56976C90.006 1.61648 89.8984 1.68633 89.8076 1.77522C89.7167 1.85852 89.6443 1.96007 89.5953 2.07322C89.5462 2.18638 89.5216 2.3086 89.523 2.43192V3.07142H89.19C89.1087 3.07142 89.0696 3.10895 89.0696 3.18713V3.52955C89.0696 3.60617 89.1087 3.64526 89.19 3.64526H91.3634C91.4415 3.64526 91.4791 3.60617 91.4791 3.52955V3.18713C91.4791 3.10895 91.44 3.07142 91.3634 3.07142ZM90.544 4.44581H89.7466C89.6528 4.44581 89.6059 4.49428 89.6059 4.59122V12.603C89.6059 12.6984 89.6528 12.7468 89.7466 12.7468H90.544C90.6332 12.7468 90.6769 12.6999 90.6769 12.603V4.59122C90.6769 4.49428 90.6332 4.44581 90.544 4.44581ZM97.4895 8.73314H99.6659C99.741 8.73314 99.7785 8.69405 99.7785 8.61743V8.27345C99.7785 8.19527 99.741 8.15774 99.6659 8.15774H98.4182V7.52449C98.4176 7.47556 98.427 7.42703 98.4459 7.38186C98.4647 7.3367 98.4925 7.29585 98.5277 7.26181C98.5629 7.2277 98.6045 7.20088 98.6501 7.18291C98.6957 7.16493 98.7445 7.15614 98.7935 7.15705C98.9655 7.15705 99.078 7.23054 99.1375 7.37595L99.2078 7.54013C99.2297 7.58391 99.2641 7.60736 99.311 7.60736C99.3313 7.60669 99.3513 7.603 99.3704 7.59642L99.6988 7.46508C99.7239 7.45055 99.7441 7.42874 99.7566 7.40253C99.7609 7.38941 99.763 7.37568 99.7629 7.36188C99.7632 7.34602 99.7611 7.3302 99.7566 7.31497L99.6863 7.15861C99.519 6.7771 99.2219 6.58947 98.795 6.58947C98.6684 6.58672 98.5425 6.60922 98.4246 6.65566C98.3068 6.70211 98.1993 6.77156 98.1086 6.85997C98.0183 6.94523 97.9466 7.04831 97.8982 7.1627C97.8497 7.27708 97.8256 7.40028 97.8272 7.52449V8.15618H97.4895C97.4097 8.15618 97.3691 8.19527 97.3691 8.27188V8.61587C97.3691 8.69405 97.4097 8.73314 97.4895 8.73314ZM113.305 6.04535H114.059C114.146 6.04535 114.192 6 114.192 5.91088V5.11658C114.192 5.02746 114.146 4.98211 114.059 4.98211H113.305C113.214 4.98211 113.171 5.02746 113.171 5.11658V5.90932C113.171 5.99844 113.214 6.04535 113.305 6.04535Z" fill="black"/>
<path d="M118.38 7.14092H117.492C117.395 7.14092 117.347 7.18783 117.347 7.28633V11.1703C117.347 11.3251 117.316 11.4314 117.253 11.4924C117.195 11.5486 117.089 11.5784 116.929 11.5784H114.715C114.462 11.5784 114.299 11.5393 114.227 11.4611C114.196 11.4314 114.179 11.3813 114.179 11.3094V7.28008C114.179 7.18001 114.129 7.12998 114.034 7.12998H113.144C113.049 7.12998 112.998 7.18001 112.998 7.28008V11.1593C112.998 11.3204 112.969 11.4283 112.912 11.4814C112.85 11.5424 112.75 11.5752 112.609 11.5784H102.865C102.609 11.5784 102.443 11.5393 102.372 11.4611C102.343 11.4392 102.329 11.3892 102.329 11.3094V4.59073C102.329 4.49691 102.28 4.44531 102.182 4.44531H101.295C101.193 4.44531 101.142 4.49535 101.142 4.59073V11.1593C101.142 11.3251 101.115 11.4329 101.056 11.4877C100.993 11.5486 100.892 11.5784 100.748 11.5784H97.0078C96.8236 11.5797 96.641 11.5445 96.4705 11.4747C96.3001 11.405 96.1452 11.302 96.0149 11.1718C95.883 11.0436 95.7787 10.8899 95.7082 10.72C95.6378 10.55 95.6027 10.3676 95.6052 10.1836C95.6046 9.91612 95.6794 9.65383 95.821 9.42687C95.9605 9.1992 96.1609 9.01507 96.3995 8.89525L96.7967 8.69199C96.8545 8.66228 96.8827 8.62476 96.8827 8.57785C96.8818 8.55061 96.8748 8.52391 96.8624 8.49967L96.4605 7.71475C96.452 7.69709 96.44 7.68134 96.4252 7.66844C96.4104 7.65554 96.3932 7.64576 96.3745 7.6397C96.359 7.63184 96.3418 7.62807 96.3245 7.62876C96.3015 7.62985 96.2793 7.63744 96.2604 7.65065L95.8601 7.84922C95.4223 8.06969 95.0752 8.39178 94.8141 8.81395C94.5561 9.23611 94.4247 9.69268 94.4247 10.1836C94.4247 10.8951 94.678 11.5002 95.1815 12.0021C95.6881 12.4993 96.2963 12.7463 97.0078 12.7463H100.731C101.183 12.7463 101.552 12.6197 101.836 12.3617C102.143 12.6197 102.568 12.7463 103.109 12.7463H112.587C113.039 12.7463 113.407 12.6197 113.691 12.3617C113.998 12.6197 114.421 12.7463 114.958 12.7463H116.931C117.414 12.7463 117.803 12.6056 118.094 12.3242C118.383 12.0302 118.527 11.6456 118.527 11.1703V7.28633C118.527 7.18939 118.479 7.14092 118.38 7.14092ZM24.9237 4.44531H24.0559C23.9574 4.44531 23.9074 4.49535 23.9074 4.59385V12.2726C23.9108 12.4594 23.8766 12.6449 23.8067 12.8182C23.7369 12.9915 23.6328 13.1489 23.5009 13.2811C23.3763 13.4138 23.2255 13.5191 23.0581 13.5904C22.8907 13.6618 22.7103 13.6975 22.5283 13.6954C22.3461 13.6977 22.1654 13.6621 21.9977 13.5907C21.83 13.5194 21.6789 13.414 21.5542 13.2811C21.4214 13.1493 21.3167 12.992 21.2463 12.8187C21.1759 12.6454 21.1413 12.4596 21.1445 12.2726V9.44251C21.1445 9.34087 21.0976 9.28928 21.007 9.28928H20.1329C20.0328 9.28928 19.9844 9.34087 19.9844 9.44407V12.2741C19.9844 12.995 20.2314 13.6126 20.7302 14.1223C21.2259 14.6336 21.8247 14.8884 22.5283 14.8884C23.2272 14.8884 23.8261 14.6336 24.3264 14.1223C24.8236 13.6126 25.0723 12.9965 25.0723 12.2726V4.59542C25.0723 4.49535 25.0222 4.44531 24.9237 4.44531ZM117.538 14.091H116.792C116.698 14.091 116.651 14.1348 116.651 14.2255V15.0167C116.651 15.1105 116.698 15.1558 116.792 15.1558H117.538C117.627 15.1558 117.674 15.1089 117.674 15.0151V14.2255C117.674 14.1348 117.627 14.091 117.538 14.091Z" fill="black"/>
</g>
</g>
</g>
<defs>
<clipPath id="clip0_209_8668">
<rect width="176" height="81" fill="white"/>
</clipPath>
<clipPath id="clip1_209_8668">
<rect width="136.031" height="81.306" fill="white" transform="translate(19.9844 -0.152832)"/>
</clipPath>
</defs>
</svg>
