<svg width="174" height="47" viewBox="0 0 174 47" fill="none" xmlns="http://www.w3.org/2000/svg">
<g clip-path="url(#clip0_76_6774)">
<path d="M173.356 45.6548H0.644531V0.745117H173.356V45.6548Z" fill="white"/>
<path d="M170.684 43.0436H32.853V3.4707H170.684V43.0436Z" fill="#001E5E"/>
<path d="M69.7544 19.6222H72.6342V30.6851H69.7544V19.6222ZM69.7544 14.856H72.6342V17.6015H69.7544V14.856Z" fill="white"/>
<path d="M41.4658 15.6348H50.3135V17.9977H44.4732V21.6898H49.8167V24.0528H44.4732V28.2618H50.3538V30.6248H41.4658V15.6348Z" fill="white"/>
<path d="M51.8374 19.5617H54.5226V21.1125H54.5713C55.4709 19.7565 56.7799 19.3066 57.854 19.3066C59.4047 19.3066 60.4989 19.884 61.1232 21.2601C61.7878 19.931 63.2244 19.3066 64.5804 19.3066C67.3058 19.3066 68.0778 21.1796 68.0778 23.6432V30.6247H65.198V24.0326C65.198 22.9988 65.198 21.5421 63.5466 21.5421C61.6334 21.5421 61.3984 23.8178 61.3984 25.2544V30.6247H58.5185V24.0326C58.5185 22.9988 58.5186 21.5421 56.8672 21.5421C54.954 21.5421 54.719 23.8178 54.719 25.2544V30.6247H51.8391L51.8374 19.5617Z" fill="white"/>
<path d="M74.2183 19.5617H76.776V22.0791H76.815C76.9495 21.0453 78.1307 19.3066 79.8492 19.3066C80.1245 19.3066 80.4266 19.3066 80.7286 19.3938V22.2939C80.467 22.1395 79.9566 22.0591 79.4397 22.0591C77.0969 22.0591 77.0969 24.9793 77.0969 26.5636V30.6249H74.217L74.2183 19.5617Z" fill="white"/>
<path d="M85.1875 28.7786C86.0669 28.7786 86.7583 28.3957 87.2081 27.7918C87.6782 27.1675 87.8055 26.3754 87.8055 25.5095H86.5637C85.2747 25.5095 83.3615 25.7243 83.3615 27.4293C83.3615 28.3691 84.1604 28.7786 85.1875 28.7786ZM81.8175 20.1458C82.9319 19.6289 84.4357 19.3066 85.6574 19.3066C89.034 19.3066 90.4303 20.7029 90.4303 23.9654V25.3819C90.4303 26.503 90.4498 27.3421 90.4693 28.1543C90.4887 28.9935 90.5365 29.7655 90.5969 30.6247H88.0661C87.9585 30.0474 87.9585 29.3157 87.9385 28.9733H87.8898C87.2252 30.1951 85.7818 30.8865 84.4729 30.8865C82.5194 30.8865 80.6062 29.7051 80.6062 27.5972C80.6062 25.9458 81.4051 24.9791 82.4993 24.4421C83.5935 23.905 85.0099 23.7977 86.2182 23.7977H87.8025C87.8025 22.012 87.0104 21.4078 85.312 21.4078C84.0902 21.4078 82.8618 21.8847 81.8951 22.6161L81.8175 20.1458Z" fill="white"/>
<path d="M92.7059 21.6696H90.5779V19.5617H92.7059V17.3532L95.5858 16.4268V19.5617H98.1434V21.6696H95.5858V26.8251C95.5858 27.765 95.8411 28.651 96.9352 28.651C97.4521 28.651 97.9488 28.5434 98.2441 28.349L98.3313 30.6247C97.7271 30.7991 97.0692 30.8863 96.21 30.8863C93.9544 30.8863 92.7058 29.4833 92.7058 27.2948L92.7059 21.6696Z" fill="white"/>
<path d="M105.977 24.0124C105.897 22.6161 105.252 21.4145 103.641 21.4145C102.03 21.4145 101.211 22.5289 101.084 24.0124H105.977ZM107.911 30.0004C106.857 30.5845 105.662 30.8865 104.111 30.8865C100.459 30.8865 98.3313 28.7787 98.3313 25.1469C98.3313 21.9516 100.03 19.3066 103.467 19.3066C107.568 19.3066 108.73 22.1194 108.73 25.9861H101.084C101.211 27.765 102.46 28.7786 104.239 28.7786C105.635 28.7786 106.837 28.2618 107.911 27.6643V30.0004Z" fill="white"/>
<path d="M116.483 21.8844C115.604 21.5824 114.959 21.4143 113.905 21.4143C113.133 21.4143 112.214 21.6895 112.214 22.6361C112.214 24.3949 117.215 23.2805 117.215 27.2747C117.215 29.8525 114.912 30.8863 112.576 30.8863C111.475 30.8863 110.361 30.6914 109.307 30.4098L109.481 28.0469C110.388 28.4965 111.327 28.7786 112.314 28.7786C113.046 28.7786 114.207 28.4966 114.207 27.4293C114.207 25.2543 109.199 26.7379 109.199 22.7437C109.199 20.3606 111.287 19.3066 113.543 19.3066C114.892 19.3066 115.778 19.5214 116.678 19.7163L116.483 21.8844Z" fill="white"/>
<path d="M123.069 15.6348H126.761L132.473 26.8454H132.522V15.6348H135.395V30.6248H131.723L125.99 19.4142H125.942V30.6248H123.069V15.6348Z" fill="white"/>
<path d="M140.757 28.2618H142.174C143.57 28.2618 145.268 27.9194 145.268 26.1809C145.268 24.2274 143.678 23.9253 142.174 23.9253H140.757V28.2618ZM140.757 21.6898H141.979C143.248 21.6898 144.812 21.4146 144.812 19.8639C144.812 18.1252 143.288 17.9977 141.919 17.9977H140.757V21.6898ZM137.75 15.6348H142.986C144.919 15.6348 147.819 16.1919 147.819 19.4813C147.819 21.2602 146.625 22.5089 144.839 22.8311V22.87C146.88 23.0649 148.276 24.4409 148.276 26.2869C148.276 30.0663 144.879 30.6235 142.986 30.6235H137.75V15.6348Z" fill="white"/>
<path d="M152.921 28.2618H154.6C157.11 28.2618 159.54 26.3956 159.54 23.1331C159.54 19.8639 157.11 17.9977 154.6 17.9977H152.921V28.2618ZM149.914 15.6348H154.022C158.614 15.6348 162.675 17.1854 162.675 23.1331C162.675 29.0808 158.614 30.6248 154.022 30.6248H149.914V15.6348Z" fill="white"/>
<path d="M30.1813 42.9831H3.30933V3.41016H30.1813V42.9831Z" fill="#001E5E"/>
<path d="M14.3789 27.4964C14.7345 17.7022 20.0178 9.03572 27.9525 3.40356H22.6829C16.2519 8.98871 11.9354 16.8295 11.7542 25.5429C11.6134 32.4506 12.9424 37.7001 16.6076 42.9966H17.9503C15.0838 38.123 14.1775 33.0077 14.3789 27.4964Z" fill="white"/>
<path d="M15.2519 42.9898C12.0766 39.6199 8.24351 33.2762 7.79378 26.4222C7.24331 18.0377 10.0158 9.87474 15.6076 3.41016H19.9375C13.097 10.197 9.6264 19.1856 10.4185 28.1206C10.9287 33.8266 13.1708 38.0491 16.6146 42.9898H15.2519Z" fill="#FDB811"/>
<path d="M16.7151 34.7329C19.6017 31.7457 22.2936 27.4292 23.1394 23.1195C24.3276 17.0846 22.7633 12.0968 22.6629 11.7545C22.5889 11.506 22.549 11.3448 22.5889 11.3248C22.6693 11.2761 23.2803 12.3654 23.6966 13.2247C24.4954 14.8895 25.3547 17.5813 25.3144 20.676C25.254 24.5159 23.8845 28.3355 21.4007 31.2825C20.5415 32.3028 19.5547 33.2091 18.4403 33.9676C17.7153 34.4577 16.4667 35.1357 16.4264 35.0685C16.3972 35.0296 16.5402 34.9142 16.7151 34.7329Z" fill="white"/>
<path d="M16.6146 34.8201C18.5546 32.5847 20.3 29.4229 20.7229 26.3483C21.3203 22.0319 19.9979 18.5748 19.9107 18.3331C19.8434 18.1655 19.8098 18.051 19.8366 18.0378C19.897 17.9989 20.3804 18.7427 20.7093 19.3334C21.347 20.4747 22.0787 22.3409 22.1727 24.5293C22.2867 27.2413 21.4746 30.0003 19.8232 32.1821C19.2459 32.9406 18.5812 33.6254 17.816 34.2094C17.3192 34.5855 16.46 35.1156 16.4264 35.0686C16.3972 35.0345 16.5006 34.9546 16.6146 34.8201Z" fill="#FDB811"/>
</g>
<defs>
<clipPath id="clip0_76_6774">
<rect width="174" height="46.4" fill="white"/>
</clipPath>
</defs>
</svg>
