<svg width="235" height="108" viewBox="0 0 235 108" fill="none" xmlns="http://www.w3.org/2000/svg">
<g clip-path="url(#clip0_2430_2449)">
<g clip-path="url(#clip1_2430_2449)">
<mask id="mask0_2430_2449" style="mask-type:luminance" maskUnits="userSpaceOnUse" x="26" y="-1" width="183" height="110">
<path d="M26.646 -0.204102H208.021V108.204H26.646V-0.204102Z" fill="white"/>
</mask>
<g mask="url(#mask0_2430_2449)">
<path d="M208.025 2.00355L156.969 29.9207H177.415C172.227 41.0083 170.027 53.2593 171.034 65.4591C172.041 77.6589 176.219 89.3836 183.154 99.4707C177.066 63.0519 191.977 27.788 208.025 2.00146V2.00355Z" fill="#DA291C"/>
<path d="M33.6467 108.041H35.3353V100.035H33.6467V108.041ZM33.4298 97.6441C33.4314 97.5058 33.4606 97.3692 33.5155 97.2422C33.5704 97.1153 33.6501 97.0005 33.7498 96.9047C33.8496 96.8088 33.9674 96.7338 34.0964 96.6839C34.2255 96.634 34.3631 96.6104 34.5014 96.6143C35.1018 96.6143 35.5709 97.0896 35.5709 97.6441C35.5654 97.9226 35.4498 98.1876 35.2493 98.381C35.0489 98.5745 34.7799 98.6806 34.5014 98.6761C34.363 98.68 34.2251 98.6562 34.096 98.6062C33.9668 98.5563 33.8489 98.481 33.7491 98.3849C33.6493 98.2889 33.5697 98.1739 33.5149 98.0467C33.4601 97.9195 33.4312 97.7826 33.4298 97.6441ZM36.9969 99.9645H38.6209V100.809C39.1067 100.229 39.755 99.831 40.616 99.831C40.8433 99.831 41.1018 99.8811 41.2811 99.9311V101.436C41.0115 101.361 40.7332 101.322 40.4534 101.32C39.5611 101.32 39.0566 101.634 38.6376 101.997V108.043H36.9969V99.9645ZM41.9962 107.605V106.304C42.5174 106.532 43.4472 106.775 44.1935 106.775C45.2359 106.775 45.7404 106.434 45.7404 105.702C45.7404 105.035 45.2359 104.855 44.2602 104.513C43.0865 104.174 42.0128 103.554 42.0128 102.124C42.0128 100.548 43.1678 99.831 44.8627 99.831C45.6925 99.831 46.4742 100.01 46.8641 100.173V101.491C46.2483 101.239 45.5905 101.106 44.9253 101.099C44.0163 101.099 43.5764 101.424 43.5764 102.012C43.5764 102.595 43.9829 102.825 45.0087 103.15C46.1157 103.507 47.3519 104.026 47.3519 105.604C47.3519 107.132 46.1803 108.043 44.4395 108.043C43.4951 108.043 42.5674 107.864 41.9962 107.605ZM48.8551 105.733V101.059H47.7126V99.8373H48.8738L49.1803 97.69H50.5812V99.8373H52.4909V101.059H50.5812V105.485C50.5812 106.329 50.8856 106.69 51.6549 106.69C52.0802 106.69 52.4575 106.592 52.7119 106.492V107.812C52.2443 107.966 51.7552 108.044 51.263 108.045C49.6744 108.045 48.8551 107.42 48.8551 105.733ZM63.1107 104.222L62.1059 101.23C61.8682 100.534 61.5847 99.6851 61.4679 99.1869H61.4325C61.299 99.6851 61.0155 100.534 60.7799 101.23L59.723 104.222H63.1107ZM60.511 97.69H62.5249L66.2775 108.045H64.3678L63.5631 105.635H59.2539L58.4158 108.045H56.6396L60.511 97.69ZM72.0398 103.855C72.0398 102.245 71.5561 101.032 70.0342 101.032C69.4818 101.032 68.9502 101.232 68.6249 101.513V106.529C68.9647 106.644 69.4338 106.711 69.8716 106.711C71.3935 106.711 72.0398 105.483 72.0398 103.855ZM66.9905 107.491V96.6143H68.6249V100.417C68.9168 100.085 69.5964 99.6538 70.5367 99.6538C72.8341 99.6538 73.7722 101.497 73.7722 103.771C73.7722 106.112 72.3963 108.041 69.8383 108.041C68.7709 108.041 67.7181 107.791 66.9905 107.491ZM74.848 105.187V99.831H76.4803V104.922C76.4803 106.046 76.8202 106.705 78.0126 106.705C78.6485 106.705 79.2364 106.408 79.6283 106.144V99.831H81.2753V107.912H79.6429V107.267C79.251 107.58 78.4859 108.043 77.4414 108.043C75.5026 108.043 74.848 106.821 74.848 105.187ZM90.0126 106.615C92.7103 106.615 93.3712 104.87 93.3712 102.875C93.3712 100.88 92.7436 99.0847 90.1106 99.0847H88.7034V106.615H90.0126ZM86.9813 97.69H90.3107C93.8548 97.69 95.1932 100.181 95.1932 102.875C95.1932 105.418 93.9028 108.045 90.2586 108.045H86.9813V97.69ZM96.6234 96.6143H98.2391V100.358C98.8689 99.8684 99.6426 99.5995 100.441 99.5934C102.382 99.5934 103.051 100.798 103.051 102.41V107.684H101.404V102.671C101.404 101.566 101.076 100.913 99.8861 100.913C99.2335 100.913 98.6456 101.205 98.2724 101.466V107.684H96.6255L96.6234 96.6143ZM108.648 106.273V104.42C108.53 104.42 108.225 104.401 108.006 104.401C106.605 104.401 105.844 104.776 105.844 105.67C105.844 106.404 106.351 106.809 107.195 106.809C107.821 106.809 108.344 106.565 108.648 106.273ZM108.869 107.149C108.494 107.607 107.685 108.045 106.707 108.045C105.152 108.045 104.124 107.201 104.124 105.8C104.124 104.157 105.559 103.361 107.839 103.361C108.108 103.361 108.429 103.379 108.648 103.394V102.76C108.648 101.622 108.175 101.151 106.96 101.151C106.099 101.151 105.373 101.395 104.883 101.605V100.271C105.459 100.044 106.301 99.8331 107.264 99.8331C109.205 99.8331 110.354 100.63 110.354 102.485V106.094C110.354 106.598 110.589 106.761 110.958 106.761C111.061 106.757 111.164 106.746 111.265 106.727V107.866C110.96 107.993 110.632 108.053 110.302 108.043C109.576 108.043 109.088 107.701 108.869 107.149ZM117.027 103.855C117.027 102.245 116.541 101.032 115.019 101.032C114.469 101.032 113.935 101.232 113.612 101.513V106.529C113.952 106.644 114.421 106.711 114.857 106.711C116.379 106.711 117.027 105.483 117.027 103.855ZM111.976 107.491V96.6143H113.612V100.417C113.904 100.085 114.582 99.6538 115.522 99.6538C117.819 99.6538 118.759 101.497 118.759 103.771C118.759 106.112 117.384 108.041 114.826 108.041C113.85 108.035 112.883 107.849 111.976 107.491ZM120.05 108.041H121.741V100.035H120.052L120.05 108.041ZM119.833 97.6441C119.835 97.5058 119.864 97.3692 119.919 97.2422C119.974 97.1153 120.053 97.0005 120.153 96.9047C120.253 96.8088 120.371 96.7338 120.5 96.6839C120.629 96.634 120.766 96.6104 120.905 96.6143C121.507 96.6143 121.976 97.0896 121.976 97.6441C121.971 97.923 121.855 98.1883 121.654 98.3818C121.453 98.5753 121.184 98.6811 120.905 98.6761C120.766 98.68 120.628 98.6562 120.499 98.6062C120.37 98.5563 120.252 98.481 120.152 98.3849C120.053 98.2889 119.973 98.1739 119.918 98.0467C119.863 97.9195 119.834 97.7826 119.833 97.6441ZM131.08 106.665C132.306 106.665 132.953 106.085 132.953 105.003C132.953 103.89 132.356 103.273 131.114 103.273H129.404V106.665H131.08ZM131.03 102.028C132.225 102.028 132.769 101.48 132.769 100.5C132.769 99.6518 132.24 99.0701 131.047 99.0701H129.406V102.028H131.03ZM127.684 97.69H131.228C133.367 97.69 134.493 98.7386 134.493 100.317C134.493 101.547 133.697 102.36 132.819 102.595V102.627C133.945 102.858 134.825 103.673 134.825 105.053C134.825 106.867 133.499 108.045 131.329 108.045H127.684V97.69ZM140.066 106.273V104.42C139.949 104.42 139.645 104.401 139.426 104.401C138.023 104.401 137.264 104.776 137.264 105.67C137.264 106.404 137.771 106.809 138.615 106.809C139.24 106.809 139.761 106.565 140.066 106.273ZM140.287 107.149C139.916 107.607 139.105 108.045 138.127 108.045C136.572 108.045 135.542 107.201 135.542 105.8C135.542 104.157 136.978 103.361 139.257 103.361C139.528 103.361 139.847 103.379 140.066 103.394V102.76C140.066 101.622 139.593 101.151 138.377 101.151C137.518 101.151 136.793 101.395 136.303 101.605V100.271C136.878 100.044 137.72 99.8331 138.682 99.8331C140.622 99.8331 141.771 100.63 141.771 102.485V106.094C141.771 106.598 142.007 106.761 142.378 106.761C142.461 106.761 142.582 106.744 142.684 106.727V107.866C142.379 107.993 142.05 108.054 141.719 108.043C140.996 108.043 140.504 107.701 140.287 107.149ZM143.401 99.9645H145.015V100.611C145.642 100.112 146.418 99.8375 147.219 99.831C149.158 99.831 149.829 101.055 149.829 102.691V108.043H148.182V102.956C148.182 101.832 147.855 101.172 146.664 101.172C146.01 101.172 145.424 101.468 145.051 101.734V108.043H143.401V99.9645ZM155.535 106.905L153.262 103.848V107.974H151.609V96.6122H153.26V103.377L156.091 99.8039H157.905L154.914 103.477L157.009 106.217C157.269 106.569 157.48 106.717 157.843 106.717C157.874 106.717 157.905 106.717 158.037 106.702V107.972C157.877 108.017 157.712 108.04 157.547 108.039C156.763 108.039 156.192 107.805 155.535 106.905ZM26.646 97.69H32.7148V99.1202H28.3993V101.962H32.2603V103.308H28.3993V108.045H26.646V97.69ZM116.975 29.8537H138.859C151.326 29.8537 158.064 35.7577 158.064 44.5242C158.064 51.627 153.727 55.9654 149.016 57.2538V57.4414C155.203 58.8257 159.819 63.1599 159.819 70.6338C159.819 81.1536 151.876 87.337 139.413 87.337H116.975V29.8537ZM137.197 53.2906C142.922 53.2906 145.322 50.7055 145.322 46.2775C145.322 42.3102 142.83 39.725 137.289 39.725H129.625V53.2906H137.197ZM137.472 77.4636C143.105 77.4636 146.153 74.8784 146.153 69.8041C146.153 64.6381 143.291 61.9612 137.566 61.9612H129.625V77.4636H137.472ZM77.8813 29.8537H92.0035L113.049 87.337H99.2961L95.606 75.8958H73.1739L69.2962 87.337H56.281L77.8813 29.8537ZM92.2808 65.7451L87.4817 50.9807C86.3726 47.568 85.2656 44.2469 84.6193 41.5722H84.4358C83.6978 44.1573 82.5887 47.6597 81.4796 50.9807L76.497 65.7451H92.2808ZM26.646 29.8537H61.9933V40.2796H39.3214V53.6576H59.4936V63.2538H39.3235V87.3349H26.646V29.8537ZM40.4117 15.8523H38.6084C38.3702 15.8557 38.1338 15.81 37.914 15.7182C37.6942 15.6264 37.4955 15.4904 37.3304 15.3186C37.1594 15.1527 37.024 14.9536 36.9326 14.7335C36.8412 14.5134 36.7957 14.2769 36.7988 14.0386V12.9128C36.7944 12.6743 36.8394 12.4375 36.9309 12.2172C37.0224 11.997 37.1584 11.798 37.3304 11.6328C37.4952 11.4604 37.6937 11.3239 37.9136 11.2317C38.1335 11.1395 38.37 11.0937 38.6084 11.097C39.1025 11.097 39.5278 11.2763 39.8801 11.6328C40.2345 11.983 40.4117 12.4083 40.4117 12.9107V15.8523ZM38.6084 9.50214C37.6723 9.50214 36.8739 9.83779 36.2109 10.507C35.8888 10.818 35.634 11.1918 35.4622 11.6053C35.2905 12.0187 35.2054 12.4631 35.2123 12.9107V14.0386C35.2123 14.9788 35.5459 15.7835 36.2088 16.4528C36.8739 17.1157 37.6723 17.4472 38.6084 17.4472H40.4117C40.3928 17.8576 40.213 18.244 39.9114 18.5229C39.7679 18.6659 39.5974 18.779 39.4099 18.8555C39.2224 18.9321 39.0215 18.9707 38.819 18.9691H37.0323C36.901 18.9691 36.8343 19.0358 36.8343 19.1734V20.3638C36.8343 20.5014 36.901 20.5723 37.0323 20.5723H38.819C39.6821 20.5723 40.4263 20.2533 41.0497 19.6195C41.6834 18.9899 41.9962 18.2415 41.9962 17.3742V12.9128C41.9962 11.9705 41.6668 11.1679 41.008 10.507C40.6986 10.1841 40.3261 9.92834 39.9136 9.75548C39.5012 9.58262 39.0556 9.49639 38.6084 9.50214ZM50.7293 5.92676H49.5576C49.4284 5.92676 49.3658 5.99139 49.3658 6.12064V14.2721C49.3658 14.6911 49.2762 14.9913 49.0948 15.1706C48.9134 15.3437 48.6153 15.4312 48.1963 15.4354H43.6098C43.4909 15.4354 43.4305 15.5042 43.4305 15.6376V16.8051C43.4305 16.9302 43.4951 16.9948 43.6223 16.9948H48.1963C49.0469 16.9948 49.7161 16.753 50.2018 16.2651C50.6855 15.7856 50.9273 15.1185 50.9273 14.2638V6.12064C50.9273 5.99139 50.8627 5.92676 50.7293 5.92676Z" fill="black"/>
<path d="M45.7464 7.36183C45.6297 7.36183 45.5713 7.42854 45.5713 7.56196V15.0171C45.5713 15.1505 45.6297 15.2172 45.7464 15.2172H46.818C46.9389 15.2172 46.9994 15.1505 46.9994 15.0171V7.56196C46.9994 7.42854 46.9389 7.36183 46.818 7.36183H45.7464ZM45.0126 6.284H47.9104C48.0146 6.284 48.0689 6.23397 48.0689 6.12973V5.67733C48.0689 5.57726 48.0146 5.52514 47.9104 5.52514H46.2447V4.67456C46.2447 4.54113 46.2947 4.42439 46.3969 4.33266C46.4439 4.28745 46.4995 4.25202 46.5603 4.22841C46.6211 4.20479 46.686 4.19346 46.7513 4.19506C46.9743 4.19506 47.1265 4.29096 47.2078 4.48693L47.3017 4.69541C47.3225 4.73293 47.3496 4.76003 47.3809 4.7788C47.402 4.78779 47.4246 4.79274 47.4476 4.79339C47.4691 4.79388 47.4905 4.78961 47.5101 4.78088L47.9479 4.59742C48.0146 4.56615 48.048 4.52445 48.048 4.47234C48.047 4.44786 48.0414 4.4238 48.0313 4.40145L47.9396 4.19298C47.7165 3.68221 47.3204 3.42787 46.7513 3.42787C46.5812 3.42543 46.4124 3.4568 46.2546 3.52015C46.0967 3.58349 45.9531 3.67755 45.8319 3.79687C45.7114 3.90872 45.6157 4.04465 45.551 4.19584C45.4864 4.34704 45.4542 4.51014 45.4566 4.67456V5.52514H45.0126C44.9063 5.52514 44.8521 5.57726 44.8521 5.67733V6.12973C44.8521 6.23397 44.9063 6.284 45.0126 6.284ZM53.9646 5.9275H52.8972C52.7742 5.9275 52.7137 5.9963 52.7137 6.12764V16.8037C52.7137 16.9309 52.7742 16.9955 52.8972 16.9955H53.9646C54.0834 16.9955 54.1418 16.933 54.1418 16.8037V6.12973C54.1418 5.9963 54.0834 5.9275 53.9646 5.9275ZM66.0291 20.5709H65.0347C64.9096 20.5709 64.8471 20.6314 64.8471 20.7502V21.8051C64.8471 21.9302 64.9096 21.9927 65.0347 21.9927H66.0291C66.1501 21.9927 66.2105 21.9302 66.2105 21.8051V20.7502C66.2105 20.6314 66.1501 20.5709 66.0291 20.5709ZM63.5233 20.5709H62.5267C62.4058 20.5709 62.3474 20.6314 62.3474 20.7502V21.8051C62.3474 21.9302 62.4058 21.9927 62.5267 21.9927H63.5233C63.6421 21.9927 63.7005 21.9302 63.7005 21.8051V20.7502C63.7005 20.6314 63.6421 20.5709 63.5233 20.5709ZM86.0221 18.7884H85.0214C84.9005 18.7884 84.84 18.8468 84.84 18.9677V20.0226C84.84 20.1477 84.9005 20.2082 85.0193 20.2082H86.0221C86.143 20.2082 86.2035 20.1456 86.2035 20.0205V18.9677C86.2035 18.8468 86.1409 18.7884 86.0221 18.7884ZM96.8379 14.4375C96.8379 14.8712 96.7461 15.1776 96.5627 15.359C96.3834 15.5466 96.0811 15.6384 95.6516 15.6446H91.3153V13.0762C91.7969 12.5216 92.4411 12.0171 93.2479 11.5647C94.0547 11.1165 94.6864 10.8893 95.1388 10.8893C95.8038 10.8893 96.2771 11.1624 96.5627 11.7086C96.7461 12.0588 96.8379 12.4883 96.8379 12.997V14.4375ZM95.1388 9.29024C94.0902 9.29024 92.8143 9.87397 91.3153 11.0456V6.13181C91.3153 5.9963 91.2486 5.9275 91.1131 5.9275H89.929C89.7976 5.9275 89.733 5.9963 89.733 6.13181V15.6446H87.3605C87.0061 15.6446 86.7768 15.5946 86.6663 15.4903C86.6286 15.4299 86.6104 15.3593 86.6142 15.2881V9.79475C86.6142 9.66341 86.5475 9.5967 86.4119 9.5967H85.2278C85.1027 9.5967 85.0402 9.66341 85.0402 9.79475V15.0901C85.0402 15.2985 84.9985 15.4445 84.9172 15.5279C84.8338 15.6071 84.7024 15.6446 84.5148 15.6446H72.3794V12.0338C72.3794 11.277 72.1146 10.6328 71.5851 10.095C71.3392 9.83507 71.0418 9.62928 70.7119 9.49072C70.382 9.35217 70.0269 9.28389 69.6692 9.29024C68.9228 9.29024 68.287 9.55917 67.7616 10.095C67.5045 10.3473 67.3016 10.6493 67.165 10.9827C67.0285 11.316 66.9612 11.6736 66.9673 12.0338V17.5459H62.5934C62.3456 17.5478 62.1 17.4994 61.8714 17.4038C61.6428 17.3081 61.436 17.1671 61.2634 16.9893C61.0859 16.8138 60.9458 16.6042 60.8515 16.3731C60.7573 16.142 60.7109 15.8942 60.7151 15.6446C60.7151 15.2735 60.811 14.9295 61.0049 14.6127C61.1864 14.3018 61.4544 14.0504 61.7762 13.8892L62.3057 13.612C62.3891 13.5744 62.4287 13.5223 62.4287 13.4577C62.4263 13.4191 62.4141 13.3819 62.3933 13.3493L61.8575 12.2819C61.8465 12.2576 61.8306 12.2359 61.8109 12.2179C61.7912 12.2 61.7681 12.1863 61.7429 12.1776C61.7185 12.1664 61.6915 12.1619 61.6648 12.1644C61.6381 12.167 61.6125 12.1766 61.5907 12.1922L61.0611 12.4633C60.4774 12.7676 60.0104 13.2054 59.6602 13.7808C59.318 14.3422 59.1376 14.9872 59.139 15.6446C59.139 16.614 59.4788 17.4417 60.1501 18.1234C60.4592 18.4479 60.8317 18.7055 61.2445 18.8801C61.6573 19.0548 62.1015 19.1428 62.5497 19.1387H67.7553C67.8592 19.1404 67.9623 19.1206 68.0582 19.0804C68.154 19.0402 68.2404 18.9805 68.312 18.9052C68.3862 18.8317 68.4448 18.744 68.4842 18.6472C68.5237 18.5505 68.5431 18.4468 68.5413 18.3423V12.0338C68.5383 11.8827 68.5664 11.7325 68.6238 11.5927C68.6811 11.4528 68.7666 11.3262 68.8749 11.2207C68.9768 11.1128 69.1 11.0273 69.2368 10.9695C69.3735 10.9117 69.5207 10.883 69.6692 10.8851C69.8189 10.8826 69.9675 10.9111 70.1056 10.9689C70.2438 11.0266 70.3684 11.1124 70.4718 11.2207C70.58 11.3262 70.6655 11.4528 70.7229 11.5927C70.7803 11.7325 70.8083 11.8827 70.8054 12.0338V16.441C70.8054 16.6662 70.8825 16.8538 71.0347 17.0039C71.1062 17.0793 71.1926 17.139 71.2884 17.1792C71.3842 17.2194 71.4874 17.2392 71.5913 17.2374H84.5065C85.0985 17.2374 85.5843 17.0643 85.9596 16.7183C86.3682 17.0643 86.9311 17.2395 87.6482 17.2395H95.6537C96.521 17.2395 97.1965 16.9893 97.6843 16.4931C98.1701 16.0011 98.414 15.3152 98.414 14.4375V12.999C98.414 11.892 98.1138 10.9977 97.5113 10.3139C96.9088 9.63214 96.1186 9.29232 95.1409 9.29232L95.1388 9.29024Z" fill="black"/>
<path d="M93.9465 8.06623H94.9409C95.066 8.06623 95.1286 8.00577 95.1286 7.88485V6.82996C95.1286 6.70487 95.066 6.64442 94.9409 6.64442H93.9465C93.8256 6.64442 93.7651 6.70696 93.7651 6.83204V7.88485C93.7651 8.00577 93.8277 8.06623 93.9465 8.06623ZM105.012 15.8528H103.215C102.979 15.8559 102.744 15.81 102.526 15.7182C102.308 15.6264 102.111 15.4905 101.948 15.3191C101.778 15.1527 101.643 14.9534 101.553 14.7333C101.462 14.5133 101.417 14.2771 101.42 14.0391V12.9133C101.42 12.4088 101.596 11.9835 101.948 11.6333C102.111 11.4613 102.307 11.3249 102.526 11.2327C102.744 11.1405 102.979 11.0945 103.215 11.0975C103.712 11.0975 104.135 11.2768 104.481 11.6333C104.835 11.9835 105.01 12.4088 105.01 12.9112L105.012 15.8528ZM117.494 9.80284H116.308C116.179 9.80284 116.112 9.86956 116.112 10.0009V15.2962C116.112 15.5068 116.07 15.6527 115.989 15.734C115.914 15.8132 115.766 15.8528 115.555 15.8528H106.597V12.9133C106.597 11.971 106.263 11.1684 105.605 10.5075C104.942 9.83828 104.145 9.50264 103.215 9.50264C102.284 9.50264 101.489 9.83828 100.833 10.5075C100.512 10.8195 100.259 11.1936 100.088 11.6069C99.9176 12.0203 99.8332 12.4641 99.8402 12.9112V14.0391C99.8402 14.9793 100.174 15.784 100.833 16.4533C101.489 17.1162 102.284 17.4477 103.215 17.4477H105.01C104.991 17.8561 104.814 18.2413 104.518 18.5234C104.229 18.8097 103.839 18.9701 103.432 18.9696H101.646C101.514 18.9696 101.45 19.0363 101.45 19.1739V20.3643C101.45 20.5019 101.514 20.5728 101.646 20.5728H103.432C103.841 20.5752 104.247 20.4946 104.624 20.3359C105 20.1771 105.341 19.9435 105.625 19.6492C105.925 19.3646 106.165 19.0235 106.331 18.6456C106.498 18.2678 106.588 17.8606 106.597 17.4477H115.557C116.204 17.4477 116.725 17.2538 117.115 16.8681C117.5 16.4699 117.692 15.9446 117.692 15.2962V10.0009C117.692 9.86956 117.625 9.80284 117.494 9.80284ZM116.374 18.7882H115.378C115.253 18.7882 115.19 18.8466 115.19 18.9675V20.0224C115.19 20.1475 115.253 20.2079 115.378 20.2079H116.374C116.493 20.2079 116.554 20.1454 116.554 20.0203V18.9675C116.554 18.8466 116.493 18.7882 116.374 18.7882ZM121.818 4.09474H120.158V3.24416C120.158 3.10865 120.206 2.99398 120.304 2.90017C120.351 2.8545 120.407 2.81862 120.467 2.79464C120.528 2.77065 120.593 2.75904 120.659 2.76049C120.878 2.76049 121.03 2.85639 121.111 3.05444L121.205 3.265C121.236 3.33172 121.28 3.36299 121.338 3.36299C121.363 3.36316 121.388 3.35893 121.411 3.35048L121.855 3.17536C121.893 3.16076 121.92 3.13158 121.937 3.08363C121.944 3.06583 121.949 3.04673 121.949 3.02734C121.949 3.00793 121.945 2.98879 121.937 2.97105L121.849 2.76257C121.624 2.25597 121.228 2.00372 120.661 2.00372C120.491 2.00004 120.323 2.03024 120.166 2.09253C120.008 2.15482 119.864 2.24796 119.743 2.36647C119.622 2.47754 119.526 2.61294 119.46 2.76381C119.395 2.91469 119.362 3.07765 119.364 3.24207V4.09474H118.92C118.812 4.09474 118.759 4.14478 118.759 4.24901V4.70558C118.759 4.80773 118.812 4.85985 118.92 4.85985H121.818C121.922 4.85985 121.972 4.80773 121.972 4.70558V4.24901C121.972 4.14478 121.92 4.09474 121.818 4.09474ZM120.725 5.92725H119.662C119.537 5.92725 119.475 5.99188 119.475 6.12114V16.8035C119.475 16.9307 119.537 16.9953 119.662 16.9953H120.725C120.844 16.9953 120.903 16.9328 120.903 16.8035V6.12114C120.903 5.99188 120.844 5.92725 120.725 5.92725ZM129.986 11.6437H132.888C132.988 11.6437 133.038 11.5916 133.038 11.4894V11.0308C133.038 10.9265 132.988 10.8765 132.888 10.8765H131.224V10.0322C131.224 9.96693 131.236 9.90222 131.261 9.842C131.286 9.78177 131.323 9.72731 131.37 9.68193C131.417 9.63644 131.473 9.60069 131.533 9.57672C131.594 9.55275 131.659 9.54103 131.725 9.54225C131.954 9.54225 132.104 9.64023 132.183 9.83411L132.277 10.053C132.306 10.1114 132.352 10.1427 132.415 10.1427C132.442 10.1418 132.468 10.1368 132.494 10.1281L132.932 9.95295C132.965 9.93358 132.992 9.9045 133.009 9.86955C133.015 9.85205 133.017 9.83375 133.017 9.81535C133.018 9.7942 133.015 9.77311 133.009 9.75281L132.915 9.54433C132.692 9.03565 132.296 8.78547 131.727 8.78547C131.558 8.7818 131.39 8.81181 131.233 8.87373C131.076 8.93565 130.932 9.02826 130.812 9.14614C130.691 9.25982 130.595 9.39726 130.531 9.54977C130.466 9.70229 130.434 9.86655 130.436 10.0322V10.8744H129.986C129.88 10.8744 129.825 10.9265 129.825 11.0287V11.4873C129.825 11.5916 129.88 11.6437 129.986 11.6437ZM151.073 8.05997H152.078C152.195 8.05997 152.255 7.99952 152.255 7.88068V6.82162C152.255 6.70279 152.195 6.64233 152.078 6.64233H151.073C150.952 6.64233 150.894 6.70279 150.894 6.82162V7.8786C150.894 7.99743 150.952 8.05997 151.073 8.05997Z" fill="black"/>
<path d="M157.841 9.5209H156.656C156.527 9.5209 156.463 9.58344 156.463 9.71479V14.8934C156.463 15.0997 156.421 15.2415 156.337 15.3228C156.26 15.3979 156.119 15.4375 155.906 15.4375H152.954C152.616 15.4375 152.399 15.3854 152.303 15.2811C152.262 15.2415 152.239 15.1748 152.239 15.0789V9.70645C152.239 9.57302 152.172 9.50631 152.045 9.50631H150.859C150.732 9.50631 150.665 9.57302 150.665 9.70645V14.8788C150.665 15.0935 150.625 15.2373 150.55 15.3082C150.467 15.3895 150.333 15.4333 150.146 15.4375H137.153C136.812 15.4375 136.591 15.3854 136.497 15.2811C136.457 15.2519 136.438 15.1852 136.438 15.0789V6.12064C136.438 5.99556 136.374 5.92676 136.242 5.92676H135.06C134.925 5.92676 134.856 5.99347 134.856 6.12064V14.8788C134.856 15.0997 134.821 15.2436 134.741 15.3166C134.658 15.3979 134.522 15.4375 134.331 15.4375H129.344C129.098 15.4393 128.855 15.3924 128.628 15.2993C128.4 15.2063 128.194 15.069 128.02 14.8954C127.844 14.7245 127.705 14.5195 127.611 14.2929C127.517 14.0664 127.47 13.8231 127.474 13.5779C127.473 13.2212 127.573 12.8714 127.762 12.5688C127.948 12.2653 128.215 12.0198 128.533 11.86L129.062 11.589C129.14 11.5494 129.177 11.4993 129.177 11.4368C129.176 11.4005 129.167 11.3649 129.15 11.3326L128.614 10.286C128.603 10.2625 128.587 10.2415 128.567 10.2243C128.547 10.2071 128.524 10.194 128.5 10.1859C128.479 10.1755 128.456 10.1704 128.433 10.1714C128.402 10.1728 128.373 10.1829 128.347 10.2005L127.814 10.4653C127.23 10.7593 126.767 11.1887 126.419 11.7516C126.075 12.3145 125.9 12.9232 125.9 13.5779C125.9 14.5264 126.238 15.3332 126.909 16.0025C127.584 16.6654 128.395 16.9948 129.344 16.9948H134.308C134.91 16.9948 135.402 16.8259 135.782 16.4819C136.19 16.8259 136.757 16.9948 137.479 16.9948H150.117C150.719 16.9948 151.209 16.8259 151.588 16.4819C151.997 16.8259 152.562 16.9948 153.277 16.9948H155.908C156.552 16.9948 157.071 16.8072 157.459 16.4319C157.845 16.04 158.037 15.5271 158.037 14.8934V9.71479C158.037 9.58553 157.972 9.5209 157.841 9.5209ZM33.2318 5.92676H32.0747C31.9434 5.92676 31.8767 5.99347 31.8767 6.12481V16.3631C31.8812 16.6122 31.8356 16.8596 31.7424 17.0906C31.6493 17.3216 31.5106 17.5315 31.3346 17.7078C31.1686 17.8847 30.9675 18.0251 30.7443 18.1202C30.5211 18.2154 30.2805 18.263 30.0379 18.2603C29.7949 18.2633 29.554 18.2158 29.3304 18.1207C29.1068 18.0256 28.9054 17.885 28.7391 17.7078C28.5621 17.5321 28.4224 17.3224 28.3286 17.0913C28.2347 16.8602 28.1885 16.6125 28.1929 16.3631V12.5897C28.1929 12.4542 28.1304 12.3854 28.0094 12.3854H26.844C26.7106 12.3854 26.646 12.4542 26.646 12.5918V16.3652C26.646 17.3263 26.9754 18.1498 27.6404 18.8294C28.3013 19.5111 29.0998 19.8509 30.0379 19.8509C30.9698 19.8509 31.7683 19.5111 32.4354 18.8294C33.0984 18.1498 33.4298 17.3284 33.4298 16.3631V6.1269C33.4298 5.99347 33.3631 5.92676 33.2318 5.92676ZM156.717 18.7877H155.722C155.597 18.7877 155.535 18.8461 155.535 18.967V20.0219C155.535 20.147 155.597 20.2074 155.722 20.2074H156.717C156.836 20.2074 156.898 20.1449 156.898 20.0198V18.967C156.898 18.8461 156.836 18.7877 156.717 18.7877Z" fill="black"/>
</g>
</g>
</g>
<defs>
<clipPath id="clip0_2430_2449">
<rect width="234.667" height="108" fill="white"/>
</clipPath>
<clipPath id="clip1_2430_2449">
<rect width="181.375" height="108.408" fill="white" transform="translate(26.646 -0.204102)"/>
</clipPath>
</defs>
</svg>
