<svg width="176" height="64" viewBox="0 0 176 64" fill="none" xmlns="http://www.w3.org/2000/svg">
<path d="M107.834 27.6582H109.464V25.6665H107.834V27.6582ZM110.121 47.5094V41.2551H113.937V39.029H111.227L110.121 41.043V35.7959H110.1L106.068 41.2551H108.127V47.6421C108.127 50.239 109.558 52.2793 111.964 52.2793C112.657 52.2793 113.373 52.1204 113.98 51.7761V49.5497C113.373 49.9474 112.787 50.0533 112.289 50.0533C110.837 50.0533 110.121 48.9403 110.121 47.5094ZM119.009 44.3294L117.903 46.237L117.881 45.6012C117.881 42.7654 119.421 40.8841 121.328 40.8841C122.976 40.8841 124.168 42.2355 124.471 44.3294H119.009ZM121.285 38.7639C118.315 38.7639 115.974 41.6261 115.974 45.5482C115.974 49.4702 118.293 52.2793 121.696 52.2793C123.192 52.2793 124.579 51.723 125.512 50.8484V48.543C124.254 49.6822 123.127 50.1327 121.87 50.1327C119.616 50.1327 118.142 48.6487 117.925 46.2901H126.379V45.4155C126.379 41.5993 124.254 38.7639 121.285 38.7639ZM118.11 20.2656C118.041 19.1778 117.807 18.441 117.2 17.7594C116.593 17.0778 115.889 16.7367 115.086 16.7367H112.491V18.749H115.086C115.108 18.749 115.127 18.7481 115.148 18.749C115.166 18.7481 115.183 18.749 115.202 18.749C115.557 18.7568 115.896 18.9348 116.146 19.2449C116.395 19.5551 116.534 19.9724 116.534 20.4073C116.534 20.842 116.395 21.2593 116.146 21.5695C115.896 21.8796 115.557 22.0577 115.202 22.0654C115.179 22.0654 115.159 22.0663 115.137 22.0654C115.12 22.067 115.104 22.0644 115.086 22.0654H111.77V24.0602H115.086C115.889 24.0602 116.593 23.715 117.2 23.0225C117.807 22.3301 118.183 21.4075 118.11 20.2656ZM108.521 24.0602C109.895 24.0602 110.77 22.6634 110.77 21.3089V17.0076H109.142V21.0447C109.142 21.6665 108.724 22.0684 108.306 22.0684H106.028V19.9431C106.028 17.3343 104.378 16.1536 103.05 16.1536C101.605 16.1536 100.074 17.4751 100.074 19.9431V22.0684L95.5577 22.0679C95.4476 22.0687 95.3385 22.0426 95.2366 21.9915C95.1347 21.9403 95.0422 21.865 94.9643 21.7698C94.8863 21.6747 94.8246 21.5617 94.7826 21.4372C94.7406 21.3127 94.7192 21.1793 94.7195 21.0447V16.8966L93.0929 17.5076V21.3089C93.0929 22.9642 94.2194 24.0607 95.3421 24.0607H101.7V19.8012C101.7 18.8858 102.295 18.1433 103.045 18.1433C103.404 18.1433 103.749 18.3179 104.004 18.6288C104.258 18.9397 104.401 19.3614 104.401 19.8012V24.0602H108.521ZM101.429 41.2551V49.126C100.54 49.7886 99.7812 50.027 98.9578 50.027C96.8986 50.027 95.4463 48.2246 95.4463 45.6544C95.4463 43.1364 96.8551 41.2551 99.2828 41.2551H101.429ZM93.4302 45.6544C93.4302 49.4702 95.5763 52.2529 98.6759 52.2529C99.2613 52.2529 99.8032 52.094 100.193 51.8556L101.429 49.3381V52.0145H103.423V39.029H99.0443C95.7278 39.029 93.4302 41.8645 93.4302 45.6544ZM88.5744 39.2674L87.3171 41.7586V39.029H85.3229V52.0145H87.3171V41.9439C88.141 41.2551 89.0083 40.9899 90.1137 40.9899C90.7641 40.9899 91.306 41.0961 91.9559 41.3609V38.976C91.5225 38.817 91.0675 38.7639 90.5906 38.7639C89.7883 38.7639 89.0948 38.9497 88.5744 39.2674ZM99.747 25.6665H98.1179V27.6582H99.747V25.6665ZM95.6911 27.6686H97.3202V25.6768H95.6911V27.6686ZM133.966 44.6209L131.993 44.0905C131.126 43.8784 130.714 43.3753 130.714 42.5802C130.714 41.4404 131.494 40.8572 133.12 40.8572C134.356 40.8572 135.375 41.1756 136.068 41.7586V39.4795C135.396 38.976 134.507 38.7639 133.402 38.7639C130.541 38.7639 128.915 40.1947 128.915 42.6859C128.915 44.5678 129.804 45.7602 131.516 46.2107L133.511 46.7406C134.442 46.9794 134.854 47.5621 134.854 48.384C134.854 49.5765 134.052 50.1858 132.275 50.1858C130.996 50.1858 129.956 49.8943 128.937 49.2055V51.5109C129.891 52.0145 130.909 52.2529 132.166 52.2529C135.136 52.2529 136.632 50.8747 136.632 48.2778C136.632 46.1844 135.678 45.0714 133.966 44.6209ZM179.141 24.0612H182.182C182.586 24.0138 182.995 23.8651 183.246 23.5241C183.503 23.1345 183.648 22.8822 183.648 22.2831L184.902 24.0612H187.118C188.302 24.0612 189.367 22.8842 189.367 21.3115V17.0076H187.739V21.006C187.739 21.6288 187.385 22.0684 186.896 22.0684H183.648V17.5695H182.019V21.006C182.019 21.3063 181.936 21.553 181.769 21.7465C181.611 21.9611 181.409 22.0684 181.163 22.0684H179.312C178.908 22.0684 178.605 21.8806 178.403 21.505C178.438 21.2795 178.456 21.0649 178.456 20.861V13.1728L176.831 11.7213V21.006C176.831 21.2955 176.738 21.5452 176.58 21.7547C176.423 21.9637 176.22 22.0684 175.975 22.0684H169.547C169.113 22.0684 168.691 21.6892 168.691 21.006V17.9276L167.065 18.5396V21.3115C167.065 22.9564 168.163 24.0612 169.314 24.0612H175.981C176.534 24.0612 177.051 23.8357 177.534 23.3847C178.061 23.8357 178.596 24.0612 179.141 24.0612ZM81.6696 22.1263L81.4983 22.2258C81.2019 22.4027 80.8759 22.4926 80.5461 22.488C79.51 22.488 78.8912 21.7996 78.8912 20.6474C78.8912 19.4007 79.5965 18.5953 80.6883 18.5953H81.6696V22.1263ZM86.7773 21.0338V11.7213H85.1579V21.0385C85.1579 21.328 85.0655 21.5643 84.9076 21.747C84.7498 21.9616 84.5476 22.0689 84.302 22.0689H83.1675V16.893H80.487C78.7233 16.893 77.3929 18.5071 77.3929 20.6474C77.3929 22.7991 78.538 24.1897 80.3098 24.1897C80.5368 24.1897 80.7744 24.1412 80.9791 24.054L81.0467 24.0256L81.6696 22.7212V25.1252C81.6696 25.6546 81.3223 26.1515 80.831 26.1515H79.0297L79.7278 28.1391H81.1062C82.1537 28.1391 83.2958 27.0473 83.2958 25.3899V24.0602H84.302C84.9865 24.0602 85.5707 23.7681 86.0531 23.183C86.5359 22.5984 86.7773 21.8817 86.7773 21.0338ZM168.28 49.8943H164.443V43.6668H168.323C169.754 43.6668 170.946 44.7003 170.946 46.8732C170.946 48.8345 169.949 49.8943 168.28 49.8943ZM164.443 35.8485H167.846C169.169 35.8485 170.274 36.8558 170.274 38.7639C170.274 40.6457 169.212 41.5729 167.846 41.5729H165.635L164.443 43.5343V35.8485ZM170.252 42.527C171.423 41.8113 172.29 40.1947 172.29 38.3929C172.29 35.7164 170.512 33.7289 168.15 33.7289H162.427V52.0145H168.648C171.119 52.0145 172.984 49.9474 172.984 47.0321C172.984 44.965 171.878 43.1632 170.252 42.527ZM186.277 27.6582H187.906V25.6665H186.277V27.6582ZM182.196 49.7886H180.202L178.945 51.8288V35.9812H182.196C185.621 35.9812 187.962 38.7376 187.962 42.8448C187.962 46.8996 185.6 49.7886 182.196 49.7886ZM182.196 33.7289H176.929V52.0145H182.196C186.705 52.0145 190 48.0926 190 42.8448C190 37.5978 186.705 33.7289 182.196 33.7289ZM138.961 25.1252C138.961 25.6546 138.614 26.1515 138.122 26.1515H136.321L137.019 28.1391H138.397C139.445 28.1391 140.587 27.0473 140.587 25.3899V17.0076H138.961V25.1252ZM163.709 11.7213H162.082V24.0612H163.709V11.7213ZM155.837 49.3644L148.966 33.7289H146.04V52.0145H148.055V36.4053L154.927 52.0145H157.853V33.7289H155.837V49.3644ZM148.306 18.5953H149.287C150.379 18.5953 151.084 19.4007 151.084 20.6474C151.084 21.7996 150.465 22.488 149.429 22.488C149.083 22.488 148.789 22.4069 148.477 22.2258L148.306 22.1263V18.5953ZM148.306 22.7212L148.929 24.0256L148.996 24.054C149.212 24.1436 149.438 24.1894 149.666 24.1897C151.437 24.1897 152.582 22.7991 152.582 20.6474C152.582 18.5071 151.252 16.893 149.488 16.893H146.808V22.0689H144.637C144.525 22.0716 144.414 22.0469 144.31 21.9962C144.206 21.9454 144.111 21.8697 144.031 21.7734C143.951 21.6772 143.888 21.5623 143.845 21.4358C143.802 21.3093 143.781 21.1734 143.781 21.0364V13.1903L142.155 11.7202V21.3089C142.155 22.8615 143.19 24.0602 144.404 24.0602H148.306V22.7212ZM157.14 27.6871C156.93 27.6871 156.776 27.6231 156.679 27.4951C156.581 27.3666 156.532 27.1964 156.532 26.9842C156.532 26.7634 156.599 26.5684 156.733 26.4007C156.867 26.2325 157.038 26.1489 157.248 26.1489H157.769L157.454 25.3001H157.129C156.766 25.2934 156.416 25.4598 156.152 25.7639C155.871 26.0823 155.73 26.489 155.73 26.9842C155.73 27.2233 155.784 27.457 155.892 27.6871H155.328L155.437 28.682H157.942L157.78 27.6871H157.14ZM159.231 21.0447C159.231 21.5189 158.941 22.0658 158.381 22.0658H157.302V13.245H155.675V20.7232L156.808 22.0658H153.28L153.786 24.0607H158.608C159.923 24.0586 160.858 22.7253 160.858 21.3089V11.7213H159.231V21.0447ZM79.3838 36.1669H81.378V33.7289H79.3838V36.1669ZM137.017 13.1903L135.391 11.7202V24.0607H137.017V13.1903ZM127.333 15.5892H125.703V17.5809H127.333V15.5892ZM129.76 15.5788H128.131V17.5706H129.76V15.5788ZM63.4305 13.9824H61.8014V15.974H63.4305V13.9824ZM124.146 24.0607H131.317C132.545 24.0607 133.566 22.8171 133.566 21.3089V16.8615L131.941 18.3311V21.039C131.941 21.5653 131.605 22.0679 131.101 22.0679H124.362C123.864 22.0679 123.524 21.5737 123.524 21.0447V18.2393L121.897 19.6991V21.3089C121.897 22.9642 123.024 24.0607 124.146 24.0607ZM48.451 43.7195H55.3659V41.5198H49.6863L48.451 43.5074V35.9812H55.7559V33.7289H46.4348V52.0145H55.8644V49.7617H48.451V43.7195ZM89.5257 11.7213H87.8987V24.0612H89.5257V11.7213ZM171.459 17.99H173.964L173.802 16.9952H173.162C172.952 16.9952 172.798 16.9312 172.701 16.8027C172.603 16.6748 172.554 16.5045 172.554 16.2924C172.554 16.071 172.621 15.8766 172.755 15.7088C172.889 15.5407 173.06 15.457 173.27 15.457H173.791L173.476 14.6078H173.151C172.775 14.6078 172.449 14.7625 172.175 15.0721C171.893 15.3905 171.752 15.797 171.752 16.2924C171.752 16.5308 171.806 16.765 171.914 16.9952H171.35L171.459 17.99ZM72.9335 16.781H68.9215L67.9001 18.7692H73.0496C73.7987 18.7692 74.4056 19.4967 74.4056 20.4127C74.4056 20.6303 74.3706 20.8458 74.3024 21.0469C74.2342 21.248 74.1343 21.4306 74.0084 21.5846C73.8825 21.7385 73.733 21.8604 73.5685 21.9436C73.4039 22.0268 73.2276 22.0697 73.0496 22.0695L67.8836 22.0705V13.1903L66.257 11.7202V22.0705C64.7022 22.0705 63.4377 22.0695 63.4377 22.0695V17.5695H61.8124V22.0695H59.405V19.9431C59.405 17.3343 57.7548 16.1536 56.4265 16.1536C54.9814 16.1536 53.4511 17.4751 53.4511 19.9431V22.0695H48.9001C48.402 22.0695 48.0614 21.5737 48.0614 21.0447V16.8966L46.4348 17.5076V21.3089C46.4348 22.9642 47.5613 24.0607 48.684 24.0607H55.0768V19.8032C55.0768 18.8858 55.6719 18.1433 56.4211 18.1433C56.5993 18.1434 56.7758 18.1863 56.9405 18.2698C57.1051 18.3532 57.2547 18.4756 57.3807 18.6297C57.5067 18.7839 57.6066 18.9668 57.6748 19.1681C57.743 19.3695 57.778 19.5854 57.778 19.8032V24.0607H72.9335C75.0674 24.0628 76.0331 22.0427 76.0331 20.4193C76.0331 18.6521 74.9522 16.781 72.9335 16.781ZM49.0912 27.6686H50.7204V25.6768H49.0912V27.6686ZM71.6015 38.7639C70.7127 38.7639 69.9542 39.0554 69.5208 39.4001L68.307 41.9707C67.895 40.1684 66.6593 38.7639 64.3181 38.7639C63.4297 38.7639 62.6924 39.029 62.2809 39.3206L61.0451 41.7586V39.029H59.0509V52.0145H61.0451V41.9439C61.7769 41.3223 62.6467 40.9894 63.5377 40.9899C65.4454 40.9899 66.3558 42.2886 66.3558 43.9316V52.0145H68.35V42.1823C69.0654 41.4404 69.8892 40.9899 70.8431 40.9899C72.7504 40.9899 73.6607 42.3418 73.6607 44.4614V52.0145H75.6549V43.8521C75.6549 40.6188 74.2026 38.7639 71.6015 38.7639ZM79.3838 52.0145H81.378V39.029H79.3838V52.0145ZM183.648 13.9824H182.019V15.974H183.648V13.9824ZM51.5185 27.6582H53.1476V25.6665H51.5185V27.6582ZM18.3952 48.9124C18.4471 49.0145 19.8969 48.0446 20.7444 47.3418C22.0422 46.2658 23.1923 44.9712 24.1972 43.5162C27.0921 39.3227 28.6862 33.8774 28.7546 28.4059C28.809 23.9988 27.8011 20.1634 26.8722 17.7898C26.3927 16.5623 25.6778 15.0128 25.5782 15.0762C25.533 15.1036 25.5782 15.342 25.6647 15.6882C25.7862 16.1769 27.6091 23.2836 26.2235 31.8873C25.9568 33.5441 25.5326 35.202 24.9903 36.8238C25.0928 35.8532 25.1274 34.8737 25.0937 33.896C24.9839 30.7809 24.1348 28.1226 23.3911 26.4935C23.0066 25.65 22.4448 24.5916 22.3756 24.6412C22.3448 24.6634 22.3841 24.83 22.4584 25.07C22.5618 25.4095 24.1031 30.3367 23.4054 36.4848C22.9087 40.8718 20.8786 45.3778 18.6198 48.56C18.4826 48.7525 18.3653 48.8676 18.3952 48.9124ZM3.10885 3.80183H17.4393C10.9215 13.0118 7.697 24.65 8.33557 36.5957C8.8585 46.3623 13.3306 55.401 17.029 60.1967H3.10885V3.80183ZM25.6791 3.80183C18.1935 11.7615 13.1622 22.9281 12.9537 35.3424C12.795 44.8092 14.2249 52.0806 18.1298 59.3334C14.395 52.6606 11.9631 46.8108 11.3967 39.0095C10.4716 26.2826 14.5119 13.4746 22.4866 3.80183H25.6791ZM31.8178 3.80183H34.4333V60.1967H20.1653C16.8332 53.2581 15.7793 45.9785 16.0127 38.1215C16.4268 24.1762 22.5757 11.8296 31.8178 3.80183ZM0 64H37.4611V0H0V64Z" fill="black"/>
</svg>
