<svg width="174" height="29" viewBox="0 0 174 29" fill="none" xmlns="http://www.w3.org/2000/svg">
<g clip-path="url(#clip0_76_6736)">
<path d="M19.4753 0.478986H0.957851C0.638585 0.478986 0.239502 0.798252 0.239502 1.19734V6.78449C0.239502 7.18357 0.558768 7.50284 0.957851 7.50284H19.5551C19.8744 7.50284 20.2734 7.18357 20.2734 6.78449V1.11752C20.2734 0.798252 19.9542 0.39917 19.5551 0.39917" fill="#391A4F"/>
<path d="M29.8514 0.478986H24.2642C23.8652 0.478986 23.5459 0.798252 23.5459 1.19734V27.3772C23.5459 27.6964 23.8652 28.0955 24.2642 28.0955H29.8514C30.1707 28.0955 30.5698 27.7762 30.5698 27.3772V1.11752C30.5698 0.798252 30.2505 0.39917 29.8514 0.39917" fill="#391A4F"/>
<path d="M19.4753 10.7754H0.957851C0.638585 10.7754 0.239502 11.0947 0.239502 11.4937V17.0809C0.239502 17.48 0.558768 17.7992 0.957851 17.7992H19.5551C19.8744 17.7992 20.2734 17.48 20.2734 17.0809V11.4937C20.2734 11.1745 19.9542 10.7754 19.5551 10.7754" fill="#391A4F"/>
<path d="M19.4753 21.1514H0.957851C0.638585 21.1514 0.239502 21.4706 0.239502 21.8697V27.4569C0.239502 27.856 0.558768 28.1752 0.957851 28.1752H19.5551C19.8744 28.1752 20.2734 27.856 20.2734 27.4569V21.8697C20.2734 21.5504 19.9542 21.1514 19.5551 21.1514" fill="#391A4F"/>
<path d="M128.345 0.47876H126.35V2.47417H128.345V0.47876Z" fill="#391A4F"/>
<path d="M125.232 0.47876H123.237V2.47417H125.232V0.47876Z" fill="#391A4F"/>
<path d="M138.322 0.47876H136.486V11.0145H138.322V0.47876Z" fill="#391A4F"/>
<path d="M131.937 7.02378C131.937 8.14122 131.378 8.62012 130.979 8.85956C130.66 8.93938 130.261 9.0192 129.383 9.0192H123.476C122.279 9.0192 121.481 8.85956 120.922 8.5403C120.363 8.22103 119.884 7.5825 119.884 6.22562V3.03296H118.049V6.30544C118.049 9.33846 119.884 10.855 123.556 10.855H130.819C132.416 10.855 133.772 9.4981 133.772 7.90177V3.03296H131.937V7.02378Z" fill="#391A4F"/>
<path d="M142.153 10.2963C142.153 11.8128 141.435 12.6908 139.918 12.8504H139.838V14.3669H139.918C141.275 14.3669 142.313 13.8082 142.951 13.2495C143.67 12.6109 144.069 11.5733 144.069 10.0568V3.03296H142.233V10.2963H142.153Z" fill="#391A4F"/>
<path d="M100.968 13.2495C100.968 12.9302 101.048 12.6907 101.367 12.6907C101.686 12.6907 101.686 12.7706 101.766 13.01L102.484 12.6907C102.245 12.132 101.846 11.8926 101.367 11.8926C100.649 11.8926 100.01 12.4513 100.01 13.2495C100.01 14.0476 100.01 13.5687 100.01 13.7284H99.2917V14.6063H102.405V13.6485H101.048C100.888 13.6485 100.808 13.4091 100.808 13.1696" fill="#391A4F"/>
<path d="M48.688 12.6111H46.6926V14.6065H48.688V12.6111Z" fill="#391A4F"/>
<path d="M45.5752 12.6111H43.5798V14.6065H45.5752V12.6111Z" fill="#391A4F"/>
<path d="M112.222 0.47876H110.386V10.9347H112.222V0.47876Z" fill="#391A4F"/>
<path d="M105.837 7.10353C105.837 8.77968 105.118 9.09894 104.4 9.09894H104.161L102.006 1.51637H100.09L102.245 9.09894H99.6111V10.9347H104.64C106.236 10.9347 107.673 9.57784 107.673 7.98151V0.47876H105.837V7.10353Z" fill="#391A4F"/>
<path d="M162.506 13.2495C162.506 12.9302 162.586 12.6907 162.906 12.6907C163.225 12.6907 163.225 12.7706 163.305 13.01L164.023 12.6907C163.784 12.132 163.384 11.8926 162.906 11.8926C162.187 11.8926 161.549 12.4513 161.549 13.2495C161.549 14.0476 161.549 13.5687 161.628 13.7284H160.91V14.6063H164.023V13.6485H162.666C162.506 13.6485 162.427 13.4091 162.427 13.1696" fill="#391A4F"/>
<path d="M173.761 0.47876H171.925V11.0145H173.761V0.47876Z" fill="#391A4F"/>
<path d="M167.375 7.10353C167.375 8.77968 166.657 9.09894 165.938 9.09894H165.699L163.544 1.51637H161.628L163.783 9.09894H161.149V10.9347H166.178C167.774 10.9347 169.211 9.57784 169.211 7.98151V0.47876H167.375V7.10353Z" fill="#391A4F"/>
<path d="M95.3009 7.10353C95.3009 8.77968 94.5826 9.09894 93.8642 9.09894H91.789C92.1083 8.54023 92.2679 7.98151 92.2679 7.26316V3.03289H90.4321V7.10353C90.4321 8.77968 89.7138 9.09894 88.9954 9.09894H86.9202C87.2395 8.54023 87.3991 7.98151 87.3991 7.26316V3.03289H85.5633V7.10353C85.5633 8.77968 84.845 9.09894 84.1266 9.09894H76.4642C76.6239 8.77968 76.7037 8.38059 76.7037 7.98151V0.47876H74.8679V7.10353C74.8679 8.77968 74.1495 9.09894 73.4312 9.09894H73.1917L71.0367 1.51637H69.1211L71.2762 9.09894H68.0835V10.9347H93.8642C95.8596 10.9347 97.1367 9.09894 97.1367 7.26316V3.1127H95.3009V7.18335V7.10353Z" fill="#391A4F"/>
<path d="M63.6137 7.58247C63.6137 8.38063 62.9752 9.09898 61.8578 9.09898C60.7403 9.09898 59.9422 8.221 59.9422 6.86412V6.22558C59.9422 4.8687 60.6605 3.83109 61.8578 3.67146C62.4963 3.59164 63.6137 3.67146 63.6137 3.67146V7.66228V7.58247ZM58.3458 4.8687C58.3458 5.26779 58.266 5.66687 58.266 6.14577V6.62467C58.266 7.10357 58.266 7.50265 58.3458 7.90173C58.3458 8.38063 58.5853 8.6999 58.7449 9.01916H55.4724V5.18797C55.4724 3.43201 54.2752 1.75586 51.9605 1.75586H48.5284V9.01916H44.6174C43.5 9.01916 42.9412 8.221 42.9412 7.42283V1.91549H41.1055V7.50265C41.1055 9.25861 42.3027 10.9348 44.6174 10.9348H50.3642V3.75127H51.9605C53.0779 3.75127 53.6367 4.54944 53.6367 5.3476V10.9348H61.8578C62.8156 10.9348 65.689 10.6155 65.689 7.90173V1.91549C65.1302 1.91549 64.5715 1.91549 63.8532 1.91549C61.8578 1.91549 58.9844 2.15494 58.5055 5.02834" fill="#391A4F"/>
<path d="M156.68 7.58243C156.68 8.38059 156.041 9.09894 154.924 9.09894C153.807 9.09894 153.008 8.22096 153.008 6.86408V6.22555C153.008 4.86867 153.727 3.83105 154.924 3.67142C155.562 3.5916 156.68 3.67142 156.68 3.67142V7.66225V7.58243ZM151.332 4.86867C151.332 5.26775 151.252 5.66683 151.252 6.14573V6.62463C151.252 7.10353 151.252 7.50261 151.332 7.90169C151.332 8.38059 151.572 8.69986 151.731 9.01913H149.816C149.097 9.01913 148.379 8.69986 148.379 7.02371V0.47876H146.543V7.98151C146.543 9.57784 147.82 10.9347 149.417 10.9347H154.684C155.562 10.9347 158.516 10.6155 158.516 7.90169V1.91546C157.957 1.91546 157.398 1.91546 156.68 1.91546C154.684 1.91546 151.811 2.15491 151.332 5.0283" fill="#391A4F"/>
<path d="M48.2091 26.1798H42.7816V23.8651H48.0495V22.1092H42.7816V19.7147H48.2091V17.8789H40.866V28.0954H48.2091V26.1798Z" fill="#391A4F"/>
<path d="M52.0404 20.5927L55.1532 25.0624H55.4725L58.6651 20.5927V28.0954H60.5009V17.8789H58.4257L55.3128 22.2688L52.2 17.8789H50.1248V28.0954H52.0404V20.5927Z" fill="#391A4F"/>
<path d="M64.2523 17.8789H62.4165V28.0954H64.2523V17.8789Z" fill="#391A4F"/>
<path d="M68.0035 19.6349H70.8769C71.9943 19.6349 72.553 20.433 72.553 21.2312C72.553 22.0293 71.9943 22.8275 70.8769 22.8275H68.0035V19.555V19.6349ZM72.6329 28.0954H74.8677C74.8677 28.0156 71.9145 24.5037 71.9145 24.5037C73.7503 24.1046 74.3888 22.7477 74.3888 21.2312C74.3888 19.7147 73.1916 17.8789 70.8769 17.7991H66.1677V28.0156H68.0035V24.5835H69.7595L72.6329 28.0156V28.0954Z" fill="#391A4F"/>
<path d="M79.0185 24.344L80.7745 20.034L82.6103 24.344H78.9387H79.0185ZM81.8919 17.8789H79.8965L75.5066 28.0954H77.502L78.38 26.1798H83.4882L84.2864 28.0954H86.2818L81.8919 17.8789Z" fill="#391A4F"/>
<path d="M88.357 28.0954H90.1928V19.5551H93.2258V17.8789H85.2441V19.5551H88.357V28.0954Z" fill="#391A4F"/>
<path d="M102.484 26.1798H96.9771V23.8651H102.325V22.1092H96.9771V19.7147H102.484V17.8789H95.1414V28.0954H102.484V26.1798Z" fill="#391A4F"/>
<path d="M108.391 21.8697C107.273 21.71 106.156 21.4706 106.156 20.5926C106.156 19.7146 106.794 19.2357 108.151 19.2357C109.508 19.2357 110.147 19.7944 110.466 20.3531L111.903 19.555C111.184 17.9587 109.588 17.5596 107.992 17.5596C106.395 17.5596 104.161 18.4376 104.161 20.5926C104.161 22.7476 105.996 23.466 108.072 23.6256C109.428 23.7853 110.306 24.1843 110.306 25.1421C110.306 26.0999 109.189 26.7385 108.072 26.7385C106.954 26.7385 105.757 26.1798 105.278 25.1421L103.682 25.9403C104.4 27.7761 105.917 28.4146 107.992 28.4146C110.067 28.4146 112.062 27.4568 112.062 25.1421C112.062 22.8275 110.147 22.1091 108.151 21.8697" fill="#391A4F"/>
<path d="M118.288 17.8789H116.452V28.0954H118.288V17.8789Z" fill="#391A4F"/>
<path d="M124.035 26.5788C122.837 26.5788 121.72 26.0201 121.241 24.9825L119.645 25.7806C120.363 27.6164 121.88 28.2549 123.955 28.2549C126.03 28.2549 128.026 27.2971 128.026 24.9825C128.026 22.6678 126.11 21.9494 124.115 21.71C122.997 21.5504 121.88 21.3109 121.88 20.4329C121.88 19.5549 122.518 19.076 123.875 19.076C125.232 19.076 125.87 19.6348 126.19 20.1935L127.626 19.3953C126.908 17.799 125.312 17.3999 123.715 17.3999C122.119 17.3999 119.884 18.2779 119.884 20.4329C119.884 22.588 121.72 23.3063 123.795 23.5458C125.152 23.7054 126.03 24.1045 126.03 25.0623C126.03 26.0201 124.913 26.6586 123.795 26.6586" fill="#391A4F"/>
<path d="M136.406 26.2596H131.298V17.8789H129.462V28.0954H136.406V26.2596Z" fill="#391A4F"/>
<path d="M141.115 24.344L142.871 20.034L144.707 24.344H141.036H141.115ZM143.989 17.8789H141.993L137.604 28.0954H139.599L140.477 26.1798H145.585L146.383 28.0954H148.379L143.989 17.8789Z" fill="#391A4F"/>
<path d="M151.572 20.5927L154.684 25.0624H155.004L158.276 20.5927V28.0954H160.112V17.8789H157.957L154.924 22.2688L151.811 17.8789H149.736V28.0954H151.572V20.5927Z" fill="#391A4F"/>
<path d="M163.384 17.8789H161.549V28.0954H163.384V17.8789Z" fill="#391A4F"/>
<path d="M172.404 25.4614C171.765 26.1798 170.807 26.4991 169.929 26.4991C167.535 26.4991 166.577 24.7431 166.577 23.0669C166.577 21.3908 167.535 19.555 169.929 19.555C172.324 19.555 171.685 19.8743 172.324 20.5128L173.521 19.3156C172.563 18.278 171.286 17.7192 169.929 17.7192C166.417 17.7192 164.741 20.433 164.741 23.0669C164.741 25.7009 166.338 28.3348 169.929 28.3348C173.521 28.3348 172.643 27.8559 173.681 26.8183L172.404 25.4614Z" fill="#391A4F"/>
</g>
<defs>
<clipPath id="clip0_76_6736">
<rect width="174" height="28.7339" fill="white"/>
</clipPath>
</defs>
</svg>
