<svg width="53" height="53" viewBox="0 0 53 53" fill="none" xmlns="http://www.w3.org/2000/svg">
<path d="M0 8.74667C0 3.91602 3.91602 0 8.74667 0H43.7333C48.564 0 52.48 3.91602 52.48 8.74667V43.7333C52.48 48.564 48.564 52.48 43.7333 52.48H8.74667C3.91602 52.48 0 48.564 0 43.7333V8.74667Z" fill="url(#paint0_linear_477_2612)"/>
<path d="M29.05 26.52C29.683 25.8402 30.0396 24.9488 30.05 24.02C30.05 23.0175 29.6517 22.056 28.9429 21.3471C28.234 20.6382 27.2725 20.24 26.27 20.24C25.2675 20.24 24.306 20.6382 23.5971 21.3471C22.8882 22.056 22.49 23.0175 22.49 24.02C22.5004 24.9488 22.857 25.8402 23.49 26.52C22.6086 26.9589 21.8502 27.6099 21.2829 28.4146C20.7156 29.2193 20.3572 30.1524 20.24 31.13C20.2108 31.3952 20.2882 31.6612 20.4551 31.8693C20.622 32.0775 20.8648 32.2108 21.13 32.24C21.3952 32.2692 21.6611 32.1918 21.8693 32.0249C22.0775 31.858 22.2108 31.6152 22.24 31.35C22.3593 30.3811 22.8288 29.4893 23.5601 28.8426C24.2913 28.1959 25.2338 27.839 26.21 27.839C27.1862 27.839 28.1287 28.1959 28.8599 28.8426C29.5911 29.4893 30.0607 30.3811 30.18 31.35C30.2078 31.6064 30.3336 31.8422 30.5311 32.008C30.7287 32.1739 30.9826 32.257 31.24 32.24H31.35C31.6121 32.2098 31.8517 32.0773 32.0166 31.8712C32.1814 31.6652 32.2581 31.4024 32.23 31.14C32.1214 30.1676 31.7744 29.237 31.2196 28.431C30.6648 27.625 29.9196 26.9686 29.05 26.52ZM26.24 25.8C25.8879 25.8 25.5438 25.6956 25.2511 25.5C24.9584 25.3044 24.7302 25.0264 24.5955 24.7012C24.4608 24.3759 24.4255 24.018 24.4942 23.6727C24.5629 23.3274 24.7324 23.0103 24.9813 22.7613C25.2303 22.5124 25.5474 22.3429 25.8927 22.2742C26.238 22.2055 26.5959 22.2408 26.9212 22.3755C27.2464 22.5102 27.5244 22.7384 27.72 23.0311C27.9156 23.3238 28.02 23.6679 28.02 24.02C28.02 24.4921 27.8325 24.9448 27.4986 25.2786C27.1648 25.6125 26.7121 25.8 26.24 25.8ZM33.24 16.24H19.24C18.4443 16.24 17.6813 16.5561 17.1187 17.1187C16.5561 17.6813 16.24 18.4443 16.24 19.24V33.24C16.24 34.0356 16.5561 34.7987 17.1187 35.3613C17.6813 35.9239 18.4443 36.24 19.24 36.24H33.24C34.0356 36.24 34.7987 35.9239 35.3613 35.3613C35.9239 34.7987 36.24 34.0356 36.24 33.24V19.24C36.24 18.4443 35.9239 17.6813 35.3613 17.1187C34.7987 16.5561 34.0356 16.24 33.24 16.24ZM34.24 33.24C34.24 33.5052 34.1346 33.7596 33.9471 33.9471C33.7596 34.1346 33.5052 34.24 33.24 34.24H19.24C18.9748 34.24 18.7204 34.1346 18.5329 33.9471C18.3453 33.7596 18.24 33.5052 18.24 33.24V19.24C18.24 18.9748 18.3453 18.7204 18.5329 18.5329C18.7204 18.3453 18.9748 18.24 19.24 18.24H33.24C33.5052 18.24 33.7596 18.3453 33.9471 18.5329C34.1346 18.7204 34.24 18.9748 34.24 19.24V33.24Z" fill="white"/>
<defs>
<linearGradient id="paint0_linear_477_2612" x1="26.24" y1="0" x2="26.24" y2="52.48" gradientUnits="userSpaceOnUse">
<stop stop-color="#003268"/>
<stop offset="1" stop-color="#5280CA"/>
</linearGradient>
</defs>
</svg>
