<svg width="53" height="53" viewBox="0 0 53 53" fill="none" xmlns="http://www.w3.org/2000/svg">
<path d="M0 8.74667C0 3.91602 3.91602 0 8.74667 0H43.7333C48.564 0 52.48 3.91602 52.48 8.74667V43.7333C52.48 48.564 48.564 52.48 43.7333 52.48H8.74667C3.91602 52.48 0 48.564 0 43.7333V8.74667Z" fill="url(#paint0_linear_477_2645)"/>
<path d="M26.24 26.24C25.6466 26.24 25.0666 26.4159 24.5733 26.7456C24.0799 27.0752 23.6954 27.5438 23.4684 28.0919C23.2413 28.6401 23.1819 29.2433 23.2976 29.8253C23.4134 30.4072 23.6991 30.9418 24.1187 31.3613C24.5382 31.7809 25.0728 32.0666 25.6547 32.1823C26.2367 32.2981 26.8399 32.2387 27.388 32.0116C27.9362 31.7846 28.4048 31.4 28.7344 30.9067C29.064 30.4134 29.24 29.8333 29.24 29.24C29.24 28.4443 28.9239 27.6813 28.3613 27.1187C27.7987 26.5561 27.0356 26.24 26.24 26.24ZM26.24 30.24C26.0422 30.24 25.8489 30.1813 25.6844 30.0715C25.52 29.9616 25.3918 29.8054 25.3161 29.6227C25.2404 29.4399 25.2206 29.2389 25.2592 29.0449C25.2978 28.8509 25.393 28.6727 25.5329 28.5329C25.6727 28.393 25.8509 28.2978 26.0449 28.2592C26.2389 28.2206 26.4399 28.2404 26.6227 28.3161C26.8054 28.3918 26.9616 28.52 27.0715 28.6844C27.1813 28.8489 27.24 29.0422 27.24 29.24C27.24 29.5052 27.1346 29.7596 26.9471 29.9471C26.7596 30.1346 26.5052 30.24 26.24 30.24ZM25.53 23.95C25.6251 24.041 25.7372 24.1124 25.86 24.16C25.9797 24.2129 26.1091 24.2402 26.24 24.2402C26.3709 24.2402 26.5003 24.2129 26.62 24.16C26.7427 24.1124 26.8549 24.041 26.95 23.95L29.24 21.7C29.4336 21.5064 29.5424 21.2438 29.5424 20.97C29.5424 20.6962 29.4336 20.4336 29.24 20.24C29.0464 20.0464 28.7838 19.9376 28.51 19.9376C28.2362 19.9376 27.9736 20.0464 27.78 20.24L27.24 20.83V17.24C27.24 16.9748 27.1346 16.7204 26.9471 16.5329C26.7596 16.3453 26.5052 16.24 26.24 16.24C25.9748 16.24 25.7204 16.3453 25.5329 16.5329C25.3453 16.7204 25.24 16.9748 25.24 17.24V20.83L24.7 20.24C24.5064 20.0464 24.2438 19.9376 23.97 19.9376C23.6962 19.9376 23.4336 20.0464 23.24 20.24C23.0464 20.4336 22.9376 20.6962 22.9376 20.97C22.9376 21.2438 23.0464 21.5064 23.24 21.7L25.53 23.95ZM33.24 29.24C33.24 29.0422 33.1813 28.8489 33.0715 28.6844C32.9616 28.52 32.8054 28.3918 32.6227 28.3161C32.4399 28.2404 32.2389 28.2206 32.0449 28.2592C31.8509 28.2978 31.6727 28.393 31.5329 28.5329C31.393 28.6727 31.2978 28.8509 31.2592 29.0449C31.2206 29.2389 31.2404 29.4399 31.3161 29.6227C31.3918 29.8054 31.52 29.9616 31.6844 30.0715C31.8489 30.1813 32.0422 30.24 32.24 30.24C32.5052 30.24 32.7596 30.1346 32.9471 29.9471C33.1346 29.7596 33.24 29.5052 33.24 29.24ZM34.24 22.24H31.24C30.9748 22.24 30.7204 22.3453 30.5329 22.5329C30.3453 22.7204 30.24 22.9748 30.24 23.24C30.24 23.5052 30.3453 23.7596 30.5329 23.9471C30.7204 24.1346 30.9748 24.24 31.24 24.24H34.24C34.5052 24.24 34.7596 24.3453 34.9471 24.5329C35.1346 24.7204 35.24 24.9748 35.24 25.24V33.24C35.24 33.5052 35.1346 33.7596 34.9471 33.9471C34.7596 34.1346 34.5052 34.24 34.24 34.24H18.24C17.9748 34.24 17.7204 34.1346 17.5329 33.9471C17.3453 33.7596 17.24 33.5052 17.24 33.24V25.24C17.24 24.9748 17.3453 24.7204 17.5329 24.5329C17.7204 24.3453 17.9748 24.24 18.24 24.24H21.24C21.5052 24.24 21.7596 24.1346 21.9471 23.9471C22.1346 23.7596 22.24 23.5052 22.24 23.24C22.24 22.9748 22.1346 22.7204 21.9471 22.5329C21.7596 22.3453 21.5052 22.24 21.24 22.24H18.24C17.4443 22.24 16.6813 22.5561 16.1187 23.1187C15.5561 23.6813 15.24 24.4443 15.24 25.24V33.24C15.24 34.0356 15.5561 34.7987 16.1187 35.3613C16.6813 35.9239 17.4443 36.24 18.24 36.24H34.24C35.0356 36.24 35.7987 35.9239 36.3613 35.3613C36.9239 34.7987 37.24 34.0356 37.24 33.24V25.24C37.24 24.4443 36.9239 23.6813 36.3613 23.1187C35.7987 22.5561 35.0356 22.24 34.24 22.24ZM19.24 29.24C19.24 29.4378 19.2986 29.6311 19.4085 29.7956C19.5184 29.96 19.6746 30.0882 19.8573 30.1639C20.04 30.2396 20.2411 30.2594 20.4351 30.2208C20.6291 30.1822 20.8072 30.0869 20.9471 29.9471C21.0869 29.8072 21.1822 29.6291 21.2208 29.4351C21.2594 29.2411 21.2396 29.04 21.1639 28.8573C21.0882 28.6746 20.96 28.5184 20.7956 28.4085C20.6311 28.2986 20.4378 28.24 20.24 28.24C19.9748 28.24 19.7204 28.3453 19.5329 28.5329C19.3453 28.7204 19.24 28.9748 19.24 29.24Z" fill="white"/>
<defs>
<linearGradient id="paint0_linear_477_2645" x1="26.24" y1="0" x2="26.24" y2="52.48" gradientUnits="userSpaceOnUse">
<stop stop-color="#003268"/>
<stop offset="1" stop-color="#5280CA"/>
</linearGradient>
</defs>
</svg>
