<svg width="53" height="53" viewBox="0 0 53 53" fill="none" xmlns="http://www.w3.org/2000/svg">
<path d="M0 8.74667C0 3.91602 3.91602 0 8.74667 0H43.7333C48.564 0 52.48 3.91602 52.48 8.74667V43.7333C52.48 48.564 48.564 52.48 43.7333 52.48H8.74667C3.91602 52.48 0 48.564 0 43.7333V8.74667Z" fill="url(#paint0_linear_477_2629)"/>
<path d="M36.24 29.24H34.24V26.24C34.24 25.9748 34.1346 25.7204 33.9471 25.5329C33.7596 25.3453 33.5052 25.24 33.24 25.24H27.24V23.24H29.24C29.5052 23.24 29.7596 23.1346 29.9471 22.9471C30.1346 22.7596 30.24 22.5052 30.24 22.24V16.24C30.24 15.9748 30.1346 15.7204 29.9471 15.5329C29.7596 15.3453 29.5052 15.24 29.24 15.24H23.24C22.9748 15.24 22.7204 15.3453 22.5329 15.5329C22.3453 15.7204 22.24 15.9748 22.24 16.24V22.24C22.24 22.5052 22.3453 22.7596 22.5329 22.9471C22.7204 23.1346 22.9748 23.24 23.24 23.24H25.24V25.24H19.24C18.9748 25.24 18.7204 25.3453 18.5329 25.5329C18.3453 25.7204 18.24 25.9748 18.24 26.24V29.24H16.24C15.9748 29.24 15.7204 29.3453 15.5329 29.5329C15.3453 29.7204 15.24 29.9748 15.24 30.24V36.24C15.24 36.5052 15.3453 36.7596 15.5329 36.9471C15.7204 37.1346 15.9748 37.24 16.24 37.24H22.24C22.5052 37.24 22.7596 37.1346 22.9471 36.9471C23.1346 36.7596 23.24 36.5052 23.24 36.24V30.24C23.24 29.9748 23.1346 29.7204 22.9471 29.5329C22.7596 29.3453 22.5052 29.24 22.24 29.24H20.24V27.24H32.24V29.24H30.24C29.9748 29.24 29.7204 29.3453 29.5329 29.5329C29.3453 29.7204 29.24 29.9748 29.24 30.24V36.24C29.24 36.5052 29.3453 36.7596 29.5329 36.9471C29.7204 37.1346 29.9748 37.24 30.24 37.24H36.24C36.5052 37.24 36.7596 37.1346 36.9471 36.9471C37.1346 36.7596 37.24 36.5052 37.24 36.24V30.24C37.24 29.9748 37.1346 29.7204 36.9471 29.5329C36.7596 29.3453 36.5052 29.24 36.24 29.24ZM21.24 31.24V35.24H17.24V31.24H21.24ZM24.24 21.24V17.24H28.24V21.24H24.24ZM35.24 35.24H31.24V31.24H35.24V35.24Z" fill="white"/>
<defs>
<linearGradient id="paint0_linear_477_2629" x1="26.24" y1="0" x2="26.24" y2="52.48" gradientUnits="userSpaceOnUse">
<stop stop-color="#003268"/>
<stop offset="1" stop-color="#5280CA"/>
</linearGradient>
</defs>
</svg>
