<svg width="53" height="53" viewBox="0 0 53 53" fill="none" xmlns="http://www.w3.org/2000/svg">
<path d="M0 8.74667C0 3.91602 3.91602 0 8.74667 0H43.7333C48.564 0 52.48 3.91602 52.48 8.74667V43.7333C52.48 48.564 48.564 52.48 43.7333 52.48H8.74667C3.91602 52.48 0 48.564 0 43.7333V8.74667Z" fill="url(#paint0_linear_477_2604)"/>
<path d="M33.24 16.24H19.24C18.4443 16.24 17.6813 16.5561 17.1187 17.1187C16.5561 17.6813 16.24 18.4443 16.24 19.24V33.24C16.24 34.0356 16.5561 34.7987 17.1187 35.3613C17.6813 35.9239 18.4443 36.24 19.24 36.24H33.24C34.0356 36.24 34.7987 35.9239 35.3613 35.3613C35.9239 34.7987 36.24 34.0356 36.24 33.24V19.24C36.24 18.4443 35.9239 17.6813 35.3613 17.1187C34.7987 16.5561 34.0356 16.24 33.24 16.24ZM24.24 18.24H28.24V21.37L26.79 20.37C26.6267 20.2625 26.4355 20.2052 26.24 20.2052C26.0445 20.2052 25.8533 20.2625 25.69 20.37L24.24 21.37V18.24ZM34.24 33.24C34.24 33.5052 34.1346 33.7596 33.9471 33.9471C33.7596 34.1346 33.5052 34.24 33.24 34.24H19.24C18.9748 34.24 18.7204 34.1346 18.5329 33.9471C18.3453 33.7596 18.24 33.5052 18.24 33.24V19.24C18.24 18.9748 18.3453 18.7204 18.5329 18.5329C18.7204 18.3453 18.9748 18.24 19.24 18.24H22.24V23.24C22.2405 23.4209 22.29 23.5983 22.3834 23.7532C22.4767 23.9082 22.6103 24.035 22.77 24.12C22.9264 24.2003 23.1011 24.2379 23.2767 24.2292C23.4523 24.2204 23.6224 24.1655 23.77 24.07L26.24 22.44L28.69 24.07C28.8404 24.169 29.0147 24.2256 29.1946 24.2338C29.3745 24.242 29.5533 24.2014 29.7121 24.1164C29.8708 24.0314 30.0037 23.9051 30.0966 23.7508C30.1895 23.5966 30.2391 23.4201 30.24 23.24V18.24H33.24C33.5052 18.24 33.7596 18.3453 33.9471 18.5329C34.1346 18.7204 34.24 18.9748 34.24 19.24V33.24Z" fill="white"/>
<defs>
<linearGradient id="paint0_linear_477_2604" x1="26.24" y1="0" x2="26.24" y2="52.48" gradientUnits="userSpaceOnUse">
<stop stop-color="#003268"/>
<stop offset="1" stop-color="#5280CA"/>
</linearGradient>
</defs>
</svg>
