<svg width="53" height="53" viewBox="0 0 53 53" fill="none" xmlns="http://www.w3.org/2000/svg">
<path d="M0 10C0 4.47715 4.47715 0 10 0H42.4781C48.001 0 52.4781 4.47715 52.4781 10V42.4781C52.4781 48.001 48.001 52.4781 42.4781 52.4781H10C4.47715 52.4781 0 48.001 0 42.4781V10Z" fill="url(#paint0_linear_477_2620)"/>
<path d="M35.649 22.879C35.649 22.879 35.649 22.879 35.649 22.829C34.9444 20.9052 33.6659 19.2443 31.9865 18.0709C30.307 16.8975 28.3077 16.2682 26.259 16.2682C24.2102 16.2682 22.2109 16.8975 20.5315 18.0709C18.8521 19.2443 17.5736 20.9052 16.869 22.829C16.869 22.829 16.869 22.829 16.869 22.879C16.0821 25.0499 16.0821 27.4281 16.869 29.599C16.869 29.599 16.869 29.599 16.869 29.649C17.5736 31.5728 18.8521 33.2337 20.5315 34.4072C22.2109 35.5806 24.2102 36.2098 26.259 36.2098C28.3077 36.2098 30.307 35.5806 31.9865 34.4072C33.6659 33.2337 34.9444 31.5728 35.649 29.649C35.649 29.649 35.649 29.649 35.649 29.599C36.4358 27.4281 36.4358 25.0499 35.649 22.879ZM18.499 28.239C18.1522 26.9282 18.1522 25.5498 18.499 24.239H20.359C20.199 25.5676 20.199 26.9105 20.359 28.239H18.499ZM19.319 30.239H20.719C20.9537 31.1309 21.2892 31.9931 21.719 32.809C20.7383 32.1409 19.9185 31.2631 19.319 30.239ZM20.719 22.239H19.319C19.9098 21.2181 20.7192 20.3405 21.689 19.669C21.2695 20.4863 20.9441 21.3484 20.719 22.239ZM25.239 33.939C24.0107 33.0377 23.1481 31.7242 22.809 30.239H25.239V33.939ZM25.239 28.239H22.379C22.1924 26.9122 22.1924 25.5658 22.379 24.239H25.239V28.239ZM25.239 22.239H22.809C23.1481 20.7538 24.0107 19.4403 25.239 18.539V22.239ZM33.159 22.239H31.759C31.5242 21.3472 31.1888 20.485 30.759 19.669C31.7397 20.3371 32.5595 21.215 33.159 22.239ZM27.239 18.539C28.4672 19.4403 29.3298 20.7538 29.669 22.239H27.239V18.539ZM27.239 33.939V30.239H29.669C29.3298 31.7242 28.4672 33.0377 27.239 33.939ZM30.099 28.239H27.239V24.239H30.099C30.2856 25.5658 30.2856 26.9122 30.099 28.239ZM30.789 32.809C31.2188 31.9931 31.5542 31.1309 31.789 30.239H33.189C32.5895 31.2631 31.7697 32.1409 30.789 32.809ZM33.979 28.239H32.119C32.2003 27.5755 32.2404 26.9075 32.239 26.239C32.2401 25.5705 32.2 24.9026 32.119 24.239H33.979C34.3257 25.5498 34.3257 26.9282 33.979 28.239Z" fill="white"/>
<defs>
<linearGradient id="paint0_linear_477_2620" x1="26.2391" y1="0" x2="26.2391" y2="52.4781" gradientUnits="userSpaceOnUse">
<stop stop-color="#003268"/>
<stop offset="1" stop-color="#5280CA"/>
</linearGradient>
</defs>
</svg>
