<svg width="32" height="32" viewBox="0 0 32 32" fill="none" xmlns="http://www.w3.org/2000/svg">
<path d="M3.33321 11.8133L15.3332 18.7466C15.5359 18.8636 15.7658 18.9252 15.9999 18.9252C16.2339 18.9252 16.4639 18.8636 16.6665 18.7466L28.6665 11.8133C28.8681 11.6969 29.0356 11.5299 29.1526 11.3287C29.2695 11.1275 29.3318 10.8993 29.3332 10.6666C29.3341 10.4316 29.273 10.2006 29.1559 9.99692C29.0388 9.79322 28.87 9.62406 28.6665 9.50659L16.6665 2.58659C16.4639 2.46957 16.2339 2.40796 15.9999 2.40796C15.7658 2.40796 15.5359 2.46957 15.3332 2.58659L3.33321 9.50659C3.12974 9.62406 2.96092 9.79322 2.84385 9.99692C2.72678 10.2006 2.66561 10.4316 2.66654 10.6666C2.66795 10.8993 2.73022 11.1275 2.84718 11.3287C2.96413 11.5299 3.13169 11.6969 3.33321 11.8133ZM15.9999 5.33326L25.3332 10.6666L15.9999 15.9999L6.66654 10.6666L15.9999 5.33326ZM27.3332 14.8933L15.9999 21.3333L4.66654 14.8399C4.51437 14.7518 4.34625 14.6946 4.17188 14.6717C3.99751 14.6488 3.82033 14.6606 3.65054 14.7064C3.48075 14.7523 3.32172 14.8313 3.18259 14.9389C3.04346 15.0464 2.92698 15.1805 2.83988 15.3333C2.66605 15.6394 2.62036 16.0019 2.71278 16.3416C2.8052 16.6813 3.02824 16.9707 3.33321 17.1466L15.3332 24.0799C15.5359 24.197 15.7658 24.2586 15.9999 24.2586C16.2339 24.2586 16.4639 24.197 16.6665 24.0799L28.6665 17.1466C28.9715 16.9707 29.1946 16.6813 29.287 16.3416C29.3794 16.0019 29.3337 15.6394 29.1599 15.3333C29.0728 15.1805 28.9563 15.0464 28.8172 14.9389C28.678 14.8313 28.519 14.7523 28.3492 14.7064C28.1794 14.6606 28.0022 14.6488 27.8279 14.6717C27.6535 14.6946 27.4854 14.7518 27.3332 14.8399V14.8933ZM27.3332 20.2266L15.9999 26.6666L4.66654 20.1733C4.51437 20.0851 4.34625 20.0279 4.17188 20.005C3.99751 19.9821 3.82033 19.9939 3.65054 20.0398C3.48075 20.0856 3.32172 20.1646 3.18259 20.2722C3.04346 20.3798 2.92698 20.5138 2.83988 20.6666C2.66605 20.9727 2.62036 21.3352 2.71278 21.6749C2.8052 22.0147 3.02824 22.304 3.33321 22.4799L15.3332 29.4133C15.5359 29.5303 15.7658 29.5919 15.9999 29.5919C16.2339 29.5919 16.4639 29.5303 16.6665 29.4133L28.6665 22.4799C28.9715 22.304 29.1946 22.0147 29.287 21.6749C29.3794 21.3352 29.3337 20.9727 29.1599 20.6666C29.0728 20.5138 28.9563 20.3798 28.8172 20.2722C28.678 20.1646 28.519 20.0856 28.3492 20.0398C28.1794 19.9939 28.0022 19.9821 27.8279 20.005C27.6535 20.0279 27.4854 20.0851 27.3332 20.1733V20.2266Z" fill="white"/>
</svg>
