<svg width="70" height="70" viewBox="0 0 70 70" fill="none" xmlns="http://www.w3.org/2000/svg">
<path d="M0 11.6622C0 5.22135 5.22136 0 11.6622 0H58.3111C64.752 0 69.9733 5.22136 69.9733 11.6622V58.3111C69.9733 64.752 64.752 69.9733 58.3111 69.9733H11.6622C5.22135 69.9733 0 64.752 0 58.3111V11.6622Z" fill="url(#paint0_linear_4001_644)"/>
<path d="M38.7333 35.36C39.5773 34.4536 40.0527 33.265 40.0667 32.0267C40.0667 30.69 39.5357 29.408 38.5905 28.4628C37.6453 27.5177 36.3633 26.9867 35.0267 26.9867C33.69 26.9867 32.408 27.5177 31.4628 28.4628C30.5177 29.408 29.9867 30.69 29.9867 32.0267C30.0006 33.265 30.476 34.4536 31.32 35.36C30.1449 35.9451 29.1336 36.8132 28.3772 37.8862C27.6208 38.9591 27.143 40.2032 26.9867 41.5067C26.9478 41.8603 27.0509 42.2149 27.2735 42.4924C27.496 42.77 27.8197 42.9478 28.1733 42.9867C28.5269 43.0256 28.8815 42.9224 29.1591 42.6998C29.4366 42.4773 29.6144 42.1536 29.6533 41.8C29.8124 40.5082 30.4384 39.3191 31.4134 38.4569C32.3884 37.5946 33.6451 37.1186 34.9467 37.1186C36.2482 37.1186 37.5049 37.5946 38.4799 38.4569C39.4549 39.3191 40.0809 40.5082 40.24 41.8C40.2771 42.1419 40.4448 42.4562 40.7082 42.6773C40.9716 42.8985 41.3102 43.0093 41.6533 42.9867H41.8C42.1495 42.9464 42.469 42.7697 42.6887 42.495C42.9085 42.2203 43.0108 41.8698 42.9733 41.52C42.8286 40.2234 42.3658 38.9827 41.6261 37.908C40.8864 36.8334 39.8927 35.9581 38.7333 35.36ZM34.9867 34.4C34.5173 34.4 34.0584 34.2608 33.6681 34C33.2778 33.7392 32.9736 33.3686 32.794 32.9349C32.6143 32.5012 32.5673 32.024 32.6589 31.5636C32.7505 31.1033 32.9765 30.6804 33.3085 30.3485C33.6404 30.0165 34.0633 29.7905 34.5236 29.6989C34.984 29.6073 35.4612 29.6543 35.8949 29.834C36.3286 30.0136 36.6992 30.3178 36.96 30.7081C37.2208 31.0984 37.36 31.5573 37.36 32.0267C37.36 32.6561 37.1099 33.2598 36.6649 33.7049C36.2198 34.1499 35.6161 34.4 34.9867 34.4ZM44.32 21.6533H25.6533C24.5925 21.6533 23.575 22.0747 22.8249 22.8249C22.0747 23.575 21.6533 24.5925 21.6533 25.6533V44.32C21.6533 45.3809 22.0747 46.3983 22.8249 47.1484C23.575 47.8986 24.5925 48.32 25.6533 48.32H44.32C45.3809 48.32 46.3983 47.8986 47.1484 47.1484C47.8986 46.3983 48.32 45.3809 48.32 44.32V25.6533C48.32 24.5925 47.8986 23.575 47.1484 22.8249C46.3983 22.0747 45.3809 21.6533 44.32 21.6533ZM45.6533 44.32C45.6533 44.6736 45.5128 45.0127 45.2628 45.2628C45.0127 45.5128 44.6736 45.6533 44.32 45.6533H25.6533C25.2997 45.6533 24.9606 45.5128 24.7105 45.2628C24.4605 45.0127 24.32 44.6736 24.32 44.32V25.6533C24.32 25.2997 24.4605 24.9606 24.7105 24.7105C24.9606 24.4605 25.2997 24.32 25.6533 24.32H44.32C44.6736 24.32 45.0127 24.4605 45.2628 24.7105C45.5128 24.9606 45.6533 25.2997 45.6533 25.6533V44.32Z" fill="white"/>
<defs>
<linearGradient id="paint0_linear_4001_644" x1="34.9867" y1="0" x2="34.9867" y2="69.9733" gradientUnits="userSpaceOnUse">
<stop stop-color="#003268"/>
<stop offset="1" stop-color="#5280CA"/>
</linearGradient>
</defs>
</svg>
