<svg width="32" height="32" viewBox="0 0 32 32" fill="none" xmlns="http://www.w3.org/2000/svg">
<path d="M28.6667 20.0001C28.6638 19.1997 28.4208 18.4186 27.9692 17.7578C27.5175 17.097 26.8781 16.5869 26.1334 16.2934L28.6267 6.96009C28.6788 6.76132 28.6843 6.5532 28.6426 6.35198C28.601 6.15076 28.5134 5.96188 28.3867 5.80009C28.2572 5.6485 28.0954 5.52788 27.9131 5.44712C27.7308 5.36636 27.5327 5.32751 27.3334 5.33343H9.06675L8.62675 3.65343C8.55025 3.36931 8.38192 3.11847 8.14798 2.94001C7.91405 2.76154 7.62765 2.66547 7.33341 2.66676H4.66675V5.33343H6.30675L9.61341 17.6801C9.69155 17.971 9.86587 18.2268 10.108 18.406C10.3501 18.5852 10.6457 18.6771 10.9467 18.6668H24.6667C25.0204 18.6668 25.3595 18.8072 25.6096 19.0573C25.8596 19.3073 26.0001 19.6465 26.0001 20.0001C26.0001 20.3537 25.8596 20.6929 25.6096 20.9429C25.3595 21.193 25.0204 21.3334 24.6667 21.3334H7.33341C6.97979 21.3334 6.64065 21.4739 6.39061 21.724C6.14056 21.974 6.00008 22.3131 6.00008 22.6668C6.00008 23.0204 6.14056 23.3595 6.39061 23.6096C6.64065 23.8596 6.97979 24.0001 7.33341 24.0001H8.90675C8.68746 24.6043 8.617 25.2524 8.70132 25.8896C8.78565 26.5268 9.02228 27.1342 9.39117 27.6606C9.76007 28.1869 10.2504 28.6166 10.8206 28.9133C11.3907 29.2099 12.024 29.3648 12.6667 29.3648C13.3095 29.3648 13.9428 29.2099 14.5129 28.9133C15.0831 28.6166 15.5734 28.1869 15.9423 27.6606C16.3112 27.1342 16.5479 26.5268 16.6322 25.8896C16.7165 25.2524 16.646 24.6043 16.4267 24.0001H19.5734C19.3738 24.5502 19.2973 25.1375 19.3494 25.7204C19.4015 26.3033 19.5808 26.8677 19.8748 27.3737C20.1688 27.8798 20.5702 28.3152 21.0508 28.6491C21.5314 28.9831 22.0794 29.2076 22.6562 29.3067C23.233 29.4058 23.8245 29.3771 24.389 29.2227C24.9535 29.0683 25.4772 28.7919 25.9232 28.413C26.3693 28.0341 26.7267 27.5619 26.9704 27.0298C27.214 26.4977 27.338 25.9186 27.3334 25.3334C27.3309 24.6446 27.147 23.9686 26.8001 23.3734C27.3702 23.014 27.8403 22.5162 28.1666 21.9265C28.493 21.3368 28.665 20.6741 28.6667 20.0001ZM23.4534 16.0001H12.0001L9.78675 8.00009H25.6001L23.4534 16.0001ZM12.6667 26.6668C12.403 26.6668 12.1453 26.5886 11.926 26.4421C11.7067 26.2955 11.5358 26.0873 11.4349 25.8437C11.334 25.6 11.3076 25.3319 11.359 25.0733C11.4105 24.8147 11.5375 24.5771 11.7239 24.3906C11.9104 24.2041 12.148 24.0772 12.4066 24.0257C12.6653 23.9743 12.9334 24.0007 13.177 24.1016C13.4206 24.2025 13.6289 24.3734 13.7754 24.5927C13.9219 24.8119 14.0001 25.0697 14.0001 25.3334C14.0001 25.687 13.8596 26.0262 13.6096 26.2762C13.3595 26.5263 13.0204 26.6668 12.6667 26.6668ZM23.3334 26.6668C23.0697 26.6668 22.8119 26.5886 22.5927 26.4421C22.3734 26.2955 22.2025 26.0873 22.1016 25.8437C22.0007 25.6 21.9743 25.3319 22.0257 25.0733C22.0771 24.8147 22.2041 24.5771 22.3906 24.3906C22.5771 24.2041 22.8147 24.0772 23.0733 24.0257C23.3319 23.9743 23.6 24.0007 23.8437 24.1016C24.0873 24.2025 24.2955 24.3734 24.442 24.5927C24.5886 24.8119 24.6667 25.0697 24.6667 25.3334C24.6667 25.687 24.5263 26.0262 24.2762 26.2762C24.0262 26.5263 23.687 26.6668 23.3334 26.6668Z" fill="white"/>
</svg>
