<svg width="70" height="70" viewBox="0 0 70 70" fill="none" xmlns="http://www.w3.org/2000/svg">
<path d="M0 11.6622C0 5.22135 5.22136 0 11.6622 0H58.3111C64.752 0 69.9733 5.22136 69.9733 11.6622V58.3111C69.9733 64.752 64.752 69.9733 58.3111 69.9733H11.6622C5.22135 69.9733 0 64.752 0 58.3111V11.6622Z" fill="url(#paint0_linear_4001_636)"/>
<path d="M44.32 21.6533H25.6533C24.5925 21.6533 23.575 22.0747 22.8249 22.8249C22.0747 23.575 21.6533 24.5925 21.6533 25.6533V44.32C21.6533 45.3809 22.0747 46.3983 22.8249 47.1484C23.575 47.8986 24.5925 48.32 25.6533 48.32H44.32C45.3809 48.32 46.3983 47.8986 47.1484 47.1484C47.8986 46.3983 48.32 45.3809 48.32 44.32V25.6533C48.32 24.5925 47.8986 23.575 47.1484 22.8249C46.3983 22.0747 45.3809 21.6533 44.32 21.6533ZM32.32 24.32H37.6533V28.4933L35.72 27.16C35.5023 27.0166 35.2473 26.9402 34.9867 26.9402C34.726 26.9402 34.471 27.0166 34.2533 27.16L32.32 28.4933V24.32ZM45.6533 44.32C45.6533 44.6736 45.5128 45.0127 45.2628 45.2628C45.0127 45.5128 44.6736 45.6533 44.32 45.6533H25.6533C25.2997 45.6533 24.9606 45.5128 24.7105 45.2628C24.4605 45.0127 24.32 44.6736 24.32 44.32V25.6533C24.32 25.2997 24.4605 24.9606 24.7105 24.7105C24.9606 24.4605 25.2997 24.32 25.6533 24.32H29.6533V30.9867C29.654 31.2279 29.72 31.4644 29.8445 31.671C29.9689 31.8776 30.1471 32.0466 30.36 32.16C30.5685 32.267 30.8015 32.3172 31.0356 32.3055C31.2697 32.2938 31.4965 32.2206 31.6933 32.0933L34.9867 29.92L38.2533 32.0933C38.4539 32.2254 38.6863 32.3008 38.9262 32.3117C39.1661 32.3226 39.4044 32.2685 39.6161 32.1552C39.8278 32.0419 40.0049 31.8734 40.1288 31.6678C40.2527 31.4621 40.3188 31.2268 40.32 30.9867V24.32H44.32C44.6736 24.32 45.0127 24.4605 45.2628 24.7105C45.5128 24.9606 45.6533 25.2997 45.6533 25.6533V44.32Z" fill="white"/>
<defs>
<linearGradient id="paint0_linear_4001_636" x1="34.9867" y1="0" x2="34.9867" y2="69.9733" gradientUnits="userSpaceOnUse">
<stop stop-color="#003268"/>
<stop offset="1" stop-color="#5280CA"/>
</linearGradient>
</defs>
</svg>
