<svg width="70" height="70" viewBox="0 0 70 70" fill="none" xmlns="http://www.w3.org/2000/svg">
<path d="M0 13.3333C0 5.96953 5.96954 0 13.3333 0H56.6375C64.0013 0 69.9708 5.96954 69.9708 13.3333V56.6375C69.9708 64.0013 64.0013 69.9708 56.6375 69.9708H13.3333C5.96953 69.9708 0 64.0013 0 56.6375V13.3333Z" fill="url(#paint0_linear_2772_2837)"/>
<path d="M34.9855 21.6521C32.1565 21.6521 29.4434 22.7759 27.443 24.7763C25.4427 26.7767 24.3188 29.4898 24.3188 32.3188C24.3188 39.5188 33.7188 47.6521 34.1188 47.9988C34.3604 48.2053 34.6677 48.3189 34.9855 48.3189C35.3033 48.3189 35.6107 48.2053 35.8522 47.9988C36.3188 47.6521 45.6522 39.5188 45.6522 32.3188C45.6522 29.4898 44.5284 26.7767 42.528 24.7763C40.5276 22.7759 37.8145 21.6521 34.9855 21.6521ZM34.9855 45.1854C32.1455 42.5188 26.9855 36.7721 26.9855 32.3188C26.9855 30.197 27.8284 28.1622 29.3287 26.6619C30.829 25.1616 32.8638 24.3188 34.9855 24.3188C37.1072 24.3188 39.1421 25.1616 40.6424 26.6619C42.1427 28.1622 42.9855 30.197 42.9855 32.3188C42.9855 36.7721 37.8255 42.5321 34.9855 45.1854ZM34.9855 26.9854C33.9307 26.9854 32.8995 27.2982 32.0225 27.8843C31.1454 28.4703 30.4618 29.3032 30.0582 30.2778C29.6545 31.2523 29.5489 32.3247 29.7547 33.3592C29.9604 34.3938 30.4684 35.3441 31.2143 36.09C31.9602 36.8359 32.9105 37.3438 33.945 37.5496C34.9796 37.7554 36.052 37.6498 37.0265 37.2461C38.001 36.8425 38.834 36.1589 39.42 35.2818C40.0061 34.4047 40.3188 33.3736 40.3188 32.3188C40.3188 30.9043 39.7569 29.5477 38.7568 28.5475C37.7566 27.5473 36.4 26.9854 34.9855 26.9854ZM34.9855 34.9854C34.4581 34.9854 33.9425 34.829 33.504 34.536C33.0655 34.243 32.7237 33.8265 32.5218 33.3393C32.32 32.852 32.2672 32.3158 32.3701 31.7985C32.473 31.2812 32.727 30.8061 33.0999 30.4331C33.4728 30.0602 33.948 29.8062 34.4653 29.7033C34.9826 29.6004 35.5187 29.6533 36.006 29.8551C36.4933 30.0569 36.9097 30.3987 37.2028 30.8372C37.4958 31.2758 37.6522 31.7913 37.6522 32.3188C37.6522 33.026 37.3712 33.7043 36.8711 34.2044C36.371 34.7045 35.6928 34.9854 34.9855 34.9854Z" fill="white"/>
<defs>
<linearGradient id="paint0_linear_2772_2837" x1="34.9854" y1="0" x2="34.9854" y2="69.9708" gradientUnits="userSpaceOnUse">
<stop stop-color="#003268"/>
<stop offset="1" stop-color="#5280CA"/>
</linearGradient>
</defs>
</svg>
