<svg width="70" height="70" viewBox="0 0 70 70" fill="none" xmlns="http://www.w3.org/2000/svg">
<path d="M0 13.3333C0 5.96953 5.96954 0 13.3333 0H56.6375C64.0013 0 69.9708 5.96954 69.9708 13.3333V56.6375C69.9708 64.0013 64.0013 69.9708 56.6375 69.9708H13.3333C5.96953 69.9708 0 64.0013 0 56.6375V13.3333Z" fill="url(#paint0_linear_2772_2845)"/>
<path d="M47.532 30.5054C47.532 30.5054 47.532 30.5054 47.532 30.4387C46.5925 27.8737 44.8878 25.6591 42.6486 24.0945C40.4094 22.5299 37.7436 21.6909 35.012 21.6909C32.2803 21.6909 29.6145 22.5299 27.3753 24.0945C25.1361 25.6591 23.4314 27.8737 22.492 30.4387C22.492 30.4387 22.492 30.4387 22.492 30.5054C21.4428 33.3999 21.4428 36.5708 22.492 39.4654C22.492 39.4654 22.492 39.4654 22.492 39.532C23.4314 42.0971 25.1361 44.3116 27.3753 45.8762C29.6145 47.4408 32.2803 48.2798 35.012 48.2798C37.7436 48.2798 40.4094 47.4408 42.6486 45.8762C44.8878 44.3116 46.5925 42.0971 47.532 39.532C47.532 39.532 47.532 39.532 47.532 39.4654C48.5811 36.5708 48.5811 33.3999 47.532 30.5054ZM24.6653 37.652C24.2029 35.9043 24.2029 34.0664 24.6653 32.3187H27.1453C26.932 34.0901 26.932 35.8806 27.1453 37.652H24.6653ZM25.7586 40.3187H27.6253C27.9382 41.5078 28.3856 42.6574 28.9586 43.7454C27.651 42.8546 26.5579 41.6841 25.7586 40.3187ZM27.6253 29.652H25.7586C26.5464 28.2908 27.6255 27.1206 28.9186 26.2254C28.3594 27.315 27.9255 28.4646 27.6253 29.652ZM33.652 45.252C32.0143 44.0503 30.8642 42.299 30.412 40.3187H33.652V45.252ZM33.652 37.652H29.8386C29.5898 35.883 29.5898 34.0878 29.8386 32.3187H33.652V37.652ZM33.652 29.652H30.412C30.8642 27.6717 32.0143 25.9204 33.652 24.7187V29.652ZM44.212 29.652H42.3453C42.0323 28.4629 41.585 27.3133 41.012 26.2254C42.3196 27.1161 43.4126 28.2866 44.212 29.652ZM36.3186 24.7187C37.9563 25.9204 39.1064 27.6717 39.5586 29.652H36.3186V24.7187ZM36.3186 45.252V40.3187H39.5586C39.1064 42.299 37.9563 44.0503 36.3186 45.252ZM40.132 37.652H36.3186V32.3187H40.132C40.3808 34.0878 40.3808 35.883 40.132 37.652ZM41.052 43.7454C41.625 42.6574 42.0723 41.5078 42.3853 40.3187H44.252C43.4526 41.6841 42.3596 42.8546 41.052 43.7454ZM45.3053 37.652H42.8253C42.9337 36.7673 42.9872 35.8767 42.9853 34.9854C42.9868 34.094 42.9333 33.2035 42.8253 32.3187H45.3053C45.7676 34.0664 45.7676 35.9043 45.3053 37.652Z" fill="white"/>
<defs>
<linearGradient id="paint0_linear_2772_2845" x1="34.9854" y1="0" x2="34.9854" y2="69.9708" gradientUnits="userSpaceOnUse">
<stop stop-color="#003268"/>
<stop offset="1" stop-color="#5280CA"/>
</linearGradient>
</defs>
</svg>
