<svg width="32" height="32" viewBox="0 0 32 32" fill="none" xmlns="http://www.w3.org/2000/svg">
<path d="M25.3332 8H21.3332V6.66667C21.3332 5.95942 21.0522 5.28115 20.5521 4.78105C20.052 4.28095 19.3737 4 18.6665 4H13.3332C12.6259 4 11.9476 4.28095 11.4476 4.78105C10.9475 5.28115 10.6665 5.95942 10.6665 6.66667V8H6.6665C5.60564 8 4.58822 8.42143 3.83808 9.17157C3.08793 9.92172 2.6665 10.9391 2.6665 12V24C2.6665 25.0609 3.08793 26.0783 3.83808 26.8284C4.58822 27.5786 5.60564 28 6.6665 28H25.3332C26.394 28 27.4115 27.5786 28.1616 26.8284C28.9117 26.0783 29.3332 25.0609 29.3332 24V12C29.3332 10.9391 28.9117 9.92172 28.1616 9.17157C27.4115 8.42143 26.394 8 25.3332 8ZM13.3332 6.66667H18.6665V8H13.3332V6.66667ZM26.6665 24C26.6665 24.3536 26.526 24.6928 26.276 24.9428C26.0259 25.1929 25.6868 25.3333 25.3332 25.3333H6.6665C6.31288 25.3333 5.97374 25.1929 5.7237 24.9428C5.47365 24.6928 5.33317 24.3536 5.33317 24V17.3333H10.6665V18.6667C10.6665 19.0203 10.807 19.3594 11.057 19.6095C11.3071 19.8595 11.6462 20 11.9998 20C12.3535 20 12.6926 19.8595 12.9426 19.6095C13.1927 19.3594 13.3332 19.0203 13.3332 18.6667V17.3333H18.6665V18.6667C18.6665 19.0203 18.807 19.3594 19.057 19.6095C19.3071 19.8595 19.6462 20 19.9998 20C20.3535 20 20.6926 19.8595 20.9426 19.6095C21.1927 19.3594 21.3332 19.0203 21.3332 18.6667V17.3333H26.6665V24ZM26.6665 14.6667H5.33317V12C5.33317 11.6464 5.47365 11.3072 5.7237 11.0572C5.97374 10.8071 6.31288 10.6667 6.6665 10.6667H25.3332C25.6868 10.6667 26.0259 10.8071 26.276 11.0572C26.526 11.3072 26.6665 11.6464 26.6665 12V14.6667Z" fill="white"/>
</svg>
