<svg width="32" height="32" viewBox="0 0 32 32" fill="none" xmlns="http://www.w3.org/2000/svg">
<path d="M26.5467 20.6801H20.5067C20.1531 20.6801 19.814 20.8206 19.5639 21.0706C19.3139 21.3207 19.1734 21.6598 19.1734 22.0134C19.1734 22.367 19.3139 22.7062 19.5639 22.9562C19.814 23.2063 20.1531 23.3467 20.5067 23.3467H23.7067C22.236 24.8837 20.3393 25.9458 18.2603 26.3966C16.1813 26.8474 14.015 26.6662 12.0398 25.8764C10.0645 25.0866 8.37057 23.7242 7.17554 21.9643C5.9805 20.2044 5.33898 18.1274 5.33341 16.0001C5.33341 15.6465 5.19294 15.3073 4.94289 15.0573C4.69284 14.8072 4.3537 14.6667 4.00008 14.6667C3.64646 14.6667 3.30732 14.8072 3.05727 15.0573C2.80722 15.3073 2.66675 15.6465 2.66675 16.0001C2.6738 18.6038 3.44304 21.1485 4.87955 23.3201C6.31606 25.4917 8.35697 27.1952 10.7504 28.2204C13.1438 29.2455 15.7851 29.5475 18.3481 29.0889C20.9112 28.6304 23.2839 27.4315 25.1734 25.6401V28.0001C25.1734 28.3537 25.3139 28.6928 25.5639 28.9429C25.814 29.1929 26.1531 29.3334 26.5067 29.3334C26.8604 29.3334 27.1995 29.1929 27.4496 28.9429C27.6996 28.6928 27.8401 28.3537 27.8401 28.0001V22.0001C27.8368 21.6556 27.7003 21.3258 27.4592 21.0797C27.2181 20.8336 26.8911 20.6904 26.5467 20.6801ZM16.0001 2.66675C12.5819 2.6765 9.29807 3.99863 6.82675 6.36008V4.00008C6.82675 3.64646 6.68627 3.30732 6.43622 3.05727C6.18618 2.80722 5.84704 2.66675 5.49341 2.66675C5.13979 2.66675 4.80065 2.80722 4.55061 3.05727C4.30056 3.30732 4.16008 3.64646 4.16008 4.00008V10.0001C4.16008 10.3537 4.30056 10.6928 4.55061 10.9429C4.80065 11.1929 5.13979 11.3334 5.49341 11.3334H11.4934C11.847 11.3334 12.1862 11.1929 12.4362 10.9429C12.6863 10.6928 12.8267 10.3537 12.8267 10.0001C12.8267 9.64646 12.6863 9.30732 12.4362 9.05727C12.1862 8.80722 11.847 8.66675 11.4934 8.66675H8.29341C9.76337 7.13058 11.6589 6.06875 13.7366 5.61756C15.8144 5.16637 17.9795 5.34641 19.9542 6.13456C21.9289 6.92272 23.623 8.28303 24.8191 10.0409C26.0151 11.7987 26.6585 13.8739 26.6667 16.0001C26.6667 16.3537 26.8072 16.6928 27.0573 16.9429C27.3073 17.1929 27.6465 17.3334 28.0001 17.3334C28.3537 17.3334 28.6928 17.1929 28.9429 16.9429C29.1929 16.6928 29.3334 16.3537 29.3334 16.0001C29.3334 14.2491 28.9885 12.5153 28.3185 10.8976C27.6484 9.27996 26.6663 7.81011 25.4282 6.57199C24.1901 5.33388 22.7202 4.35175 21.1025 3.68169C19.4849 3.01162 17.751 2.66675 16.0001 2.66675Z" fill="white"/>
</svg>
