<svg width="70" height="70" viewBox="0 0 70 70" fill="none" xmlns="http://www.w3.org/2000/svg">
<path d="M0 13.3333C0 5.96953 5.96954 0 13.3333 0H56.6375C64.0013 0 69.9708 5.96954 69.9708 13.3333V56.6375C69.9708 64.0013 64.0013 69.9708 56.6375 69.9708H13.3333C5.96953 69.9708 0 64.0013 0 56.6375V13.3333Z" fill="url(#paint0_linear_4001_652)"/>
<path d="M47.5322 30.5054C47.5322 30.5054 47.5322 30.5054 47.5322 30.4387C46.5927 27.8737 44.8881 25.6591 42.6489 24.0945C40.4096 22.5299 37.7439 21.6909 35.0122 21.6909C32.2805 21.6909 29.6148 22.5299 27.3755 24.0945C25.1363 25.6591 23.4317 27.8737 22.4922 30.4387C22.4922 30.4387 22.4922 30.4387 22.4922 30.5054C21.443 33.3999 21.443 36.5708 22.4922 39.4654C22.4922 39.4654 22.4922 39.4654 22.4922 39.532C23.4317 42.0971 25.1363 44.3116 27.3755 45.8762C29.6148 47.4408 32.2805 48.2798 35.0122 48.2798C37.7439 48.2798 40.4096 47.4408 42.6489 45.8762C44.8881 44.3116 46.5927 42.0971 47.5322 39.532C47.5322 39.532 47.5322 39.532 47.5322 39.4654C48.5814 36.5708 48.5814 33.3999 47.5322 30.5054ZM24.6655 37.652C24.2032 35.9043 24.2032 34.0664 24.6655 32.3187H27.1455C26.9322 34.0901 26.9322 35.8806 27.1455 37.652H24.6655ZM25.7589 40.3187H27.6255C27.9385 41.5078 28.3858 42.6574 28.9589 43.7454C27.6513 42.8546 26.5582 41.6841 25.7589 40.3187ZM27.6255 29.652H25.7589C26.5467 28.2908 27.6258 27.1206 28.9189 26.2254C28.3596 27.315 27.9257 28.4646 27.6255 29.652ZM33.6522 45.252C32.0146 44.0503 30.8644 42.299 30.4122 40.3187H33.6522V45.252ZM33.6522 37.652H29.8389C29.5901 35.883 29.5901 34.0878 29.8389 32.3187H33.6522V37.652ZM33.6522 29.652H30.4122C30.8644 27.6717 32.0146 25.9204 33.6522 24.7187V29.652ZM44.2122 29.652H42.3455C42.0326 28.4629 41.5852 27.3133 41.0122 26.2254C42.3198 27.1161 43.4129 28.2866 44.2122 29.652ZM36.3189 24.7187C37.9565 25.9204 39.1067 27.6717 39.5589 29.652H36.3189V24.7187ZM36.3189 45.252V40.3187H39.5589C39.1067 42.299 37.9565 44.0503 36.3189 45.252ZM40.1322 37.652H36.3189V32.3187H40.1322C40.381 34.0878 40.381 35.883 40.1322 37.652ZM41.0522 43.7454C41.6252 42.6574 42.0726 41.5078 42.3855 40.3187H44.2522C43.4529 41.6841 42.3598 42.8546 41.0522 43.7454ZM45.3055 37.652H42.8255C42.934 36.7673 42.9874 35.8767 42.9855 34.9854C42.987 34.094 42.9336 33.2035 42.8255 32.3187H45.3055C45.7679 34.0664 45.7679 35.9043 45.3055 37.652Z" fill="white"/>
<defs>
<linearGradient id="paint0_linear_4001_652" x1="34.9854" y1="0" x2="34.9854" y2="69.9708" gradientUnits="userSpaceOnUse">
<stop stop-color="#003268"/>
<stop offset="1" stop-color="#5280CA"/>
</linearGradient>
</defs>
</svg>
