<svg width="32" height="32" viewBox="0 0 32 32" fill="none" xmlns="http://www.w3.org/2000/svg">
<path d="M27.9998 18.6667H26.6665V4.00008C26.6665 3.64646 26.526 3.30732 26.276 3.05727C26.0259 2.80722 25.6868 2.66675 25.3332 2.66675H6.6665C6.31288 2.66675 5.97374 2.80722 5.7237 3.05727C5.47365 3.30732 5.33317 3.64646 5.33317 4.00008V18.6667H3.99984C3.64622 18.6667 3.30708 18.8072 3.05703 19.0573C2.80698 19.3073 2.6665 19.6465 2.6665 20.0001C2.6665 20.3537 2.80698 20.6928 3.05703 20.9429C3.30708 21.1929 3.64622 21.3334 3.99984 21.3334H14.6665V22.8667L8.59984 26.8667C8.35095 27.0208 8.15968 27.2525 8.05553 27.5261C7.95138 27.7996 7.94015 28.0998 8.02356 28.3804C8.10698 28.661 8.2804 28.9063 8.51708 29.0786C8.75376 29.2508 9.04054 29.3403 9.33317 29.3334C9.5953 29.3364 9.85178 29.2571 10.0665 29.1067L14.6665 26.0667V28.0001C14.6665 28.3537 14.807 28.6928 15.057 28.9429C15.3071 29.1929 15.6462 29.3334 15.9998 29.3334C16.3535 29.3334 16.6926 29.1929 16.9426 28.9429C17.1927 28.6928 17.3332 28.3537 17.3332 28.0001V26.0667L21.9332 29.1067C22.1479 29.2571 22.4044 29.3364 22.6665 29.3334C22.9514 29.3312 23.228 29.2378 23.456 29.067C23.6839 28.8961 23.8511 28.6567 23.9331 28.3839C24.0151 28.1111 24.0076 27.8192 23.9116 27.5509C23.8156 27.2827 23.6363 27.0523 23.3998 26.8934L17.3332 22.8934V21.3334H27.9998C28.3535 21.3334 28.6926 21.1929 28.9426 20.9429C29.1927 20.6928 29.3332 20.3537 29.3332 20.0001C29.3332 19.6465 29.1927 19.3073 28.9426 19.0573C28.6926 18.8072 28.3535 18.6667 27.9998 18.6667ZM23.9998 18.6667H7.99984V5.33341H23.9998V18.6667ZM11.9998 16.0001C12.2194 15.9989 12.4354 15.9436 12.6284 15.8389C12.8215 15.7342 12.9857 15.5835 13.1065 15.4001L14.8798 12.7334L16.3865 14.2534C16.5264 14.3942 16.696 14.5019 16.8828 14.5688C17.0696 14.6357 17.2691 14.6601 17.4665 14.6401C17.6631 14.6185 17.8524 14.5535 18.0208 14.4497C18.1891 14.3459 18.3322 14.206 18.4398 14.0401L21.1065 10.0401C21.2635 9.74732 21.3056 9.40649 21.2245 9.08432C21.1434 8.76216 20.945 8.48187 20.668 8.29836C20.3911 8.11485 20.0556 8.04134 19.7273 8.09221C19.3991 8.14309 19.1016 8.31469 18.8932 8.57341L17.1198 11.2401L15.6132 9.72008C15.4733 9.57932 15.3037 9.47156 15.1169 9.40466C14.93 9.33777 14.7306 9.31343 14.5332 9.33342C14.3366 9.35498 14.1473 9.42001 13.9789 9.52378C13.8106 9.62756 13.6674 9.76748 13.5598 9.93341L10.8932 13.9334C10.7002 14.2274 10.6312 14.5857 10.7011 14.9303C10.771 15.2749 10.9742 15.5779 11.2665 15.7734C11.4812 15.9238 11.7377 16.0031 11.9998 16.0001Z" fill="white"/>
</svg>
