<svg width="70" height="70" viewBox="0 0 70 70" fill="none" xmlns="http://www.w3.org/2000/svg">
<path d="M0 13.3333C0 5.96953 5.96954 0 13.3333 0H56.6375C64.0013 0 69.9708 5.96954 69.9708 13.3333V56.6375C69.9708 64.0013 64.0013 69.9708 56.6375 69.9708H13.3333C5.96953 69.9708 0 64.0013 0 56.6375V13.3333Z" fill="url(#paint0_linear_2772_2861)"/>
<path d="M38.7321 35.3588C39.5761 34.4524 40.0515 33.2638 40.0654 32.0254C40.0654 30.6887 39.5344 29.4068 38.5893 28.4616C37.6441 27.5164 36.3621 26.9854 35.0254 26.9854C33.6887 26.9854 32.4068 27.5164 31.4616 28.4616C30.5164 29.4068 29.9854 30.6887 29.9854 32.0254C29.9993 33.2638 30.4748 34.4524 31.3188 35.3588C30.1436 35.9439 29.1324 36.812 28.376 37.8849C27.6196 38.9579 27.1417 40.202 26.9854 41.5054C26.9465 41.8591 27.0497 42.2136 27.2722 42.4912C27.4948 42.7688 27.8185 42.9465 28.1721 42.9854C28.5257 43.0243 28.8803 42.9212 29.1579 42.6986C29.4354 42.4761 29.6132 42.1524 29.6521 41.7988C29.8112 40.507 30.4372 39.3179 31.4122 38.4556C32.3872 37.5934 33.6439 37.1174 34.9454 37.1174C36.247 37.1174 37.5037 37.5934 38.4787 38.4556C39.4536 39.3179 40.0797 40.507 40.2388 41.7988C40.2758 42.1407 40.4436 42.455 40.707 42.6761C40.9703 42.8973 41.309 43.0081 41.6521 42.9854H41.7988C42.1483 42.9452 42.4677 42.7685 42.6875 42.4938C42.9073 42.219 43.0096 41.8686 42.9721 41.5188C42.8274 40.2222 42.3646 38.9815 41.6249 37.9068C40.8852 36.8322 39.8915 35.9569 38.7321 35.3588ZM34.9854 34.3988C34.516 34.3988 34.0572 34.2596 33.6669 33.9988C33.2766 33.738 32.9724 33.3673 32.7928 32.9337C32.6131 32.5 32.5661 32.0228 32.6577 31.5624C32.7493 31.102 32.9753 30.6791 33.3072 30.3472C33.6392 30.0153 34.062 29.7893 34.5224 29.6977C34.9828 29.6061 35.46 29.6531 35.8937 29.8328C36.3273 30.0124 36.698 30.3166 36.9588 30.7069C37.2196 31.0972 37.3588 31.556 37.3588 32.0254C37.3588 32.6549 37.1087 33.2585 36.6636 33.7036C36.2185 34.1487 35.6149 34.3988 34.9854 34.3988ZM44.3188 21.6521H25.6521C24.5912 21.6521 23.5738 22.0735 22.8237 22.8237C22.0735 23.5738 21.6521 24.5912 21.6521 25.6521V44.3188C21.6521 45.3796 22.0735 46.397 22.8237 47.1472C23.5738 47.8973 24.5912 48.3188 25.6521 48.3188H44.3188C45.3796 48.3188 46.397 47.8973 47.1472 47.1472C47.8973 46.397 48.3188 45.3796 48.3188 44.3188V25.6521C48.3188 24.5912 47.8973 23.5738 47.1472 22.8237C46.397 22.0735 45.3796 21.6521 44.3188 21.6521ZM45.6521 44.3188C45.6521 44.6724 45.5116 45.0115 45.2616 45.2616C45.0115 45.5116 44.6724 45.6521 44.3188 45.6521H25.6521C25.2985 45.6521 24.9593 45.5116 24.7093 45.2616C24.4592 45.0115 24.3188 44.6724 24.3188 44.3188V25.6521C24.3188 25.2985 24.4592 24.9593 24.7093 24.7093C24.9593 24.4592 25.2985 24.3188 25.6521 24.3188H44.3188C44.6724 24.3188 45.0115 24.4592 45.2616 24.7093C45.5116 24.9593 45.6521 25.2985 45.6521 25.6521V44.3188Z" fill="white"/>
<defs>
<linearGradient id="paint0_linear_2772_2861" x1="34.9854" y1="0" x2="34.9854" y2="69.9708" gradientUnits="userSpaceOnUse">
<stop stop-color="#003268"/>
<stop offset="1" stop-color="#5280CA"/>
</linearGradient>
</defs>
</svg>
