<svg width="32" height="32" viewBox="0 0 32 32" fill="none" xmlns="http://www.w3.org/2000/svg">
<path d="M26.6666 12.8932V12.6666C26.6747 10.3985 25.9551 8.18762 24.6135 6.35885C23.2719 4.53008 21.3791 3.17984 19.2133 2.50656H19.1333C18.0146 2.16554 16.8491 2.00354 15.6799 2.02656C12.8957 2.17935 10.2747 3.3889 8.35192 5.40833C6.42912 7.42777 5.34945 10.1049 5.33326 12.8932C4.55194 13.1681 3.87521 13.6787 3.39648 14.3546C2.91775 15.0305 2.66064 15.8383 2.66064 16.6666C2.66064 17.4948 2.91775 18.3026 3.39648 18.9785C3.87521 19.6544 4.55194 20.165 5.33326 20.4399C5.60788 23.0729 6.85182 25.5098 8.82323 27.2767C10.7946 29.0435 13.3526 30.0142 15.9999 29.9999H16.3066C18.8665 29.876 21.2998 28.849 23.1744 27.1013C25.0491 25.3536 26.2438 22.9982 26.5466 20.4532C27.3371 20.1939 28.0271 19.6946 28.5205 19.0247C29.0139 18.3549 29.2861 17.5478 29.2993 16.716C29.3126 15.8841 29.066 15.0689 28.5942 14.3837C28.1223 13.6985 27.4485 13.1775 26.6666 12.8932V12.8932ZM16.2399 27.3332C14.3098 27.3891 12.4246 26.7449 10.9322 25.5196C9.4398 24.2944 8.44094 22.5706 8.11992 20.6666H23.8133C23.4878 22.4691 22.5626 24.1086 21.1877 25.3189C19.8128 26.5292 18.0692 27.2391 16.2399 27.3332ZM25.3333 17.9999H6.66659C6.31297 17.9999 5.97383 17.8594 5.72378 17.6094C5.47373 17.3593 5.33326 17.0202 5.33326 16.6666C5.33326 16.3129 5.47373 15.9738 5.72378 15.7238C5.97383 15.4737 6.31297 15.3332 6.66659 15.3332H9.33326C9.68688 15.3332 10.026 15.1928 10.2761 14.9427C10.5261 14.6927 10.6666 14.3535 10.6666 13.9999C10.6666 13.6463 10.5261 13.3071 10.2761 13.0571C10.026 12.807 9.68688 12.6666 9.33326 12.6666H7.99992C8.05961 11.2834 8.45494 9.93549 9.15182 8.73919C9.84869 7.54289 10.8262 6.53411 11.9999 5.7999V9.9999C11.9999 10.3535 12.1404 10.6927 12.3904 10.9427C12.6405 11.1928 12.9796 11.3332 13.3333 11.3332C13.6869 11.3332 14.026 11.1928 14.2761 10.9427C14.5261 10.6927 14.6666 10.3535 14.6666 9.9999V4.78656C15.0285 4.7261 15.3935 4.68604 15.7599 4.66656H15.9999C16.4468 4.67286 16.8925 4.71297 17.3333 4.78656V9.9999C17.3333 10.3535 17.4737 10.6927 17.7238 10.9427C17.9738 11.1928 18.313 11.3332 18.6666 11.3332C19.0202 11.3332 19.3594 11.1928 19.6094 10.9427C19.8594 10.6927 19.9999 10.3535 19.9999 9.9999V5.7599C20.5655 6.0874 21.0932 6.47643 21.5733 6.9199C22.342 7.66643 22.9529 8.55979 23.3698 9.54696C23.7866 10.5341 24.0009 11.595 23.9999 12.6666H22.6666C22.313 12.6666 21.9738 12.807 21.7238 13.0571C21.4737 13.3071 21.3333 13.6463 21.3333 13.9999C21.3333 14.3535 21.4737 14.6927 21.7238 14.9427C21.9738 15.1928 22.313 15.3332 22.6666 15.3332H25.3333C25.6869 15.3332 26.026 15.4737 26.2761 15.7238C26.5261 15.9738 26.6666 16.3129 26.6666 16.6666C26.6666 17.0202 26.5261 17.3593 26.2761 17.6094C26.026 17.8594 25.6869 17.9999 25.3333 17.9999Z" fill="white"/>
</svg>
