<svg width="47" height="47" viewBox="0 0 47 47" fill="none" xmlns="http://www.w3.org/2000/svg">
<path d="M0 7.77481C0 3.4809 3.4809 0 7.77482 0H38.8741C43.168 0 46.6489 3.4809 46.6489 7.77482V38.8741C46.6489 43.168 43.168 46.6489 38.8741 46.6489H7.77481C3.4809 46.6489 0 43.168 0 38.8741V7.77481Z" fill="url(#paint0_linear_2329_5852)"/>
<path d="M23.325 22.2578C23.6766 22.2578 24.0203 22.1536 24.3127 21.9582C24.605 21.7629 24.8329 21.4852 24.9674 21.1604C25.102 20.8355 25.1372 20.4781 25.0686 20.1332C25 19.7884 24.8307 19.4716 24.5821 19.223C24.3334 18.9744 24.0167 18.805 23.6718 18.7365C23.327 18.6679 22.9695 18.7031 22.6447 18.8376C22.3198 18.9722 22.0422 19.2 21.8468 19.4924C21.6515 19.7847 21.5472 20.1285 21.5472 20.4801C21.5472 20.9516 21.7345 21.4038 22.0679 21.7371C22.4013 22.0705 22.8535 22.2578 23.325 22.2578ZM22.6939 28.4001C22.7765 28.4834 22.8748 28.5495 22.9831 28.5946C23.0915 28.6398 23.2076 28.663 23.325 28.663C23.4423 28.663 23.5585 28.6398 23.6668 28.5946C23.7751 28.5495 23.8735 28.4834 23.9561 28.4001L27.5916 24.7556C28.436 23.9117 29.0112 22.8362 29.2443 21.6654C29.4775 20.4945 29.3581 19.2808 28.9014 18.1777C28.4447 17.0747 27.6711 16.1319 26.6785 15.4686C25.6859 14.8052 24.5188 14.4512 23.325 14.4512C22.1311 14.4512 20.9641 14.8052 19.9715 15.4686C18.9789 16.1319 18.2053 17.0747 17.7486 18.1777C17.2918 19.2808 17.1725 20.4945 17.4056 21.6654C17.6388 22.8362 18.2139 23.9117 19.0583 24.7556L22.6939 28.4001ZM19.085 20.0712C19.1457 19.4374 19.3472 18.8252 19.6748 18.2793C20.0023 17.7333 20.4477 17.2675 20.9783 16.9156C21.6754 16.4579 22.4911 16.2141 23.325 16.2141C24.1589 16.2141 24.9746 16.4579 25.6716 16.9156C26.1987 17.2662 26.6416 17.7293 26.9683 18.2715C27.295 18.8137 27.4976 19.4216 27.5613 20.0514C27.6251 20.6813 27.5484 21.3174 27.337 21.9141C27.1255 22.5108 26.7844 23.0532 26.3383 23.5023L23.325 26.5156L20.3116 23.5023C19.865 23.0575 19.5231 22.5188 19.3109 21.9252C19.0987 21.3317 19.0215 20.6983 19.085 20.0712V20.0712ZM29.5472 30.4356H17.1028C16.867 30.4356 16.6409 30.5293 16.4742 30.696C16.3075 30.8627 16.2139 31.0888 16.2139 31.3245C16.2139 31.5603 16.3075 31.7864 16.4742 31.9531C16.6409 32.1198 16.867 32.2134 17.1028 32.2134H29.5472C29.7829 32.2134 30.009 32.1198 30.1757 31.9531C30.3424 31.7864 30.4361 31.5603 30.4361 31.3245C30.4361 31.0888 30.3424 30.8627 30.1757 30.696C30.009 30.5293 29.7829 30.4356 29.5472 30.4356Z" fill="white"/>
<defs>
<linearGradient id="paint0_linear_2329_5852" x1="23.3244" y1="0" x2="23.3244" y2="46.6489" gradientUnits="userSpaceOnUse">
<stop stop-color="#003268"/>
<stop offset="1" stop-color="#5280CA"/>
</linearGradient>
</defs>
</svg>
