<svg width="47" height="47" viewBox="0 0 47 47" fill="none" xmlns="http://www.w3.org/2000/svg">
<path d="M0 7.77481C0 3.4809 3.4809 0 7.77482 0H38.8741C43.168 0 46.6489 3.4809 46.6489 7.77482V38.8741C46.6489 43.168 43.168 46.6489 38.8741 46.6489H7.77481C3.4809 46.6489 0 43.168 0 38.8741V7.77481Z" fill="url(#paint0_linear_2329_5860)"/>
<path d="M24.2133 26.8801H18.88C18.6443 26.8801 18.4182 26.9738 18.2515 27.1405C18.0848 27.3072 17.9911 27.5332 17.9911 27.769C17.9911 28.0047 18.0848 28.2308 18.2515 28.3975C18.4182 28.5642 18.6443 28.6579 18.88 28.6579H24.2133C24.4491 28.6579 24.6752 28.5642 24.8419 28.3975C25.0086 28.2308 25.1022 28.0047 25.1022 27.769C25.1022 27.5332 25.0086 27.3072 24.8419 27.1405C24.6752 26.9738 24.4491 26.8801 24.2133 26.8801ZM20.6578 21.5468H22.4356C22.6713 21.5468 22.8974 21.4531 23.0641 21.2864C23.2308 21.1197 23.3244 20.8936 23.3244 20.6579C23.3244 20.4221 23.2308 20.196 23.0641 20.0293C22.8974 19.8626 22.6713 19.769 22.4356 19.769H20.6578C20.422 19.769 20.1959 19.8626 20.0292 20.0293C19.8625 20.196 19.7689 20.4221 19.7689 20.6579C19.7689 20.8936 19.8625 21.1197 20.0292 21.2864C20.1959 21.4531 20.422 21.5468 20.6578 21.5468V21.5468ZM31.3244 23.3246H28.6578V15.3246C28.6584 15.1679 28.6176 15.0139 28.5396 14.8781C28.4615 14.7423 28.349 14.6295 28.2133 14.5512C28.0782 14.4732 27.9249 14.4321 27.7689 14.4321C27.6129 14.4321 27.4596 14.4732 27.3244 14.5512L24.6578 16.0801L21.9911 14.5512C21.856 14.4732 21.7027 14.4321 21.5467 14.4321C21.3906 14.4321 21.2373 14.4732 21.1022 14.5512L18.4356 16.0801L15.7689 14.5512C15.6338 14.4732 15.4805 14.4321 15.3244 14.4321C15.1684 14.4321 15.0151 14.4732 14.88 14.5512C14.7444 14.6295 14.6318 14.7423 14.5538 14.8781C14.4757 15.0139 14.4349 15.1679 14.4356 15.3246V29.5468C14.4356 30.254 14.7165 30.9323 15.2166 31.4324C15.7167 31.9325 16.395 32.2134 17.1022 32.2134H29.5467C30.2539 32.2134 30.9322 31.9325 31.4323 31.4324C31.9324 30.9323 32.2133 30.254 32.2133 29.5468V24.2134C32.2133 23.9777 32.1197 23.7516 31.953 23.5849C31.7863 23.4182 31.5602 23.3246 31.3244 23.3246ZM17.1022 30.4357C16.8665 30.4357 16.6404 30.342 16.4737 30.1753C16.307 30.0086 16.2133 29.7825 16.2133 29.5468V16.8623L17.9911 17.8757C18.1283 17.9473 18.2808 17.9847 18.4356 17.9847C18.5903 17.9847 18.7428 17.9473 18.88 17.8757L21.5467 16.3468L24.2133 17.8757C24.3505 17.9473 24.503 17.9847 24.6578 17.9847C24.8126 17.9847 24.965 17.9473 25.1022 17.8757L26.88 16.8623V29.5468C26.8824 29.85 26.9365 30.1506 27.04 30.4357H17.1022ZM30.4356 29.5468C30.4356 29.7825 30.3419 30.0086 30.1752 30.1753C30.0085 30.342 29.7824 30.4357 29.5467 30.4357C29.3109 30.4357 29.0848 30.342 28.9181 30.1753C28.7514 30.0086 28.6578 29.7825 28.6578 29.5468V25.1023H30.4356V29.5468ZM24.2133 23.3246H18.88C18.6443 23.3246 18.4182 23.4182 18.2515 23.5849C18.0848 23.7516 17.9911 23.9777 17.9911 24.2134C17.9911 24.4492 18.0848 24.6753 18.2515 24.842C18.4182 25.0087 18.6443 25.1023 18.88 25.1023H24.2133C24.4491 25.1023 24.6752 25.0087 24.8419 24.842C25.0086 24.6753 25.1022 24.4492 25.1022 24.2134C25.1022 23.9777 25.0086 23.7516 24.8419 23.5849C24.6752 23.4182 24.4491 23.3246 24.2133 23.3246Z" fill="white"/>
<defs>
<linearGradient id="paint0_linear_2329_5860" x1="23.3244" y1="0" x2="23.3244" y2="46.6489" gradientUnits="userSpaceOnUse">
<stop stop-color="#003268"/>
<stop offset="1" stop-color="#5280CA"/>
</linearGradient>
</defs>
</svg>
