<svg width="35" height="35" viewBox="0 0 35 35" fill="none" xmlns="http://www.w3.org/2000/svg">
<path d="M18.3591 24.9743C18.288 24.909 18.2106 24.8509 18.1279 24.801C18.0542 24.7438 17.9711 24.6999 17.8824 24.671C17.7964 24.627 17.7036 24.5977 17.6079 24.5843C17.3312 24.5258 17.0431 24.5562 16.7846 24.671C16.6054 24.7359 16.4426 24.8394 16.3078 24.9742C16.173 25.109 16.0695 25.2718 16.0046 25.451C15.9237 25.6224 15.8842 25.8104 15.8891 25.9999C15.8868 26.1877 15.9211 26.3741 15.9902 26.5488C16.0739 26.7214 16.1808 26.8818 16.3079 27.0254C16.4429 27.1593 16.603 27.2652 16.779 27.3371C16.955 27.409 17.1434 27.4454 17.3335 27.4443C17.523 27.4492 17.711 27.4096 17.8824 27.3288C18.0574 27.2556 18.2187 27.153 18.3591 27.0254C18.4929 26.8905 18.5988 26.7304 18.6707 26.5544C18.7426 26.3784 18.779 26.19 18.7779 25.9999C18.7757 25.8111 18.7364 25.6247 18.6624 25.451C18.5936 25.2737 18.4906 25.1117 18.3591 24.9743ZM12.3502 19.0232C12.2764 18.9661 12.1933 18.9221 12.1046 18.8932C12.0205 18.8392 11.9276 18.8001 11.8302 18.7777C11.6449 18.7345 11.4521 18.7345 11.2668 18.7777L11.0068 18.8643L10.7468 18.9943L10.5302 19.1677C10.2594 19.4517 10.1092 19.8297 10.1113 20.2221C10.1102 20.4122 10.1466 20.6007 10.2185 20.7766C10.2904 20.9526 10.3963 21.1127 10.5302 21.2477C10.6706 21.3753 10.8318 21.4779 11.0068 21.551C11.2257 21.6409 11.4632 21.6757 11.6986 21.6523C11.9341 21.6289 12.1601 21.548 12.357 21.4168C12.5538 21.2855 12.7154 21.108 12.8276 20.8997C12.9397 20.6914 12.999 20.4587 13.0002 20.2221C12.9948 19.8397 12.8452 19.4734 12.5813 19.1966L12.3502 19.0232ZM12.5813 24.9743C12.4439 24.8428 12.2819 24.7398 12.1046 24.671C11.8431 24.5498 11.5514 24.5095 11.2668 24.5554L11.0068 24.6421C10.9148 24.6737 10.8274 24.7174 10.7468 24.7721C10.6712 24.8254 10.5988 24.8833 10.5302 24.9454C10.3987 25.0828 10.2956 25.2448 10.2268 25.4221C10.1504 25.595 10.1109 25.782 10.1109 25.971C10.1109 26.16 10.1504 26.347 10.2268 26.5199C10.3 26.6949 10.4026 26.8562 10.5302 26.9966C10.6627 27.1357 10.8217 27.2469 10.9978 27.3238C11.1739 27.4007 11.3636 27.4417 11.5557 27.4443C11.7452 27.4492 11.9332 27.4096 12.1046 27.3288C12.2797 27.2556 12.4409 27.153 12.5813 27.0254C12.7089 26.885 12.8115 26.7238 12.8846 26.5488C12.961 26.3759 13.0005 26.1889 13.0005 25.9999C13.0005 25.8109 12.961 25.6239 12.8846 25.451C12.8159 25.2737 12.7128 25.1117 12.5813 24.9743ZM16.7846 18.8932C16.6073 18.962 16.4453 19.0651 16.3079 19.1966C16.044 19.4734 15.8944 19.8397 15.8891 20.2221C15.8902 20.4587 15.9495 20.6914 16.0617 20.8997C16.1738 21.108 16.3354 21.2855 16.5322 21.4168C16.7291 21.548 16.9552 21.6289 17.1906 21.6523C17.426 21.6757 17.6636 21.6409 17.8824 21.551C18.0574 21.4779 18.2187 21.3753 18.3591 21.2477C18.4929 21.1127 18.5988 20.9526 18.6707 20.7766C18.7426 20.6007 18.779 20.4122 18.7779 20.2221C18.7726 19.8397 18.623 19.4734 18.3591 19.1966C18.1559 18.9961 17.898 18.8604 17.6178 18.8064C17.3376 18.7524 17.0477 18.7826 16.7846 18.8932ZM24.1368 24.9743C23.9964 24.8468 23.8352 24.7442 23.6602 24.671C23.3971 24.5604 23.1072 24.5302 22.827 24.5842C22.5468 24.6381 22.2888 24.7739 22.0857 24.9743C21.9542 25.1117 21.8511 25.2737 21.7824 25.451C21.706 25.6239 21.6665 25.8109 21.6665 25.9999C21.6665 26.1889 21.706 26.3759 21.7824 26.5488C21.8555 26.7238 21.9581 26.885 22.0857 27.0254C22.2207 27.1593 22.3808 27.2652 22.5567 27.3371C22.7327 27.409 22.9212 27.4454 23.1113 27.4443C23.3008 27.4492 23.4887 27.4096 23.6602 27.3288C23.8352 27.2556 23.9964 27.153 24.1368 27.0254C24.3373 26.8223 24.473 26.5644 24.527 26.2842C24.581 26.004 24.5508 25.7141 24.4402 25.451C24.3714 25.2737 24.2683 25.1117 24.1368 24.9743ZM23.1113 7.22211H11.5557C11.1726 7.22211 10.8052 7.3743 10.5343 7.64518C10.2635 7.91607 10.1113 8.28347 10.1113 8.66656V14.4443C10.1113 14.8274 10.2635 15.1948 10.5343 15.4657C10.8052 15.7366 11.1726 15.8888 11.5557 15.8888H23.1113C23.4944 15.8888 23.8618 15.7366 24.1327 15.4657C24.4035 15.1948 24.5557 14.8274 24.5557 14.4443V8.66656C24.5557 8.28347 24.4035 7.91607 24.1327 7.64518C23.8618 7.3743 23.4944 7.22211 23.1113 7.22211ZM21.6668 12.9999H13.0002V10.111H21.6668V12.9999ZM26.0002 1.44434H8.66683C7.51756 1.44434 6.41536 1.90088 5.6027 2.71354C4.79004 3.5262 4.3335 4.6284 4.3335 5.77767V28.8888C4.3335 30.0381 4.79004 31.1403 5.6027 31.9529C6.41536 32.7656 7.51756 33.2221 8.66683 33.2221H26.0002C27.1494 33.2221 28.2516 32.7656 29.0643 31.9529C29.877 31.1403 30.3335 30.0381 30.3335 28.8888V5.77767C30.3335 4.6284 29.877 3.5262 29.0643 2.71354C28.2516 1.90088 27.1494 1.44434 26.0002 1.44434ZM27.4446 28.8888C27.4446 29.2719 27.2924 29.6393 27.0215 29.9102C26.7507 30.181 26.3833 30.3332 26.0002 30.3332H8.66683C8.28374 30.3332 7.91634 30.181 7.64545 29.9102C7.37457 29.6393 7.22239 29.2719 7.22239 28.8888V5.77767C7.22239 5.39458 7.37457 5.02718 7.64545 4.75629C7.91634 4.48541 8.28374 4.33323 8.66683 4.33323H26.0002C26.3833 4.33323 26.7507 4.48541 27.0215 4.75629C27.2924 5.02718 27.4446 5.39458 27.4446 5.77767V28.8888ZM23.9057 19.0232C23.832 18.9661 23.7489 18.9221 23.6602 18.8932C23.5742 18.8492 23.4814 18.82 23.3857 18.8066C23.2004 18.7634 23.0077 18.7634 22.8224 18.8066L22.5624 18.8932L22.3024 19.0232L22.0857 19.1966C21.8218 19.4734 21.6722 19.8397 21.6668 20.2221C21.668 20.4587 21.7273 20.6914 21.8394 20.8997C21.9516 21.108 22.1132 21.2855 22.31 21.4168C22.5069 21.548 22.7329 21.6289 22.9684 21.6523C23.2038 21.6757 23.4413 21.6409 23.6602 21.551C23.8352 21.4779 23.9964 21.3753 24.1368 21.2477C24.2707 21.1127 24.3766 20.9526 24.4485 20.7766C24.5204 20.6007 24.5568 20.4122 24.5557 20.2221C24.5504 19.8397 24.4008 19.4734 24.1368 19.1966L23.9057 19.0232Z" fill="white"/>
</svg>
