<svg width="35" height="35" viewBox="0 0 35 35" fill="none" xmlns="http://www.w3.org/2000/svg">
<path d="M10.1109 21.6671H14.4442C14.8273 21.6671 15.1947 21.5149 15.4656 21.244C15.7365 20.9731 15.8887 20.6057 15.8887 20.2227C15.8887 19.8396 15.7365 19.4722 15.4656 19.2013C15.1947 18.9304 14.8273 18.7782 14.4442 18.7782H10.1109C9.7278 18.7782 9.3604 18.9304 9.08952 19.2013C8.81863 19.4722 8.66645 19.8396 8.66645 20.2227C8.66645 20.6057 8.81863 20.9731 9.08952 21.244C9.3604 21.5149 9.7278 21.6671 10.1109 21.6671ZM27.4442 7.22266H7.22201C6.07273 7.22266 4.97053 7.6792 4.15788 8.49186C3.34522 9.30452 2.88867 10.4067 2.88867 11.556V24.556C2.88867 25.7053 3.34522 26.8075 4.15788 27.6201C4.97053 28.4328 6.07273 28.8893 7.22201 28.8893H27.4442C28.5935 28.8893 29.6957 28.4328 30.5084 27.6201C31.321 26.8075 31.7776 25.7053 31.7776 24.556V11.556C31.7776 10.4067 31.321 9.30452 30.5084 8.49186C29.6957 7.6792 28.5935 7.22266 27.4442 7.22266ZM28.8887 24.556C28.8887 24.9391 28.7365 25.3065 28.4656 25.5774C28.1947 25.8483 27.8273 26.0004 27.4442 26.0004H7.22201C6.83891 26.0004 6.47152 25.8483 6.20063 25.5774C5.92974 25.3065 5.77756 24.9391 5.77756 24.556V15.8893H28.8887V24.556ZM28.8887 13.0004H5.77756V11.556C5.77756 11.1729 5.92974 10.8055 6.20063 10.5346C6.47152 10.2637 6.83891 10.1115 7.22201 10.1115H27.4442C27.8273 10.1115 28.1947 10.2637 28.4656 10.5346C28.7365 10.8055 28.8887 11.1729 28.8887 11.556V13.0004Z" fill="white"/>
</svg>
