<svg width="47" height="47" viewBox="0 0 47 47" fill="none" xmlns="http://www.w3.org/2000/svg">
<path d="M0 7.77481C0 3.4809 3.4809 0 7.77482 0H38.8741C43.168 0 46.6489 3.4809 46.6489 7.77482V38.8741C46.6489 43.168 43.168 46.6489 38.8741 46.6489H7.77481C3.4809 46.6489 0 43.168 0 38.8741V7.77481Z" fill="url(#paint0_linear_2329_5868)"/>
<path d="M18.8801 26.88C19.2337 26.88 19.5729 26.7395 19.8229 26.4895C20.073 26.2394 20.2134 25.9003 20.2134 25.5467C20.2178 25.5023 20.2178 25.4577 20.2134 25.4133L22.6934 22.9333H22.8979H23.1023L24.5334 24.3644C24.5334 24.3644 24.5334 24.4089 24.5334 24.4355C24.5334 24.7892 24.6739 25.1283 24.924 25.3784C25.174 25.6284 25.5131 25.7689 25.8668 25.7689C26.2204 25.7689 26.5595 25.6284 26.8096 25.3784C27.0596 25.1283 27.2001 24.7892 27.2001 24.4355V24.3644L30.4357 21.1022C30.6994 21.1022 30.9572 21.024 31.1764 20.8775C31.3957 20.731 31.5666 20.5228 31.6675 20.2791C31.7684 20.0355 31.7948 19.7674 31.7434 19.5088C31.6919 19.2501 31.5649 19.0125 31.3785 18.8261C31.192 18.6396 30.9544 18.5126 30.6958 18.4612C30.4371 18.4097 30.169 18.4361 29.9254 18.537C29.6818 18.638 29.4735 18.8089 29.327 19.0281C29.1805 19.2474 29.1023 19.5052 29.1023 19.7689C29.098 19.8132 29.098 19.8579 29.1023 19.9022L25.8934 23.1111H25.7512L24.2134 21.5467C24.2134 21.193 24.073 20.8539 23.8229 20.6038C23.5729 20.3538 23.2337 20.2133 22.8801 20.2133C22.5265 20.2133 22.1873 20.3538 21.9373 20.6038C21.6872 20.8539 21.5468 21.193 21.5468 21.5467L18.8801 24.2133C18.5265 24.2133 18.1873 24.3538 17.9373 24.6038C17.6872 24.8539 17.5468 25.193 17.5468 25.5467C17.5468 25.9003 17.6872 26.2394 17.9373 26.4895C18.1873 26.7395 18.5265 26.88 18.8801 26.88ZM30.8801 30.4355H15.769V15.3244C15.769 15.0887 15.6753 14.8626 15.5086 14.6959C15.3419 14.5292 15.1158 14.4355 14.8801 14.4355C14.6444 14.4355 14.4183 14.5292 14.2516 14.6959C14.0849 14.8626 13.9912 15.0887 13.9912 15.3244V31.3244C13.9912 31.5602 14.0849 31.7863 14.2516 31.953C14.4183 32.1197 14.6444 32.2133 14.8801 32.2133H30.8801C31.1158 32.2133 31.3419 32.1197 31.5086 31.953C31.6753 31.7863 31.769 31.5602 31.769 31.3244C31.769 31.0887 31.6753 30.8626 31.5086 30.6959C31.3419 30.5292 31.1158 30.4355 30.8801 30.4355Z" fill="white"/>
<defs>
<linearGradient id="paint0_linear_2329_5868" x1="23.3244" y1="0" x2="23.3244" y2="46.6489" gradientUnits="userSpaceOnUse">
<stop stop-color="#003268"/>
<stop offset="1" stop-color="#5280CA"/>
</linearGradient>
</defs>
</svg>
