<svg width="47" height="47" viewBox="0 0 47 47" fill="none" xmlns="http://www.w3.org/2000/svg">
<path d="M0 7.77481C0 3.4809 3.4809 0 7.77482 0H38.8741C43.168 0 46.6489 3.4809 46.6489 7.77482V38.8741C46.6489 43.168 43.168 46.6489 38.8741 46.6489H7.77481C3.4809 46.6489 0 43.168 0 38.8741V7.77481Z" fill="url(#paint0_linear_2329_5895)"/>
<path d="M27.8494 15.1643C27.0319 14.492 26.0745 14.0106 25.0473 13.7553C24.02 13.5 22.9488 13.4773 21.9116 13.6888C20.5306 13.9677 19.2636 14.6506 18.2713 15.6508C17.279 16.651 16.6062 17.9234 16.3383 19.3066C16.1426 20.3436 16.1781 21.4111 16.4424 22.4329C16.7067 23.4547 17.1932 24.4055 17.8671 25.2177C18.4926 25.9235 18.8512 26.8261 18.8805 27.7688V30.4354C18.8805 31.1427 19.1614 31.821 19.6615 32.3211C20.1616 32.8212 20.8399 33.1021 21.5471 33.1021H25.1027C25.8099 33.1021 26.4882 32.8212 26.9883 32.3211C27.4884 31.821 27.7694 31.1427 27.7694 30.4354V27.9377C27.7992 26.8969 28.1816 25.8972 28.8538 25.1021C30.0317 23.645 30.5869 21.782 30.3989 19.9178C30.2108 18.0536 29.2946 16.339 27.8494 15.1466V15.1643ZM25.9916 30.4354C25.9916 30.6712 25.8979 30.8973 25.7312 31.064C25.5645 31.2307 25.3385 31.3243 25.1027 31.3243H21.5471C21.3114 31.3243 21.0853 31.2307 20.9186 31.064C20.7519 30.8973 20.6583 30.6712 20.6583 30.4354V29.5466H25.9916V30.4354ZM27.476 23.9999C26.5823 25.06 26.0608 26.3839 25.9916 27.7688H24.2138V25.1021C24.2138 24.8664 24.1202 24.6403 23.9535 24.4736C23.7868 24.3069 23.5607 24.2132 23.3249 24.2132C23.0892 24.2132 22.8631 24.3069 22.6964 24.4736C22.5297 24.6403 22.436 24.8664 22.436 25.1021V27.7688H20.6583C20.6348 26.4071 20.1311 25.0975 19.236 24.071C18.6455 23.3634 18.2484 22.5149 18.0834 21.6082C17.9185 20.7015 17.9913 19.7675 18.2948 18.8972C18.5983 18.027 19.1221 17.2503 19.8152 16.6428C20.5082 16.0354 21.3469 15.6178 22.2494 15.431C23.025 15.2713 23.8264 15.2863 24.5955 15.475C25.3646 15.6636 26.082 16.0212 26.6956 16.5216C27.3093 17.0221 27.8038 17.6529 28.1433 18.3684C28.4828 19.0838 28.6587 19.8658 28.6583 20.6577C28.6648 21.8753 28.2468 23.0572 27.476 23.9999Z" fill="white"/>
<defs>
<linearGradient id="paint0_linear_2329_5895" x1="23.3244" y1="0" x2="23.3244" y2="46.6489" gradientUnits="userSpaceOnUse">
<stop stop-color="#003268"/>
<stop offset="1" stop-color="#5280CA"/>
</linearGradient>
</defs>
</svg>
