<svg width="35" height="35" viewBox="0 0 35 35" fill="none" xmlns="http://www.w3.org/2000/svg">
<path d="M9.90016 17.8397H16.4668C16.8151 17.8397 17.1492 17.7013 17.3955 17.455C17.6418 17.2087 17.7802 16.8747 17.7802 16.5263C17.7802 16.178 17.6418 15.844 17.3955 15.5977C17.1492 15.3514 16.8151 15.213 16.4668 15.213H9.90016C9.55185 15.213 9.21779 15.3514 8.9715 15.5977C8.7252 15.844 8.58683 16.178 8.58683 16.5263C8.58683 16.8747 8.7252 17.2087 8.9715 17.455C9.21779 17.7013 9.55185 17.8397 9.90016 17.8397ZM30.9135 7.33301H4.64683C4.29851 7.33301 3.96446 7.47138 3.71816 7.71767C3.47186 7.96397 3.3335 8.29802 3.3335 8.64634V27.033C3.3335 27.3813 3.47186 27.7154 3.71816 27.9617C3.96446 28.208 4.29851 28.3463 4.64683 28.3463H30.9135C31.2618 28.3463 31.5959 28.208 31.8422 27.9617C32.0885 27.7154 32.2268 27.3813 32.2268 27.033V8.64634C32.2268 8.29802 32.0885 7.96397 31.8422 7.71767C31.5959 7.47138 31.2618 7.33301 30.9135 7.33301ZM29.6002 25.7197H5.96016V9.95967H29.6002V25.7197ZM9.90016 23.093H16.4668C16.8151 23.093 17.1492 22.9546 17.3955 22.7083C17.6418 22.462 17.7802 22.128 17.7802 21.7797C17.7802 21.4314 17.6418 21.0973 17.3955 20.851C17.1492 20.6047 16.8151 20.4663 16.4668 20.4663H9.90016C9.55185 20.4663 9.21779 20.6047 8.9715 20.851C8.7252 21.0973 8.58683 21.4314 8.58683 21.7797C8.58683 22.128 8.7252 22.462 8.9715 22.7083C9.21779 22.9546 9.55185 23.093 9.90016 23.093Z" fill="white"/>
<path d="M25.7329 18.9977C26.1927 18.6379 26.5283 18.1446 26.693 17.5863C26.8577 17.0281 26.8434 16.4326 26.652 15.8828C26.4606 15.333 26.1016 14.8563 25.6251 14.5188C25.1485 14.1813 24.578 14 23.993 14C23.408 14 22.8375 14.1813 22.361 14.5188C21.8844 14.8563 21.5255 15.333 21.3341 15.8828C21.1427 16.4326 21.1283 17.0281 21.2931 17.5863C21.4578 18.1446 21.7934 18.6379 22.2531 18.9977C21.4653 19.3116 20.7779 19.8322 20.2642 20.5041C19.7505 21.176 19.4297 21.9739 19.3361 22.8128C19.3294 22.8741 19.3348 22.936 19.3521 22.9952C19.3694 23.0544 19.3983 23.1096 19.437 23.1576C19.5153 23.2547 19.6292 23.3169 19.7535 23.3305C19.8779 23.3441 20.0026 23.308 20.1003 23.2302C20.1979 23.1523 20.2604 23.0391 20.2741 22.9154C20.3771 22.0037 20.8142 21.1617 21.502 20.5502C22.1897 19.9388 23.0799 19.6007 24.0024 19.6007C24.9249 19.6007 25.8151 19.9388 26.5029 20.5502C27.1906 21.1617 27.6277 22.0037 27.7307 22.9154C27.7435 23.03 27.7985 23.1359 27.8851 23.2125C27.9717 23.2892 28.0838 23.3312 28.1997 23.3305H28.2513C28.3742 23.3165 28.4866 23.2546 28.5639 23.1585C28.6412 23.0624 28.6772 22.9398 28.664 22.8175C28.5699 21.9762 28.2475 21.1762 27.7311 20.5033C27.2148 19.8304 26.524 19.3099 25.7329 18.9977ZM23.993 18.6665C23.622 18.6665 23.2593 18.5571 22.9508 18.3521C22.6424 18.1471 22.4019 17.8558 22.2599 17.5149C22.118 17.174 22.0808 16.7989 22.1532 16.437C22.2256 16.0751 22.4042 15.7427 22.6666 15.4818C22.9289 15.2209 23.2632 15.0432 23.6271 14.9712C23.9909 14.8992 24.3681 14.9362 24.7109 15.0774C25.0537 15.2186 25.3466 15.4577 25.5528 15.7645C25.7589 16.0713 25.8689 16.432 25.8689 16.8009C25.8689 17.2957 25.6713 17.7703 25.3195 18.1201C24.9677 18.47 24.4905 18.6665 23.993 18.6665Z" fill="white"/>
</svg>
