<svg width="35" height="35" viewBox="0 0 35 35" fill="none" xmlns="http://www.w3.org/2000/svg">
<path d="M27.4442 8.66634H23.1109V7.2219C23.1109 6.45572 22.8065 5.72092 22.2648 5.17914C21.723 4.63737 20.9882 4.33301 20.222 4.33301H14.4442C13.678 4.33301 12.9432 4.63737 12.4015 5.17914C11.8597 5.72092 11.5553 6.45572 11.5553 7.2219V8.66634H7.22201C6.07273 8.66634 4.97053 9.12289 4.15788 9.93555C3.34522 10.7482 2.88867 11.8504 2.88867 12.9997V25.9997C2.88867 27.1489 3.34522 28.2511 4.15788 29.0638C4.97053 29.8765 6.07273 30.333 7.22201 30.333H27.4442C28.5935 30.333 29.6957 29.8765 30.5084 29.0638C31.321 28.2511 31.7776 27.1489 31.7776 25.9997V12.9997C31.7776 11.8504 31.321 10.7482 30.5084 9.93555C29.6957 9.12289 28.5935 8.66634 27.4442 8.66634ZM14.4442 7.2219H20.222V8.66634H14.4442V7.2219ZM28.8887 25.9997C28.8887 26.3828 28.7365 26.7502 28.4656 27.0211C28.1947 27.2919 27.8273 27.4441 27.4442 27.4441H7.22201C6.83891 27.4441 6.47152 27.2919 6.20063 27.0211C5.92974 26.7502 5.77756 26.3828 5.77756 25.9997V18.7775H11.5553V20.2219C11.5553 20.605 11.7075 20.9724 11.9784 21.2433C12.2493 21.5142 12.6167 21.6663 12.9998 21.6663C13.3829 21.6663 13.7503 21.5142 14.0212 21.2433C14.292 20.9724 14.4442 20.605 14.4442 20.2219V18.7775H20.222V20.2219C20.222 20.605 20.3742 20.9724 20.6451 21.2433C20.916 21.5142 21.2834 21.6663 21.6665 21.6663C22.0495 21.6663 22.4169 21.5142 22.6878 21.2433C22.9587 20.9724 23.1109 20.605 23.1109 20.2219V18.7775H28.8887V25.9997ZM28.8887 15.8886H5.77756V12.9997C5.77756 12.6166 5.92974 12.2492 6.20063 11.9783C6.47152 11.7074 6.83891 11.5552 7.22201 11.5552H27.4442C27.8273 11.5552 28.1947 11.7074 28.4656 11.9783C28.7365 12.2492 28.8887 12.6166 28.8887 12.9997V15.8886Z" fill="white"/>
</svg>
