<svg width="35" height="35" viewBox="0 0 35 35" fill="none" xmlns="http://www.w3.org/2000/svg">
<path d="M30.6216 26.35H29.0165V24.7448C29.0165 24.319 28.8473 23.9108 28.5463 23.6097C28.2453 23.3087 27.837 23.1396 27.4113 23.1396C26.9856 23.1396 26.5773 23.3087 26.2762 23.6097C25.9752 23.9108 25.8061 24.319 25.8061 24.7448V26.35H24.2009C23.7752 26.35 23.3669 26.5191 23.0659 26.8201C22.7648 27.1211 22.5957 27.5294 22.5957 27.9551C22.5957 28.3809 22.7648 28.7891 23.0659 29.0902C23.3669 29.3912 23.7752 29.5603 24.2009 29.5603H25.8061V31.1655C25.8061 31.5912 25.9752 31.9995 26.2762 32.3005C26.5773 32.6016 26.9856 32.7707 27.4113 32.7707C27.837 32.7707 28.2453 32.6016 28.5463 32.3005C28.8473 31.9995 29.0165 31.5912 29.0165 31.1655V29.5603H30.6216C31.0474 29.5603 31.4557 29.3912 31.7567 29.0902C32.0577 28.7891 32.2268 28.3809 32.2268 27.9551C32.2268 27.5294 32.0577 27.1211 31.7567 26.8201C31.4557 26.5191 31.0474 26.35 30.6216 26.35ZM19.3853 29.5603H8.14905C7.72333 29.5603 7.31505 29.3912 7.01401 29.0902C6.71298 28.7891 6.54387 28.3809 6.54387 27.9551V5.48255C6.54387 5.05683 6.71298 4.64854 7.01401 4.34751C7.31505 4.04648 7.72333 3.87736 8.14905 3.87736H16.175V8.69292C16.175 9.97008 16.6823 11.1949 17.5854 12.098C18.4885 13.0011 19.7134 13.5085 20.9905 13.5085H25.8061V18.324C25.8061 18.7498 25.9752 19.158 26.2762 19.4591C26.5773 19.7601 26.9856 19.9292 27.4113 19.9292C27.837 19.9292 28.2453 19.7601 28.5463 19.4591C28.8473 19.158 29.0165 18.7498 29.0165 18.324V11.9033C29.0165 11.9033 29.0165 11.9033 29.0165 11.807C28.9997 11.6595 28.9675 11.5142 28.9201 11.3736V11.2291C28.843 11.0641 28.74 10.9124 28.6152 10.7797L18.9841 1.14855C18.8514 1.02369 18.6996 0.920741 18.5346 0.843562C18.4815 0.834268 18.4272 0.834268 18.3741 0.843562C18.218 0.760098 18.0503 0.700576 17.8765 0.666992H8.14905C6.87189 0.666992 5.64703 1.17434 4.74394 2.07744C3.84085 2.98053 3.3335 4.20538 3.3335 5.48255V27.9551C3.3335 29.2323 3.84085 30.4572 4.74394 31.3603C5.64703 32.2633 6.87189 32.7707 8.14905 32.7707H19.3853C19.8111 32.7707 20.2194 32.6016 20.5204 32.3005C20.8214 31.9995 20.9905 31.5912 20.9905 31.1655C20.9905 30.7398 20.8214 30.3315 20.5204 30.0305C20.2194 29.7294 19.8111 29.5603 19.3853 29.5603ZM19.3853 6.14067L23.5428 10.2981H20.9905C20.5648 10.2981 20.1565 10.129 19.8555 9.82796C19.5545 9.52692 19.3853 9.11864 19.3853 8.69292V6.14067ZM11.3594 10.2981C10.9337 10.2981 10.5254 10.4672 10.2244 10.7683C9.92335 11.0693 9.75424 11.4776 9.75424 11.9033C9.75424 12.329 9.92335 12.7373 10.2244 13.0383C10.5254 13.3394 10.9337 13.5085 11.3594 13.5085H12.9646C13.3903 13.5085 13.7986 13.3394 14.0996 13.0383C14.4007 12.7373 14.5698 12.329 14.5698 11.9033C14.5698 11.4776 14.4007 11.0693 14.0996 10.7683C13.7986 10.4672 13.3903 10.2981 12.9646 10.2981H11.3594ZM19.3853 23.1396H11.3594C10.9337 23.1396 10.5254 23.3087 10.2244 23.6097C9.92335 23.9108 9.75424 24.319 9.75424 24.7448C9.75424 25.1705 9.92335 25.5788 10.2244 25.8798C10.5254 26.1808 10.9337 26.35 11.3594 26.35H19.3853C19.8111 26.35 20.2194 26.1808 20.5204 25.8798C20.8214 25.5788 20.9905 25.1705 20.9905 24.7448C20.9905 24.319 20.8214 23.9108 20.5204 23.6097C20.2194 23.3087 19.8111 23.1396 19.3853 23.1396ZM20.9905 16.7188H11.3594C10.9337 16.7188 10.5254 16.888 10.2244 17.189C9.92335 17.49 9.75424 17.8983 9.75424 18.324C9.75424 18.7498 9.92335 19.158 10.2244 19.4591C10.5254 19.7601 10.9337 19.9292 11.3594 19.9292H20.9905C21.4163 19.9292 21.8245 19.7601 22.1256 19.4591C22.4266 19.158 22.5957 18.7498 22.5957 18.324C22.5957 17.8983 22.4266 17.49 22.1256 17.189C21.8245 16.888 21.4163 16.7188 20.9905 16.7188Z" fill="white"/>
</svg>
