<svg width="26" height="26" viewBox="0 0 26 26" fill="none" xmlns="http://www.w3.org/2000/svg">
<path d="M13.7692 18.731C13.7159 18.682 13.6578 18.6384 13.5958 18.601C13.5405 18.5581 13.4782 18.5251 13.4117 18.5035C13.3472 18.4705 13.2776 18.4485 13.2058 18.4385C12.9983 18.3946 12.7822 18.4174 12.5883 18.5035C12.4539 18.5522 12.3318 18.6298 12.2307 18.7309C12.1296 18.832 12.052 18.9541 12.0033 19.0885C11.9427 19.2171 11.913 19.3581 11.9167 19.5002C11.9149 19.641 11.9407 19.7808 11.9925 19.9118C12.0553 20.0413 12.1355 20.1616 12.2308 20.2693C12.3321 20.3697 12.4521 20.4492 12.5841 20.5031C12.7161 20.557 12.8574 20.5843 13 20.5835C13.1421 20.5872 13.2831 20.5575 13.4117 20.4968C13.543 20.442 13.6639 20.365 13.7692 20.2693C13.8696 20.1681 13.949 20.0481 14.0029 19.9161C14.0568 19.7841 14.0842 19.6427 14.0833 19.5002C14.0816 19.3586 14.0522 19.2187 13.9967 19.0885C13.9451 18.9555 13.8678 18.834 13.7692 18.731ZM9.2625 14.2677C9.20719 14.2248 9.14489 14.1918 9.07833 14.1702C9.01524 14.1296 8.9456 14.1003 8.8725 14.0835C8.73352 14.0511 8.58898 14.0511 8.45 14.0835L8.255 14.1485L8.06 14.246L7.8975 14.376C7.69441 14.589 7.5818 14.8725 7.58333 15.1668C7.58251 15.3094 7.60984 15.4507 7.66375 15.5827C7.71766 15.7147 7.7971 15.8348 7.8975 15.936C8.0028 16.0317 8.12372 16.1086 8.255 16.1635C8.41912 16.2309 8.5973 16.257 8.77386 16.2395C8.95042 16.2219 9.11997 16.1612 9.26761 16.0628C9.41524 15.9644 9.53644 15.8312 9.62055 15.675C9.70467 15.5188 9.74912 15.3443 9.75 15.1668C9.74601 14.88 9.6338 14.6053 9.43583 14.3977L9.2625 14.2677ZM9.43583 18.731C9.3328 18.6324 9.21131 18.5551 9.07833 18.5035C8.88223 18.4126 8.6634 18.3824 8.45 18.4168L8.255 18.4818C8.18597 18.5055 8.12039 18.5383 8.06 18.5793C8.00325 18.6193 7.94898 18.6627 7.8975 18.7093C7.79887 18.8124 7.72156 18.9338 7.67 19.0668C7.61269 19.1965 7.58308 19.3367 7.58308 19.4785C7.58308 19.6203 7.61269 19.7605 7.67 19.8902C7.72486 20.0214 7.80181 20.1424 7.8975 20.2477C7.99692 20.352 8.11617 20.4354 8.24824 20.4931C8.38031 20.5508 8.52257 20.5815 8.66667 20.5835C8.80877 20.5872 8.94976 20.5575 9.07833 20.4968C9.20962 20.442 9.33053 20.365 9.43583 20.2693C9.53153 20.164 9.60847 20.0431 9.66333 19.9118C9.72065 19.7822 9.75025 19.6419 9.75025 19.5002C9.75025 19.3584 9.72065 19.2182 9.66333 19.0885C9.61177 18.9555 9.53446 18.834 9.43583 18.731ZM12.5883 14.1702C12.4554 14.2217 12.3339 14.299 12.2308 14.3977C12.0329 14.6053 11.9207 14.88 11.9167 15.1668C11.9176 15.3443 11.962 15.5188 12.0461 15.675C12.1302 15.8312 12.2514 15.9644 12.3991 16.0628C12.5467 16.1612 12.7162 16.2219 12.8928 16.2395C13.0694 16.257 13.2475 16.2309 13.4117 16.1635C13.543 16.1086 13.6639 16.0317 13.7692 15.936C13.8696 15.8348 13.949 15.7147 14.0029 15.5827C14.0568 15.4507 14.0842 15.3094 14.0833 15.1668C14.0793 14.88 13.9671 14.6053 13.7692 14.3977C13.6168 14.2473 13.4234 14.1455 13.2132 14.105C13.0031 14.0645 12.7856 14.0872 12.5883 14.1702ZM18.1025 18.731C17.9972 18.6353 17.8763 18.5584 17.745 18.5035C17.5477 18.4205 17.3303 18.3979 17.1201 18.4384C16.91 18.4788 16.7165 18.5807 16.5642 18.731C16.4655 18.834 16.3882 18.9555 16.3367 19.0885C16.2794 19.2182 16.2497 19.3584 16.2497 19.5002C16.2497 19.6419 16.2794 19.7822 16.3367 19.9118C16.3915 20.0431 16.4685 20.164 16.5642 20.2693C16.6654 20.3697 16.7854 20.4492 16.9174 20.5031C17.0494 20.557 17.1908 20.5843 17.3333 20.5835C17.4754 20.5872 17.6164 20.5575 17.745 20.4968C17.8763 20.442 17.9972 20.365 18.1025 20.2693C18.2528 20.117 18.3546 19.9235 18.3951 19.7134C18.4356 19.5032 18.413 19.2858 18.33 19.0885C18.2784 18.9555 18.2011 18.834 18.1025 18.731ZM17.3333 5.41683H8.66667C8.37935 5.41683 8.1038 5.53097 7.90063 5.73413C7.69747 5.9373 7.58333 6.21284 7.58333 6.50016V10.8335C7.58333 11.1208 7.69747 11.3964 7.90063 11.5995C8.1038 11.8027 8.37935 11.9168 8.66667 11.9168H17.3333C17.6207 11.9168 17.8962 11.8027 18.0994 11.5995C18.3025 11.3964 18.4167 11.1208 18.4167 10.8335V6.50016C18.4167 6.21284 18.3025 5.9373 18.0994 5.73413C17.8962 5.53097 17.6207 5.41683 17.3333 5.41683ZM16.25 9.75016H9.75V7.5835H16.25V9.75016ZM19.5 1.0835H6.5C5.63805 1.0835 4.8114 1.42591 4.2019 2.0354C3.59241 2.64489 3.25 3.47154 3.25 4.3335V21.6668C3.25 22.5288 3.59241 23.3554 4.2019 23.9649C4.8114 24.5744 5.63805 24.9168 6.5 24.9168H19.5C20.362 24.9168 21.1886 24.5744 21.7981 23.9649C22.4076 23.3554 22.75 22.5288 22.75 21.6668V4.3335C22.75 3.47154 22.4076 2.64489 21.7981 2.0354C21.1886 1.42591 20.362 1.0835 19.5 1.0835ZM20.5833 21.6668C20.5833 21.9541 20.4692 22.2297 20.266 22.4329C20.0629 22.636 19.7873 22.7502 19.5 22.7502H6.5C6.21268 22.7502 5.93713 22.636 5.73397 22.4329C5.5308 22.2297 5.41667 21.9541 5.41667 21.6668V4.3335C5.41667 4.04618 5.5308 3.77063 5.73397 3.56746C5.93713 3.3643 6.21268 3.25016 6.5 3.25016H19.5C19.7873 3.25016 20.0629 3.3643 20.266 3.56746C20.4692 3.77063 20.5833 4.04618 20.5833 4.3335V21.6668ZM17.9292 14.2677C17.8739 14.2248 17.8116 14.1918 17.745 14.1702C17.6805 14.1372 17.6109 14.1152 17.5392 14.1052C17.4002 14.0728 17.2556 14.0728 17.1167 14.1052L16.9217 14.1702L16.7267 14.2677L16.5642 14.3977C16.3662 14.6053 16.254 14.88 16.25 15.1668C16.2509 15.3443 16.2953 15.5188 16.3794 15.675C16.4636 15.8312 16.5848 15.9644 16.7324 16.0628C16.88 16.1612 17.0496 16.2219 17.2261 16.2395C17.4027 16.257 17.5809 16.2309 17.745 16.1635C17.8763 16.1086 17.9972 16.0317 18.1025 15.936C18.2029 15.8348 18.2823 15.7147 18.3363 15.5827C18.3902 15.4507 18.4175 15.3094 18.4167 15.1668C18.4127 14.88 18.3005 14.6053 18.1025 14.3977L17.9292 14.2677Z" fill="white"/>
</svg>
