<svg width="35" height="35" viewBox="0 0 35 35" fill="none" xmlns="http://www.w3.org/2000/svg">
<path d="M24.5556 2.88867H7.22228C6.83919 2.88867 6.47179 3.04085 6.2009 3.31174C5.93001 3.58263 5.77783 3.95003 5.77783 4.33312V27.4442C5.77783 27.8273 5.93001 28.1947 6.2009 28.4656C6.47179 28.7365 6.83919 28.8887 7.22228 28.8887H8.66672V30.3331C8.66672 30.7162 8.8189 31.0836 9.08979 31.3545C9.36068 31.6254 9.72808 31.7776 10.1112 31.7776C10.4943 31.7776 10.8617 31.6254 11.1325 31.3545C11.4034 31.0836 11.5556 30.7162 11.5556 30.3331V28.8887H24.5556C25.7049 28.8887 26.8071 28.4321 27.6197 27.6195C28.4324 26.8068 28.8889 25.7046 28.8889 24.5553V7.22201C28.8889 6.07273 28.4324 4.97053 27.6197 4.15788C26.8071 3.34522 25.7049 2.88867 24.5556 2.88867ZM20.2223 25.9998H8.66672V5.77756H20.2223V25.9998ZM26.0001 24.5553C26.0001 24.9384 25.8479 25.3058 25.577 25.5767C25.3061 25.8476 24.9387 25.9998 24.5556 25.9998H23.1112V5.77756H24.5556C24.9387 5.77756 25.3061 5.92974 25.577 6.20063C25.8479 6.47152 26.0001 6.83891 26.0001 7.22201V24.5553Z" fill="white"/>
</svg>
