<svg width="47" height="47" viewBox="0 0 47 47" fill="none" xmlns="http://www.w3.org/2000/svg">
<path d="M0 7.77481C0 3.4809 3.4809 0 7.77482 0H38.8741C43.168 0 46.6489 3.4809 46.6489 7.77482V38.8741C46.6489 43.168 43.168 46.6489 38.8741 46.6489H7.77481C3.4809 46.6489 0 43.168 0 38.8741V7.77481Z" fill="url(#paint0_linear_2329_5877)"/>
<path d="M31.6014 21C31.7182 21 31.8338 20.977 31.9417 20.9323C32.0496 20.8877 32.1476 20.8222 32.2302 20.7396C32.3127 20.6571 32.3782 20.5591 32.4229 20.4512C32.4675 20.3433 32.4905 20.2277 32.4905 20.1109V17.4438C32.4905 17.2573 32.4319 17.0755 32.3228 16.9242C32.2137 16.7728 32.0597 16.6597 31.8827 16.6008L23.8815 13.9338C23.6989 13.873 23.5015 13.873 23.3189 13.9338L15.3177 16.6008C15.1407 16.6597 14.9867 16.7728 14.8776 16.9242C14.7686 17.0755 14.7099 17.2573 14.71 17.4438V20.1109C14.7099 20.2277 14.7329 20.3433 14.7776 20.4512C14.8222 20.5591 14.8877 20.6571 14.9703 20.7396C15.0528 20.8222 15.1509 20.8877 15.2587 20.9323C15.3666 20.977 15.4822 21 15.599 21H16.488V27.387C15.9695 27.5696 15.5202 27.9083 15.2018 28.3565C14.8835 28.8047 14.7117 29.3404 14.71 29.8902V31.6683C14.7099 31.785 14.7329 31.9006 14.7776 32.0085C14.8222 32.1164 14.8877 32.2144 14.9703 32.297C15.0528 32.3795 15.1509 32.445 15.2587 32.4897C15.3666 32.5343 15.4822 32.5573 15.599 32.5573H31.6014C31.7182 32.5573 31.8338 32.5343 31.9417 32.4897C32.0496 32.445 32.1476 32.3795 32.2302 32.297C32.3127 32.2144 32.3782 32.1164 32.4229 32.0085C32.4675 31.9006 32.4905 31.785 32.4905 31.6683V29.8902C32.4888 29.3404 32.317 28.8047 31.9986 28.3565C31.6802 27.9083 31.231 27.5696 30.7124 27.387V21H31.6014ZM30.7124 30.7792H16.488V29.8902C16.4882 29.6545 16.582 29.4285 16.7487 29.2618C16.9153 29.0952 17.1413 29.0014 17.377 29.0012H29.8234C30.0591 29.0014 30.2851 29.0952 30.4518 29.2618C30.6184 29.4285 30.7122 29.6545 30.7124 29.8902V30.7792ZM18.2661 27.2231V21H20.0441V27.2231H18.2661ZM21.8222 27.2231V21H25.3783V27.2231H21.8222ZM27.1563 27.2231V21H28.9344V27.2231H27.1563ZM16.488 19.2219V18.0846L23.6002 15.7135L30.7124 18.0846V19.2219H16.488Z" fill="white"/>
<defs>
<linearGradient id="paint0_linear_2329_5877" x1="23.3244" y1="0" x2="23.3244" y2="46.6489" gradientUnits="userSpaceOnUse">
<stop stop-color="#003268"/>
<stop offset="1" stop-color="#5280CA"/>
</linearGradient>
</defs>
</svg>
