<svg width="47" height="47" viewBox="0 0 47 47" fill="none" xmlns="http://www.w3.org/2000/svg">
<path d="M0 7.77481C0 3.4809 3.4809 0 7.77482 0H38.8741C43.168 0 46.6489 3.4809 46.6489 7.77482V38.8741C46.6489 43.168 43.168 46.6489 38.8741 46.6489H7.77481C3.4809 46.6489 0 43.168 0 38.8741V7.77481Z" fill="url(#paint0_linear_2329_5886)"/>
<path d="M23.2993 30.4309H17.687C17.4389 30.4309 17.201 30.3373 17.0256 30.1706C16.8502 30.004 16.7516 29.778 16.7516 29.5423V17.1014C16.7516 16.8658 16.8502 16.6397 17.0256 16.4731C17.201 16.3064 17.4389 16.2128 17.687 16.2128H22.364V18.8787C22.364 19.5857 22.6596 20.2638 23.1859 20.7638C23.7121 21.2637 24.4259 21.5446 25.1701 21.5446H27.9763V25.9878C27.9763 26.2234 28.0748 26.4495 28.2502 26.6161C28.4257 26.7828 28.6636 26.8764 28.9117 26.8764C29.1597 26.8764 29.3977 26.7828 29.5731 26.6161C29.7485 26.4495 29.8471 26.2234 29.8471 25.9878V20.656C29.8471 20.656 29.8471 20.656 29.8471 20.6026C29.8373 20.521 29.8185 20.4406 29.7909 20.3627V20.2827C29.746 20.1914 29.686 20.1074 29.6132 20.0339L24.0009 14.7021C23.9236 14.633 23.8352 14.576 23.739 14.5333C23.708 14.5282 23.6764 14.5282 23.6454 14.5333C23.5545 14.4871 23.4567 14.4541 23.3555 14.4355H17.687C16.9428 14.4355 16.229 14.7164 15.7028 15.2164C15.1765 15.7163 14.8809 16.3944 14.8809 17.1014V29.5423C14.8809 30.2493 15.1765 30.9274 15.7028 31.4274C16.229 31.9273 16.9428 32.2082 17.687 32.2082H23.2993C23.5474 32.2082 23.7853 32.1146 23.9608 31.9479C24.1362 31.7812 24.2347 31.5552 24.2347 31.3195C24.2347 31.0839 24.1362 30.8578 23.9608 30.6912C23.7853 30.5245 23.5474 30.4309 23.2993 30.4309ZM24.2347 17.4658L26.6574 19.7673H25.1701C24.922 19.7673 24.6841 19.6737 24.5087 19.5071C24.3333 19.3404 24.2347 19.1144 24.2347 18.8787V17.4658ZM19.5578 25.0991H25.1701C25.4182 25.0991 25.6561 25.0055 25.8315 24.8388C26.007 24.6722 26.1055 24.4462 26.1055 24.2105C26.1055 23.9748 26.007 23.7488 25.8315 23.5821C25.6561 23.4155 25.4182 23.3219 25.1701 23.3219H19.5578C19.3097 23.3219 19.0718 23.4155 18.8964 23.5821C18.721 23.7488 18.6224 23.9748 18.6224 24.2105C18.6224 24.4462 18.721 24.6722 18.8964 24.8388C19.0718 25.0055 19.3097 25.0991 19.5578 25.0991ZM23.2993 26.8764H19.5578C19.3097 26.8764 19.0718 26.97 18.8964 27.1367C18.721 27.3033 18.6224 27.5293 18.6224 27.765C18.6224 28.0007 18.721 28.2267 18.8964 28.3934C19.0718 28.56 19.3097 28.6536 19.5578 28.6536H23.2993C23.5474 28.6536 23.7853 28.56 23.9608 28.3934C24.1362 28.2267 24.2347 28.0007 24.2347 27.765C24.2347 27.5293 24.1362 27.3033 23.9608 27.1367C23.7853 26.97 23.5474 26.8764 23.2993 26.8764ZM19.5578 21.5446H20.4932C20.7413 21.5446 20.9792 21.451 21.1546 21.2843C21.33 21.1177 21.4286 20.8916 21.4286 20.656C21.4286 20.4203 21.33 20.1943 21.1546 20.0276C20.9792 19.861 20.7413 19.7673 20.4932 19.7673H19.5578C19.3097 19.7673 19.0718 19.861 18.8964 20.0276C18.721 20.1943 18.6224 20.4203 18.6224 20.656C18.6224 20.8916 18.721 21.1177 18.8964 21.2843C19.0718 21.451 19.3097 21.5446 19.5578 21.5446ZM32.382 27.1341C32.295 27.0508 32.1915 26.9847 32.0776 26.9396C31.9636 26.8945 31.8413 26.8712 31.7178 26.8712C31.5943 26.8712 31.4721 26.8945 31.3581 26.9396C31.2441 26.9847 31.1407 27.0508 31.0537 27.1341L27.9763 30.0666L26.7696 28.9114C26.6824 28.8285 26.5789 28.7628 26.4649 28.7179C26.351 28.6731 26.2288 28.65 26.1055 28.65C25.9822 28.65 25.86 28.6731 25.7461 28.7179C25.6321 28.7628 25.5286 28.8285 25.4414 28.9114C25.3542 28.9942 25.285 29.0926 25.2378 29.2008C25.1906 29.3091 25.1663 29.4251 25.1663 29.5423C25.1663 29.6595 25.1906 29.7755 25.2378 29.8837C25.285 29.992 25.3542 30.0904 25.4414 30.1732L27.3122 31.9505C27.3991 32.0338 27.5026 32.0999 27.6166 32.145C27.7305 32.1901 27.8528 32.2133 27.9763 32.2133C28.0998 32.2133 28.222 32.1901 28.336 32.145C28.45 32.0999 28.5534 32.0338 28.6404 31.9505L32.382 28.3959C32.4696 28.3133 32.5392 28.2151 32.5867 28.1068C32.6342 27.9985 32.6586 27.8823 32.6586 27.765C32.6586 27.6477 32.6342 27.5316 32.5867 27.4233C32.5392 27.315 32.4696 27.2167 32.382 27.1341Z" fill="white"/>
<defs>
<linearGradient id="paint0_linear_2329_5886" x1="23.3244" y1="0" x2="23.3244" y2="46.6489" gradientUnits="userSpaceOnUse">
<stop stop-color="#003268"/>
<stop offset="1" stop-color="#5280CA"/>
</linearGradient>
</defs>
</svg>
