<svg width="53" height="53" viewBox="0 0 53 53" fill="none" xmlns="http://www.w3.org/2000/svg">
<path d="M0 8.74667C0 3.91602 3.91602 0 8.74667 0H43.7333C48.564 0 52.48 3.91602 52.48 8.74667V43.7333C52.48 48.564 48.564 52.48 43.7333 52.48H8.74667C3.91602 52.48 0 48.564 0 43.7333V8.74667Z" fill="url(#paint0_linear_209_1701)"/>
<path d="M35.24 24.24C35.3713 24.24 35.5014 24.2142 35.6227 24.1639C35.7441 24.1137 35.8543 24.04 35.9472 23.9472C36.0401 23.8543 36.1137 23.7441 36.164 23.6227C36.2142 23.5014 36.24 23.3713 36.24 23.24V20.24C36.2401 20.0302 36.1741 19.8256 36.0514 19.6554C35.9287 19.4852 35.7555 19.358 35.5564 19.2917L26.5564 16.2917C26.351 16.2234 26.129 16.2234 25.9236 16.2917L16.9236 19.2917C16.7245 19.358 16.5513 19.4852 16.4286 19.6554C16.3059 19.8256 16.2399 20.0302 16.24 20.24V23.24C16.24 23.3713 16.2658 23.5014 16.3161 23.6227C16.3663 23.7441 16.44 23.8543 16.5328 23.9472C16.6257 24.04 16.7359 24.1137 16.8573 24.1639C16.9786 24.2142 17.1087 24.24 17.24 24.24H18.24V31.4243C17.6567 31.6297 17.1514 32.0107 16.7933 32.5148C16.4352 33.019 16.2419 33.6216 16.24 34.24V36.24C16.24 36.3713 16.2658 36.5014 16.3161 36.6227C16.3663 36.7441 16.44 36.8543 16.5328 36.9472C16.6257 37.04 16.7359 37.1137 16.8573 37.1639C16.9786 37.2142 17.1087 37.24 17.24 37.24H35.24C35.3713 37.24 35.5014 37.2142 35.6227 37.1639C35.7441 37.1137 35.8543 37.04 35.9472 36.9472C36.0401 36.8543 36.1137 36.7441 36.164 36.6227C36.2142 36.5014 36.24 36.3713 36.24 36.24V34.24C36.2381 33.6216 36.0448 33.019 35.6867 32.5148C35.3286 32.0107 34.8233 31.6297 34.24 31.4243V24.24H35.24ZM34.24 35.24H18.24V34.24C18.2403 33.9749 18.3457 33.7207 18.5332 33.5332C18.7207 33.3457 18.9749 33.2403 19.24 33.24H33.24C33.5051 33.2403 33.7593 33.3457 33.9468 33.5332C34.1343 33.7207 34.2397 33.9749 34.24 34.24V35.24ZM20.24 31.24V24.24H22.24V31.24H20.24ZM24.24 31.24V24.24H28.24V31.24H24.24ZM30.24 31.24V24.24H32.24V31.24H30.24ZM18.24 22.24V20.9607L26.24 18.2937L34.24 20.9607V22.24H18.24Z" fill="white"/>
<defs>
<linearGradient id="paint0_linear_209_1701" x1="26.24" y1="0" x2="26.24" y2="52.48" gradientUnits="userSpaceOnUse">
<stop stop-color="#003268"/>
<stop offset="1" stop-color="#5280CA"/>
</linearGradient>
</defs>
</svg>
