<svg width="24" height="24" viewBox="0 0 24 24" fill="none" xmlns="http://www.w3.org/2000/svg">
<path d="M20.83 9.49317L19.0097 8.88641L19.8668 7.17207C19.9537 6.99263 19.9828 6.79065 19.95 6.59399C19.9173 6.39733 19.8242 6.21569 19.6839 6.07413L17.6324 4.0227C17.4901 3.88024 17.3067 3.78597 17.1081 3.75315C16.9094 3.72033 16.7054 3.7506 16.5249 3.83971L14.8105 4.69688L14.2038 2.8766C14.1397 2.68686 14.018 2.52181 13.8558 2.40443C13.6935 2.28705 13.4987 2.22317 13.2984 2.22168H10.4091C10.2072 2.22116 10.0102 2.28411 9.84604 2.40163C9.68185 2.51915 9.55876 2.6853 9.49415 2.8766L8.88739 4.69688L7.17305 3.83971C6.99361 3.75282 6.79162 3.72375 6.59496 3.75653C6.3983 3.78931 6.21666 3.88231 6.0751 4.0227L4.02368 6.07413C3.88122 6.21644 3.78695 6.39983 3.75413 6.5985C3.7213 6.79717 3.75157 7.00113 3.84069 7.1817L4.69785 8.89604L2.87757 9.5028C2.68783 9.56688 2.52279 9.68852 2.40541 9.85078C2.28803 10.013 2.22415 10.2079 2.22266 10.4081V13.2975C2.22214 13.4994 2.28509 13.6963 2.40261 13.8605C2.52013 14.0247 2.68628 14.1478 2.87757 14.2124L4.69785 14.8192L3.84069 16.5335C3.75379 16.713 3.72473 16.9149 3.75751 17.1116C3.79028 17.3083 3.88328 17.4899 4.02368 17.6315L6.0751 19.6829C6.21742 19.8253 6.4008 19.9196 6.59947 19.9524C6.79814 19.9853 7.00211 19.955 7.18268 19.8659L8.89702 19.0087L9.50378 20.829C9.56839 21.0203 9.69149 21.1864 9.85567 21.3039C10.0199 21.4215 10.2168 21.4844 10.4187 21.4839H13.3081C13.51 21.4844 13.7069 21.4215 13.8711 21.3039C14.0353 21.1864 14.1584 21.0203 14.223 20.829L14.8298 19.0087L16.5441 19.8659C16.7224 19.9506 16.9224 19.9784 17.1171 19.9457C17.3117 19.913 17.4916 19.8212 17.6324 19.6829L19.6839 17.6315C19.8263 17.4891 19.9206 17.3058 19.9534 17.1071C19.9862 16.9084 19.956 16.7045 19.8668 16.5239L19.0097 14.8095L20.83 14.2028C21.0197 14.1387 21.1847 14.0171 21.3021 13.8548C21.4195 13.6925 21.4834 13.4977 21.4849 13.2975V10.4081C21.4854 10.2062 21.4224 10.0092 21.3049 9.84506C21.1874 9.68088 21.0213 9.55778 20.83 9.49317ZM19.5587 12.604L18.4029 12.9893C18.1372 13.0755 17.8933 13.2185 17.6883 13.4083C17.4834 13.5982 17.3221 13.8303 17.2158 14.0887C17.1096 14.3471 17.0608 14.6255 17.0728 14.9047C17.0849 15.1838 17.1575 15.457 17.2857 15.7052L17.8347 16.8032L16.7753 17.8626L15.7062 17.2847C15.4592 17.1617 15.1887 17.0931 14.9129 17.0837C14.6371 17.0743 14.3625 17.1243 14.1078 17.2302C13.853 17.3362 13.6239 17.4956 13.4361 17.6978C13.2483 17.8999 13.1061 18.1401 13.0191 18.4019L12.6339 19.5577H11.1025L10.7173 18.4019C10.6311 18.1362 10.4881 17.8924 10.2982 17.6874C10.1084 17.4824 9.87622 17.3212 9.61783 17.2149C9.35944 17.1086 9.08102 17.0598 8.80189 17.0718C8.52275 17.0839 8.24958 17.1566 8.00132 17.2847L6.90338 17.8337L5.84396 16.7743L6.42182 15.7052C6.55001 15.457 6.62265 15.1838 6.63471 14.9047C6.64678 14.6255 6.59797 14.3471 6.49168 14.0887C6.3854 13.8303 6.22417 13.5982 6.01919 13.4083C5.81421 13.2185 5.57038 13.0755 5.30461 12.9893L4.14888 12.604V11.1016L5.30461 10.7163C5.57038 10.6301 5.81421 10.4871 6.01919 10.2973C6.22417 10.1074 6.3854 9.87524 6.49168 9.61685C6.59797 9.35846 6.64678 9.08004 6.63471 8.80091C6.62265 8.52177 6.55001 8.2486 6.42182 8.00035L5.87285 6.93129L6.93227 5.87187L8.00132 6.42085C8.24958 6.54903 8.52275 6.62167 8.80189 6.63374C9.08102 6.6458 9.35944 6.597 9.61783 6.49071C9.87622 6.38442 10.1084 6.22319 10.2982 6.01821C10.4881 5.81323 10.6311 5.5694 10.7173 5.30364L11.1025 4.1479H12.605L12.9902 5.30364C13.0764 5.5694 13.2194 5.81323 13.4093 6.01821C13.5991 6.22319 13.8313 6.38442 14.0897 6.49071C14.3481 6.597 14.6265 6.6458 14.9056 6.63374C15.1848 6.62167 15.458 6.54903 15.7062 6.42085L16.8042 5.87187L17.8636 6.93129L17.2857 8.00035C17.1627 8.24733 17.0941 8.51787 17.0847 8.79365C17.0753 9.06943 17.1253 9.34401 17.2312 9.59881C17.3371 9.8536 17.4966 10.0827 17.6987 10.2705C17.9009 10.4583 18.141 10.6005 18.4029 10.6874L19.5587 11.0727V12.604ZM11.8538 8.00035C11.0918 8.00035 10.347 8.22629 9.71346 8.6496C9.07993 9.07291 8.58616 9.67458 8.29457 10.3785C8.00299 11.0825 7.9267 11.8571 8.07535 12.6044C8.22399 13.3517 8.5909 14.0381 9.12968 14.5769C9.66845 15.1157 10.3549 15.4826 11.1022 15.6312C11.8495 15.7799 12.6241 15.7036 13.328 15.412C14.032 15.1204 14.6336 14.6266 15.057 13.9931C15.4803 13.3596 15.7062 12.6147 15.7062 11.8528C15.7062 10.8311 15.3003 9.85117 14.5779 9.1287C13.8554 8.40623 12.8755 8.00035 11.8538 8.00035ZM11.8538 13.779C11.4728 13.779 11.1004 13.666 10.7836 13.4544C10.4668 13.2427 10.22 12.9419 10.0742 12.5899C9.92838 12.238 9.89023 11.8507 9.96456 11.477C10.0389 11.1034 10.2223 10.7601 10.4917 10.4907C10.7611 10.2214 11.1043 10.0379 11.478 9.96358C11.8516 9.88926 12.2389 9.9274 12.5909 10.0732C12.9429 10.219 13.2437 10.4659 13.4554 10.7826C13.667 11.0994 13.78 11.4718 13.78 11.8528C13.78 12.3637 13.577 12.8536 13.2158 13.2148C12.8546 13.5761 12.3646 13.779 11.8538 13.779Z" fill="white"/>
</svg>
