<svg width="24" height="24" viewBox="0 0 24 24" fill="none" xmlns="http://www.w3.org/2000/svg">
<path d="M8.66665 11.5553H6.74073C6.48533 11.5553 6.2404 11.6568 6.05981 11.8374C5.87922 12.018 5.77776 12.2629 5.77776 12.5183C5.77776 12.7737 5.87922 13.0186 6.05981 13.1992C6.2404 13.3798 6.48533 13.4813 6.74073 13.4813H8.66665C8.92205 13.4813 9.16698 13.3798 9.34757 13.1992C9.52816 13.0186 9.62962 12.7737 9.62962 12.5183C9.62962 12.2629 9.52816 12.018 9.34757 11.8374C9.16698 11.6568 8.92205 11.5553 8.66665 11.5553ZM7.70369 9.62941H11.5555C11.8109 9.62941 12.0559 9.52795 12.2365 9.34736C12.417 9.16677 12.5185 8.92184 12.5185 8.66644C12.5185 8.41105 12.417 8.16612 12.2365 7.98553C12.0559 7.80494 11.8109 7.70348 11.5555 7.70348H7.70369C7.4483 7.70348 7.20336 7.80494 7.02277 7.98553C6.84218 8.16612 6.74073 8.41105 6.74073 8.66644C6.74073 8.92184 6.84218 9.16677 7.02277 9.34736C7.20336 9.52795 7.4483 9.62941 7.70369 9.62941ZM8.66665 15.4072H6.74073C6.48533 15.4072 6.2404 15.5086 6.05981 15.6892C5.87922 15.8698 5.77776 16.1148 5.77776 16.3701C5.77776 16.6255 5.87922 16.8705 6.05981 17.0511C6.2404 17.2317 6.48533 17.3331 6.74073 17.3331H8.66665C8.92205 17.3331 9.16698 17.2317 9.34757 17.0511C9.52816 16.8705 9.62962 16.6255 9.62962 16.3701C9.62962 16.1148 9.52816 15.8698 9.34757 15.6892C9.16698 15.5086 8.92205 15.4072 8.66665 15.4072ZM20.2222 11.5553H17.3333V2.88867C17.334 2.71898 17.2898 2.55213 17.2053 2.40501C17.1207 2.25789 16.9988 2.13573 16.8518 2.05089C16.7054 1.96637 16.5394 1.92188 16.3704 1.92188C16.2013 1.92188 16.0353 1.96637 15.8889 2.05089L13 3.70718L10.1111 2.05089C9.96471 1.96637 9.79865 1.92188 9.62962 1.92188C9.46058 1.92188 9.29452 1.96637 9.14813 2.05089L6.25924 3.70718L3.37036 2.05089C3.22397 1.96637 3.05791 1.92188 2.88887 1.92188C2.71984 1.92188 2.55378 1.96637 2.40739 2.05089C2.26044 2.13573 2.13852 2.25789 2.05396 2.40501C1.96941 2.55213 1.92524 2.71898 1.92591 2.88867V18.2961C1.92591 19.0623 2.23028 19.7971 2.77205 20.3388C3.31382 20.8806 4.04862 21.185 4.8148 21.185H18.2963C19.0625 21.185 19.7973 20.8806 20.339 20.3388C20.8808 19.7971 21.1852 19.0623 21.1852 18.2961V12.5183C21.1852 12.2629 21.0837 12.018 20.9031 11.8374C20.7225 11.6568 20.4776 11.5553 20.2222 11.5553ZM4.8148 19.259C4.55941 19.259 4.31447 19.1576 4.13388 18.977C3.95329 18.7964 3.85184 18.5515 3.85184 18.2961V4.55459L5.77776 5.65237C5.92638 5.73 6.09157 5.77054 6.25924 5.77054C6.42692 5.77054 6.5921 5.73 6.74073 5.65237L9.62962 3.99607L12.5185 5.65237C12.6671 5.73 12.8323 5.77054 13 5.77054C13.1677 5.77054 13.3328 5.73 13.4815 5.65237L15.4074 4.55459V18.2961C15.41 18.6246 15.4686 18.9502 15.5807 19.259H4.8148ZM19.2592 18.2961C19.2592 18.5515 19.1578 18.7964 18.9772 18.977C18.7966 19.1576 18.5517 19.259 18.2963 19.259C18.0409 19.259 17.796 19.1576 17.6154 18.977C17.4348 18.7964 17.3333 18.5515 17.3333 18.2961V13.4813H19.2592V18.2961ZM13.0578 15.5709C13.0041 15.5344 12.9458 15.5053 12.8844 15.4842C12.8271 15.4549 12.7652 15.4354 12.7015 15.4264C12.5468 15.3955 12.3868 15.403 12.2357 15.4483C12.0846 15.4936 11.9469 15.5754 11.8348 15.6864C11.6588 15.871 11.5591 16.1152 11.5555 16.3701C11.554 16.4953 11.5769 16.6196 11.6229 16.7361C11.6753 16.8531 11.7469 16.9605 11.8348 17.0539C11.9284 17.1389 12.0359 17.2073 12.1526 17.2561C12.2678 17.307 12.3925 17.3333 12.5185 17.3333C12.6445 17.3333 12.7692 17.307 12.8844 17.2561C13.0011 17.2073 13.1086 17.1389 13.2022 17.0539C13.2915 16.9639 13.3621 16.8572 13.41 16.7398C13.4579 16.6225 13.4822 16.4969 13.4815 16.3701C13.4779 16.1152 13.3782 15.871 13.2022 15.6864C13.1564 15.645 13.1082 15.6064 13.0578 15.5709V15.5709ZM13.1926 11.8346C13.0801 11.7251 12.9426 11.6447 12.792 11.6005C12.6414 11.5563 12.4823 11.5496 12.3285 11.5809C12.1747 11.6122 12.0309 11.6807 11.9096 11.7803C11.7883 11.8799 11.6932 12.0076 11.6326 12.1524C11.5726 12.2983 11.5495 12.4566 11.5651 12.6136C11.5807 12.7705 11.6346 12.9212 11.7221 13.0525C11.8096 13.1837 11.9279 13.2914 12.0668 13.3662C12.2057 13.441 12.3608 13.4805 12.5185 13.4813C12.7739 13.4813 13.0188 13.3798 13.1994 13.1992C13.38 13.0186 13.4815 12.7737 13.4815 12.5183C13.4799 12.3925 13.4538 12.2681 13.4044 12.1524C13.358 12.0322 13.2857 11.9237 13.1926 11.8346V11.8346Z" fill="white"/>
</svg>
