<svg width="53" height="53" viewBox="0 0 53 53" fill="none" xmlns="http://www.w3.org/2000/svg">
<path d="M0 8.74667C0 3.91602 3.91602 0 8.74667 0H43.7333C48.564 0 52.48 3.91602 52.48 8.74667V43.7333C52.48 48.564 48.564 52.48 43.7333 52.48H8.74667C3.91602 52.48 0 48.564 0 43.7333V8.74667Z" fill="url(#paint0_linear_209_1717)"/>
<path d="M21.2317 28.742C21.1004 28.7419 20.9703 28.7678 20.849 28.818C20.7276 28.8682 20.6174 28.9419 20.5245 29.0348C20.4316 29.1276 20.358 29.2379 20.3077 29.3592C20.2575 29.4806 20.2317 29.6106 20.2317 29.742V31.5242C18.9427 30.0666 18.2314 28.1878 18.2317 26.242C18.2315 25.9479 18.2491 25.654 18.2844 25.3621C18.3006 25.2315 18.2909 25.099 18.2558 24.9723C18.2207 24.8455 18.1609 24.7268 18.0799 24.6232C17.9989 24.5195 17.8982 24.4329 17.7836 24.3682C17.669 24.3036 17.5428 24.2622 17.4122 24.2463C17.2816 24.2305 17.1492 24.2407 17.0225 24.2761C16.8958 24.3116 16.7774 24.3717 16.6739 24.4531C16.5705 24.5344 16.4842 24.6353 16.4199 24.7501C16.3555 24.8649 16.3145 24.9912 16.2991 25.1218C16.2538 25.4935 16.2313 25.8676 16.2317 26.242C16.2331 28.6281 17.0907 30.9346 18.6486 32.742H17.2317C16.9665 32.742 16.7121 32.8473 16.5246 33.0348C16.3371 33.2224 16.2317 33.4767 16.2317 33.742C16.2317 34.0072 16.3371 34.2615 16.5246 34.4491C16.7121 34.6366 16.9665 34.742 17.2317 34.742H21.2317C21.3881 34.74 21.5418 34.7007 21.6799 34.6273C21.818 34.5539 21.9366 34.4486 22.0258 34.3201C22.0375 34.3048 22.0524 34.2933 22.0632 34.2771C22.0699 34.2672 22.0701 34.2554 22.0763 34.2453C22.124 34.1648 22.1597 34.0778 22.1823 33.987C22.1971 33.936 22.2076 33.8838 22.2137 33.8311C22.2166 33.8002 22.2317 33.7736 22.2317 33.742V29.742C22.2318 29.6107 22.2059 29.4806 22.1557 29.3592C22.1054 29.2379 22.0318 29.1276 21.9389 29.0348C21.846 28.9419 21.7358 28.8682 21.6144 28.818C21.4931 28.7678 21.363 28.7419 21.2317 28.742ZM22.7317 20.242H20.9492C22.407 18.9531 24.2858 18.2417 26.2317 18.242C26.5256 18.2413 26.8193 18.2589 27.1111 18.2947C27.2415 18.3105 27.3738 18.3005 27.5003 18.2652C27.6269 18.23 27.7453 18.1701 27.8487 18.0891C27.9521 18.0081 28.0386 17.9075 28.1031 17.793C28.1676 17.6786 28.209 17.5526 28.2249 17.4221C28.2407 17.2917 28.2307 17.1594 28.1954 17.0329C28.1601 16.9063 28.1003 16.788 28.0192 16.6845C27.9382 16.5811 27.8376 16.4947 27.7232 16.4301C27.6087 16.3656 27.4827 16.3242 27.3523 16.3084C26.9805 16.2635 26.6062 16.2413 26.2317 16.242C23.8456 16.2433 21.5391 17.1008 19.7317 18.6586V17.242C19.7317 16.9767 19.6263 16.7224 19.4388 16.5348C19.2513 16.3473 18.9969 16.242 18.7317 16.242C18.4665 16.242 18.2121 16.3473 18.0246 16.5348C17.8371 16.7224 17.7317 16.9767 17.7317 17.242V21.242C17.738 21.3081 17.7512 21.3733 17.771 21.4367L17.7712 21.4379C17.7955 21.5609 17.8435 21.6781 17.9124 21.7829L17.9238 21.7998C17.9899 21.8959 18.0727 21.9793 18.1683 22.0461C18.1793 22.0541 18.1847 22.0664 18.196 22.074C18.2103 22.0835 18.2265 22.0865 18.2411 22.0951C18.2978 22.1293 18.3579 22.1574 18.4204 22.1791C18.5049 22.2085 18.593 22.2263 18.6823 22.232C18.6996 22.2329 18.7142 22.242 18.7317 22.242H22.7317C22.9969 22.242 23.2513 22.1366 23.4388 21.9491C23.6263 21.7616 23.7317 21.5072 23.7317 21.242C23.7317 20.9768 23.6263 20.7224 23.4388 20.5349C23.2513 20.3473 22.9969 20.242 22.7317 20.242V20.242ZM34.6921 31.046C34.6679 30.9229 34.6199 30.8057 34.5509 30.701L34.5396 30.6842C34.4735 30.588 34.3906 30.5045 34.2949 30.4377C34.284 30.4298 34.2786 30.4174 34.2673 30.4099C34.2565 30.4027 34.2437 30.4025 34.2327 30.3958C34.1059 30.3253 33.9669 30.2793 33.823 30.2603C33.7914 30.2573 33.7641 30.2419 33.7317 30.2419H29.7317C29.4665 30.2419 29.2121 30.3473 29.0246 30.5348C28.8371 30.7223 28.7317 30.9767 28.7317 31.2419C28.7317 31.5071 28.8371 31.7615 29.0246 31.949C29.2121 32.1365 29.4665 32.2419 29.7317 32.2419H31.5141C30.0563 33.5308 28.1776 34.2421 26.2317 34.2419C25.9377 34.2423 25.644 34.2244 25.3523 34.1882C25.0889 34.1562 24.8236 34.2302 24.6147 34.3938C24.4058 34.5574 24.2705 34.7974 24.2385 35.0608C24.2065 35.3242 24.2805 35.5895 24.4441 35.7984C24.6078 36.0072 24.8477 36.1425 25.1111 36.1745C25.4829 36.2194 25.8571 36.2419 26.2317 36.2419C28.6178 36.2406 30.9243 35.3831 32.7317 33.8252V35.242C32.7317 35.5072 32.8371 35.7615 33.0246 35.9491C33.2121 36.1366 33.4665 36.242 33.7317 36.242C33.9969 36.242 34.2513 36.1366 34.4388 35.9491C34.6263 35.7615 34.7317 35.5072 34.7317 35.242V31.242C34.7254 31.1759 34.7122 31.1106 34.6924 31.0473L34.6921 31.046ZM35.2317 19.742C35.4969 19.742 35.7513 19.6366 35.9388 19.4491C36.1263 19.2615 36.2317 19.0072 36.2317 18.742C36.2317 18.4767 36.1263 18.2224 35.9388 18.0348C35.7513 17.8473 35.4969 17.742 35.2317 17.742H31.2317C31.1666 17.7482 31.1023 17.7612 31.0399 17.7807L31.0332 17.782C30.9118 17.8063 30.7961 17.8537 30.6925 17.9215L30.6729 17.9348C30.5773 18.0007 30.4942 18.0833 30.4276 18.1785C30.4197 18.1893 30.4076 18.1947 30.4002 18.2058C30.393 18.2166 30.3928 18.2293 30.3861 18.2402C30.3147 18.3678 30.2684 18.5079 30.2497 18.6528C30.2468 18.6837 30.2317 18.7103 30.2317 18.742V22.742C30.2317 23.0072 30.3371 23.2615 30.5246 23.4491C30.7121 23.6366 30.9665 23.742 31.2317 23.742C31.4969 23.742 31.7513 23.6366 31.9388 23.4491C32.1263 23.2615 32.2317 23.0072 32.2317 22.742V20.9591C33.5205 22.417 34.2319 24.2959 34.2317 26.2419C34.2319 26.536 34.2143 26.8298 34.179 27.1218C34.1473 27.385 34.2213 27.6501 34.3848 27.8588C34.5483 28.0675 34.7879 28.2028 35.051 28.2351C35.0916 28.2398 35.1323 28.2421 35.1731 28.2419C35.4173 28.2416 35.6529 28.1519 35.8355 27.9898C36.0181 27.8277 36.135 27.6044 36.1643 27.362C36.2096 26.9904 36.2321 26.6163 36.2317 26.242C36.2303 23.8558 35.3727 21.5493 33.8147 19.742H35.2317Z" fill="white"/>
<defs>
<linearGradient id="paint0_linear_209_1717" x1="26.24" y1="0" x2="26.24" y2="52.48" gradientUnits="userSpaceOnUse">
<stop stop-color="#003268"/>
<stop offset="1" stop-color="#5280CA"/>
</linearGradient>
</defs>
</svg>
