<svg width="22" height="22" viewBox="0 0 22 22" fill="none" xmlns="http://www.w3.org/2000/svg">
<path d="M17.7778 8.59549V8.44438C17.7832 6.93233 17.3034 5.45841 16.409 4.23923C15.5146 3.02005 14.2528 2.1199 12.8089 1.67104H12.7555C12.0098 1.44369 11.2328 1.33569 10.4533 1.35104C8.59717 1.4529 6.84985 2.25926 5.56799 3.60555C4.28612 4.95184 3.56634 6.73657 3.55555 8.59549C3.03467 8.77872 2.58351 9.11913 2.26436 9.56973C1.94521 10.0203 1.7738 10.5589 1.7738 11.111C1.7738 11.6632 1.94521 12.2018 2.26436 12.6524C2.58351 13.103 3.03467 13.4434 3.55555 13.6266C3.73863 15.382 4.56792 17.0065 5.88219 18.1844C7.19646 19.3624 8.9018 20.0095 10.6667 19.9999H10.8711C12.5777 19.9173 14.1999 19.2327 15.4497 18.0676C16.6994 16.9024 17.4959 15.3322 17.6978 13.6355C18.2248 13.4626 18.6848 13.1297 19.0137 12.6831C19.3426 12.2366 19.5241 11.6986 19.5329 11.144C19.5417 10.5894 19.3774 10.0459 19.0628 9.58911C18.7482 9.13233 18.299 8.785 17.7778 8.59549V8.59549ZM10.8267 18.2222C9.5399 18.2594 8.2831 17.8299 7.28817 17.0131C6.29324 16.1962 5.62733 15.0471 5.41332 13.7777H15.8755C15.6586 14.9794 15.0417 16.0724 14.1252 16.8793C13.2086 17.6861 12.0462 18.1594 10.8267 18.2222ZM16.8889 11.9999H4.44443C4.20869 11.9999 3.98259 11.9063 3.8159 11.7396C3.6492 11.5729 3.55555 11.3468 3.55555 11.111C3.55555 10.8753 3.6492 10.6492 3.8159 10.4825C3.98259 10.3158 4.20869 10.2222 4.44443 10.2222H6.22221C6.45796 10.2222 6.68405 10.1285 6.85075 9.9618C7.01745 9.7951 7.1111 9.56901 7.1111 9.33326C7.1111 9.09752 7.01745 8.87142 6.85075 8.70473C6.68405 8.53803 6.45796 8.44438 6.22221 8.44438H5.33332C5.37311 7.52225 5.63667 6.62366 6.10125 5.82612C6.56583 5.02859 7.21749 4.35607 7.99999 3.8666V6.6666C7.99999 6.90235 8.09364 7.12844 8.26034 7.29514C8.42704 7.46184 8.65313 7.55549 8.88888 7.55549C9.12463 7.55549 9.35072 7.46184 9.51742 7.29514C9.68412 7.12844 9.77777 6.90235 9.77777 6.6666V3.19104C10.019 3.15073 10.2624 3.12402 10.5067 3.11104H10.6667C10.9645 3.11524 11.2617 3.14198 11.5555 3.19104V6.6666C11.5555 6.90235 11.6492 7.12844 11.8159 7.29514C11.9826 7.46184 12.2087 7.55549 12.4444 7.55549C12.6802 7.55549 12.9063 7.46184 13.073 7.29514C13.2397 7.12844 13.3333 6.90235 13.3333 6.6666V3.83993C13.7104 4.05826 14.0622 4.31762 14.3822 4.61326C14.8947 5.11095 15.302 5.70653 15.5799 6.36464C15.8578 7.02276 16.0007 7.72999 16 8.44438H15.1111C14.8754 8.44438 14.6493 8.53803 14.4826 8.70473C14.3159 8.87142 14.2222 9.09752 14.2222 9.33326C14.2222 9.56901 14.3159 9.7951 14.4826 9.9618C14.6493 10.1285 14.8754 10.2222 15.1111 10.2222H16.8889C17.1246 10.2222 17.3507 10.3158 17.5174 10.4825C17.6841 10.6492 17.7778 10.8753 17.7778 11.111C17.7778 11.3468 17.6841 11.5729 17.5174 11.7396C17.3507 11.9063 17.1246 11.9999 16.8889 11.9999Z" fill="white"/>
</svg>
