<svg width="22" height="22" viewBox="0 0 22 22" fill="none" xmlns="http://www.w3.org/2000/svg">
<path d="M17.6978 13.7862H13.6712C13.4354 13.7862 13.2093 13.8799 13.0426 14.0466C12.8759 14.2133 12.7823 14.4394 12.7823 14.6751C12.7823 14.9109 12.8759 15.137 13.0426 15.3037C13.2093 15.4704 13.4354 15.564 13.6712 15.564H15.8045C14.824 16.5887 13.5595 17.2967 12.1735 17.5973C10.7875 17.8978 9.34335 17.777 8.02652 17.2505C6.70969 16.7239 5.58038 15.8157 4.78369 14.6424C3.987 13.4691 3.55932 12.0844 3.55561 10.6662C3.55561 10.4305 3.46196 10.2044 3.29526 10.0377C3.12856 9.871 2.90247 9.77734 2.66672 9.77734C2.43097 9.77734 2.20488 9.871 2.03818 10.0377C1.87148 10.2044 1.77783 10.4305 1.77783 10.6662C1.78253 12.4021 2.29536 14.0985 3.25304 15.5463C4.21071 16.994 5.57131 18.1297 7.16694 18.8131C8.76256 19.4965 10.5234 19.6978 12.2321 19.3921C13.9408 19.0864 15.5226 18.2872 16.7823 17.0929V18.6662C16.7823 18.902 16.8759 19.1281 17.0426 19.2948C17.2093 19.4615 17.4354 19.5551 17.6712 19.5551C17.9069 19.5551 18.133 19.4615 18.2997 19.2948C18.4664 19.1281 18.5601 18.902 18.5601 18.6662V14.6662C18.5579 14.4366 18.4669 14.2167 18.3061 14.0526C18.1454 13.8886 17.9274 13.7931 17.6978 13.7862ZM10.6667 1.77734C8.38795 1.78384 6.19871 2.66527 4.55117 4.23957V2.66623C4.55117 2.43048 4.45752 2.20439 4.29082 2.03769C4.12412 1.87099 3.89802 1.77734 3.66228 1.77734C3.42653 1.77734 3.20044 1.87099 3.03374 2.03769C2.86704 2.20439 2.77339 2.43048 2.77339 2.66623V6.66623C2.77339 6.90198 2.86704 7.12807 3.03374 7.29477C3.20044 7.46147 3.42653 7.55512 3.66228 7.55512H7.66228C7.89802 7.55512 8.12412 7.46147 8.29082 7.29477C8.45752 7.12807 8.55117 6.90198 8.55117 6.66623C8.55117 6.43048 8.45752 6.20439 8.29082 6.03769C8.12412 5.87099 7.89802 5.77734 7.66228 5.77734H5.52894C6.50891 4.75323 7.77258 4.04534 9.15774 3.74455C10.5429 3.44376 11.9864 3.56378 13.3028 4.08922C14.6193 4.61466 15.7487 5.52153 16.546 6.69344C17.3434 7.86534 17.7724 9.2488 17.7778 10.6662C17.7778 10.902 17.8715 11.1281 18.0382 11.2948C18.2049 11.4615 18.431 11.5551 18.6667 11.5551C18.9025 11.5551 19.1286 11.4615 19.2953 11.2948C19.462 11.1281 19.5556 10.902 19.5556 10.6662C19.5556 9.49893 19.3257 8.34305 18.879 7.2646C18.4323 6.18615 17.7775 5.20625 16.9521 4.38084C16.1267 3.55543 15.1468 2.90068 14.0684 2.45397C12.9899 2.00726 11.834 1.77734 10.6667 1.77734V1.77734Z" fill="white"/>
</svg>
