<svg width="53" height="53" viewBox="0 0 53 53" fill="none" xmlns="http://www.w3.org/2000/svg">
<path d="M0 8.74667C0 3.91602 3.91602 0 8.74667 0H43.7333C48.564 0 52.48 3.91602 52.48 8.74667V43.7333C52.48 48.564 48.564 52.48 43.7333 52.48H8.74667C3.91602 52.48 0 48.564 0 43.7333V8.74667Z" fill="url(#paint0_linear_209_1709)"/>
<path d="M35.56 23.79L33.67 23.16L34.56 21.38C34.6502 21.1937 34.6804 20.984 34.6464 20.7798C34.6123 20.5756 34.5158 20.387 34.37 20.24L32.24 18.11C32.0922 17.9621 31.9018 17.8642 31.6955 17.8301C31.4893 17.796 31.2775 17.8275 31.09 17.92L29.31 18.81L28.68 16.92C28.6135 16.723 28.4872 16.5516 28.3187 16.4297C28.1502 16.3079 27.9479 16.2415 27.74 16.24H24.74C24.5303 16.2395 24.3258 16.3048 24.1554 16.4268C23.9849 16.5489 23.8571 16.7214 23.79 16.92L23.16 18.81L21.38 17.92C21.1937 17.8298 20.984 17.7996 20.7798 17.8336C20.5756 17.8677 20.387 17.9642 20.24 18.11L18.11 20.24C17.9621 20.3878 17.8642 20.5782 17.8301 20.7844C17.796 20.9907 17.8275 21.2025 17.92 21.39L18.81 23.17L16.92 23.8C16.723 23.8665 16.5516 23.9928 16.4297 24.1613C16.3079 24.3298 16.2415 24.5321 16.24 24.74V27.74C16.2395 27.9496 16.3048 28.1541 16.4268 28.3246C16.5489 28.4951 16.7214 28.6229 16.92 28.69L18.81 29.32L17.92 31.1C17.8298 31.2863 17.7996 31.496 17.8336 31.7002C17.8677 31.9044 17.9642 32.093 18.11 32.24L20.24 34.37C20.3878 34.5179 20.5782 34.6158 20.7844 34.6499C20.9907 34.6839 21.2025 34.6525 21.39 34.56L23.17 33.67L23.8 35.56C23.8671 35.7586 23.9949 35.9311 24.1654 36.0532C24.3358 36.1752 24.5403 36.2405 24.75 36.24H27.75C27.9596 36.2405 28.1641 36.1752 28.3346 36.0532C28.5051 35.9311 28.6329 35.7586 28.7 35.56L29.33 33.67L31.11 34.56C31.2951 34.6479 31.5028 34.6769 31.7049 34.6429C31.907 34.6089 32.0938 34.5136 32.24 34.37L34.37 32.24C34.5179 32.0922 34.6158 31.9018 34.6499 31.6955C34.6839 31.4893 34.6525 31.2775 34.56 31.09L33.67 29.31L35.56 28.68C35.757 28.6135 35.9284 28.4872 36.0502 28.3187C36.1721 28.1502 36.2384 27.9479 36.24 27.74V24.74C36.2405 24.5303 36.1752 24.3258 36.0532 24.1554C35.9311 23.9849 35.7586 23.8571 35.56 23.79ZM34.24 27.02L33.04 27.42C32.764 27.5095 32.5109 27.658 32.298 27.8551C32.0852 28.0522 31.9178 28.2933 31.8075 28.5616C31.6971 28.8299 31.6464 29.1189 31.6589 29.4088C31.6715 29.6986 31.7469 29.9822 31.88 30.24L32.45 31.38L31.35 32.48L30.24 31.88C29.9835 31.7522 29.7026 31.6811 29.4163 31.6713C29.13 31.6615 28.8449 31.7134 28.5803 31.8234C28.3158 31.9334 28.0779 32.0989 27.8829 32.3088C27.6879 32.5187 27.5403 32.7681 27.45 33.04L27.05 34.24H25.46L25.06 33.04C24.9705 32.764 24.822 32.5109 24.6249 32.298C24.4278 32.0852 24.1867 31.9178 23.9184 31.8075C23.6501 31.6971 23.361 31.6464 23.0712 31.6589C22.7814 31.6715 22.4978 31.7469 22.24 31.88L21.1 32.45L20 31.35L20.6 30.24C20.7331 29.9822 20.8085 29.6986 20.821 29.4088C20.8336 29.1189 20.7829 28.8299 20.6725 28.5616C20.5622 28.2933 20.3948 28.0522 20.1819 27.8551C19.9691 27.658 19.7159 27.5095 19.44 27.42L18.24 27.02V25.46L19.44 25.06C19.7159 24.9705 19.9691 24.822 20.1819 24.6249C20.3948 24.4278 20.5622 24.1867 20.6725 23.9184C20.7829 23.6501 20.8336 23.361 20.821 23.0712C20.8085 22.7814 20.7331 22.4978 20.6 22.24L20.03 21.13L21.13 20.03L22.24 20.6C22.4978 20.7331 22.7814 20.8085 23.0712 20.821C23.361 20.8336 23.6501 20.7829 23.9184 20.6725C24.1867 20.5622 24.4278 20.3948 24.6249 20.1819C24.822 19.9691 24.9705 19.7159 25.06 19.44L25.46 18.24H27.02L27.42 19.44C27.5095 19.7159 27.658 19.9691 27.8551 20.1819C28.0522 20.3948 28.2933 20.5622 28.5616 20.6725C28.8299 20.7829 29.1189 20.8336 29.4088 20.821C29.6986 20.8085 29.9822 20.7331 30.24 20.6L31.38 20.03L32.48 21.13L31.88 22.24C31.7522 22.4964 31.6811 22.7773 31.6713 23.0637C31.6615 23.35 31.7134 23.6351 31.8234 23.8997C31.9334 24.1642 32.0989 24.4021 32.3088 24.5971C32.5187 24.7921 32.7681 24.9397 33.04 25.03L34.24 25.43V27.02ZM26.24 22.24C25.4489 22.24 24.6755 22.4746 24.0177 22.9141C23.3599 23.3536 22.8472 23.9784 22.5445 24.7093C22.2417 25.4402 22.1625 26.2444 22.3169 27.0204C22.4712 27.7963 22.8522 28.509 23.4116 29.0684C23.971 29.6278 24.6837 30.0088 25.4596 30.1631C26.2356 30.3175 27.0398 30.2383 27.7707 29.9355C28.5016 29.6328 29.1263 29.1201 29.5659 28.4623C30.0054 27.8045 30.24 27.0311 30.24 26.24C30.24 25.1791 29.8186 24.1617 29.0684 23.4116C28.3183 22.6614 27.3009 22.24 26.24 22.24ZM26.24 28.24C25.8444 28.24 25.4578 28.1227 25.1289 27.9029C24.8 27.6832 24.5436 27.3708 24.3922 27.0054C24.2409 26.6399 24.2013 26.2378 24.2784 25.8498C24.3556 25.4619 24.5461 25.1055 24.8258 24.8258C25.1055 24.5461 25.4619 24.3556 25.8498 24.2784C26.2378 24.2013 26.6399 24.2409 27.0054 24.3922C27.3708 24.5436 27.6832 24.8 27.9029 25.1289C28.1227 25.4578 28.24 25.8444 28.24 26.24C28.24 26.7704 28.0293 27.2791 27.6542 27.6542C27.2791 28.0293 26.7704 28.24 26.24 28.24Z" fill="white"/>
<defs>
<linearGradient id="paint0_linear_209_1709" x1="26.24" y1="0" x2="26.24" y2="52.48" gradientUnits="userSpaceOnUse">
<stop stop-color="#003268"/>
<stop offset="1" stop-color="#5280CA"/>
</linearGradient>
</defs>
</svg>
