<svg width="53" height="53" viewBox="0 0 53 53" fill="none" xmlns="http://www.w3.org/2000/svg">
<path d="M0 10C0 4.47715 4.47715 0 10 0H42.4781C48.001 0 52.4781 4.47715 52.4781 10V42.4781C52.4781 48.001 48.001 52.4781 42.4781 52.4781H10C4.47715 52.4781 0 48.001 0 42.4781V10Z" fill="url(#paint0_linear_209_1684)"/>
<path d="M26.2391 26.239C25.6457 26.239 25.0657 26.415 24.5724 26.7446C24.079 27.0742 23.6945 27.5428 23.4674 28.091C23.2404 28.6391 23.181 29.2423 23.2967 29.8243C23.4125 30.4062 23.6982 30.9408 24.1178 31.3603C24.5373 31.7799 25.0719 32.0656 25.6538 32.1814C26.2357 32.2971 26.8389 32.2377 27.3871 32.0107C27.9353 31.7836 28.4038 31.3991 28.7335 30.9057C29.0631 30.4124 29.2391 29.8324 29.2391 29.239C29.2391 28.4434 28.923 27.6803 28.3604 27.1177C27.7978 26.5551 27.0347 26.239 26.2391 26.239ZM26.2391 30.239C26.0413 30.239 25.848 30.1804 25.6835 30.0705C25.5191 29.9606 25.3909 29.8044 25.3152 29.6217C25.2395 29.439 25.2197 29.2379 25.2583 29.0439C25.2969 28.8499 25.3921 28.6718 25.532 28.5319C25.6718 28.3921 25.85 28.2968 26.044 28.2582C26.238 28.2196 26.439 28.2394 26.6218 28.3151C26.8045 28.3908 26.9607 28.519 27.0705 28.6834C27.1804 28.8479 27.2391 29.0412 27.2391 29.239C27.2391 29.5042 27.1337 29.7586 26.9462 29.9461C26.7586 30.1337 26.5043 30.239 26.2391 30.239ZM25.5291 23.949C25.6242 24.0401 25.7363 24.1114 25.8591 24.159C25.9788 24.2119 26.1082 24.2392 26.2391 24.2392C26.3699 24.2392 26.4994 24.2119 26.6191 24.159C26.7418 24.1114 26.854 24.0401 26.9491 23.949L29.2391 21.699C29.4327 21.5054 29.5415 21.2428 29.5415 20.969C29.5415 20.6952 29.4327 20.4326 29.2391 20.239C29.0455 20.0454 28.7829 19.9366 28.5091 19.9366C28.2353 19.9366 27.9727 20.0454 27.7791 20.239L27.2391 20.829V17.239C27.2391 16.9738 27.1337 16.7194 26.9462 16.5319C26.7586 16.3444 26.5043 16.239 26.2391 16.239C25.9739 16.239 25.7195 16.3444 25.532 16.5319C25.3444 16.7194 25.2391 16.9738 25.2391 17.239V20.829L24.6991 20.239C24.5055 20.0454 24.2429 19.9366 23.9691 19.9366C23.6953 19.9366 23.4327 20.0454 23.2391 20.239C23.0455 20.4326 22.9367 20.6952 22.9367 20.969C22.9367 21.2428 23.0455 21.5054 23.2391 21.699L25.5291 23.949ZM33.2391 29.239C33.2391 29.0412 33.1804 28.8479 33.0705 28.6834C32.9607 28.519 32.8045 28.3908 32.6218 28.3151C32.439 28.2394 32.238 28.2196 32.044 28.2582C31.85 28.2968 31.6718 28.3921 31.532 28.5319C31.3921 28.6718 31.2969 28.8499 31.2583 29.0439C31.2197 29.2379 31.2395 29.439 31.3152 29.6217C31.3909 29.8044 31.5191 29.9606 31.6835 30.0705C31.848 30.1804 32.0413 30.239 32.2391 30.239C32.5043 30.239 32.7586 30.1337 32.9462 29.9461C33.1337 29.7586 33.2391 29.5042 33.2391 29.239ZM34.2391 22.239H31.2391C30.9739 22.239 30.7195 22.3444 30.532 22.5319C30.3444 22.7194 30.2391 22.9738 30.2391 23.239C30.2391 23.5042 30.3444 23.7586 30.532 23.9461C30.7195 24.1337 30.9739 24.239 31.2391 24.239H34.2391C34.5043 24.239 34.7586 24.3444 34.9462 24.5319C35.1337 24.7194 35.2391 24.9738 35.2391 25.239V33.239C35.2391 33.5042 35.1337 33.7586 34.9462 33.9461C34.7586 34.1337 34.5043 34.239 34.2391 34.239H18.2391C17.9739 34.239 17.7195 34.1337 17.532 33.9461C17.3444 33.7586 17.2391 33.5042 17.2391 33.239V25.239C17.2391 24.9738 17.3444 24.7194 17.532 24.5319C17.7195 24.3444 17.9739 24.239 18.2391 24.239H21.2391C21.5043 24.239 21.7586 24.1337 21.9462 23.9461C22.1337 23.7586 22.2391 23.5042 22.2391 23.239C22.2391 22.9738 22.1337 22.7194 21.9462 22.5319C21.7586 22.3444 21.5043 22.239 21.2391 22.239H18.2391C17.4434 22.239 16.6804 22.5551 16.1178 23.1177C15.5551 23.6803 15.2391 24.4434 15.2391 25.239V33.239C15.2391 34.0347 15.5551 34.7977 16.1178 35.3603C16.6804 35.9229 17.4434 36.239 18.2391 36.239H34.2391C35.0347 36.239 35.7978 35.9229 36.3604 35.3603C36.923 34.7977 37.2391 34.0347 37.2391 33.239V25.239C37.2391 24.4434 36.923 23.6803 36.3604 23.1177C35.7978 22.5551 35.0347 22.239 34.2391 22.239ZM19.2391 29.239C19.2391 29.4368 19.2977 29.6301 19.4076 29.7946C19.5175 29.959 19.6737 30.0872 19.8564 30.1629C20.0391 30.2386 20.2402 30.2584 20.4342 30.2198C20.6281 30.1812 20.8063 30.086 20.9462 29.9461C21.086 29.8063 21.1813 29.6281 21.2199 29.4341C21.2584 29.2401 21.2386 29.0391 21.163 28.8563C21.0873 28.6736 20.9591 28.5174 20.7946 28.4075C20.6302 28.2977 20.4369 28.239 20.2391 28.239C19.9739 28.239 19.7195 28.3444 19.532 28.5319C19.3444 28.7194 19.2391 28.9738 19.2391 29.239Z" fill="white"/>
<defs>
<linearGradient id="paint0_linear_209_1684" x1="26.2391" y1="0" x2="26.2391" y2="52.4781" gradientUnits="userSpaceOnUse">
<stop stop-color="#003268"/>
<stop offset="1" stop-color="#5280CA"/>
</linearGradient>
</defs>
</svg>
