<svg width="70" height="70" viewBox="0 0 70 70" fill="none" xmlns="http://www.w3.org/2000/svg">
<path d="M0 13.3333C0 5.96953 5.96954 0 13.3333 0H56.6375C64.0013 0 69.9708 5.96954 69.9708 13.3333V56.6375C69.9708 64.0013 64.0013 69.9708 56.6375 69.9708H13.3333C5.96953 69.9708 0 64.0013 0 56.6375V13.3333Z" fill="url(#paint0_linear_3037_4086)"/>
<path d="M22.3186 30.7987L34.3186 37.7321C34.5213 37.8491 34.7512 37.9107 34.9852 37.9107C35.2193 37.9107 35.4492 37.8491 35.6519 37.7321L47.6519 30.7987C47.8534 30.6824 48.021 30.5153 48.1379 30.3142C48.2549 30.113 48.3172 29.8848 48.3186 29.6521C48.3195 29.4171 48.2583 29.1861 48.1413 28.9824C48.0242 28.7787 47.8554 28.6095 47.6519 28.4921L35.6519 21.5721C35.4492 21.455 35.2193 21.3934 34.9852 21.3934C34.7512 21.3934 34.5213 21.455 34.3186 21.5721L22.3186 28.4921C22.1151 28.6095 21.9463 28.7787 21.8292 28.9824C21.7121 29.1861 21.651 29.4171 21.6519 29.6521C21.6533 29.8848 21.7156 30.113 21.8325 30.3142C21.9495 30.5153 22.117 30.6824 22.3186 30.7987ZM34.9852 24.3187L44.3186 29.6521L34.9852 34.9854L25.6519 29.6521L34.9852 24.3187ZM46.3186 33.8787L34.9852 40.3187L23.6519 33.8254C23.4997 33.7372 23.3316 33.6801 23.1572 33.6571C22.9829 33.6342 22.8057 33.646 22.6359 33.6919C22.4661 33.7378 22.3071 33.8168 22.1679 33.9243C22.0288 34.0319 21.9123 34.1659 21.8252 34.3187C21.6514 34.6249 21.6057 34.9874 21.6981 35.3271C21.7906 35.6668 22.0136 35.9562 22.3186 36.1321L34.3186 43.0654C34.5213 43.1824 34.7512 43.244 34.9852 43.244C35.2193 43.244 35.4492 43.1824 35.6519 43.0654L47.6519 36.1321C47.9569 35.9562 48.1799 35.6668 48.2723 35.3271C48.3647 34.9874 48.3191 34.6249 48.1452 34.3187C48.0581 34.1659 47.9417 34.0319 47.8025 33.9243C47.6634 33.8168 47.5044 33.7378 47.3346 33.6919C47.1648 33.646 46.9876 33.6342 46.8132 33.6571C46.6389 33.6801 46.4707 33.7372 46.3186 33.8254V33.8787ZM46.3186 39.2121L34.9852 45.6521L23.6519 39.1587C23.4997 39.0706 23.3316 39.0134 23.1572 38.9905C22.9829 38.9676 22.8057 38.9794 22.6359 39.0252C22.4661 39.0711 22.3071 39.1501 22.1679 39.2577C22.0288 39.3652 21.9123 39.4993 21.8252 39.6521C21.6514 39.9582 21.6057 40.3207 21.6981 40.6604C21.7906 41.0001 22.0136 41.2895 22.3186 41.4654L34.3186 48.3987C34.5213 48.5158 34.7512 48.5774 34.9852 48.5774C35.2193 48.5774 35.4492 48.5158 35.6519 48.3987L47.6519 41.4654C47.9569 41.2895 48.1799 41.0001 48.2723 40.6604C48.3647 40.3207 48.3191 39.9582 48.1452 39.6521C48.0581 39.4993 47.9417 39.3652 47.8025 39.2577C47.6634 39.1501 47.5044 39.0711 47.3346 39.0252C47.1648 38.9794 46.9876 38.9676 46.8132 38.9905C46.6389 39.0134 46.4707 39.0706 46.3186 39.1587V39.2121Z" fill="white"/>
<defs>
<linearGradient id="paint0_linear_3037_4086" x1="34.9854" y1="0" x2="34.9854" y2="69.9708" gradientUnits="userSpaceOnUse">
<stop stop-color="#003268"/>
<stop offset="1" stop-color="#5280CA"/>
</linearGradient>
</defs>
</svg>
