<svg width="70" height="70" viewBox="0 0 70 70" fill="none" xmlns="http://www.w3.org/2000/svg">
<path d="M0 13.3333C0 5.96953 5.96954 0 13.3333 0H56.6375C64.0013 0 69.9708 5.96954 69.9708 13.3333V56.6375C69.9708 64.0013 64.0013 69.9708 56.6375 69.9708H13.3333C5.96953 69.9708 0 64.0013 0 56.6375V13.3333Z" fill="url(#paint0_linear_3037_4095)"/>
<path d="M45.6517 30.9054C45.6379 30.7829 45.6111 30.6622 45.5717 30.5454V30.4254C45.5091 30.2875 45.4234 30.1612 45.3184 30.0521L37.3184 22.0521C37.2092 21.9471 37.083 21.8614 36.945 21.7988C36.9053 21.7927 36.8648 21.7927 36.825 21.7988C36.6893 21.7217 36.5398 21.6719 36.385 21.6521H28.3184C27.2575 21.6521 26.2401 22.0735 25.4899 22.8237C24.7398 23.5738 24.3184 24.5912 24.3184 25.6521V44.3188C24.3184 45.3796 24.7398 46.397 25.4899 47.1472C26.2401 47.8973 27.2575 48.3188 28.3184 48.3188H41.6517C42.7126 48.3188 43.73 47.8973 44.4801 47.1472C45.2303 46.397 45.6517 45.3796 45.6517 44.3188V30.9054ZM37.6517 26.1988L41.105 29.6521H38.985C38.6314 29.6521 38.2923 29.5116 38.0422 29.2616C37.7922 29.0115 37.6517 28.6724 37.6517 28.3188V26.1988ZM42.985 44.3188C42.985 44.6724 42.8446 45.0115 42.5945 45.2616C42.3445 45.5116 42.0053 45.6521 41.6517 45.6521H28.3184C27.9647 45.6521 27.6256 45.5116 27.3756 45.2616C27.1255 45.0115 26.985 44.6724 26.985 44.3188V25.6521C26.985 25.2985 27.1255 24.9593 27.3756 24.7093C27.6256 24.4592 27.9647 24.3188 28.3184 24.3188H34.985V28.3188C34.985 29.3796 35.4065 30.397 36.1566 31.1472C36.9067 31.8973 37.9242 32.3188 38.985 32.3188H42.985V44.3188ZM38.0384 35.3721L33.6517 39.7721L31.9317 38.0388C31.6806 37.7877 31.3401 37.6466 30.985 37.6466C30.63 37.6466 30.2894 37.7877 30.0384 38.0388C29.7873 38.2898 29.6462 38.6304 29.6462 38.9854C29.6462 39.3405 29.7873 39.681 30.0384 39.9321L32.705 42.5988C32.829 42.7237 32.9764 42.8229 33.1389 42.8906C33.3014 42.9583 33.4757 42.9932 33.6517 42.9932C33.8277 42.9932 34.002 42.9583 34.1645 42.8906C34.3269 42.8229 34.4744 42.7237 34.5984 42.5988L39.9317 37.2654C40.1828 37.0144 40.3238 36.6738 40.3238 36.3188C40.3238 35.9637 40.1828 35.6232 39.9317 35.3721C39.6806 35.121 39.3401 34.98 38.985 34.98C38.63 34.98 38.2894 35.121 38.0384 35.3721Z" fill="white"/>
<defs>
<linearGradient id="paint0_linear_3037_4095" x1="34.9854" y1="0" x2="34.9854" y2="69.9708" gradientUnits="userSpaceOnUse">
<stop stop-color="#003268"/>
<stop offset="1" stop-color="#5280CA"/>
</linearGradient>
</defs>
</svg>
