<svg width="70" height="70" viewBox="0 0 70 70" fill="none" xmlns="http://www.w3.org/2000/svg">
<path d="M0 13.3333C0 5.96953 5.96954 0 13.3333 0H56.6375C64.0013 0 69.9708 5.96954 69.9708 13.3333V56.6375C69.9708 64.0013 64.0013 69.9708 56.6375 69.9708H13.3333C5.96953 69.9708 0 64.0013 0 56.6375V13.3333Z" fill="url(#paint0_linear_3037_4113)"/>
<path d="M37.6523 29.652H38.9857C39.3393 29.652 39.6784 29.5115 39.9285 29.2615C40.1785 29.0114 40.319 28.6723 40.319 28.3186C40.319 27.965 40.1785 27.6259 39.9285 27.3758C39.6784 27.1258 39.3393 26.9853 38.9857 26.9853H37.6523C37.2987 26.9853 36.9596 27.1258 36.7095 27.3758C36.4595 27.6259 36.319 27.965 36.319 28.3186C36.319 28.6723 36.4595 29.0114 36.7095 29.2615C36.9596 29.5115 37.2987 29.652 37.6523 29.652ZM37.6523 34.9853H38.9857C39.3393 34.9853 39.6784 34.8448 39.9285 34.5948C40.1785 34.3447 40.319 34.0056 40.319 33.652C40.319 33.2984 40.1785 32.9592 39.9285 32.7092C39.6784 32.4591 39.3393 32.3186 38.9857 32.3186H37.6523C37.2987 32.3186 36.9596 32.4591 36.7095 32.7092C36.4595 32.9592 36.319 33.2984 36.319 33.652C36.319 34.0056 36.4595 34.3447 36.7095 34.5948C36.9596 34.8448 37.2987 34.9853 37.6523 34.9853ZM30.9857 29.652H32.319C32.6726 29.652 33.0118 29.5115 33.2618 29.2615C33.5119 29.0114 33.6523 28.6723 33.6523 28.3186C33.6523 27.965 33.5119 27.6259 33.2618 27.3758C33.0118 27.1258 32.6726 26.9853 32.319 26.9853H30.9857C30.6321 26.9853 30.2929 27.1258 30.0429 27.3758C29.7928 27.6259 29.6523 27.965 29.6523 28.3186C29.6523 28.6723 29.7928 29.0114 30.0429 29.2615C30.2929 29.5115 30.6321 29.652 30.9857 29.652ZM30.9857 34.9853H32.319C32.6726 34.9853 33.0118 34.8448 33.2618 34.5948C33.5119 34.3447 33.6523 34.0056 33.6523 33.652C33.6523 33.2984 33.5119 32.9592 33.2618 32.7092C33.0118 32.4591 32.6726 32.3186 32.319 32.3186H30.9857C30.6321 32.3186 30.2929 32.4591 30.0429 32.7092C29.7928 32.9592 29.6523 33.2984 29.6523 33.652C29.6523 34.0056 29.7928 34.3447 30.0429 34.5948C30.2929 34.8448 30.6321 34.9853 30.9857 34.9853ZM46.9857 45.652H45.6523V22.9853C45.6523 22.6317 45.5119 22.2926 45.2618 22.0425C45.0118 21.7925 44.6726 21.652 44.319 21.652H25.6523C25.2987 21.652 24.9596 21.7925 24.7095 22.0425C24.4595 22.2926 24.319 22.6317 24.319 22.9853V45.652H22.9857C22.6321 45.652 22.2929 45.7925 22.0429 46.0425C21.7928 46.2925 21.6523 46.6317 21.6523 46.9853C21.6523 47.3389 21.7928 47.6781 22.0429 47.9281C22.2929 48.1782 22.6321 48.3186 22.9857 48.3186H46.9857C47.3393 48.3186 47.6784 48.1782 47.9285 47.9281C48.1785 47.6781 48.319 47.3389 48.319 46.9853C48.319 46.6317 48.1785 46.2925 47.9285 46.0425C47.6784 45.7925 47.3393 45.652 46.9857 45.652ZM36.319 45.652H33.6523V40.3186H36.319V45.652ZM42.9857 45.652H38.9857V38.9853C38.9857 38.6317 38.8452 38.2925 38.5952 38.0425C38.3451 37.7925 38.006 37.652 37.6523 37.652H32.319C31.9654 37.652 31.6262 37.7925 31.3762 38.0425C31.1262 38.2925 30.9857 38.6317 30.9857 38.9853V45.652H26.9857V24.3186H42.9857V45.652Z" fill="white"/>
<defs>
<linearGradient id="paint0_linear_3037_4113" x1="34.9854" y1="0" x2="34.9854" y2="69.9708" gradientUnits="userSpaceOnUse">
<stop stop-color="#003268"/>
<stop offset="1" stop-color="#5280CA"/>
</linearGradient>
</defs>
</svg>
