<svg width="70" height="70" viewBox="0 0 70 70" fill="none" xmlns="http://www.w3.org/2000/svg">
<path d="M0 13.3333C0 5.96953 5.96954 0 13.3333 0H56.6375C64.0013 0 69.9708 5.96954 69.9708 13.3333V56.6375C69.9708 64.0013 64.0013 69.9708 56.6375 69.9708H13.3333C5.96953 69.9708 0 64.0013 0 56.6375V13.3333Z" fill="url(#paint0_linear_3037_4104)"/>
<path d="M41.6522 33.6522H42.9855C43.3391 33.6522 43.6783 33.5117 43.9283 33.2617C44.1784 33.0116 44.3189 32.6725 44.3189 32.3188V30.9855C44.3189 30.6319 44.1784 30.2928 43.9283 30.0427C43.6783 29.7927 43.3391 29.6522 42.9855 29.6522H41.6522C41.2986 29.6522 40.9594 29.7927 40.7094 30.0427C40.4593 30.2928 40.3189 30.6319 40.3189 30.9855V32.3188C40.3189 32.6725 40.4593 33.0116 40.7094 33.2617C40.9594 33.5117 41.2986 33.6522 41.6522 33.6522ZM26.9855 34.9855H33.6522C34.0058 34.9855 34.3449 34.845 34.595 34.595C34.845 34.3449 34.9855 34.0058 34.9855 33.6522C34.9855 33.2986 34.845 32.9594 34.595 32.7094C34.3449 32.4593 34.0058 32.3188 33.6522 32.3188H26.9855C26.6319 32.3188 26.2928 32.4593 26.0427 32.7094C25.7927 32.9594 25.6522 33.2986 25.6522 33.6522C25.6522 34.0058 25.7927 34.3449 26.0427 34.595C26.2928 34.845 26.6319 34.9855 26.9855 34.9855ZM48.3189 24.3188H21.6522C21.2986 24.3188 20.9594 24.4593 20.7094 24.7094C20.4593 24.9594 20.3188 25.2986 20.3188 25.6522V44.3188C20.3188 44.6725 20.4593 45.0116 20.7094 45.2617C20.9594 45.5117 21.2986 45.6522 21.6522 45.6522H48.3189C48.6725 45.6522 49.0116 45.5117 49.2617 45.2617C49.5117 45.0116 49.6522 44.6725 49.6522 44.3188V25.6522C49.6522 25.2986 49.5117 24.9594 49.2617 24.7094C49.0116 24.4593 48.6725 24.3188 48.3189 24.3188ZM46.9855 42.9855H22.9855V26.9855H46.9855V42.9855ZM26.9855 40.3188H33.6522C34.0058 40.3188 34.3449 40.1784 34.595 39.9283C34.845 39.6783 34.9855 39.3391 34.9855 38.9855C34.9855 38.6319 34.845 38.2928 34.595 38.0427C34.3449 37.7927 34.0058 37.6522 33.6522 37.6522H26.9855C26.6319 37.6522 26.2928 37.7927 26.0427 38.0427C25.7927 38.2928 25.6522 38.6319 25.6522 38.9855C25.6522 39.3391 25.7927 39.6783 26.0427 39.9283C26.2928 40.1784 26.6319 40.3188 26.9855 40.3188Z" fill="white"/>
<defs>
<linearGradient id="paint0_linear_3037_4104" x1="34.9854" y1="0" x2="34.9854" y2="69.9708" gradientUnits="userSpaceOnUse">
<stop stop-color="#003268"/>
<stop offset="1" stop-color="#5280CA"/>
</linearGradient>
</defs>
</svg>
