<svg width="16" height="16" viewBox="0 0 16 16" fill="none" xmlns="http://www.w3.org/2000/svg">
<path d="M9.3335 6.00016H6.66683C6.49002 6.00016 6.32045 6.0704 6.19543 6.19543C6.0704 6.32045 6.00016 6.49002 6.00016 6.66683V9.3335C6.00016 9.51031 6.0704 9.67988 6.19543 9.8049C6.32045 9.92992 6.49002 10.0002 6.66683 10.0002H9.3335C9.51031 10.0002 9.67988 9.92992 9.8049 9.8049C9.92992 9.67988 10.0002 9.51031 10.0002 9.3335V6.66683C10.0002 6.49002 9.92992 6.32045 9.8049 6.19543C9.67988 6.0704 9.51031 6.00016 9.3335 6.00016ZM8.66683 8.66683H7.3335V7.3335H8.66683V8.66683ZM14.0002 8.66683C14.177 8.66683 14.3465 8.59659 14.4716 8.47157C14.5966 8.34654 14.6668 8.17697 14.6668 8.00016C14.6668 7.82335 14.5966 7.65378 14.4716 7.52876C14.3465 7.40373 14.177 7.3335 14.0002 7.3335H12.6668V6.00016H14.0002C14.177 6.00016 14.3465 5.92992 14.4716 5.8049C14.5966 5.67988 14.6668 5.51031 14.6668 5.3335C14.6668 5.15669 14.5966 4.98712 14.4716 4.86209C14.3465 4.73707 14.177 4.66683 14.0002 4.66683H12.5468C12.4473 4.38723 12.2868 4.13329 12.0769 3.92343C11.867 3.71357 11.6131 3.55304 11.3335 3.4535V2.00016C11.3335 1.82335 11.2633 1.65378 11.1382 1.52876C11.0132 1.40373 10.8436 1.3335 10.6668 1.3335C10.49 1.3335 10.3204 1.40373 10.1954 1.52876C10.0704 1.65378 10.0002 1.82335 10.0002 2.00016V3.3335H8.66683V2.00016C8.66683 1.82335 8.59659 1.65378 8.47157 1.52876C8.34654 1.40373 8.17697 1.3335 8.00016 1.3335C7.82335 1.3335 7.65378 1.40373 7.52876 1.52876C7.40373 1.65378 7.3335 1.82335 7.3335 2.00016V3.3335H6.00016V2.00016C6.00016 1.82335 5.92992 1.65378 5.8049 1.52876C5.67988 1.40373 5.51031 1.3335 5.3335 1.3335C5.15669 1.3335 4.98712 1.40373 4.86209 1.52876C4.73707 1.65378 4.66683 1.82335 4.66683 2.00016V3.4535C4.38723 3.55304 4.13329 3.71357 3.92343 3.92343C3.71357 4.13329 3.55304 4.38723 3.4535 4.66683H2.00016C1.82335 4.66683 1.65378 4.73707 1.52876 4.86209C1.40373 4.98712 1.3335 5.15669 1.3335 5.3335C1.3335 5.51031 1.40373 5.67988 1.52876 5.8049C1.65378 5.92992 1.82335 6.00016 2.00016 6.00016H3.3335V7.3335H2.00016C1.82335 7.3335 1.65378 7.40373 1.52876 7.52876C1.40373 7.65378 1.3335 7.82335 1.3335 8.00016C1.3335 8.17697 1.40373 8.34654 1.52876 8.47157C1.65378 8.59659 1.82335 8.66683 2.00016 8.66683H3.3335V10.0002H2.00016C1.82335 10.0002 1.65378 10.0704 1.52876 10.1954C1.40373 10.3204 1.3335 10.49 1.3335 10.6668C1.3335 10.8436 1.40373 11.0132 1.52876 11.1382C1.65378 11.2633 1.82335 11.3335 2.00016 11.3335H3.4535C3.55304 11.6131 3.71357 11.867 3.92343 12.0769C4.13329 12.2868 4.38723 12.4473 4.66683 12.5468V14.0002C4.66683 14.177 4.73707 14.3465 4.86209 14.4716C4.98712 14.5966 5.15669 14.6668 5.3335 14.6668C5.51031 14.6668 5.67988 14.5966 5.8049 14.4716C5.92992 14.3465 6.00016 14.177 6.00016 14.0002V12.6668H7.3335V14.0002C7.3335 14.177 7.40373 14.3465 7.52876 14.4716C7.65378 14.5966 7.82335 14.6668 8.00016 14.6668C8.17697 14.6668 8.34654 14.5966 8.47157 14.4716C8.59659 14.3465 8.66683 14.177 8.66683 14.0002V12.6668H10.0002V14.0002C10.0002 14.177 10.0704 14.3465 10.1954 14.4716C10.3204 14.5966 10.49 14.6668 10.6668 14.6668C10.8436 14.6668 11.0132 14.5966 11.1382 14.4716C11.2633 14.3465 11.3335 14.177 11.3335 14.0002V12.5468C11.6131 12.4473 11.867 12.2868 12.0769 12.0769C12.2868 11.867 12.4473 11.6131 12.5468 11.3335H14.0002C14.177 11.3335 14.3465 11.2633 14.4716 11.1382C14.5966 11.0132 14.6668 10.8436 14.6668 10.6668C14.6668 10.49 14.5966 10.3204 14.4716 10.1954C14.3465 10.0704 14.177 10.0002 14.0002 10.0002H12.6668V8.66683H14.0002ZM11.3335 10.6668C11.3335 10.8436 11.2633 11.0132 11.1382 11.1382C11.0132 11.2633 10.8436 11.3335 10.6668 11.3335H5.3335C5.15669 11.3335 4.98712 11.2633 4.86209 11.1382C4.73707 11.0132 4.66683 10.8436 4.66683 10.6668V5.3335C4.66683 5.15669 4.73707 4.98712 4.86209 4.86209C4.98712 4.73707 5.15669 4.66683 5.3335 4.66683H10.6668C10.8436 4.66683 11.0132 4.73707 11.1382 4.86209C11.2633 4.98712 11.3335 5.15669 11.3335 5.3335V10.6668Z" fill="white"/>
</svg>
