<svg width="53" height="53" viewBox="0 0 53 53" fill="none" xmlns="http://www.w3.org/2000/svg">
<path d="M0 10C0 4.47715 4.47715 0 10 0H42.4781C48.001 0 52.4781 4.47715 52.4781 10V42.4781C52.4781 48.001 48.001 52.4781 42.4781 52.4781H10C4.47715 52.4781 0 48.001 0 42.4781V10Z" fill="url(#paint0_linear_150_3595)"/>
<path d="M25.2391 23.239H29.2391C29.5043 23.239 29.7586 23.1337 29.9462 22.9461C30.1337 22.7586 30.2391 22.5042 30.2391 22.239C30.2391 21.9738 30.1337 21.7194 29.9462 21.5319C29.7586 21.3444 29.5043 21.239 29.2391 21.239H27.2391V20.239C27.2391 19.9738 27.1337 19.7194 26.9462 19.5319C26.7586 19.3444 26.5043 19.239 26.2391 19.239C25.9739 19.239 25.7195 19.3444 25.532 19.5319C25.3444 19.7194 25.2391 19.9738 25.2391 20.239V21.239C24.4434 21.239 23.6804 21.5551 23.1178 22.1177C22.5551 22.6803 22.2391 23.4434 22.2391 24.239C22.2391 25.0347 22.5551 25.7977 23.1178 26.3603C23.6804 26.9229 24.4434 27.239 25.2391 27.239H27.2391C27.5043 27.239 27.7586 27.3444 27.9462 27.5319C28.1337 27.7194 28.2391 27.9738 28.2391 28.239C28.2391 28.5042 28.1337 28.7586 27.9462 28.9461C27.7586 29.1337 27.5043 29.239 27.2391 29.239H23.2391C22.9739 29.239 22.7195 29.3444 22.532 29.5319C22.3444 29.7194 22.2391 29.9738 22.2391 30.239C22.2391 30.5042 22.3444 30.7586 22.532 30.9461C22.7195 31.1337 22.9739 31.239 23.2391 31.239H25.2391V32.239C25.2391 32.5042 25.3444 32.7586 25.532 32.9461C25.7195 33.1337 25.9739 33.239 26.2391 33.239C26.5043 33.239 26.7586 33.1337 26.9462 32.9461C27.1337 32.7586 27.2391 32.5042 27.2391 32.239V31.239C28.0347 31.239 28.7978 30.9229 29.3604 30.3603C29.923 29.7977 30.2391 29.0347 30.2391 28.239C30.2391 27.4434 29.923 26.6803 29.3604 26.1177C28.7978 25.5551 28.0347 25.239 27.2391 25.239H25.2391C24.9739 25.239 24.7195 25.1337 24.532 24.9461C24.3444 24.7586 24.2391 24.5042 24.2391 24.239C24.2391 23.9738 24.3444 23.7194 24.532 23.5319C24.7195 23.3444 24.9739 23.239 25.2391 23.239ZM26.2391 15.239C24.0635 15.239 21.9367 15.8842 20.1278 17.0928C18.3189 18.3015 16.909 20.0195 16.0764 22.0295C15.2438 24.0395 15.026 26.2512 15.4504 28.385C15.8749 30.5188 16.9225 32.4788 18.4609 34.0172C19.9993 35.5556 21.9593 36.6032 24.0931 37.0277C26.2269 37.4521 28.4386 37.2343 30.4486 36.4017C32.4586 35.5691 34.1765 34.1592 35.3852 32.3503C36.5939 30.5413 37.2391 28.4146 37.2391 26.239C37.2391 23.3216 36.0802 20.5237 34.0173 18.4608C31.9544 16.3979 29.1565 15.239 26.2391 15.239ZM26.2391 35.239C24.459 35.239 22.719 34.7112 21.2389 33.7222C19.7589 32.7333 18.6054 31.3277 17.9242 29.6832C17.243 28.0386 17.0647 26.229 17.412 24.4832C17.7593 22.7374 18.6164 21.1337 19.8751 19.8751C21.1338 18.6164 22.7374 17.7592 24.4833 17.4119C26.2291 17.0647 28.0387 17.2429 29.6832 17.9241C31.3278 18.6053 32.7334 19.7588 33.7223 21.2389C34.7112 22.7189 35.2391 24.459 35.2391 26.239C35.2391 28.626 34.2909 30.9151 32.603 32.603C30.9152 34.2908 28.626 35.239 26.2391 35.239Z" fill="white"/>
<defs>
<linearGradient id="paint0_linear_150_3595" x1="26.2391" y1="0" x2="26.2391" y2="52.4781" gradientUnits="userSpaceOnUse">
<stop stop-color="#003268"/>
<stop offset="1" stop-color="#5280CA"/>
</linearGradient>
</defs>
</svg>
