<svg width="53" height="53" viewBox="0 0 53 53" fill="none" xmlns="http://www.w3.org/2000/svg">
<path d="M0 10C0 4.47715 4.47715 0 10 0H42.4781C48.001 0 52.4781 4.47715 52.4781 10V42.4781C52.4781 48.001 48.001 52.4781 42.4781 52.4781H10C4.47715 52.4781 0 48.001 0 42.4781V10Z" fill="url(#paint0_linear_150_3619)"/>
<path d="M29.009 20.109C29.2386 20.2394 29.5105 20.2737 29.7653 20.2043C30.0201 20.135 30.2371 19.9677 30.369 19.739C30.4782 19.5464 30.6482 19.3954 30.8524 19.3098C31.0566 19.2242 31.2835 19.2088 31.4974 19.266C31.7113 19.3232 31.9001 19.4497 32.0344 19.6258C32.1686 19.8019 32.2406 20.0176 32.239 20.239C32.239 20.5042 32.1337 20.7586 31.9461 20.9461C31.7586 21.1337 31.5042 21.239 31.239 21.239C30.9738 21.239 30.7195 21.3444 30.5319 21.5319C30.3444 21.7194 30.239 21.9738 30.239 22.239C30.239 22.5042 30.3444 22.7586 30.5319 22.9461C30.7195 23.1337 30.9738 23.239 31.239 23.239C31.7656 23.2387 32.2827 23.0998 32.7386 22.8362C33.1944 22.5727 33.5729 22.1939 33.8359 21.7378C34.0989 21.2817 34.2373 20.7643 34.2371 20.2378C34.2369 19.7113 34.0981 19.1941 33.8347 18.7382C33.5713 18.2823 33.1925 17.9037 32.7365 17.6406C32.2804 17.3774 31.7632 17.2389 31.2366 17.239C30.7101 17.2391 30.1929 17.3778 29.7369 17.6411C29.2809 17.9044 28.9023 18.283 28.639 18.739C28.5729 18.8531 28.53 18.9792 28.5128 19.11C28.4957 19.2408 28.5045 19.3737 28.5389 19.501C28.5733 19.6284 28.6325 19.7476 28.7132 19.852C28.7939 19.9563 28.8944 20.0437 29.009 20.109ZM33.309 27.239C33.0465 27.2049 32.7812 27.2763 32.5713 27.4375C32.3614 27.5988 32.2239 27.8366 32.189 28.099C31.9792 29.7942 31.1568 31.3541 29.8767 32.485C28.5966 33.6159 26.9471 34.2398 25.239 34.239H19.649L20.299 33.589C20.4853 33.4017 20.5898 33.1482 20.5898 32.884C20.5898 32.6198 20.4853 32.3664 20.299 32.179C19.324 31.2001 18.6604 29.9546 18.3919 28.5993C18.1234 27.244 18.262 25.8395 18.7902 24.5628C19.3184 23.2862 20.2127 22.1943 21.3602 21.4249C22.5078 20.6555 23.8574 20.2429 25.239 20.239C25.5042 20.239 25.7586 20.1337 25.9461 19.9461C26.1337 19.7586 26.239 19.5042 26.239 19.239C26.239 18.9738 26.1337 18.7194 25.9461 18.5319C25.7586 18.3444 25.5042 18.239 25.239 18.239C23.5483 18.2461 21.8937 18.7292 20.4648 19.6332C19.036 20.5372 17.8907 21.8253 17.1601 23.3501C16.4295 24.8749 16.1433 26.5747 16.3341 28.2547C16.5249 29.9347 17.1851 31.5269 18.239 32.849L16.529 34.529C16.3903 34.6696 16.2963 34.8482 16.2589 35.0422C16.2215 35.2362 16.2425 35.4369 16.319 35.619C16.3941 35.8016 16.5214 35.958 16.6852 36.0683C16.8489 36.1786 17.0416 36.238 17.239 36.239H25.239C27.4305 36.2393 29.5468 35.44 31.1908 33.9911C32.8349 32.5421 33.8939 30.5431 34.169 28.369C34.1873 28.2383 34.1795 28.1052 34.1461 27.9775C34.1127 27.8498 34.0544 27.7299 33.9744 27.6249C33.8945 27.5198 33.7945 27.4316 33.6803 27.3654C33.5661 27.2992 33.4399 27.2562 33.309 27.239ZM31.619 24.309C31.437 24.2285 31.235 24.2041 31.039 24.239L30.859 24.299L30.679 24.389L30.529 24.519C30.4391 24.6112 30.3678 24.7198 30.319 24.839C30.2599 24.9637 30.2324 25.1011 30.239 25.239C30.2361 25.3724 30.2599 25.505 30.309 25.629C30.3607 25.749 30.4355 25.8577 30.529 25.949C30.6225 26.0417 30.7333 26.115 30.8551 26.1648C30.977 26.2145 31.1074 26.2398 31.239 26.239C31.5042 26.239 31.7586 26.1337 31.9461 25.9461C32.1337 25.7586 32.239 25.5042 32.239 25.239C32.2424 25.1078 32.215 24.9777 32.159 24.859C32.0516 24.6187 31.8593 24.4265 31.619 24.319V24.309Z" fill="white"/>
<defs>
<linearGradient id="paint0_linear_150_3619" x1="26.2391" y1="0" x2="26.2391" y2="52.4781" gradientUnits="userSpaceOnUse">
<stop stop-color="#003268"/>
<stop offset="1" stop-color="#5280CA"/>
</linearGradient>
</defs>
</svg>
