<svg width="53" height="53" viewBox="0 0 53 53" fill="none" xmlns="http://www.w3.org/2000/svg">
<path d="M0 10C0 4.47715 4.47715 0 10 0H42.4781C48.001 0 52.4781 4.47715 52.4781 10V42.4781C52.4781 48.001 48.001 52.4781 42.4781 52.4781H10C4.47715 52.4781 0 48.001 0 42.4781V10Z" fill="url(#paint0_linear_150_3603)"/>
<path d="M36.2391 29.239H34.2391V26.239C34.2391 25.9738 34.1337 25.7194 33.9462 25.5319C33.7586 25.3444 33.5043 25.239 33.2391 25.239H27.2391V23.239H29.2391C29.5043 23.239 29.7586 23.1337 29.9462 22.9461C30.1337 22.7586 30.2391 22.5042 30.2391 22.239V16.239C30.2391 15.9738 30.1337 15.7194 29.9462 15.5319C29.7586 15.3444 29.5043 15.239 29.2391 15.239H23.2391C22.9739 15.239 22.7195 15.3444 22.532 15.5319C22.3444 15.7194 22.2391 15.9738 22.2391 16.239V22.239C22.2391 22.5042 22.3444 22.7586 22.532 22.9461C22.7195 23.1337 22.9739 23.239 23.2391 23.239H25.2391V25.239H19.2391C18.9739 25.239 18.7195 25.3444 18.532 25.5319C18.3444 25.7194 18.2391 25.9738 18.2391 26.239V29.239H16.2391C15.9739 29.239 15.7195 29.3444 15.532 29.5319C15.3444 29.7194 15.2391 29.9738 15.2391 30.239V36.239C15.2391 36.5042 15.3444 36.7586 15.532 36.9461C15.7195 37.1337 15.9739 37.239 16.2391 37.239H22.2391C22.5043 37.239 22.7586 37.1337 22.9462 36.9461C23.1337 36.7586 23.2391 36.5042 23.2391 36.239V30.239C23.2391 29.9738 23.1337 29.7194 22.9462 29.5319C22.7586 29.3444 22.5043 29.239 22.2391 29.239H20.2391V27.239H32.2391V29.239H30.2391C29.9739 29.239 29.7195 29.3444 29.532 29.5319C29.3444 29.7194 29.2391 29.9738 29.2391 30.239V36.239C29.2391 36.5042 29.3444 36.7586 29.532 36.9461C29.7195 37.1337 29.9739 37.239 30.2391 37.239H36.2391C36.5043 37.239 36.7586 37.1337 36.9462 36.9461C37.1337 36.7586 37.2391 36.5042 37.2391 36.239V30.239C37.2391 29.9738 37.1337 29.7194 36.9462 29.5319C36.7586 29.3444 36.5043 29.239 36.2391 29.239ZM21.2391 31.239V35.239H17.2391V31.239H21.2391ZM24.2391 21.239V17.239H28.2391V21.239H24.2391ZM35.2391 35.239H31.2391V31.239H35.2391V35.239Z" fill="white"/>
<defs>
<linearGradient id="paint0_linear_150_3603" x1="26.2391" y1="0" x2="26.2391" y2="52.4781" gradientUnits="userSpaceOnUse">
<stop stop-color="#003268"/>
<stop offset="1" stop-color="#5280CA"/>
</linearGradient>
</defs>
</svg>
