<svg width="53" height="53" viewBox="0 0 53 53" fill="none" xmlns="http://www.w3.org/2000/svg">
<path d="M0 10C0 4.47715 4.47715 0 10 0H42.4781C48.001 0 52.4781 4.47715 52.4781 10V42.4781C52.4781 48.001 48.001 52.4781 42.4781 52.4781H10C4.47715 52.4781 0 48.001 0 42.4781V10Z" fill="url(#paint0_linear_150_3562)"/>
<path d="M28.5291 25.029L25.2391 28.329L23.9491 27.029C23.7608 26.8407 23.5054 26.7349 23.2391 26.7349C22.9728 26.7349 22.7174 26.8407 22.5291 27.029C22.3408 27.2173 22.235 27.4727 22.235 27.739C22.235 28.0053 22.3408 28.2607 22.5291 28.449L24.5291 30.449C24.622 30.5428 24.7326 30.6172 24.8545 30.6679C24.9764 30.7187 25.1071 30.7448 25.2391 30.7448C25.3711 30.7448 25.5018 30.7187 25.6237 30.6679C25.7455 30.6172 25.8561 30.5428 25.9491 30.449L29.9491 26.449C30.1374 26.2607 30.2432 26.0053 30.2432 25.739C30.2432 25.4727 30.1374 25.2173 29.9491 25.029C29.7608 24.8407 29.5054 24.7349 29.2391 24.7349C28.9728 24.7349 28.7174 24.8407 28.5291 25.029ZM33.2391 19.739H26.9591L26.6391 18.739C26.4316 18.1523 26.0468 17.6445 25.538 17.2862C25.0291 16.9279 24.4214 16.7366 23.7991 16.739H19.2391C18.4434 16.739 17.6804 17.0551 17.1178 17.6177C16.5551 18.1803 16.2391 18.9434 16.2391 19.739V32.739C16.2391 33.5347 16.5551 34.2977 17.1178 34.8604C17.6804 35.423 18.4434 35.739 19.2391 35.739H33.2391C34.0347 35.739 34.7978 35.423 35.3604 34.8604C35.923 34.2977 36.2391 33.5347 36.2391 32.739V22.739C36.2391 21.9434 35.923 21.1803 35.3604 20.6177C34.7978 20.0551 34.0347 19.739 33.2391 19.739ZM34.2391 32.739C34.2391 33.0043 34.1337 33.2586 33.9462 33.4461C33.7586 33.6337 33.5043 33.739 33.2391 33.739H19.2391C18.9739 33.739 18.7195 33.6337 18.532 33.4461C18.3444 33.2586 18.2391 33.0043 18.2391 32.739V19.739C18.2391 19.4738 18.3444 19.2195 18.532 19.0319C18.7195 18.8444 18.9739 18.739 19.2391 18.739H23.7991C24.0087 18.7385 24.2132 18.8039 24.3837 18.9259C24.5542 19.0479 24.682 19.2204 24.7491 19.419L25.2891 21.059C25.3562 21.2577 25.484 21.4302 25.6544 21.5522C25.8249 21.6742 26.0294 21.7396 26.2391 21.739H33.2391C33.5043 21.739 33.7586 21.8444 33.9462 22.0319C34.1337 22.2195 34.2391 22.4738 34.2391 22.739V32.739Z" fill="white"/>
<defs>
<linearGradient id="paint0_linear_150_3562" x1="26.2391" y1="0" x2="26.2391" y2="52.4781" gradientUnits="userSpaceOnUse">
<stop stop-color="#003268"/>
<stop offset="1" stop-color="#5280CA"/>
</linearGradient>
</defs>
</svg>
