<svg width="53" height="53" viewBox="0 0 53 53" fill="none" xmlns="http://www.w3.org/2000/svg">
<path d="M0 10C0 4.47715 4.47715 0 10 0H42.4781C48.001 0 52.4781 4.47715 52.4781 10V42.4781C52.4781 48.001 48.001 52.4781 42.4781 52.4781H10C4.47715 52.4781 0 48.001 0 42.4781V10Z" fill="url(#paint0_linear_150_3611)"/>
<path d="M34.1491 29.749H29.6191C29.3539 29.749 29.0995 29.8544 28.912 30.0419C28.7244 30.2294 28.6191 30.4838 28.6191 30.749C28.6191 31.0142 28.7244 31.2686 28.912 31.4561C29.0995 31.6437 29.3539 31.749 29.6191 31.749H32.0191C30.916 32.9017 29.4935 33.6983 27.9342 34.0364C26.375 34.3745 24.7503 34.2386 23.2689 33.6463C21.7874 33.0539 20.5169 32.0321 19.6207 30.7122C18.7244 29.3923 18.2433 27.8345 18.2391 26.239C18.2391 25.9738 18.1337 25.7194 17.9462 25.5319C17.7586 25.3444 17.5043 25.239 17.2391 25.239C16.9739 25.239 16.7195 25.3444 16.532 25.5319C16.3444 25.7194 16.2391 25.9738 16.2391 26.239C16.2444 28.1918 16.8213 30.1003 17.8987 31.729C18.9761 33.3578 20.5067 34.6354 22.3018 35.4042C24.0969 36.1731 26.0778 36.3996 28.0001 36.0557C29.9224 35.7118 31.7019 34.8126 33.1191 33.469V35.239C33.1191 35.5042 33.2244 35.7586 33.412 35.9461C33.5995 36.1337 33.8539 36.239 34.1191 36.239C34.3843 36.239 34.6386 36.1337 34.8262 35.9461C35.0137 35.7586 35.1191 35.5042 35.1191 35.239V30.739C35.1166 30.4806 35.0142 30.2333 34.8334 30.0487C34.6526 29.8642 34.4073 29.7568 34.1491 29.749ZM26.2391 16.239C23.6755 16.2463 21.2126 17.2379 19.3591 19.009V17.239C19.3591 16.9738 19.2537 16.7194 19.0662 16.5319C18.8786 16.3444 18.6243 16.239 18.3591 16.239C18.0939 16.239 17.8395 16.3444 17.652 16.5319C17.4644 16.7194 17.3591 16.9738 17.3591 17.239V21.739C17.3591 22.0042 17.4644 22.2586 17.652 22.4461C17.8395 22.6337 18.0939 22.739 18.3591 22.739H22.8591C23.1243 22.739 23.3786 22.6337 23.5662 22.4461C23.7537 22.2586 23.8591 22.0042 23.8591 21.739C23.8591 21.4738 23.7537 21.2194 23.5662 21.0319C23.3786 20.8444 23.1243 20.739 22.8591 20.739H20.4591C21.5615 19.5869 22.9832 18.7905 24.5415 18.4521C26.0998 18.1137 27.7237 18.2488 29.2047 18.8399C30.6857 19.431 31.9563 20.4512 32.8533 21.7696C33.7503 23.088 34.2329 24.6444 34.2391 26.239C34.2391 26.5042 34.3444 26.7586 34.532 26.9461C34.7195 27.1337 34.9739 27.239 35.2391 27.239C35.5043 27.239 35.7586 27.1337 35.9462 26.9461C36.1337 26.7586 36.2391 26.5042 36.2391 26.239C36.2391 24.9258 35.9804 23.6254 35.4779 22.4122C34.9753 21.1989 34.2387 20.0965 33.3101 19.1679C32.3816 18.2394 31.2792 17.5028 30.0659 17.0002C28.8527 16.4977 27.5523 16.239 26.2391 16.239Z" fill="white"/>
<defs>
<linearGradient id="paint0_linear_150_3611" x1="26.2391" y1="0" x2="26.2391" y2="52.4781" gradientUnits="userSpaceOnUse">
<stop stop-color="#003268"/>
<stop offset="1" stop-color="#5280CA"/>
</linearGradient>
</defs>
</svg>
