<svg width="53" height="53" viewBox="0 0 53 53" fill="none" xmlns="http://www.w3.org/2000/svg">
<path d="M0 10C0 4.47715 4.47715 0 10 0H42.4781C48.001 0 52.4781 4.47715 52.4781 10V42.4781C52.4781 48.001 48.001 52.4781 42.4781 52.4781H10C4.47715 52.4781 0 48.001 0 42.4781V10Z" fill="url(#paint0_linear_150_3586)"/>
<path d="M35.239 23.179C35.2286 23.0871 35.2085 22.9966 35.179 22.909V22.819C35.1309 22.7162 35.0668 22.6217 34.989 22.539L28.989 16.539C28.9063 16.4612 28.8118 16.3971 28.709 16.349C28.6792 16.3448 28.6489 16.3448 28.619 16.349C28.5174 16.2908 28.4052 16.2534 28.289 16.239H24.239C23.4434 16.239 22.6803 16.5551 22.1177 17.1177C21.5551 17.6803 21.239 18.4434 21.239 19.239V20.239H20.239C19.4434 20.239 18.6803 20.5551 18.1177 21.1177C17.5551 21.6803 17.239 22.4434 17.239 23.239V33.239C17.239 34.0347 17.5551 34.7977 18.1177 35.3603C18.6803 35.9229 19.4434 36.239 20.239 36.239H28.239C29.0347 36.239 29.7977 35.9229 30.3603 35.3603C30.9229 34.7977 31.239 34.0347 31.239 33.239V32.239H32.239C33.0347 32.239 33.7977 31.9229 34.3603 31.3603C34.9229 30.7977 35.239 30.0347 35.239 29.239V23.239C35.239 23.239 35.239 23.239 35.239 23.179ZM29.239 19.649L31.829 22.239H30.239C29.9738 22.239 29.7194 22.1337 29.5319 21.9461C29.3444 21.7586 29.239 21.5042 29.239 21.239V19.649ZM29.239 33.239C29.239 33.5042 29.1337 33.7586 28.9461 33.9461C28.7586 34.1337 28.5042 34.239 28.239 34.239H20.239C19.9738 34.239 19.7194 34.1337 19.5319 33.9461C19.3444 33.7586 19.239 33.5042 19.239 33.239V23.239C19.239 22.9738 19.3444 22.7194 19.5319 22.5319C19.7194 22.3444 19.9738 22.239 20.239 22.239H21.239V29.239C21.239 30.0347 21.5551 30.7977 22.1177 31.3603C22.6803 31.9229 23.4434 32.239 24.239 32.239H29.239V33.239ZM33.239 29.239C33.239 29.5042 33.1337 29.7586 32.9461 29.9461C32.7586 30.1337 32.5042 30.239 32.239 30.239H24.239C23.9738 30.239 23.7194 30.1337 23.5319 29.9461C23.3444 29.7586 23.239 29.5042 23.239 29.239V19.239C23.239 18.9738 23.3444 18.7194 23.5319 18.5319C23.7194 18.3444 23.9738 18.239 24.239 18.239H27.239V21.239C27.239 22.0347 27.5551 22.7977 28.1177 23.3603C28.6803 23.9229 29.4434 24.239 30.239 24.239H33.239V29.239Z" fill="white"/>
<defs>
<linearGradient id="paint0_linear_150_3586" x1="26.2391" y1="0" x2="26.2391" y2="52.4781" gradientUnits="userSpaceOnUse">
<stop stop-color="#003268"/>
<stop offset="1" stop-color="#5280CA"/>
</linearGradient>
</defs>
</svg>
