<svg width="53" height="53" viewBox="0 0 53 53" fill="none" xmlns="http://www.w3.org/2000/svg">
<path d="M0 8.74667C0 3.91602 3.91602 0 8.74667 0H43.7333C48.564 0 52.48 3.91602 52.48 8.74667V43.7333C52.48 48.564 48.564 52.48 43.7333 52.48H8.74667C3.91602 52.48 0 48.564 0 43.7333V8.74667Z" fill="url(#paint0_linear_294_287)"/>
<path d="M26.24 21.24C25.9748 21.24 25.7204 21.3453 25.5329 21.5329C25.3453 21.7204 25.24 21.9748 25.24 22.24V26.24C25.24 26.5052 25.3453 26.7596 25.5329 26.9471C25.7204 27.1346 25.9748 27.24 26.24 27.24C26.5052 27.24 26.7596 27.1346 26.9471 26.9471C27.1346 26.7596 27.24 26.5052 27.24 26.24V22.24C27.24 21.9748 27.1346 21.7204 26.9471 21.5329C26.7596 21.3453 26.5052 21.24 26.24 21.24ZM26.24 29.24C26.0422 29.24 25.8489 29.2986 25.6844 29.4085C25.52 29.5184 25.3918 29.6746 25.3161 29.8573C25.2404 30.04 25.2206 30.2411 25.2592 30.4351C25.2978 30.6291 25.393 30.8072 25.5329 30.9471C25.6727 31.087 25.8509 31.1822 26.0449 31.2208C26.2389 31.2594 26.4399 31.2396 26.6227 31.1639C26.8054 31.0882 26.9616 30.96 27.0715 30.7956C27.1813 30.6311 27.24 30.4378 27.24 30.24C27.24 29.9748 27.1346 29.7204 26.9471 29.5329C26.7596 29.3453 26.5052 29.24 26.24 29.24ZM35.95 21.8L30.68 16.53C30.4884 16.3473 30.2348 16.2437 29.97 16.24H22.51C22.2452 16.2437 21.9916 16.3473 21.8 16.53L16.53 21.8C16.3473 21.9916 16.2437 22.2452 16.24 22.51V29.97C16.2437 30.2348 16.3473 30.4884 16.53 30.68L21.8 35.95C21.9916 36.1327 22.2452 36.2363 22.51 36.24H29.97C30.2348 36.2363 30.4884 36.1327 30.68 35.95L35.95 30.68C36.1327 30.4884 36.2363 30.2348 36.24 29.97V22.51C36.2363 22.2452 36.1327 21.9916 35.95 21.8ZM34.24 29.55L29.55 34.24H22.93L18.24 29.55V22.93L22.93 18.24H29.55L34.24 22.93V29.55Z" fill="white"/>
<defs>
<linearGradient id="paint0_linear_294_287" x1="26.24" y1="0" x2="26.24" y2="52.48" gradientUnits="userSpaceOnUse">
<stop stop-color="#003268"/>
<stop offset="1" stop-color="#5280CA"/>
</linearGradient>
</defs>
</svg>
