<svg width="53" height="53" viewBox="0 0 53 53" fill="none" xmlns="http://www.w3.org/2000/svg">
<path d="M0 8.74667C0 3.91602 3.91602 0 8.74667 0H43.7333C48.564 0 52.48 3.91602 52.48 8.74667V43.7333C52.48 48.564 48.564 52.48 43.7333 52.48H8.74667C3.91602 52.48 0 48.564 0 43.7333V8.74667Z" fill="url(#paint0_linear_294_320)"/>
<path d="M21.24 30.24C21.6378 30.24 22.0193 30.082 22.3007 29.8007C22.582 29.5193 22.74 29.1378 22.74 28.74C22.7449 28.6901 22.7449 28.6399 22.74 28.59L25.53 25.8H25.76H25.99L27.6 27.41C27.6 27.41 27.6 27.46 27.6 27.49C27.6 27.8878 27.758 28.2693 28.0393 28.5507C28.3206 28.832 28.7022 28.99 29.1 28.99C29.4978 28.99 29.8793 28.832 30.1607 28.5507C30.442 28.2693 30.6 27.8878 30.6 27.49V27.41L34.24 23.74C34.5367 23.74 34.8267 23.652 35.0733 23.4872C35.32 23.3224 35.5123 23.0881 35.6258 22.814C35.7393 22.5399 35.769 22.2383 35.7112 21.9474C35.6533 21.6564 35.5104 21.3891 35.3006 21.1793C35.0909 20.9696 34.8236 20.8267 34.5326 20.7688C34.2417 20.7109 33.9401 20.7406 33.666 20.8542C33.3919 20.9677 33.1576 21.16 32.9928 21.4066C32.828 21.6533 32.74 21.9433 32.74 22.24C32.7351 22.2899 32.7351 22.3401 32.74 22.39L29.13 26H28.97L27.24 24.24C27.24 23.8422 27.082 23.4606 26.8007 23.1793C26.5193 22.898 26.1378 22.74 25.74 22.74C25.3422 22.74 24.9606 22.898 24.6793 23.1793C24.398 23.4606 24.24 23.8422 24.24 24.24L21.24 27.24C20.8422 27.24 20.4606 27.398 20.1793 27.6793C19.898 27.9606 19.74 28.3422 19.74 28.74C19.74 29.1378 19.898 29.5193 20.1793 29.8007C20.4606 30.082 20.8422 30.24 21.24 30.24ZM34.74 34.24H17.74V17.24C17.74 16.9748 17.6346 16.7204 17.4471 16.5329C17.2596 16.3453 17.0052 16.24 16.74 16.24C16.4748 16.24 16.2204 16.3453 16.0329 16.5329C15.8453 16.7204 15.74 16.9748 15.74 17.24V35.24C15.74 35.5052 15.8453 35.7596 16.0329 35.9471C16.2204 36.1346 16.4748 36.24 16.74 36.24H34.74C35.0052 36.24 35.2596 36.1346 35.4471 35.9471C35.6346 35.7596 35.74 35.5052 35.74 35.24C35.74 34.9748 35.6346 34.7204 35.4471 34.5329C35.2596 34.3453 35.0052 34.24 34.74 34.24Z" fill="white"/>
<defs>
<linearGradient id="paint0_linear_294_320" x1="26.24" y1="0" x2="26.24" y2="52.48" gradientUnits="userSpaceOnUse">
<stop stop-color="#003268"/>
<stop offset="1" stop-color="#5280CA"/>
</linearGradient>
</defs>
</svg>
