<svg width="53" height="53" viewBox="0 0 53 53" fill="none" xmlns="http://www.w3.org/2000/svg">
<path d="M0 8.74667C0 3.91602 3.91602 0 8.74667 0H43.7333C48.564 0 52.48 3.91602 52.48 8.74667V43.7333C52.48 48.564 48.564 52.48 43.7333 52.48H8.74667C3.91602 52.48 0 48.564 0 43.7333V8.74667Z" fill="url(#paint0_linear_294_312)"/>
<path d="M33.87 17.8899C33.7538 17.796 33.6181 17.7292 33.4727 17.6946C33.3273 17.66 33.1761 17.6584 33.03 17.6899C31.9614 17.9139 30.8583 17.9167 29.7886 17.6983C28.7189 17.4799 27.7052 17.0448 26.81 16.4199C26.6426 16.3038 26.4437 16.2416 26.24 16.2416C26.0363 16.2416 25.8374 16.3038 25.67 16.4199C24.7748 17.0448 23.7611 17.4799 22.6914 17.6983C21.6217 17.9167 20.5186 17.9139 19.45 17.6899C19.3039 17.6584 19.1527 17.66 19.0073 17.6946C18.8619 17.7292 18.7262 17.796 18.61 17.8899C18.494 17.9841 18.4005 18.103 18.3365 18.2379C18.2725 18.3729 18.2395 18.5205 18.24 18.6699V26.1199C18.2391 27.5537 18.5808 28.9669 19.2365 30.2419C19.8923 31.5169 20.8432 32.6168 22.01 33.4499L25.66 36.0499C25.8294 36.1705 26.0321 36.2353 26.24 36.2353C26.4479 36.2353 26.6506 36.1705 26.82 36.0499L30.47 33.4499C31.6368 32.6168 32.5877 31.5169 33.2435 30.2419C33.8992 28.9669 34.2409 27.5537 34.24 26.1199V18.6699C34.2405 18.5205 34.2075 18.3729 34.1435 18.2379C34.0795 18.103 33.986 17.9841 33.87 17.8899ZM32.24 26.1199C32.2408 27.2347 31.9753 28.3335 31.4656 29.325C30.956 30.3164 30.217 31.1718 29.31 31.8199L26.24 34.0099L23.17 31.8199C22.263 31.1718 21.524 30.3164 21.0143 29.325C20.5047 28.3335 20.2392 27.2347 20.24 26.1199V19.8199C22.3364 19.9994 24.436 19.513 26.24 18.4299C28.044 19.513 30.1436 19.9994 32.24 19.8199V26.1199ZM27.78 23.8299L25.09 26.5299L24.2 25.6299C24.0117 25.4416 23.7563 25.3358 23.49 25.3358C23.2237 25.3358 22.9683 25.4416 22.78 25.6299C22.5917 25.8182 22.4859 26.0736 22.4859 26.3399C22.4859 26.6062 22.5917 26.8616 22.78 27.0499L24.38 28.6499C24.473 28.7437 24.5836 28.8181 24.7054 28.8688C24.8273 28.9196 24.958 28.9457 25.09 28.9457C25.222 28.9457 25.3527 28.9196 25.4746 28.8688C25.5964 28.8181 25.707 28.7437 25.8 28.6499L29.24 25.2399C29.4283 25.0516 29.5341 24.7962 29.5341 24.5299C29.5341 24.2636 29.4283 24.0082 29.24 23.8199C29.0517 23.6316 28.7963 23.5258 28.53 23.5258C28.2637 23.5258 28.0083 23.6316 27.82 23.8199L27.78 23.8299Z" fill="white"/>
<defs>
<linearGradient id="paint0_linear_294_312" x1="26.24" y1="0" x2="26.24" y2="52.48" gradientUnits="userSpaceOnUse">
<stop stop-color="#003268"/>
<stop offset="1" stop-color="#5280CA"/>
</linearGradient>
</defs>
</svg>
