<svg width="53" height="53" viewBox="0 0 53 53" fill="none" xmlns="http://www.w3.org/2000/svg">
<path d="M0 8.74667C0 3.91602 3.91602 0 8.74667 0H43.7333C48.564 0 52.48 3.91602 52.48 8.74667V43.7333C52.48 48.564 48.564 52.48 43.7333 52.48H8.74667C3.91602 52.48 0 48.564 0 43.7333V8.74667Z" fill="url(#paint0_linear_294_279)"/>
<path d="M35.24 34.24H34.24V19.24C34.24 18.9748 34.1346 18.7204 33.9471 18.5329C33.7596 18.3453 33.5052 18.24 33.24 18.24C32.9748 18.24 32.7204 18.3453 32.5329 18.5329C32.3454 18.7204 32.24 18.9748 32.24 19.24V34.24H30.24V27.24C30.24 26.9748 30.1346 26.7204 29.9471 26.5329C29.7596 26.3453 29.5052 26.24 29.24 26.24C28.9748 26.24 28.7204 26.3453 28.5329 26.5329C28.3454 26.7204 28.24 26.9748 28.24 27.24V34.24H26.24V23.24C26.24 22.9748 26.1346 22.7204 25.9471 22.5329C25.7596 22.3453 25.5052 22.24 25.24 22.24C24.9748 22.24 24.7204 22.3453 24.5329 22.5329C24.3454 22.7204 24.24 22.9748 24.24 23.24V34.24H22.24V31.24C22.24 30.9748 22.1346 30.7204 21.9471 30.5329C21.7596 30.3453 21.5052 30.24 21.24 30.24C20.9748 30.24 20.7204 30.3453 20.5329 30.5329C20.3454 30.7204 20.24 30.9748 20.24 31.24V34.24H18.24V17.24C18.24 16.9748 18.1346 16.7204 17.9471 16.5329C17.7596 16.3453 17.5052 16.24 17.24 16.24C16.9748 16.24 16.7204 16.3453 16.5329 16.5329C16.3454 16.7204 16.24 16.9748 16.24 17.24V35.24C16.24 35.5052 16.3454 35.7596 16.5329 35.9471C16.7204 36.1346 16.9748 36.24 17.24 36.24H35.24C35.5052 36.24 35.7596 36.1346 35.9471 35.9471C36.1346 35.7596 36.24 35.5052 36.24 35.24C36.24 34.9748 36.1346 34.7204 35.9471 34.5329C35.7596 34.3453 35.5052 34.24 35.24 34.24Z" fill="white"/>
<defs>
<linearGradient id="paint0_linear_294_279" x1="26.24" y1="0" x2="26.24" y2="52.48" gradientUnits="userSpaceOnUse">
<stop stop-color="#003268"/>
<stop offset="1" stop-color="#5280CA"/>
</linearGradient>
</defs>
</svg>
