<svg width="53" height="53" viewBox="0 0 53 53" fill="none" xmlns="http://www.w3.org/2000/svg">
<path d="M0 8.74667C0 3.91602 3.91602 0 8.74667 0H43.7333C48.564 0 52.48 3.91602 52.48 8.74667V43.7333C52.48 48.564 48.564 52.48 43.7333 52.48H8.74667C3.91602 52.48 0 48.564 0 43.7333V8.74667Z" fill="url(#paint0_linear_294_295)"/>
<path d="M34.15 29.75H29.62C29.3548 29.75 29.1004 29.8553 28.9129 30.0429C28.7253 30.2304 28.62 30.4848 28.62 30.75C28.62 31.0152 28.7253 31.2696 28.9129 31.4571C29.1004 31.6446 29.3548 31.75 29.62 31.75H32.02C30.9169 32.9027 29.4944 33.6993 27.9352 34.0374C26.3759 34.3755 24.7512 34.2396 23.2698 33.6472C21.7883 33.0549 20.5179 32.0331 19.6216 30.7132C18.7253 29.3932 18.2442 27.8355 18.24 26.24C18.24 25.9748 18.1346 25.7204 17.9471 25.5329C17.7596 25.3453 17.5052 25.24 17.24 25.24C16.9748 25.24 16.7204 25.3453 16.5329 25.5329C16.3453 25.7204 16.24 25.9748 16.24 26.24C16.2453 28.1928 16.8222 30.1013 17.8996 31.73C18.977 33.3587 20.5077 34.6363 22.3027 35.4052C24.0978 36.1741 26.0787 36.4005 28.001 36.0566C29.9233 35.7127 31.7028 34.8135 33.12 33.47V35.24C33.12 35.5052 33.2253 35.7596 33.4129 35.9471C33.6004 36.1346 33.8548 36.24 34.12 36.24C34.3852 36.24 34.6396 36.1346 34.8271 35.9471C35.0146 35.7596 35.12 35.5052 35.12 35.24V30.74C35.1175 30.4816 35.0151 30.2342 34.8343 30.0497C34.6535 29.8651 34.4083 29.7577 34.15 29.75ZM26.24 16.24C23.6764 16.2473 21.2135 17.2389 19.36 19.01V17.24C19.36 16.9748 19.2546 16.7204 19.0671 16.5329C18.8796 16.3453 18.6252 16.24 18.36 16.24C18.0948 16.24 17.8404 16.3453 17.6529 16.5329C17.4653 16.7204 17.36 16.9748 17.36 17.24V21.74C17.36 22.0052 17.4653 22.2596 17.6529 22.4471C17.8404 22.6346 18.0948 22.74 18.36 22.74H22.86C23.1252 22.74 23.3796 22.6346 23.5671 22.4471C23.7546 22.2596 23.86 22.0052 23.86 21.74C23.86 21.4748 23.7546 21.2204 23.5671 21.0329C23.3796 20.8453 23.1252 20.74 22.86 20.74H20.46C21.5625 19.5879 22.9841 18.7915 24.5424 18.4531C26.1007 18.1147 27.7246 18.2497 29.2056 18.8409C30.6866 19.432 31.9572 20.4522 32.8542 21.7706C33.7513 23.089 34.2338 24.6454 34.24 26.24C34.24 26.5052 34.3453 26.7596 34.5329 26.9471C34.7204 27.1346 34.9748 27.24 35.24 27.24C35.5052 27.24 35.7596 27.1346 35.9471 26.9471C36.1346 26.7596 36.24 26.5052 36.24 26.24C36.24 24.9268 35.9813 23.6264 35.4788 22.4132C34.9762 21.1999 34.2396 20.0975 33.3111 19.1689C32.3825 18.2403 31.2801 17.5037 30.0668 17.0012C28.8536 16.4986 27.5532 16.24 26.24 16.24Z" fill="white"/>
<defs>
<linearGradient id="paint0_linear_294_295" x1="26.24" y1="0" x2="26.24" y2="52.48" gradientUnits="userSpaceOnUse">
<stop stop-color="#003268"/>
<stop offset="1" stop-color="#5280CA"/>
</linearGradient>
</defs>
</svg>
