<?xml version="1.0" encoding="utf-8"?>
<!-- Generator: Adobe Illustrator 27.1.0, SVG Export Plug-In . SVG Version: 6.00 Build 0)  -->
<svg version="1.1" id="Layer_1" xmlns="http://www.w3.org/2000/svg" xmlns:xlink="http://www.w3.org/1999/xlink" x="0px" y="0px"
	 viewBox="0 0 375 381" style="enable-background:new 0 0 375 381;" xml:space="preserve">
<style type="text/css">
	.st0{clip-path:url(#SVGID_00000046331818164214323580000011447106147727410305_);}
	.st1{fill:#FFFFFF;}
	.st2{clip-path:url(#SVGID_00000084527112498328545310000018169371359001395628_);}
	.st3{fill:url(#SVGID_00000116929063007033603600000006286672945345827713_);}
	.st4{fill:#FFFFFF;fill-opacity:0.1;}
</style>
<g>
	<defs>
		<rect id="SVGID_1_" width="375" height="381"/>
	</defs>
	<clipPath id="SVGID_00000089531955204263090400000001533274519375124411_">
		<use xlink:href="#SVGID_1_"  style="overflow:visible;"/>
	</clipPath>
	<g style="clip-path:url(#SVGID_00000089531955204263090400000001533274519375124411_);">
		<rect class="st1" width="375" height="381"/>
		<g>
			<defs>
				<rect id="SVGID_00000067227636322339213250000016486337975019119778_" x="16" y="45.5" width="343" height="305"/>
			</defs>
			<clipPath id="SVGID_00000098918461700289803800000001580641232055835567_">
				<use xlink:href="#SVGID_00000067227636322339213250000016486337975019119778_"  style="overflow:visible;"/>
			</clipPath>
			<g style="clip-path:url(#SVGID_00000098918461700289803800000001580641232055835567_);">
				
					<linearGradient id="SVGID_00000000219905353992174030000012505244230411273352_" gradientUnits="userSpaceOnUse" x1="186.409" y1="301.0487" x2="192.376" y2="-339.4083" gradientTransform="matrix(1 0 0 -1 0 382)">
					<stop  offset="0" style="stop-color:#1C5396"/>
					<stop  offset="0.5" style="stop-color:#6B9CD7"/>
					<stop  offset="1" style="stop-color:#8FD8FE"/>
				</linearGradient>
				<path style="fill:url(#SVGID_00000000219905353992174030000012505244230411273352_);" d="M36,45.5h303c11,0,20,9,20,20v265
					c0,11-9,20-20,20H36c-11,0-20-9-20-20v-265C16,54.5,25,45.5,36,45.5z"/>
			</g>
		</g>
		<polygon class="st4" points="367.1,196 372.3,201.7 163.8,423.1 158.6,417.4 		"/>
		<polygon class="st4" points="397.1,207.4 402.3,213.1 203.7,424 198.5,418.3 		"/>
		<polygon class="st4" points="438.3,208.6 443.5,214.3 376.9,285 371.7,279.3 		"/>
		<polygon class="st4" points="328.7,291.2 333.9,285.5 436.4,394.1 431.3,399.7 		"/>
		<polygon class="st4" points="350.5,268.2 355.7,262.5 478.6,392.6 473.5,398.3 		"/>
	</g>
</g>
</svg>
