<svg width="24" height="24" viewBox="0 0 24 24" fill="none" xmlns="http://www.w3.org/2000/svg">
<path d="M16.9998 11H17.9998C18.265 11 18.5194 10.8946 18.7069 10.7071C18.8945 10.5196 18.9998 10.2652 18.9998 10V9C18.9998 8.73478 18.8945 8.48043 18.7069 8.29289C18.5194 8.10536 18.265 8 17.9998 8H16.9998C16.7346 8 16.4802 8.10536 16.2927 8.29289C16.1052 8.48043 15.9998 8.73478 15.9998 9V10C15.9998 10.2652 16.1052 10.5196 16.2927 10.7071C16.4802 10.8946 16.7346 11 16.9998 11ZM5.99982 12H10.9998C11.265 12 11.5194 11.8946 11.7069 11.7071C11.8945 11.5196 11.9998 11.2652 11.9998 11C11.9998 10.7348 11.8945 10.4804 11.7069 10.2929C11.5194 10.1054 11.265 10 10.9998 10H5.99982C5.7346 10 5.48025 10.1054 5.29271 10.2929C5.10517 10.4804 4.99982 10.7348 4.99982 11C4.99982 11.2652 5.10517 11.5196 5.29271 11.7071C5.48025 11.8946 5.7346 12 5.99982 12ZM21.9998 4H1.99982C1.7346 4 1.48025 4.10536 1.29271 4.29289C1.10517 4.48043 0.999817 4.73478 0.999817 5V19C0.999817 19.2652 1.10517 19.5196 1.29271 19.7071C1.48025 19.8946 1.7346 20 1.99982 20H21.9998C22.265 20 22.5194 19.8946 22.7069 19.7071C22.8945 19.5196 22.9998 19.2652 22.9998 19V5C22.9998 4.73478 22.8945 4.48043 22.7069 4.29289C22.5194 4.10536 22.265 4 21.9998 4ZM20.9998 18H2.99982V6H20.9998V18ZM5.99982 16H10.9998C11.265 16 11.5194 15.8946 11.7069 15.7071C11.8945 15.5196 11.9998 15.2652 11.9998 15C11.9998 14.7348 11.8945 14.4804 11.7069 14.2929C11.5194 14.1054 11.265 14 10.9998 14H5.99982C5.7346 14 5.48025 14.1054 5.29271 14.2929C5.10517 14.4804 4.99982 14.7348 4.99982 15C4.99982 15.2652 5.10517 15.5196 5.29271 15.7071C5.48025 15.8946 5.7346 16 5.99982 16Z" fill="white"/>
</svg>
