<svg width="53" height="53" viewBox="0 0 53 53" fill="none" xmlns="http://www.w3.org/2000/svg">
<path d="M0 10C0 4.47715 4.47715 0 10 0H42.4781C48.001 0 52.4781 4.47715 52.4781 10V42.4781C52.4781 48.001 48.001 52.4781 42.4781 52.4781H10C4.47715 52.4781 0 48.001 0 42.4781V10Z" fill="url(#paint0_linear_872_558)"/>
<path d="M28.239 22.239H29.239C29.5042 22.239 29.7586 22.1337 29.9461 21.9461C30.1337 21.7586 30.239 21.5042 30.239 21.239C30.239 20.9738 30.1337 20.7194 29.9461 20.5319C29.7586 20.3444 29.5042 20.239 29.239 20.239H28.239C27.9738 20.239 27.7194 20.3444 27.5319 20.5319C27.3444 20.7194 27.239 20.9738 27.239 21.239C27.239 21.5042 27.3444 21.7586 27.5319 21.9461C27.7194 22.1337 27.9738 22.239 28.239 22.239ZM28.239 26.239H29.239C29.5042 26.239 29.7586 26.1337 29.9461 25.9461C30.1337 25.7586 30.239 25.5042 30.239 25.239C30.239 24.9738 30.1337 24.7194 29.9461 24.5319C29.7586 24.3444 29.5042 24.239 29.239 24.239H28.239C27.9738 24.239 27.7194 24.3444 27.5319 24.5319C27.3444 24.7194 27.239 24.9738 27.239 25.239C27.239 25.5042 27.3444 25.7586 27.5319 25.9461C27.7194 26.1337 27.9738 26.239 28.239 26.239ZM23.239 22.239H24.239C24.5042 22.239 24.7586 22.1337 24.9461 21.9461C25.1337 21.7586 25.239 21.5042 25.239 21.239C25.239 20.9738 25.1337 20.7194 24.9461 20.5319C24.7586 20.3444 24.5042 20.239 24.239 20.239H23.239C22.9738 20.239 22.7194 20.3444 22.5319 20.5319C22.3444 20.7194 22.239 20.9738 22.239 21.239C22.239 21.5042 22.3444 21.7586 22.5319 21.9461C22.7194 22.1337 22.9738 22.239 23.239 22.239ZM23.239 26.239H24.239C24.5042 26.239 24.7586 26.1337 24.9461 25.9461C25.1337 25.7586 25.239 25.5042 25.239 25.239C25.239 24.9738 25.1337 24.7194 24.9461 24.5319C24.7586 24.3444 24.5042 24.239 24.239 24.239H23.239C22.9738 24.239 22.7194 24.3444 22.5319 24.5319C22.3444 24.7194 22.239 24.9738 22.239 25.239C22.239 25.5042 22.3444 25.7586 22.5319 25.9461C22.7194 26.1337 22.9738 26.239 23.239 26.239ZM35.239 34.239H34.239V17.239C34.239 16.9738 34.1337 16.7194 33.9461 16.5319C33.7586 16.3444 33.5042 16.239 33.239 16.239H19.239C18.9738 16.239 18.7194 16.3444 18.5319 16.5319C18.3444 16.7194 18.239 16.9738 18.239 17.239V34.239H17.239C16.9738 34.239 16.7194 34.3444 16.5319 34.5319C16.3444 34.7194 16.239 34.9738 16.239 35.239C16.239 35.5042 16.3444 35.7586 16.5319 35.9461C16.7194 36.1337 16.9738 36.239 17.239 36.239H35.239C35.5042 36.239 35.7586 36.1337 35.9461 35.9461C36.1337 35.7586 36.239 35.5042 36.239 35.239C36.239 34.9738 36.1337 34.7194 35.9461 34.5319C35.7586 34.3444 35.5042 34.239 35.239 34.239ZM27.239 34.239H25.239V30.239H27.239V34.239ZM32.239 34.239H29.239V29.239C29.239 28.9738 29.1337 28.7194 28.9461 28.5319C28.7586 28.3444 28.5042 28.239 28.239 28.239H24.239C23.9738 28.239 23.7194 28.3444 23.5319 28.5319C23.3444 28.7194 23.239 28.9738 23.239 29.239V34.239H20.239V18.239H32.239V34.239Z" fill="white"/>
<defs>
<linearGradient id="paint0_linear_872_558" x1="26.2391" y1="0" x2="26.2391" y2="52.4781" gradientUnits="userSpaceOnUse">
<stop stop-color="#003268"/>
<stop offset="1" stop-color="#5280CA"/>
</linearGradient>
</defs>
</svg>
