<svg width="343" height="289" viewBox="0 0 343 289" fill="none" xmlns="http://www.w3.org/2000/svg">
<g clip-path="url(#clip0_4343_6370)">
<path d="M0 20C0 8.95431 8.95431 0 20 0H323C334.046 0 343 8.95431 343 20V269C343 280.046 334.046 289 323 289H20C8.9543 289 0 280.046 0 269V20Z" fill="url(#paint0_linear_4343_6370)"/>
<rect width="13.1125" height="495.848" transform="matrix(-0.714251 -0.699889 0.689944 -0.723863 324.082 297.182)" fill="white" fill-opacity="0.1"/>
<rect width="13.1125" height="166.258" transform="matrix(-0.714251 -0.699889 0.689944 -0.723863 241.151 332.095)" fill="white" fill-opacity="0.1"/>
<rect width="13.1128" height="255.567" transform="matrix(-0.676654 0.736302 -0.726873 -0.686772 431.372 94.1099)" fill="white" fill-opacity="0.1"/>
<rect width="13.1128" height="306.492" transform="matrix(-0.676654 0.736302 -0.726873 -0.686772 393.855 109.338)" fill="white" fill-opacity="0.1"/>
</g>
<defs>
<linearGradient id="paint0_linear_4343_6370" x1="382.75" y1="-41.9516" x2="387.478" y2="418.824" gradientUnits="userSpaceOnUse">
<stop stop-color="#1C5396"/>
<stop offset="0.5" stop-color="#2D82C0"/>
<stop offset="0.610092" stop-color="#3EB0EA"/>
</linearGradient>
<clipPath id="clip0_4343_6370">
<rect width="343" height="289" fill="white"/>
</clipPath>
</defs>
</svg>
