<svg width="53" height="53" viewBox="0 0 53 53" fill="none" xmlns="http://www.w3.org/2000/svg">
<path d="M0 10C0 4.47715 4.47715 0 10 0H42.4781C48.001 0 52.4781 4.47715 52.4781 10V42.4781C52.4781 48.001 48.001 52.4781 42.4781 52.4781H10C4.47715 52.4781 0 48.001 0 42.4781V10Z" fill="url(#paint0_linear_872_541)"/>
<path d="M35.6491 22.879C35.6491 22.879 35.6491 22.879 35.6491 22.829C34.9445 20.9052 33.666 19.2443 31.9866 18.0709C30.3072 16.8975 28.3078 16.2682 26.2591 16.2682C24.2103 16.2682 22.211 16.8975 20.5316 18.0709C18.8522 19.2443 17.5737 20.9052 16.8691 22.829C16.8691 22.829 16.8691 22.829 16.8691 22.879C16.0822 25.0499 16.0822 27.4281 16.8691 29.599C16.8691 29.599 16.8691 29.599 16.8691 29.649C17.5737 31.5728 18.8522 33.2337 20.5316 34.4072C22.211 35.5806 24.2103 36.2098 26.2591 36.2098C28.3078 36.2098 30.3072 35.5806 31.9866 34.4072C33.666 33.2337 34.9445 31.5728 35.6491 29.649C35.6491 29.649 35.6491 29.649 35.6491 29.599C36.436 27.4281 36.436 25.0499 35.6491 22.879ZM18.4991 28.239C18.1523 26.9282 18.1523 25.5498 18.4991 24.239H20.3591C20.1991 25.5676 20.1991 26.9105 20.3591 28.239H18.4991ZM19.3191 30.239H20.7191C20.9538 31.1309 21.2893 31.9931 21.7191 32.809C20.7384 32.1409 19.9186 31.2631 19.3191 30.239ZM20.7191 22.239H19.3191C19.91 21.2181 20.7193 20.3405 21.6891 19.669C21.2696 20.4863 20.9442 21.3484 20.7191 22.239ZM25.2391 33.939C24.0109 33.0377 23.1482 31.7242 22.8091 30.239H25.2391V33.939ZM25.2391 28.239H22.3791C22.1925 26.9122 22.1925 25.5658 22.3791 24.239H25.2391V28.239ZM25.2391 22.239H22.8091C23.1482 20.7538 24.0109 19.4403 25.2391 18.539V22.239ZM33.1591 22.239H31.7591C31.5244 21.3472 31.1889 20.485 30.7591 19.669C31.7398 20.3371 32.5596 21.215 33.1591 22.239ZM27.2391 18.539C28.4673 19.4403 29.3299 20.7538 29.6691 22.239H27.2391V18.539ZM27.2391 33.939V30.239H29.6691C29.3299 31.7242 28.4673 33.0377 27.2391 33.939ZM30.0991 28.239H27.2391V24.239H30.0991C30.2857 25.5658 30.2857 26.9122 30.0991 28.239ZM30.7891 32.809C31.2189 31.9931 31.5544 31.1309 31.7891 30.239H33.1891C32.5896 31.2631 31.7698 32.1409 30.7891 32.809ZM33.9791 28.239H32.1191C32.2004 27.5755 32.2405 26.9075 32.2391 26.239C32.2402 25.5705 32.2001 24.9026 32.1191 24.239H33.9791C34.3259 25.5498 34.3259 26.9282 33.9791 28.239Z" fill="white"/>
<defs>
<linearGradient id="paint0_linear_872_541" x1="26.2391" y1="0" x2="26.2391" y2="52.4781" gradientUnits="userSpaceOnUse">
<stop stop-color="#003268"/>
<stop offset="1" stop-color="#5280CA"/>
</linearGradient>
</defs>
</svg>
