<svg width="53" height="53" viewBox="0 0 53 53" fill="none" xmlns="http://www.w3.org/2000/svg">
<path d="M0 10C0 4.47715 4.47715 0 10 0H42.4781C48.001 0 52.4781 4.47715 52.4781 10V42.4781C52.4781 48.001 48.001 52.4781 42.4781 52.4781H10C4.47715 52.4781 0 48.001 0 42.4781V10Z" fill="url(#paint0_linear_872_515)"/>
<path d="M34.239 22.419V17.239C34.239 16.9738 34.1337 16.7194 33.9462 16.5319C33.7586 16.3444 33.5043 16.239 33.239 16.239C32.9738 16.239 32.7195 16.3444 32.5319 16.5319C32.3444 16.7194 32.239 16.9738 32.239 17.239V22.419C31.6599 22.6292 31.1595 23.0126 30.8059 23.5172C30.4523 24.0217 30.2626 24.6229 30.2626 25.239C30.2626 25.8551 30.4523 26.4563 30.8059 26.9608C31.1595 27.4654 31.6599 27.8488 32.239 28.059V35.239C32.239 35.5042 32.3444 35.7586 32.5319 35.9461C32.7195 36.1337 32.9738 36.239 33.239 36.239C33.5043 36.239 33.7586 36.1337 33.9462 35.9461C34.1337 35.7586 34.239 35.5042 34.239 35.239V28.059C34.8182 27.8488 35.3186 27.4654 35.6722 26.9608C36.0258 26.4563 36.2155 25.8551 36.2155 25.239C36.2155 24.6229 36.0258 24.0217 35.6722 23.5172C35.3186 23.0126 34.8182 22.6292 34.239 22.419ZM33.239 26.239C33.0413 26.239 32.8479 26.1804 32.6835 26.0705C32.519 25.9606 32.3909 25.8044 32.3152 25.6217C32.2395 25.439 32.2197 25.2379 32.2583 25.0439C32.2969 24.8499 32.3921 24.6718 32.5319 24.5319C32.6718 24.3921 32.85 24.2968 33.044 24.2582C33.2379 24.2196 33.439 24.2394 33.6217 24.3151C33.8045 24.3908 33.9606 24.519 34.0705 24.6834C34.1804 24.8479 34.239 25.0412 34.239 25.239C34.239 25.5042 34.1337 25.7586 33.9462 25.9461C33.7586 26.1337 33.5043 26.239 33.239 26.239ZM27.239 28.419V17.239C27.239 16.9738 27.1337 16.7194 26.9462 16.5319C26.7586 16.3444 26.5043 16.239 26.239 16.239C25.9738 16.239 25.7195 16.3444 25.5319 16.5319C25.3444 16.7194 25.239 16.9738 25.239 17.239V28.419C24.6599 28.6292 24.1595 29.0126 23.8059 29.5172C23.4523 30.0217 23.2626 30.6229 23.2626 31.239C23.2626 31.8551 23.4523 32.4563 23.8059 32.9608C24.1595 33.4654 24.6599 33.8488 25.239 34.059V35.239C25.239 35.5042 25.3444 35.7586 25.5319 35.9461C25.7195 36.1337 25.9738 36.239 26.239 36.239C26.5043 36.239 26.7586 36.1337 26.9462 35.9461C27.1337 35.7586 27.239 35.5042 27.239 35.239V34.059C27.8182 33.8488 28.3186 33.4654 28.6722 32.9608C29.0258 32.4563 29.2155 31.8551 29.2155 31.239C29.2155 30.6229 29.0258 30.0217 28.6722 29.5172C28.3186 29.0126 27.8182 28.6292 27.239 28.419ZM26.239 32.239C26.0413 32.239 25.8479 32.1804 25.6835 32.0705C25.519 31.9606 25.3909 31.8044 25.3152 31.6217C25.2395 31.439 25.2197 31.2379 25.2583 31.0439C25.2969 30.8499 25.3921 30.6718 25.5319 30.5319C25.6718 30.3921 25.85 30.2968 26.044 30.2582C26.2379 30.2196 26.439 30.2394 26.6217 30.3151C26.8045 30.3908 26.9606 30.519 27.0705 30.6834C27.1804 30.8479 27.239 31.0412 27.239 31.239C27.239 31.5042 27.1337 31.7586 26.9462 31.9461C26.7586 32.1337 26.5043 32.239 26.239 32.239ZM20.239 20.419V17.239C20.239 16.9738 20.1337 16.7194 19.9462 16.5319C19.7586 16.3444 19.5043 16.239 19.239 16.239C18.9738 16.239 18.7195 16.3444 18.5319 16.5319C18.3444 16.7194 18.239 16.9738 18.239 17.239V20.419C17.6599 20.6292 17.1595 21.0126 16.8059 21.5172C16.4523 22.0217 16.2626 22.6229 16.2626 23.239C16.2626 23.8551 16.4523 24.4563 16.8059 24.9608C17.1595 25.4654 17.6599 25.8488 18.239 26.059V35.239C18.239 35.5042 18.3444 35.7586 18.5319 35.9461C18.7195 36.1337 18.9738 36.239 19.239 36.239C19.5043 36.239 19.7586 36.1337 19.9462 35.9461C20.1337 35.7586 20.239 35.5042 20.239 35.239V26.059C20.8182 25.8488 21.3186 25.4654 21.6722 24.9608C22.0258 24.4563 22.2155 23.8551 22.2155 23.239C22.2155 22.6229 22.0258 22.0217 21.6722 21.5172C21.3186 21.0126 20.8182 20.6292 20.239 20.419ZM19.239 24.239C19.0413 24.239 18.8479 24.1804 18.6835 24.0705C18.519 23.9606 18.3909 23.8044 18.3152 23.6217C18.2395 23.439 18.2197 23.2379 18.2583 23.0439C18.2968 22.8499 18.3921 22.6718 18.5319 22.5319C18.6718 22.3921 18.85 22.2968 19.044 22.2582C19.2379 22.2196 19.439 22.2394 19.6217 22.3151C19.8045 22.3908 19.9606 22.519 20.0705 22.6834C20.1804 22.8479 20.239 23.0412 20.239 23.239C20.239 23.5042 20.1337 23.7586 19.9462 23.9461C19.7586 24.1337 19.5043 24.239 19.239 24.239Z" fill="white"/>
<defs>
<linearGradient id="paint0_linear_872_515" x1="26.2391" y1="0" x2="26.2391" y2="52.4781" gradientUnits="userSpaceOnUse">
<stop stop-color="#003268"/>
<stop offset="1" stop-color="#5280CA"/>
</linearGradient>
</defs>
</svg>
