<svg width="53" height="53" viewBox="0 0 53 53" fill="none" xmlns="http://www.w3.org/2000/svg">
<path d="M0 10C0 4.47715 4.47715 0 10 0H42.4781C48.001 0 52.4781 4.47715 52.4781 10V42.4781C52.4781 48.001 48.001 52.4781 42.4781 52.4781H10C4.47715 52.4781 0 48.001 0 42.4781V10Z" fill="url(#paint0_linear_872_499)"/>
<path d="M35.5591 23.789L33.6691 23.159L34.5591 21.379C34.6493 21.1927 34.6795 20.983 34.6454 20.7788C34.6114 20.5746 34.5148 20.386 34.3691 20.239L32.2391 18.109C32.0913 17.9611 31.9009 17.8632 31.6946 17.8291C31.4883 17.7951 31.2766 17.8265 31.0891 17.919L29.3091 18.809L28.6791 16.919C28.6125 16.722 28.4862 16.5506 28.3178 16.4288C28.1493 16.3069 27.947 16.2406 27.7391 16.239H24.7391C24.5294 16.2385 24.3249 16.3038 24.1544 16.4259C23.984 16.5479 23.8562 16.7204 23.7891 16.919L23.1591 18.809L21.3791 17.919C21.1928 17.8288 20.983 17.7986 20.7789 17.8327C20.5747 17.8667 20.3861 17.9632 20.2391 18.109L18.1091 20.239C17.9612 20.3868 17.8633 20.5772 17.8292 20.7835C17.7951 20.9898 17.8266 21.2015 17.9191 21.389L18.8091 23.169L16.9191 23.799C16.7221 23.8656 16.5507 23.9918 16.4288 24.1603C16.3069 24.3288 16.2406 24.5311 16.2391 24.739V27.739C16.2385 27.9487 16.3039 28.1532 16.4259 28.3236C16.5479 28.4941 16.7205 28.6219 16.9191 28.689L18.8091 29.319L17.9191 31.099C17.8289 31.2853 17.7987 31.4951 17.8327 31.6992C17.8667 31.9034 17.9633 32.092 18.1091 32.239L20.2391 34.369C20.3868 34.5169 20.5773 34.6148 20.7835 34.6489C20.9898 34.683 21.2016 34.6515 21.3891 34.559L23.1691 33.669L23.7991 35.559C23.8662 35.7576 23.994 35.9302 24.1644 36.0522C24.3349 36.1742 24.5394 36.2396 24.7491 36.239H27.7491C27.9587 36.2396 28.1632 36.1742 28.3337 36.0522C28.5042 35.9302 28.632 35.7576 28.6991 35.559L29.3291 33.669L31.1091 34.559C31.2942 34.647 31.5019 34.6759 31.704 34.6419C31.9061 34.6079 32.0929 34.5127 32.2391 34.369L34.3691 32.239C34.517 32.0913 34.6149 31.9008 34.649 31.6946C34.683 31.4883 34.6516 31.2765 34.5591 31.089L33.6691 29.309L35.5591 28.679C35.7561 28.6125 35.9275 28.4862 36.0493 28.3177C36.1712 28.1492 36.2375 27.947 36.2391 27.739V24.739C36.2396 24.5294 36.1743 24.3249 36.0522 24.1544C35.9302 23.9839 35.7577 23.8561 35.5591 23.789ZM34.2391 27.019L33.0391 27.419C32.7631 27.5085 32.51 27.657 32.2971 27.8541C32.0843 28.0512 31.9169 28.2923 31.8065 28.5606C31.6962 28.8289 31.6455 29.118 31.658 29.4078C31.6706 29.6976 31.746 29.9813 31.8791 30.239L32.4491 31.379L31.3491 32.479L30.2391 31.879C29.9826 31.7513 29.7017 31.6801 29.4154 31.6703C29.129 31.6605 28.8439 31.7124 28.5794 31.8224C28.3148 31.9324 28.077 32.098 27.882 32.3079C27.687 32.5178 27.5393 32.7671 27.4491 33.039L27.0491 34.239H25.4591L25.0591 33.039C24.9696 32.7631 24.8211 32.5099 24.624 32.2971C24.4269 32.0842 24.1858 31.9168 23.9175 31.8065C23.6492 31.6961 23.3601 31.6454 23.0703 31.658C22.7805 31.6705 22.4968 31.7459 22.2391 31.879L21.0991 32.449L19.9991 31.349L20.5991 30.239C20.7322 29.9813 20.8076 29.6976 20.8201 29.4078C20.8326 29.118 20.782 28.8289 20.6716 28.5606C20.5613 28.2923 20.3939 28.0512 20.181 27.8541C19.9682 27.657 19.715 27.5085 19.4391 27.419L18.2391 27.019V25.459L19.4391 25.059C19.715 24.9695 19.9682 24.821 20.181 24.6239C20.3939 24.4268 20.5613 24.1857 20.6716 23.9174C20.782 23.6492 20.8326 23.3601 20.8201 23.0702C20.8076 22.7804 20.7322 22.4968 20.5991 22.239L20.0291 21.129L21.1291 20.029L22.2391 20.599C22.4968 20.7321 22.7805 20.8075 23.0703 20.8201C23.3601 20.8326 23.6492 20.7819 23.9175 20.6716C24.1858 20.5612 24.4269 20.3938 24.624 20.181C24.8211 19.9681 24.9696 19.715 25.0591 19.439L25.4591 18.239H27.0191L27.4191 19.439C27.5086 19.715 27.6571 19.9681 27.8542 20.181C28.0513 20.3938 28.2924 20.5612 28.5607 20.6716C28.8289 20.7819 29.118 20.8326 29.4079 20.8201C29.6977 20.8075 29.9813 20.7321 30.2391 20.599L31.3791 20.029L32.4791 21.129L31.8791 22.239C31.7513 22.4955 31.6801 22.7764 31.6704 23.0627C31.6606 23.349 31.7125 23.6341 31.8225 23.8987C31.9325 24.1633 32.098 24.4011 32.3079 24.5961C32.5178 24.7911 32.7672 24.9387 33.0391 25.029L34.2391 25.429V27.019ZM26.2391 22.239C25.448 22.239 24.6746 22.4736 24.0168 22.9131C23.359 23.3527 22.8463 23.9774 22.5436 24.7083C22.2408 25.4392 22.1616 26.2435 22.3159 27.0194C22.4703 27.7953 22.8512 28.508 23.4107 29.0674C23.9701 29.6269 24.6828 30.0078 25.4587 30.1622C26.2346 30.3165 27.0389 30.2373 27.7698 29.9345C28.5007 29.6318 29.1254 29.1191 29.565 28.4613C30.0045 27.8035 30.2391 27.0301 30.2391 26.239C30.2391 25.1782 29.8177 24.1607 29.0675 23.4106C28.3174 22.6604 27.2999 22.239 26.2391 22.239ZM26.2391 28.239C25.8435 28.239 25.4568 28.1217 25.1279 27.902C24.799 27.6822 24.5427 27.3698 24.3913 27.0044C24.2399 26.6389 24.2003 26.2368 24.2775 25.8488C24.3547 25.4609 24.5452 25.1045 24.8249 24.8248C25.1046 24.5451 25.4609 24.3546 25.8489 24.2774C26.2369 24.2003 26.639 24.2399 27.0044 24.3913C27.3699 24.5426 27.6823 24.799 27.902 25.1279C28.1218 25.4568 28.2391 25.8435 28.2391 26.239C28.2391 26.7694 28.0284 27.2782 27.6533 27.6532C27.2782 28.0283 26.7695 28.239 26.2391 28.239Z" fill="white"/>
<defs>
<linearGradient id="paint0_linear_872_499" x1="26.2391" y1="0" x2="26.2391" y2="52.4781" gradientUnits="userSpaceOnUse">
<stop stop-color="#003268"/>
<stop offset="1" stop-color="#5280CA"/>
</linearGradient>
</defs>
</svg>
