<svg width="53" height="53" viewBox="0 0 53 53" fill="none" xmlns="http://www.w3.org/2000/svg">
<path d="M0 10C0 4.47715 4.47715 0 10 0H42.4781C48.001 0 52.4781 4.47715 52.4781 10V42.4781C52.4781 48.001 48.001 52.4781 42.4781 52.4781H10C4.47715 52.4781 0 48.001 0 42.4781V10Z" fill="url(#paint0_linear_872_532)"/>
<path d="M31.2391 25.239H32.2391C32.5043 25.239 32.7586 25.1337 32.9462 24.9461C33.1337 24.7586 33.2391 24.5042 33.2391 24.239V23.239C33.2391 22.9738 33.1337 22.7194 32.9462 22.5319C32.7586 22.3444 32.5043 22.239 32.2391 22.239H31.2391C30.9739 22.239 30.7195 22.3444 30.532 22.5319C30.3444 22.7194 30.2391 22.9738 30.2391 23.239V24.239C30.2391 24.5042 30.3444 24.7586 30.532 24.9461C30.7195 25.1337 30.9739 25.239 31.2391 25.239ZM20.2391 26.239H25.2391C25.5043 26.239 25.7586 26.1337 25.9462 25.9461C26.1337 25.7586 26.2391 25.5042 26.2391 25.239C26.2391 24.9738 26.1337 24.7194 25.9462 24.5319C25.7586 24.3444 25.5043 24.239 25.2391 24.239H20.2391C19.9739 24.239 19.7195 24.3444 19.532 24.5319C19.3444 24.7194 19.2391 24.9738 19.2391 25.239C19.2391 25.5042 19.3444 25.7586 19.532 25.9461C19.7195 26.1337 19.9739 26.239 20.2391 26.239ZM36.2391 18.239H16.2391C15.9739 18.239 15.7195 18.3444 15.532 18.5319C15.3444 18.7194 15.2391 18.9738 15.2391 19.239V33.239C15.2391 33.5042 15.3444 33.7586 15.532 33.9461C15.7195 34.1337 15.9739 34.239 16.2391 34.239H36.2391C36.5043 34.239 36.7586 34.1337 36.9462 33.9461C37.1337 33.7586 37.2391 33.5042 37.2391 33.239V19.239C37.2391 18.9738 37.1337 18.7194 36.9462 18.5319C36.7586 18.3444 36.5043 18.239 36.2391 18.239ZM35.2391 32.239H17.2391V20.239H35.2391V32.239ZM20.2391 30.239H25.2391C25.5043 30.239 25.7586 30.1337 25.9462 29.9461C26.1337 29.7586 26.2391 29.5042 26.2391 29.239C26.2391 28.9738 26.1337 28.7194 25.9462 28.5319C25.7586 28.3444 25.5043 28.239 25.2391 28.239H20.2391C19.9739 28.239 19.7195 28.3444 19.532 28.5319C19.3444 28.7194 19.2391 28.9738 19.2391 29.239C19.2391 29.5042 19.3444 29.7586 19.532 29.9461C19.7195 30.1337 19.9739 30.239 20.2391 30.239Z" fill="white"/>
<defs>
<linearGradient id="paint0_linear_872_532" x1="26.2391" y1="0" x2="26.2391" y2="52.4781" gradientUnits="userSpaceOnUse">
<stop stop-color="#003268"/>
<stop offset="1" stop-color="#5280CA"/>
</linearGradient>
</defs>
</svg>
