<svg width="53" height="53" viewBox="0 0 53 53" fill="none" xmlns="http://www.w3.org/2000/svg">
<path d="M0 10C0 4.47715 4.47715 0 10 0H42.4781C48.001 0 52.4781 4.47715 52.4781 10V42.4781C52.4781 48.001 48.001 52.4781 42.4781 52.4781H10C4.47715 52.4781 0 48.001 0 42.4781V10Z" fill="url(#paint0_linear_150_5005)"/>
<path d="M34.239 23.9091V23.7391C34.245 22.038 33.7053 20.3799 32.6991 19.0083C31.6929 17.6367 30.2733 16.624 28.649 16.1191H28.589C27.75 15.8633 26.8759 15.7418 25.999 15.7591C23.9108 15.8737 21.9451 16.7808 20.503 18.2954C19.0609 19.81 18.2511 21.8178 18.239 23.9091C17.653 24.1152 17.1454 24.4982 16.7864 25.0051C16.4273 25.512 16.2345 26.1179 16.2345 26.7391C16.2345 27.3602 16.4273 27.9661 16.7864 28.473C17.1454 28.98 17.653 29.3629 18.239 29.5691C18.4449 31.5438 19.3779 33.3715 20.8564 34.6966C22.335 36.0218 24.2535 36.7498 26.239 36.7391H26.469C28.3889 36.6461 30.2139 35.8759 31.6198 34.5651C33.0258 33.2544 33.9219 31.4878 34.149 29.5791C34.7418 29.3846 35.2593 29.0101 35.6294 28.5077C35.9994 28.0053 36.2036 27.4 36.2135 26.7761C36.2234 26.1522 36.0385 25.5408 35.6846 25.0269C35.3307 24.513 34.8254 24.1223 34.239 23.9091ZM26.419 34.7391C24.9714 34.7809 23.5575 34.2978 22.4382 33.3789C21.3189 32.4599 20.5697 31.1671 20.329 29.7391H32.099C31.8549 31.091 31.1609 32.3206 30.1298 33.2283C29.0986 34.136 27.7909 34.6684 26.419 34.7391ZM33.239 27.7391H19.239C18.9737 27.7391 18.7194 27.6337 18.5319 27.4462C18.3443 27.2586 18.239 27.0043 18.239 26.7391C18.239 26.4738 18.3443 26.2195 18.5319 26.032C18.7194 25.8444 18.9737 25.7391 19.239 25.7391H21.239C21.5042 25.7391 21.7585 25.6337 21.9461 25.4462C22.1336 25.2586 22.239 25.0043 22.239 24.7391C22.239 24.4738 22.1336 24.2195 21.9461 24.032C21.7585 23.8444 21.5042 23.7391 21.239 23.7391H20.239C20.2837 22.7017 20.5802 21.6908 21.1029 20.7935C21.6255 19.8963 22.3586 19.1397 23.239 18.5891V21.7391C23.239 22.0043 23.3443 22.2586 23.5319 22.4462C23.7194 22.6337 23.9737 22.7391 24.239 22.7391C24.5042 22.7391 24.7585 22.6337 24.9461 22.4462C25.1336 22.2586 25.239 22.0043 25.239 21.7391V17.8291C25.5104 17.7837 25.7842 17.7537 26.059 17.7391H26.239C26.5741 17.7438 26.9084 17.7739 27.239 17.8291V21.7391C27.239 22.0043 27.3443 22.2586 27.5319 22.4462C27.7194 22.6337 27.9737 22.7391 28.239 22.7391C28.5042 22.7391 28.7585 22.6337 28.9461 22.4462C29.1336 22.2586 29.239 22.0043 29.239 21.7391V18.5591C29.6632 18.8047 30.0589 19.0965 30.419 19.4291C30.9955 19.989 31.4537 20.659 31.7664 21.3994C32.079 22.1397 32.2397 22.9354 32.239 23.7391H31.239C30.9737 23.7391 30.7194 23.8444 30.5318 24.032C30.3443 24.2195 30.239 24.4738 30.239 24.7391C30.239 25.0043 30.3443 25.2586 30.5318 25.4462C30.7194 25.6337 30.9737 25.7391 31.239 25.7391H33.239C33.5042 25.7391 33.7585 25.8444 33.9461 26.032C34.1336 26.2195 34.239 26.4738 34.239 26.7391C34.239 27.0043 34.1336 27.2586 33.9461 27.4462C33.7585 27.6337 33.5042 27.7391 33.239 27.7391Z" fill="white"/>
<defs>
<linearGradient id="paint0_linear_150_5005" x1="26.2391" y1="0" x2="26.2391" y2="52.4781" gradientUnits="userSpaceOnUse">
<stop stop-color="#003268"/>
<stop offset="1" stop-color="#5280CA"/>
</linearGradient>
</defs>
</svg>
