<svg width="53" height="53" viewBox="0 0 53 53" fill="none" xmlns="http://www.w3.org/2000/svg">
<path d="M0 10C0 4.47715 4.47715 0 10 0H42.4781C48.001 0 52.4781 4.47715 52.4781 10V42.4781C52.4781 48.001 48.001 52.4781 42.4781 52.4781H10C4.47715 52.4781 0 48.001 0 42.4781V10Z" fill="url(#paint0_linear_150_4954)"/>
<path d="M34.2391 27.4091V27.2391C34.24 26.1691 34.0264 25.1098 33.6107 24.1239C33.195 23.1379 32.5858 22.2454 31.8191 21.4991C30.9239 20.6281 29.8337 19.9835 28.6391 19.6191H28.5891C27.7515 19.3552 26.8771 19.2269 25.9991 19.2391C23.9075 19.3539 21.9388 20.2638 20.4962 21.7827C19.0536 23.3015 18.2461 25.3143 18.2391 27.4091C17.5707 27.6442 17.0072 28.1082 16.6482 28.719C16.2892 29.3298 16.158 30.048 16.2778 30.7462C16.3976 31.4445 16.7606 32.0779 17.3026 32.5341C17.8446 32.9904 18.5306 33.2401 19.2391 33.2391H33.2391C33.9475 33.2401 34.6335 32.9904 35.1755 32.5341C35.7175 32.0779 36.0806 31.4445 36.2004 30.7462C36.3201 30.048 36.1889 29.3298 35.8299 28.719C35.471 28.1082 34.9074 27.6442 34.2391 27.4091ZM33.2391 31.2391H19.2391C18.9738 31.2391 18.7195 31.1337 18.532 30.9462C18.3444 30.7586 18.2391 30.5043 18.2391 30.2391C18.2391 29.9739 18.3444 29.7195 18.532 29.532C18.7195 29.3444 18.9738 29.2391 19.2391 29.2391H21.2391C21.5043 29.2391 21.7586 29.1337 21.9462 28.9462C22.1337 28.7586 22.2391 28.5043 22.2391 28.2391C22.2391 27.9739 22.1337 27.7195 21.9462 27.532C21.7586 27.3444 21.5043 27.2391 21.2391 27.2391H20.2391C20.2847 26.2019 20.5815 25.1913 21.1041 24.2942C21.6267 23.3971 22.3593 22.6404 23.2391 22.0891V25.2391C23.2391 25.5043 23.3444 25.7586 23.532 25.9462C23.7195 26.1337 23.9738 26.2391 24.2391 26.2391C24.5043 26.2391 24.7586 26.1337 24.9462 25.9462C25.1337 25.7586 25.2391 25.5043 25.2391 25.2391V21.3291C25.5105 21.2837 25.7843 21.2537 26.0591 21.2391H26.2391C26.5747 21.2421 26.9094 21.2756 27.2391 21.3391V25.2391C27.2391 25.5043 27.3444 25.7586 27.532 25.9462C27.7195 26.1337 27.9738 26.2391 28.2391 26.2391C28.5043 26.2391 28.7586 26.1337 28.9462 25.9462C29.1337 25.7586 29.2391 25.5043 29.2391 25.2391V22.0591C29.6633 22.3047 30.059 22.5965 30.4191 22.9291C30.9956 23.489 31.4538 24.159 31.7665 24.8994C32.0791 25.6397 32.2398 26.4354 32.2391 27.2391H31.2391C30.9738 27.2391 30.7195 27.3444 30.532 27.532C30.3444 27.7195 30.2391 27.9739 30.2391 28.2391C30.2391 28.5043 30.3444 28.7586 30.532 28.9462C30.7195 29.1337 30.9738 29.2391 31.2391 29.2391H33.2391C33.5043 29.2391 33.7586 29.3444 33.9462 29.532C34.1337 29.7195 34.2391 29.9739 34.2391 30.2391C34.2391 30.5043 34.1337 30.7586 33.9462 30.9462C33.7586 31.1337 33.5043 31.2391 33.2391 31.2391Z" fill="white"/>
<defs>
<linearGradient id="paint0_linear_150_4954" x1="26.2391" y1="0" x2="26.2391" y2="52.4781" gradientUnits="userSpaceOnUse">
<stop stop-color="#003268"/>
<stop offset="1" stop-color="#5280CA"/>
</linearGradient>
</defs>
</svg>
