<svg width="53" height="53" viewBox="0 0 53 53" fill="none" xmlns="http://www.w3.org/2000/svg">
<path d="M0 10C0 4.47715 4.47715 0 10 0H42.4781C48.001 0 52.4781 4.47715 52.4781 10V42.4781C52.4781 48.001 48.001 52.4781 42.4781 52.4781H10C4.47715 52.4781 0 48.001 0 42.4781V10Z" fill="url(#paint0_linear_150_4970)"/>
<path d="M20.239 29.239C19.9738 29.239 19.7194 29.3444 19.5319 29.5319C19.3444 29.7194 19.239 29.9738 19.239 30.239V33.239C19.239 33.5042 19.3444 33.7586 19.5319 33.9461C19.7194 34.1337 19.9738 34.239 20.239 34.239C20.5042 34.239 20.7586 34.1337 20.9461 33.9461C21.1337 33.7586 21.239 33.5042 21.239 33.239V30.239C21.239 29.9738 21.1337 29.7194 20.9461 29.5319C20.7586 29.3444 20.5042 29.239 20.239 29.239ZM24.239 26.239C23.9738 26.239 23.7194 26.3444 23.5319 26.5319C23.3444 26.7194 23.239 26.9738 23.239 27.239V33.239C23.239 33.5042 23.3444 33.7586 23.5319 33.9461C23.7194 34.1337 23.9738 34.239 24.239 34.239C24.5042 34.239 24.7586 34.1337 24.9461 33.9461C25.1337 33.7586 25.239 33.5042 25.239 33.239V27.239C25.239 26.9738 25.1337 26.7194 24.9461 26.5319C24.7586 26.3444 24.5042 26.239 24.239 26.239ZM32.239 18.239C31.9738 18.239 31.7194 18.3444 31.5319 18.5319C31.3444 18.7194 31.239 18.9738 31.239 19.239V33.239C31.239 33.5042 31.3444 33.7586 31.5319 33.9461C31.7194 34.1337 31.9738 34.239 32.239 34.239C32.5042 34.239 32.7586 34.1337 32.9461 33.9461C33.1337 33.7586 33.239 33.5042 33.239 33.239V19.239C33.239 18.9738 33.1337 18.7194 32.9461 18.5319C32.7586 18.3444 32.5042 18.239 32.239 18.239ZM28.239 22.239C27.9738 22.239 27.7194 22.3444 27.5319 22.5319C27.3444 22.7194 27.239 22.9738 27.239 23.239V33.239C27.239 33.5042 27.3444 33.7586 27.5319 33.9461C27.7194 34.1337 27.9738 34.239 28.239 34.239C28.5042 34.239 28.7586 34.1337 28.9461 33.9461C29.1337 33.7586 29.239 33.5042 29.239 33.239V23.239C29.239 22.9738 29.1337 22.7194 28.9461 22.5319C28.7586 22.3444 28.5042 22.239 28.239 22.239Z" fill="white"/>
<defs>
<linearGradient id="paint0_linear_150_4970" x1="26.2391" y1="0" x2="26.2391" y2="52.4781" gradientUnits="userSpaceOnUse">
<stop stop-color="#003268"/>
<stop offset="1" stop-color="#5280CA"/>
</linearGradient>
</defs>
</svg>
