<svg width="53" height="53" viewBox="0 0 53 53" fill="none" xmlns="http://www.w3.org/2000/svg">
<path d="M0 10C0 4.47715 4.47715 0 10 0H42.4781C48.001 0 52.4781 4.47715 52.4781 10V42.4781C52.4781 48.001 48.001 52.4781 42.4781 52.4781H10C4.47715 52.4781 0 48.001 0 42.4781V10Z" fill="url(#paint0_linear_150_4989)"/>
<path d="M17.2391 23.239C17.5043 23.239 17.7586 23.1337 17.9462 22.9461C18.1337 22.7586 18.2391 22.5042 18.2391 22.239V19.239C18.2391 18.9738 18.3444 18.7194 18.532 18.5319C18.7195 18.3444 18.9739 18.239 19.2391 18.239H22.2391C22.5043 18.239 22.7586 18.1337 22.9462 17.9461C23.1337 17.7586 23.2391 17.5042 23.2391 17.239C23.2391 16.9738 23.1337 16.7194 22.9462 16.5319C22.7586 16.3444 22.5043 16.239 22.2391 16.239H19.2391C18.4434 16.239 17.6804 16.5551 17.1178 17.1177C16.5551 17.6803 16.2391 18.4434 16.2391 19.239V22.239C16.2391 22.5042 16.3444 22.7586 16.532 22.9461C16.7195 23.1337 16.9739 23.239 17.2391 23.239ZM22.2391 34.239H19.2391C18.9739 34.239 18.7195 34.1337 18.532 33.9461C18.3444 33.7586 18.2391 33.5042 18.2391 33.239V30.239C18.2391 29.9738 18.1337 29.7194 17.9462 29.5319C17.7586 29.3444 17.5043 29.239 17.2391 29.239C16.9739 29.239 16.7195 29.3444 16.532 29.5319C16.3444 29.7194 16.2391 29.9738 16.2391 30.239V33.239C16.2391 34.0347 16.5551 34.7977 17.1178 35.3603C17.6804 35.9229 18.4434 36.239 19.2391 36.239H22.2391C22.5043 36.239 22.7586 36.1337 22.9462 35.9461C23.1337 35.7586 23.2391 35.5042 23.2391 35.239C23.2391 34.9738 23.1337 34.7194 22.9462 34.5319C22.7586 34.3444 22.5043 34.239 22.2391 34.239ZM31.2391 27.239C31.5043 27.239 31.7586 27.1337 31.9462 26.9461C32.1337 26.7586 32.2391 26.5042 32.2391 26.239C32.2391 25.9738 32.1337 25.7194 31.9462 25.5319C31.7586 25.3444 31.5043 25.239 31.2391 25.239H30.0991C29.9195 24.5512 29.5599 23.9236 29.0572 23.4209C28.5545 22.9182 27.9269 22.5586 27.2391 22.379V21.239C27.2391 20.9738 27.1337 20.7194 26.9462 20.5319C26.7586 20.3444 26.5043 20.239 26.2391 20.239C25.9739 20.239 25.7195 20.3444 25.532 20.5319C25.3444 20.7194 25.2391 20.9738 25.2391 21.239V22.379C24.5512 22.5586 23.9236 22.9182 23.421 23.4209C22.9183 23.9236 22.5586 24.5512 22.3791 25.239H21.2391C20.9739 25.239 20.7195 25.3444 20.532 25.5319C20.3444 25.7194 20.2391 25.9738 20.2391 26.239C20.2391 26.5042 20.3444 26.7586 20.532 26.9461C20.7195 27.1337 20.9739 27.239 21.2391 27.239H22.3791C22.5586 27.9269 22.9183 28.5544 23.421 29.0571C23.9236 29.5598 24.5512 29.9195 25.2391 30.099V31.239C25.2391 31.5042 25.3444 31.7586 25.532 31.9461C25.7195 32.1337 25.9739 32.239 26.2391 32.239C26.5043 32.239 26.7586 32.1337 26.9462 31.9461C27.1337 31.7586 27.2391 31.5042 27.2391 31.239V30.099C27.9269 29.9195 28.5545 29.5598 29.0572 29.0571C29.5599 28.5544 29.9195 27.9269 30.0991 27.239H31.2391ZM26.2391 28.239C25.8435 28.239 25.4568 28.1217 25.1279 27.902C24.799 27.6822 24.5427 27.3698 24.3913 27.0044C24.2399 26.6389 24.2003 26.2368 24.2775 25.8488C24.3547 25.4609 24.5452 25.1045 24.8249 24.8248C25.1046 24.5451 25.4609 24.3546 25.8489 24.2774C26.2369 24.2003 26.639 24.2399 27.0044 24.3913C27.3699 24.5426 27.6823 24.799 27.902 25.1279C28.1218 25.4568 28.2391 25.8435 28.2391 26.239C28.2391 26.7694 28.0284 27.2782 27.6533 27.6532C27.2782 28.0283 26.7695 28.239 26.2391 28.239ZM35.2391 29.239C34.9739 29.239 34.7195 29.3444 34.532 29.5319C34.3444 29.7194 34.2391 29.9738 34.2391 30.239V33.239C34.2391 33.5042 34.1337 33.7586 33.9462 33.9461C33.7586 34.1337 33.5043 34.239 33.2391 34.239H30.2391C29.9739 34.239 29.7195 34.3444 29.532 34.5319C29.3444 34.7194 29.2391 34.9738 29.2391 35.239C29.2391 35.5042 29.3444 35.7586 29.532 35.9461C29.7195 36.1337 29.9739 36.239 30.2391 36.239H33.2391C34.0347 36.239 34.7978 35.9229 35.3604 35.3603C35.923 34.7977 36.2391 34.0347 36.2391 33.239V30.239C36.2391 29.9738 36.1337 29.7194 35.9462 29.5319C35.7586 29.3444 35.5043 29.239 35.2391 29.239ZM33.2391 16.239H30.2391C29.9739 16.239 29.7195 16.3444 29.532 16.5319C29.3444 16.7194 29.2391 16.9738 29.2391 17.239C29.2391 17.5042 29.3444 17.7586 29.532 17.9461C29.7195 18.1337 29.9739 18.239 30.2391 18.239H33.2391C33.5043 18.239 33.7586 18.3444 33.9462 18.5319C34.1337 18.7194 34.2391 18.9738 34.2391 19.239V22.239C34.2391 22.5042 34.3444 22.7586 34.532 22.9461C34.7195 23.1337 34.9739 23.239 35.2391 23.239C35.5043 23.239 35.7586 23.1337 35.9462 22.9461C36.1337 22.7586 36.2391 22.5042 36.2391 22.239V19.239C36.2391 18.4434 35.923 17.6803 35.3604 17.1177C34.7978 16.5551 34.0347 16.239 33.2391 16.239Z" fill="white"/>
<defs>
<linearGradient id="paint0_linear_150_4989" x1="26.2391" y1="0" x2="26.2391" y2="52.4781" gradientUnits="userSpaceOnUse">
<stop stop-color="#003268"/>
<stop offset="1" stop-color="#5280CA"/>
</linearGradient>
</defs>
</svg>
