<svg width="53" height="53" viewBox="0 0 53 53" fill="none" xmlns="http://www.w3.org/2000/svg">
<path d="M0 10C0 4.47715 4.47715 0 10 0H42.4781C48.001 0 52.4781 4.47715 52.4781 10V42.4781C52.4781 48.001 48.001 52.4781 42.4781 52.4781H10C4.47715 52.4781 0 48.001 0 42.4781V10Z" fill="url(#paint0_linear_150_4997)"/>
<path d="M26.2391 27.239C25.9739 27.239 25.7195 27.3444 25.532 27.5319C25.3444 27.7194 25.2391 27.9738 25.2391 28.239V31.239C25.2391 31.5042 25.3444 31.7586 25.532 31.9461C25.7195 32.1337 25.9739 32.239 26.2391 32.239C26.5043 32.239 26.7586 32.1337 26.9462 31.9461C27.1337 31.7586 27.2391 31.5042 27.2391 31.239V28.239C27.2391 27.9738 27.1337 27.7194 26.9462 27.5319C26.7586 27.3444 26.5043 27.239 26.2391 27.239ZM31.2391 23.239V21.239C31.2391 19.9129 30.7123 18.6412 29.7746 17.7035C28.8369 16.7658 27.5652 16.239 26.2391 16.239C24.913 16.239 23.6412 16.7658 22.7035 17.7035C21.7659 18.6412 21.2391 19.9129 21.2391 21.239V23.239C20.4434 23.239 19.6804 23.5551 19.1178 24.1177C18.5551 24.6803 18.2391 25.4434 18.2391 26.239V33.239C18.2391 34.0347 18.5551 34.7977 19.1178 35.3603C19.6804 35.9229 20.4434 36.239 21.2391 36.239H31.2391C32.0347 36.239 32.7978 35.9229 33.3604 35.3603C33.923 34.7977 34.2391 34.0347 34.2391 33.239V26.239C34.2391 25.4434 33.923 24.6803 33.3604 24.1177C32.7978 23.5551 32.0347 23.239 31.2391 23.239ZM23.2391 21.239C23.2391 20.4434 23.5551 19.6803 24.1178 19.1177C24.6804 18.5551 25.4434 18.239 26.2391 18.239C27.0347 18.239 27.7978 18.5551 28.3604 19.1177C28.923 19.6803 29.2391 20.4434 29.2391 21.239V23.239H23.2391V21.239ZM32.2391 33.239C32.2391 33.5042 32.1337 33.7586 31.9462 33.9461C31.7586 34.1337 31.5043 34.239 31.2391 34.239H21.2391C20.9739 34.239 20.7195 34.1337 20.532 33.9461C20.3444 33.7586 20.2391 33.5042 20.2391 33.239V26.239C20.2391 25.9738 20.3444 25.7194 20.532 25.5319C20.7195 25.3444 20.9739 25.239 21.2391 25.239H31.2391C31.5043 25.239 31.7586 25.3444 31.9462 25.5319C32.1337 25.7194 32.2391 25.9738 32.2391 26.239V33.239Z" fill="white"/>
<defs>
<linearGradient id="paint0_linear_150_4997" x1="26.2391" y1="0" x2="26.2391" y2="52.4781" gradientUnits="userSpaceOnUse">
<stop stop-color="#003268"/>
<stop offset="1" stop-color="#5280CA"/>
</linearGradient>
</defs>
</svg>
