<svg width="43" height="43" viewBox="0 0 43 43" fill="none" xmlns="http://www.w3.org/2000/svg">
<path d="M0 7.11112C0 3.18376 3.18375 0 7.11111 0H35.5555C39.4829 0 42.6667 3.18375 42.6667 7.11111V35.5555C42.6667 39.4829 39.4829 42.6667 35.5556 42.6667H7.11112C3.18376 42.6667 0 39.4829 0 35.5556V7.11112Z" fill="url(#paint0_linear_2293_4712)" fill-opacity="0.1"/>
<path d="M29.0762 25.52L26.9251 23.3689C26.8425 23.2856 26.7441 23.2195 26.6358 23.1743C26.5275 23.1292 26.4113 23.106 26.294 23.106C26.1766 23.106 26.0605 23.1292 25.9521 23.1743C25.8438 23.2195 25.7455 23.2856 25.6629 23.3689L22.4807 26.5511C22.3983 26.6342 22.3331 26.7327 22.2889 26.841C22.2446 26.9493 22.2222 27.0653 22.2229 27.1822V29.3333C22.2229 29.5691 22.3165 29.7952 22.4832 29.9619C22.6499 30.1286 22.876 30.2222 23.1118 30.2222H25.2629C25.3799 30.2229 25.4958 30.2005 25.6041 30.1563C25.7124 30.112 25.8109 30.0468 25.894 29.9645L29.0762 26.7822C29.1595 26.6996 29.2256 26.6013 29.2708 26.493C29.3159 26.3847 29.3391 26.2685 29.3391 26.1511C29.3391 26.0338 29.3159 25.9176 29.2708 25.8093C29.2256 25.701 29.1595 25.6026 29.0762 25.52ZM24.8895 28.4445H24.0007V27.5556L26.294 25.2622L27.1829 26.1511L24.8895 28.4445ZM19.5562 28.4445H16.0007C15.7649 28.4445 15.5388 28.3508 15.3721 28.1841C15.2054 28.0174 15.1118 27.7913 15.1118 27.5556V15.1111C15.1118 14.8754 15.2054 14.6493 15.3721 14.4826C15.5388 14.3159 15.7649 14.2222 16.0007 14.2222H20.4451V16.8889C20.4451 17.5961 20.726 18.2744 21.2261 18.7745C21.7262 19.2746 22.4045 19.5556 23.1118 19.5556H25.7784V20.4445C25.7784 20.6802 25.8721 20.9063 26.0388 21.073C26.2055 21.2397 26.4316 21.3333 26.6673 21.3333C26.9031 21.3333 27.1292 21.2397 27.2959 21.073C27.4626 20.9063 27.5562 20.6802 27.5562 20.4445V18.6667C27.5562 18.6667 27.5562 18.6667 27.5562 18.6133C27.5469 18.5317 27.5291 18.4512 27.5029 18.3733V18.2933C27.4601 18.202 27.4031 18.1179 27.334 18.0445L22.0007 12.7111C21.9272 12.642 21.8432 12.585 21.7518 12.5422C21.7252 12.5385 21.6983 12.5385 21.6718 12.5422L21.3873 12.4445H16.0007C15.2934 12.4445 14.6151 12.7254 14.115 13.2255C13.6149 13.7256 13.334 14.4039 13.334 15.1111V27.5556C13.334 28.2628 13.6149 28.9411 14.115 29.4412C14.6151 29.9413 15.2934 30.2222 16.0007 30.2222H19.5562C19.792 30.2222 20.018 30.1286 20.1847 29.9619C20.3514 29.7952 20.4451 29.5691 20.4451 29.3333C20.4451 29.0976 20.3514 28.8715 20.1847 28.7048C20.018 28.5381 19.792 28.4445 19.5562 28.4445ZM22.2229 15.4756L24.5251 17.7778H23.1118C22.876 17.7778 22.6499 17.6841 22.4832 17.5174C22.3165 17.3507 22.2229 17.1247 22.2229 16.8889V15.4756ZM17.7784 23.1111H23.1118C23.3475 23.1111 23.5736 23.0175 23.7403 22.8508C23.907 22.6841 24.0007 22.458 24.0007 22.2222C24.0007 21.9865 23.907 21.7604 23.7403 21.5937C23.5736 21.427 23.3475 21.3333 23.1118 21.3333H17.7784C17.5427 21.3333 17.3166 21.427 17.1499 21.5937C16.9832 21.7604 16.8895 21.9865 16.8895 22.2222C16.8895 22.458 16.9832 22.6841 17.1499 22.8508C17.3166 23.0175 17.5427 23.1111 17.7784 23.1111ZM17.7784 19.5556H18.6673C18.9031 19.5556 19.1292 19.4619 19.2959 19.2952C19.4626 19.1285 19.5562 18.9024 19.5562 18.6667C19.5562 18.4309 19.4626 18.2048 19.2959 18.0381C19.1292 17.8714 18.9031 17.7778 18.6673 17.7778H17.7784C17.5427 17.7778 17.3166 17.8714 17.1499 18.0381C16.9832 18.2048 16.8895 18.4309 16.8895 18.6667C16.8895 18.9024 16.9832 19.1285 17.1499 19.2952C17.3166 19.4619 17.5427 19.5556 17.7784 19.5556ZM19.5562 24.8889H17.7784C17.5427 24.8889 17.3166 24.9826 17.1499 25.1493C16.9832 25.3159 16.8895 25.542 16.8895 25.7778C16.8895 26.0135 16.9832 26.2396 17.1499 26.4063C17.3166 26.573 17.5427 26.6667 17.7784 26.6667H19.5562C19.792 26.6667 20.018 26.573 20.1847 26.4063C20.3514 26.2396 20.4451 26.0135 20.4451 25.7778C20.4451 25.542 20.3514 25.3159 20.1847 25.1493C20.018 24.9826 19.792 24.8889 19.5562 24.8889Z" fill="white"/>
<defs>
<linearGradient id="paint0_linear_2293_4712" x1="21.3333" y1="0" x2="21.3333" y2="42.6667" gradientUnits="userSpaceOnUse">
<stop stop-color="white"/>
<stop offset="1" stop-color="#EFEFEF"/>
</linearGradient>
</defs>
</svg>
