<svg width="43" height="43" viewBox="0 0 43 43" fill="none" xmlns="http://www.w3.org/2000/svg">
<path d="M0 7.11112C0 3.18376 3.18375 0 7.11111 0H35.5555C39.4829 0 42.6667 3.18375 42.6667 7.11111V35.5555C42.6667 39.4829 39.4829 42.6667 35.5556 42.6667H7.11112C3.18376 42.6667 0 39.4829 0 35.5556V7.11112Z" fill="url(#paint0_linear_2007_662)" fill-opacity="0.1"/>
<path d="M27.5482 29.3351H26.6593V27.8534C26.6565 27.3447 26.5665 26.8403 26.393 26.3621C26.3833 26.336 26.3731 26.3118 26.3611 26.2869C26.2171 25.8944 26.0183 25.5243 25.7704 25.1876L24.526 23.5279C24.1808 23.0655 23.9937 22.5042 23.9926 21.9272V21.0295C23.9947 20.3228 24.2752 19.6454 24.7734 19.1441L25.3576 18.5599C26.0364 17.8775 26.4724 16.9911 26.5988 16.0369C26.5993 16.0246 26.6059 16.0143 26.6059 16.0018L26.6034 15.9896C26.6343 15.8003 26.653 15.6092 26.6593 15.4176V13.3352H27.5482C27.7839 13.3352 28.01 13.2415 28.1767 13.0748C28.3434 12.9081 28.4371 12.682 28.4371 12.4463C28.4371 12.2105 28.3434 11.9844 28.1767 11.8177C28.01 11.651 27.7839 11.5574 27.5482 11.5574H15.1037C14.868 11.5574 14.6419 11.651 14.4752 11.8177C14.3085 11.9844 14.2149 12.2105 14.2149 12.4463C14.2149 12.682 14.3085 12.9081 14.4752 13.0748C14.6419 13.2415 14.868 13.3352 15.1037 13.3352H15.9926V15.4176C15.9989 15.6092 16.0176 15.8003 16.0485 15.9896L16.046 16.0018C16.046 16.0143 16.0526 16.0246 16.0531 16.037C16.1795 16.9912 16.6155 17.8775 17.2943 18.56L17.8785 19.1442C18.3767 19.6454 18.6572 20.3228 18.6593 21.0295V21.9271C18.6581 22.5041 18.4712 23.0654 18.1263 23.5278L16.8811 25.1875C16.6333 25.5244 16.4345 25.8946 16.2905 26.2873C16.2787 26.3119 16.2686 26.3358 16.259 26.3616C16.0855 26.84 15.9954 27.3446 15.9926 27.8534V29.3351H15.1037C14.868 29.3351 14.6419 29.4288 14.4752 29.5955C14.3085 29.7622 14.2148 29.9883 14.2148 30.224C14.2148 30.4598 14.3085 30.6859 14.4752 30.8526C14.6419 31.0193 14.868 31.1129 15.1037 31.1129H27.5482C27.7839 31.1129 28.01 31.0193 28.1767 30.8526C28.3434 30.6859 28.4371 30.4598 28.4371 30.224C28.4371 29.9883 28.3434 29.7622 28.1767 29.5955C28.01 29.4288 27.7839 29.3351 27.5482 29.3351ZM17.7704 15.1129V13.3352H24.8815V15.1129H17.7704ZM18.5512 17.303C18.426 17.1772 18.3137 17.0391 18.2162 16.8907H24.4357C24.3382 17.0391 24.2259 17.1772 24.1007 17.303L23.5165 17.8872C22.8231 18.5765 22.3785 19.4767 22.2526 20.4463H20.3993C20.2734 19.4767 19.8288 18.5765 19.1354 17.8872L18.5512 17.303ZM19.5486 24.5938C20.0629 23.9046 20.3679 23.0819 20.4271 22.224H22.2248C22.2839 23.082 22.5891 23.9048 23.1037 24.5938L23.9927 25.7796H18.659L19.5486 24.5938ZM24.8815 29.3351H17.7704V27.8534C17.7729 27.7543 17.781 27.6555 17.7946 27.5574H24.8573C24.871 27.6555 24.879 27.7543 24.8815 27.8534V29.3351Z" fill="white"/>
<defs>
<linearGradient id="paint0_linear_2007_662" x1="21.3333" y1="0" x2="21.3333" y2="42.6667" gradientUnits="userSpaceOnUse">
<stop stop-color="white"/>
<stop offset="1" stop-color="#EFEFEF"/>
</linearGradient>
</defs>
</svg>
