<svg width="43" height="43" viewBox="0 0 43 43" fill="none" xmlns="http://www.w3.org/2000/svg">
<path d="M0 7.11112C0 3.18376 3.18375 0 7.11111 0H35.5555C39.4829 0 42.6667 3.18375 42.6667 7.11111V35.5555C42.6667 39.4829 39.4829 42.6667 35.5556 42.6667H7.11112C3.18376 42.6667 0 39.4829 0 35.5556V7.11112Z" fill="url(#paint0_linear_2007_654)" fill-opacity="0.1"/>
<path d="M29.0757 25.5201L26.9246 23.369C26.842 23.2857 26.7437 23.2196 26.6353 23.1745C26.527 23.1293 26.4108 23.1061 26.2935 23.1061C26.1762 23.1061 26.06 23.1293 25.9516 23.1745C25.8433 23.2196 25.745 23.2857 25.6624 23.369L22.4802 26.5512C22.3978 26.6343 22.3326 26.7328 22.2884 26.8411C22.2441 26.9494 22.2217 27.0654 22.2224 27.1824V29.3335C22.2224 29.5692 22.316 29.7953 22.4827 29.962C22.6494 30.1287 22.8755 30.2224 23.1113 30.2224H25.2624C25.3794 30.223 25.4953 30.2006 25.6036 30.1564C25.7119 30.1121 25.8104 30.047 25.8935 29.9646L29.0757 26.7824C29.159 26.6997 29.2252 26.6014 29.2703 26.4931C29.3154 26.3848 29.3386 26.2686 29.3386 26.1512C29.3386 26.0339 29.3154 25.9177 29.2703 25.8094C29.2252 25.7011 29.159 25.6028 29.0757 25.5201ZM24.8891 28.4446H24.0002V27.5557L26.2935 25.2624L27.1824 26.1512L24.8891 28.4446ZM19.5557 28.4446H16.0002C15.7644 28.4446 15.5383 28.3509 15.3716 28.1842C15.2049 28.0175 15.1113 27.7914 15.1113 27.5557V15.1112C15.1113 14.8755 15.2049 14.6494 15.3716 14.4827C15.5383 14.316 15.7644 14.2224 16.0002 14.2224H20.4446V16.889C20.4446 17.5963 20.7256 18.2745 21.2257 18.7746C21.7258 19.2747 22.404 19.5557 23.1113 19.5557H25.7779V20.4446C25.7779 20.6803 25.8716 20.9064 26.0383 21.0731C26.205 21.2398 26.4311 21.3335 26.6668 21.3335C26.9026 21.3335 27.1287 21.2398 27.2954 21.0731C27.4621 20.9064 27.5557 20.6803 27.5557 20.4446V18.6668C27.5557 18.6668 27.5557 18.6668 27.5557 18.6135C27.5465 18.5318 27.5286 18.4514 27.5024 18.3735V18.2935C27.4596 18.2021 27.4026 18.1181 27.3335 18.0446L22.0002 12.7112C21.9267 12.6421 21.8427 12.5851 21.7513 12.5424C21.7247 12.5386 21.6978 12.5386 21.6713 12.5424L21.3868 12.4446H16.0002C15.2929 12.4446 14.6146 12.7255 14.1145 13.2256C13.6144 13.7257 13.3335 14.404 13.3335 15.1112V27.5557C13.3335 28.2629 13.6144 28.9412 14.1145 29.4413C14.6146 29.9414 15.2929 30.2224 16.0002 30.2224H19.5557C19.7915 30.2224 20.0176 30.1287 20.1843 29.962C20.351 29.7953 20.4446 29.5692 20.4446 29.3335C20.4446 29.0977 20.351 28.8716 20.1843 28.7049C20.0176 28.5382 19.7915 28.4446 19.5557 28.4446ZM22.2224 15.4757L24.5246 17.7779H23.1113C22.8755 17.7779 22.6494 17.6843 22.4827 17.5176C22.316 17.3509 22.2224 17.1248 22.2224 16.889V15.4757ZM17.7779 23.1112H23.1113C23.347 23.1112 23.5731 23.0176 23.7398 22.8509C23.9065 22.6842 24.0002 22.4581 24.0002 22.2224C24.0002 21.9866 23.9065 21.7605 23.7398 21.5938C23.5731 21.4271 23.347 21.3335 23.1113 21.3335H17.7779C17.5422 21.3335 17.3161 21.4271 17.1494 21.5938C16.9827 21.7605 16.8891 21.9866 16.8891 22.2224C16.8891 22.4581 16.9827 22.6842 17.1494 22.8509C17.3161 23.0176 17.5422 23.1112 17.7779 23.1112ZM17.7779 19.5557H18.6668C18.9026 19.5557 19.1287 19.462 19.2954 19.2953C19.4621 19.1286 19.5557 18.9025 19.5557 18.6668C19.5557 18.4311 19.4621 18.205 19.2954 18.0383C19.1287 17.8716 18.9026 17.7779 18.6668 17.7779H17.7779C17.5422 17.7779 17.3161 17.8716 17.1494 18.0383C16.9827 18.205 16.8891 18.4311 16.8891 18.6668C16.8891 18.9025 16.9827 19.1286 17.1494 19.2953C17.3161 19.462 17.5422 19.5557 17.7779 19.5557ZM19.5557 24.889H17.7779C17.5422 24.889 17.3161 24.9827 17.1494 25.1494C16.9827 25.3161 16.8891 25.5422 16.8891 25.7779C16.8891 26.0137 16.9827 26.2398 17.1494 26.4065C17.3161 26.5732 17.5422 26.6668 17.7779 26.6668H19.5557C19.7915 26.6668 20.0176 26.5732 20.1843 26.4065C20.351 26.2398 20.4446 26.0137 20.4446 25.7779C20.4446 25.5422 20.351 25.3161 20.1843 25.1494C20.0176 24.9827 19.7915 24.889 19.5557 24.889Z" fill="white"/>
<defs>
<linearGradient id="paint0_linear_2007_654" x1="21.3333" y1="0" x2="21.3333" y2="42.6667" gradientUnits="userSpaceOnUse">
<stop stop-color="white"/>
<stop offset="1" stop-color="#EFEFEF"/>
</linearGradient>
</defs>
</svg>
