<svg width="35" height="35" viewBox="0 0 35 35" fill="none" xmlns="http://www.w3.org/2000/svg">
<path d="M0 5.68889C0 2.547 2.547 0 5.68889 0H28.4444C31.5863 0 34.1333 2.547 34.1333 5.68889V28.4444C34.1333 31.5863 31.5863 34.1333 28.4444 34.1333H5.68889C2.547 34.1333 0 31.5863 0 28.4444V5.68889Z" fill="url(#paint0_linear_2125_1178)" fill-opacity="0.1"/>
<path d="M23.5876 9.9984C23.0779 9.9106 22.5617 9.8654 22.0445 9.86328C20.2798 9.86184 18.5519 10.3679 17.0667 11.3211C15.5778 10.3804 13.8501 9.88677 12.0889 9.89884C11.5717 9.90096 11.0556 9.94615 10.5458 10.034C10.3789 10.0627 10.2277 10.1502 10.1195 10.2806C10.0112 10.4109 9.95314 10.5757 9.9556 10.7451V19.2784C9.95408 19.3829 9.9756 19.4864 10.0186 19.5816C10.0617 19.6769 10.1252 19.7614 10.2046 19.8293C10.2841 19.8972 10.3775 19.9468 10.4782 19.9745C10.579 20.0021 10.6846 20.0073 10.7876 19.9895C11.8066 19.8131 12.8507 19.8423 13.8582 20.0756C14.8658 20.3089 15.8165 20.7414 16.6543 21.3477L16.7396 21.3975H16.8178C16.8967 21.4304 16.9813 21.4473 17.0667 21.4473C17.1521 21.4473 17.2367 21.4304 17.3156 21.3975H17.3938L17.4792 21.3477C18.3111 20.7278 19.2591 20.2813 20.2668 20.0346C21.2746 19.7878 22.3216 19.7459 23.3458 19.9113C23.4488 19.9291 23.5544 19.9239 23.6552 19.8962C23.756 19.8686 23.8494 19.819 23.9288 19.7511C24.0082 19.6832 24.0717 19.5986 24.1148 19.5034C24.1578 19.4082 24.1793 19.3047 24.1778 19.2002V10.6668C24.1704 10.5048 24.1079 10.3502 24.0005 10.2286C23.8932 10.107 23.7475 10.0258 23.5876 9.9984ZM16.3556 19.4491C15.04 18.7569 13.5755 18.3957 12.0889 18.3966C11.8543 18.3966 11.6196 18.3966 11.3778 18.3966V11.2855C11.6147 11.2719 11.8521 11.2719 12.0889 11.2855C13.606 11.2838 15.09 11.729 16.3556 12.5655V19.4491ZM22.7556 18.4251C22.5138 18.4251 22.2792 18.4251 22.0445 18.4251C20.5579 18.4241 19.0935 18.7854 17.7778 19.4775V12.5655C19.0434 11.729 20.5274 11.2838 22.0445 11.2855C22.2813 11.2719 22.5188 11.2719 22.7556 11.2855V18.4251ZM23.5876 21.3762C23.0779 21.2884 22.5617 21.2432 22.0445 21.2411C20.2798 21.2396 18.5519 21.7456 17.0667 22.6988C15.5816 21.7456 13.8537 21.2396 12.0889 21.2411C11.5717 21.2432 11.0556 21.2884 10.5458 21.3762C10.4533 21.3909 10.3645 21.4237 10.2847 21.4728C10.2048 21.5219 10.1355 21.5863 10.0807 21.6623C10.0258 21.7383 9.98653 21.8244 9.96506 21.9157C9.9436 22.0069 9.94039 22.1015 9.9556 22.1939C9.99174 22.3786 10.0996 22.5414 10.2555 22.6467C10.4115 22.752 10.6028 22.7912 10.7876 22.7557C11.8066 22.5793 12.8507 22.6086 13.8582 22.8418C14.8658 23.0751 15.8165 23.5076 16.6543 24.114C16.7747 24.1997 16.9189 24.2458 17.0667 24.2458C17.2146 24.2458 17.3587 24.1997 17.4792 24.114C18.317 23.5076 19.2677 23.0751 20.2752 22.8418C21.2827 22.6086 22.3268 22.5793 23.3458 22.7557C23.5306 22.7912 23.7219 22.752 23.8779 22.6467C24.0338 22.5414 24.1417 22.3786 24.1778 22.1939C24.193 22.1015 24.1898 22.0069 24.1684 21.9157C24.1469 21.8244 24.1076 21.7383 24.0528 21.6623C23.9979 21.5863 23.9286 21.5219 23.8487 21.4728C23.7689 21.4237 23.6802 21.3909 23.5876 21.3762Z" fill="white"/>
<defs>
<linearGradient id="paint0_linear_2125_1178" x1="17.0667" y1="0" x2="17.0667" y2="34.1333" gradientUnits="userSpaceOnUse">
<stop stop-color="white"/>
<stop offset="1" stop-color="#EFEFEF"/>
</linearGradient>
</defs>
</svg>
