<svg width="43" height="43" viewBox="0 0 43 43" fill="none" xmlns="http://www.w3.org/2000/svg">
<path d="M0 7.11112C0 3.18376 3.18375 0 7.11111 0H35.5555C39.4829 0 42.6667 3.18375 42.6667 7.11111V35.5555C42.6667 39.4829 39.4829 42.6667 35.5556 42.6667H7.11112C3.18376 42.6667 0 39.4829 0 35.5556V7.11112Z" fill="url(#paint0_linear_2007_629)" fill-opacity="0.1"/>
<path d="M29.4844 12.4978C28.8472 12.388 28.2021 12.3315 27.5555 12.3289C25.3496 12.3271 23.1897 12.9596 21.3333 14.1511C19.4721 12.9752 17.3125 12.3582 15.1111 12.3733C14.4645 12.376 13.8193 12.4324 13.1822 12.5422C12.9735 12.5782 12.7845 12.6875 12.6492 12.8505C12.514 13.0134 12.4413 13.2193 12.4444 13.4311V24.0977C12.4425 24.2284 12.4694 24.3578 12.5232 24.4768C12.577 24.5958 12.6564 24.7015 12.7557 24.7864C12.855 24.8713 12.9718 24.9332 13.0977 24.9678C13.2237 25.0024 13.3557 25.0089 13.4844 24.9866C14.7582 24.7661 16.0633 24.8027 17.3227 25.0943C18.5821 25.3858 19.7705 25.9265 20.8177 26.6844L20.9244 26.7466H21.0222C21.1208 26.7877 21.2265 26.8089 21.3333 26.8089C21.4401 26.8089 21.5458 26.7877 21.6444 26.7466H21.7422L21.8489 26.6844C22.8888 25.9096 24.0738 25.3514 25.3334 25.043C26.5931 24.7345 27.9019 24.6821 29.1822 24.8889C29.3109 24.9111 29.4429 24.9047 29.5689 24.8701C29.6948 24.8354 29.8116 24.7735 29.9109 24.6886C30.0102 24.6038 30.0896 24.4981 30.1434 24.379C30.1972 24.26 30.2241 24.1306 30.2222 24V13.3333C30.2129 13.1308 30.1347 12.9375 30.0005 12.7855C29.8663 12.6335 29.6842 12.532 29.4844 12.4978ZM20.4444 24.3111C18.7999 23.4459 16.9693 22.9944 15.1111 22.9955C14.8177 22.9955 14.5244 22.9955 14.2222 22.9955V14.1066C14.5182 14.0896 14.815 14.0896 15.1111 14.1066C17.0074 14.1045 18.8624 14.661 20.4444 15.7066V24.3111ZM28.4444 23.0311C28.1422 23.0311 27.8489 23.0311 27.5555 23.0311C25.6973 23.0299 23.8667 23.4815 22.2222 24.3466V15.7066C23.8042 14.661 25.6592 14.1045 27.5555 14.1066C27.8516 14.0896 28.1484 14.0896 28.4444 14.1066V23.0311ZM29.4844 26.72C28.8472 26.6102 28.2021 26.5537 27.5555 26.5511C25.3496 26.5493 23.1897 27.1818 21.3333 28.3733C19.4769 27.1818 17.317 26.5493 15.1111 26.5511C14.4645 26.5537 13.8193 26.6102 13.1822 26.72C13.0665 26.7383 12.9555 26.7794 12.8558 26.8408C12.756 26.9022 12.6693 26.9827 12.6007 27.0777C12.5322 27.1727 12.4831 27.2803 12.4562 27.3943C12.4294 27.5084 12.4254 27.6266 12.4444 27.7422C12.4896 27.973 12.6244 28.1765 12.8193 28.3082C13.0143 28.4398 13.2534 28.4888 13.4844 28.4444C14.7582 28.2239 16.0633 28.2605 17.3227 28.552C18.5821 28.8436 19.7705 29.3843 20.8177 30.1422C20.9683 30.2494 21.1485 30.307 21.3333 30.307C21.5181 30.307 21.6983 30.2494 21.8489 30.1422C22.8961 29.3843 24.0845 28.8436 25.3439 28.552C26.6033 28.2605 27.9084 28.2239 29.1822 28.4444C29.4132 28.4888 29.6523 28.4398 29.8473 28.3082C30.0422 28.1765 30.177 27.973 30.2222 27.7422C30.2412 27.6266 30.2372 27.5084 30.2104 27.3943C30.1835 27.2803 30.1344 27.1727 30.0659 27.0777C29.9973 26.9827 29.9106 26.9022 29.8108 26.8408C29.7111 26.7794 29.6001 26.7383 29.4844 26.72Z" fill="white"/>
<defs>
<linearGradient id="paint0_linear_2007_629" x1="21.3333" y1="0" x2="21.3333" y2="42.6667" gradientUnits="userSpaceOnUse">
<stop stop-color="white"/>
<stop offset="1" stop-color="#EFEFEF"/>
</linearGradient>
</defs>
</svg>
