<svg width="43" height="43" viewBox="0 0 43 43" fill="none" xmlns="http://www.w3.org/2000/svg">
<path d="M0 7.11112C0 3.18376 3.18375 0 7.11111 0H35.5555C39.4829 0 42.6667 3.18375 42.6667 7.11111V35.5555C42.6667 39.4829 39.4829 42.6667 35.5556 42.6667H7.11112C3.18376 42.6667 0 39.4829 0 35.5556V7.11112Z" fill="url(#paint0_linear_2293_4695)" fill-opacity="0.1"/>
<path d="M22.1515 24.0001C22.1338 23.9455 22.1067 23.8944 22.0715 23.849L21.9649 23.7157C21.8822 23.6324 21.7839 23.5663 21.6756 23.5211C21.5673 23.476 21.4511 23.4528 21.3338 23.4528C21.2164 23.4528 21.1002 23.476 20.9919 23.5211C20.8836 23.5663 20.7853 23.6324 20.7027 23.7157C20.6603 23.7542 20.6243 23.7992 20.596 23.849C20.5608 23.8944 20.5337 23.9455 20.516 24.0001C20.4903 24.0536 20.4723 24.1105 20.4627 24.169C20.4583 24.2252 20.4583 24.2817 20.4627 24.3379C20.4596 24.4574 20.4839 24.576 20.5338 24.6846C20.6242 24.9008 20.7964 25.0725 21.0128 25.1624C21.2292 25.2522 21.4723 25.253 21.6893 25.1646C21.7974 25.1163 21.8965 25.0502 21.9827 24.969C22.0626 24.8871 22.126 24.7905 22.1693 24.6846C22.216 24.575 22.2402 24.4571 22.2404 24.3379C22.2448 24.2817 22.2448 24.2252 22.2404 24.169C22.2197 24.1085 22.1897 24.0515 22.1515 24.0001ZM21.3338 17.209C21.098 17.209 20.8719 17.3027 20.7052 17.4694C20.5385 17.6361 20.4449 17.8622 20.4449 18.0979V20.7646C20.4449 21.0003 20.5385 21.2264 20.7052 21.3931C20.8719 21.5598 21.098 21.6535 21.3338 21.6535C21.5695 21.6535 21.7956 21.5598 21.9623 21.3931C22.129 21.2264 22.2227 21.0003 22.2227 20.7646V18.0979C22.2227 17.8622 22.129 17.6361 21.9623 17.4694C21.7956 17.3027 21.5695 17.209 21.3338 17.209ZM28.116 13.9112C28.0127 13.8277 27.892 13.7684 27.7628 13.7376C27.6336 13.7069 27.4992 13.7054 27.3693 13.7335C26.4195 13.9325 25.439 13.9351 24.4881 13.7409C23.5373 13.5468 22.6362 13.1601 21.8404 12.6046C21.6916 12.5014 21.5149 12.446 21.3338 12.446C21.1527 12.446 20.9759 12.5014 20.8271 12.6046C20.0313 13.1601 19.1303 13.5468 18.1794 13.7409C17.2286 13.9351 16.2481 13.9325 15.2982 13.7335C15.1684 13.7054 15.0339 13.7069 14.9047 13.7376C14.7755 13.7684 14.6548 13.8277 14.5516 13.9112C14.4484 13.9949 14.3653 14.1006 14.3084 14.2206C14.2515 14.3406 14.2222 14.4718 14.2227 14.6046V21.2268C14.2219 22.5012 14.5256 23.7574 15.1085 24.8908C15.6914 26.0241 16.5366 27.0018 17.5738 27.7424L20.8182 30.0535C20.9688 30.1607 21.149 30.2183 21.3338 30.2183C21.5186 30.2183 21.6988 30.1607 21.8493 30.0535L25.0938 27.7424C26.1309 27.0018 26.9762 26.0241 27.5591 24.8908C28.142 23.7574 28.4457 22.5012 28.4449 21.2268V14.6046C28.4453 14.4718 28.416 14.3406 28.3591 14.2206C28.3022 14.1006 28.2191 13.9949 28.116 13.9112ZM26.6671 21.2268C26.6678 22.2177 26.4318 23.1944 25.9788 24.0757C25.5258 24.957 24.8689 25.7173 24.0627 26.2935L21.3338 28.2401L18.6049 26.2935C17.7987 25.7173 17.1418 24.957 16.6887 24.0757C16.2357 23.1944 15.9998 22.2177 16.0004 21.2268V15.6268C17.8639 15.7863 19.7303 15.3539 21.3338 14.3912C22.9373 15.3539 24.8036 15.7863 26.6671 15.6268V21.2268Z" fill="white"/>
<defs>
<linearGradient id="paint0_linear_2293_4695" x1="21.3333" y1="0" x2="21.3333" y2="42.6667" gradientUnits="userSpaceOnUse">
<stop stop-color="white"/>
<stop offset="1" stop-color="#EFEFEF"/>
</linearGradient>
</defs>
</svg>
