<svg width="43" height="43" viewBox="0 0 43 43" fill="none" xmlns="http://www.w3.org/2000/svg">
<path d="M0 7.11112C0 3.18376 3.18375 0 7.11111 0H35.5555C39.4829 0 42.6667 3.18375 42.6667 7.11111V35.5555C42.6667 39.4829 39.4829 42.6667 35.5556 42.6667H7.11112C3.18376 42.6667 0 39.4829 0 35.5556V7.11112Z" fill="url(#paint0_linear_2293_4703)" fill-opacity="0.1"/>
<path d="M29.3332 19.5557C29.45 19.5558 29.5656 19.5328 29.6734 19.4881C29.7813 19.4435 29.8793 19.378 29.9618 19.2955C30.0444 19.2129 30.1099 19.1149 30.1545 19.0071C30.1992 18.8992 30.2221 18.7836 30.2221 18.6669V16.0002C30.2222 15.8137 30.1635 15.6319 30.0545 15.4806C29.9454 15.3293 29.7915 15.2162 29.6145 15.1573L21.6145 12.4906C21.4319 12.4299 21.2346 12.4299 21.052 12.4906L13.052 15.1573C12.875 15.2162 12.7211 15.3293 12.612 15.4806C12.5029 15.6319 12.4443 15.8137 12.4443 16.0002V18.6669C12.4443 18.7836 12.4673 18.8992 12.5119 19.0071C12.5566 19.1149 12.6221 19.2129 12.7046 19.2955C12.7872 19.378 12.8852 19.4435 12.993 19.4881C13.1009 19.5328 13.2165 19.5558 13.3332 19.5557H14.2221V25.9418C13.7037 26.1244 13.2544 26.463 12.9361 26.9111C12.6178 27.3593 12.446 27.895 12.4443 28.4446V30.2224C12.4443 30.3391 12.4673 30.4548 12.5119 30.5626C12.5566 30.6705 12.6221 30.7685 12.7046 30.851C12.7872 30.9336 12.8852 30.999 12.993 31.0437C13.1009 31.0884 13.2165 31.1113 13.3332 31.1113H29.3332C29.45 31.1113 29.5656 31.0884 29.6734 31.0437C29.7813 30.999 29.8793 30.9336 29.9618 30.851C30.0444 30.7685 30.1099 30.6705 30.1545 30.5626C30.1992 30.4548 30.2221 30.3391 30.2221 30.2224V28.4446C30.2204 27.895 30.0486 27.3593 29.7303 26.9111C29.412 26.463 28.9628 26.1244 28.4443 25.9418V19.5557H29.3332ZM28.4443 29.3335H14.2221V28.4446C14.2223 28.209 14.3161 27.983 14.4827 27.8164C14.6494 27.6497 14.8753 27.556 15.111 27.5557H27.5554C27.7911 27.556 28.0171 27.6497 28.1837 27.8164C28.3504 27.983 28.4441 28.209 28.4443 28.4446V29.3335ZM15.9999 25.778V19.5557H17.7777V25.778H15.9999ZM19.5554 25.778V19.5557H23.111V25.778H19.5554ZM24.8888 25.778V19.5557H26.6666V25.778H24.8888ZM14.2221 17.778V16.6408L21.3332 14.2701L28.4443 16.6408V17.778H14.2221Z" fill="white"/>
<defs>
<linearGradient id="paint0_linear_2293_4703" x1="21.3333" y1="0" x2="21.3333" y2="42.6667" gradientUnits="userSpaceOnUse">
<stop stop-color="white"/>
<stop offset="1" stop-color="#EFEFEF"/>
</linearGradient>
</defs>
</svg>
