<svg width="35" height="35" viewBox="0 0 35 35" fill="none" xmlns="http://www.w3.org/2000/svg">
<path d="M0 5.68889C0 2.547 2.547 0 5.68889 0H28.4444C31.5863 0 34.1333 2.547 34.1333 5.68889V28.4444C34.1333 31.5863 31.5863 34.1333 28.4444 34.1333H5.68889C2.547 34.1333 0 31.5863 0 28.4444V5.68889Z" fill="url(#paint0_linear_2125_1203)" fill-opacity="0.1"/>
<path d="M23.2605 20.4155L21.5396 18.6946C21.4735 18.628 21.3948 18.5751 21.3082 18.539C21.2215 18.5029 21.1286 18.4843 21.0347 18.4843C20.9408 18.4843 20.8479 18.5029 20.7612 18.539C20.6746 18.5751 20.5959 18.628 20.5298 18.6946L17.984 21.2404C17.9181 21.3069 17.866 21.3857 17.8306 21.4723C17.7952 21.5589 17.7773 21.6517 17.7778 21.7453V23.4662C17.7778 23.6548 17.8527 23.8357 17.9861 23.969C18.1194 24.1024 18.3003 24.1773 18.4889 24.1773H20.2098C20.3034 24.1778 20.3962 24.1599 20.4828 24.1245C20.5694 24.0891 20.6482 24.037 20.7147 23.9711L23.2605 21.4253C23.3271 21.3592 23.38 21.2805 23.4161 21.1939C23.4522 21.1072 23.4708 21.0143 23.4708 20.9204C23.4708 20.8265 23.4522 20.7336 23.4161 20.6469C23.38 20.5603 23.3271 20.4816 23.2605 20.4155ZM19.9111 22.7551H19.2V22.044L21.0347 20.2093L21.7458 20.9204L19.9111 22.7551ZM15.6445 22.7551H12.8C12.6114 22.7551 12.4305 22.6802 12.2972 22.5468C12.1638 22.4134 12.0889 22.2326 12.0889 22.044V12.0884C12.0889 11.8998 12.1638 11.7189 12.2972 11.5856C12.4305 11.4522 12.6114 11.3773 12.8 11.3773H16.3556V13.5106C16.3556 14.0764 16.5803 14.6191 16.9804 15.0191C17.3805 15.4192 17.9231 15.644 18.4889 15.644H20.6222V16.3551C20.6222 16.5437 20.6972 16.7245 20.8305 16.8579C20.9639 16.9913 21.1448 17.0662 21.3334 17.0662C21.522 17.0662 21.7028 16.9913 21.8362 16.8579C21.9695 16.7245 22.0445 16.5437 22.0445 16.3551V14.9329C22.0445 14.9329 22.0445 14.9329 22.0445 14.8902C22.0371 14.8249 22.0228 14.7605 22.0018 14.6982V14.6342C21.9676 14.5611 21.922 14.4939 21.8667 14.4351L17.6 10.1684C17.5412 10.1131 17.474 10.0675 17.4009 10.0333C17.3797 10.0303 17.3581 10.0303 17.3369 10.0333L17.1094 9.95508H12.8C12.2342 9.95508 11.6916 10.1798 11.2915 10.5799C10.8914 10.98 10.6667 11.5226 10.6667 12.0884V22.044C10.6667 22.6098 10.8914 23.1524 11.2915 23.5525C11.6916 23.9525 12.2342 24.1773 12.8 24.1773H15.6445C15.8331 24.1773 16.0139 24.1024 16.1473 23.969C16.2807 23.8357 16.3556 23.6548 16.3556 23.4662C16.3556 23.2776 16.2807 23.0967 16.1473 22.9634C16.0139 22.83 15.8331 22.7551 15.6445 22.7551ZM17.7778 12.38L19.6196 14.2217H18.4889C18.3003 14.2217 18.1194 14.1468 17.9861 14.0135C17.8527 13.8801 17.7778 13.6992 17.7778 13.5106V12.38ZM14.2222 18.4884H18.4889C18.6775 18.4884 18.8584 18.4135 18.9917 18.2801C19.1251 18.1468 19.2 17.9659 19.2 17.7773C19.2 17.5887 19.1251 17.4078 18.9917 17.2745C18.8584 17.1411 18.6775 17.0662 18.4889 17.0662H14.2222C14.0336 17.0662 13.8528 17.1411 13.7194 17.2745C13.5861 17.4078 13.5111 17.5887 13.5111 17.7773C13.5111 17.9659 13.5861 18.1468 13.7194 18.2801C13.8528 18.4135 14.0336 18.4884 14.2222 18.4884ZM14.2222 15.644H14.9334C15.122 15.644 15.3028 15.569 15.4362 15.4357C15.5695 15.3023 15.6445 15.1215 15.6445 14.9329C15.6445 14.7443 15.5695 14.5634 15.4362 14.43C15.3028 14.2967 15.122 14.2217 14.9334 14.2217H14.2222C14.0336 14.2217 13.8528 14.2967 13.7194 14.43C13.5861 14.5634 13.5111 14.7443 13.5111 14.9329C13.5111 15.1215 13.5861 15.3023 13.7194 15.4357C13.8528 15.569 14.0336 15.644 14.2222 15.644ZM15.6445 19.9106H14.2222C14.0336 19.9106 13.8528 19.9856 13.7194 20.1189C13.5861 20.2523 13.5111 20.4331 13.5111 20.6217C13.5111 20.8103 13.5861 20.9912 13.7194 21.1246C13.8528 21.2579 14.0336 21.3329 14.2222 21.3329H15.6445C15.8331 21.3329 16.0139 21.2579 16.1473 21.1246C16.2807 20.9912 16.3556 20.8103 16.3556 20.6217C16.3556 20.4331 16.2807 20.2523 16.1473 20.1189C16.0139 19.9856 15.8331 19.9106 15.6445 19.9106Z" fill="white"/>
<defs>
<linearGradient id="paint0_linear_2125_1203" x1="17.0667" y1="0" x2="17.0667" y2="34.1333" gradientUnits="userSpaceOnUse">
<stop stop-color="white"/>
<stop offset="1" stop-color="#EFEFEF"/>
</linearGradient>
</defs>
</svg>
