<svg width="43" height="43" viewBox="0 0 43 43" fill="none" xmlns="http://www.w3.org/2000/svg">
<path d="M0 7.11112C0 3.18376 3.18375 0 7.11111 0H35.5555C39.4829 0 42.6667 3.18375 42.6667 7.11111V35.5555C42.6667 39.4829 39.4829 42.6667 35.5556 42.6667H7.11112C3.18376 42.6667 0 39.4829 0 35.5556V7.11112Z" fill="url(#paint0_linear_2007_637)" fill-opacity="0.1"/>
<path d="M22.1513 24.0001C22.1336 23.9455 22.1065 23.8944 22.0713 23.849L21.9646 23.7157C21.882 23.6324 21.7837 23.5663 21.6754 23.5211C21.5671 23.476 21.4509 23.4528 21.3335 23.4528C21.2162 23.4528 21.1 23.476 20.9917 23.5211C20.8834 23.5663 20.7851 23.6324 20.7024 23.7157C20.66 23.7542 20.624 23.7992 20.5958 23.849C20.5606 23.8944 20.5335 23.9455 20.5157 24.0001C20.49 24.0536 20.4721 24.1105 20.4624 24.169C20.4581 24.2252 20.4581 24.2817 20.4624 24.3379C20.4593 24.4574 20.4837 24.576 20.5335 24.6846C20.624 24.9008 20.7961 25.0725 21.0125 25.1624C21.2289 25.2522 21.4721 25.253 21.6891 25.1646C21.7971 25.1163 21.8963 25.0502 21.9824 24.969C22.0624 24.8871 22.1258 24.7905 22.1691 24.6846C22.2158 24.575 22.24 24.4571 22.2402 24.3379C22.2445 24.2817 22.2445 24.2252 22.2402 24.169C22.2194 24.1085 22.1894 24.0515 22.1513 24.0001ZM21.3335 17.209C21.0978 17.209 20.8717 17.3027 20.705 17.4694C20.5383 17.6361 20.4446 17.8622 20.4446 18.0979V20.7646C20.4446 21.0003 20.5383 21.2264 20.705 21.3931C20.8717 21.5598 21.0978 21.6535 21.3335 21.6535C21.5693 21.6535 21.7954 21.5598 21.9621 21.3931C22.1288 21.2264 22.2224 21.0003 22.2224 20.7646V18.0979C22.2224 17.8622 22.1288 17.6361 21.9621 17.4694C21.7954 17.3027 21.5693 17.209 21.3335 17.209ZM28.1157 13.9112C28.0125 13.8277 27.8918 13.7684 27.7626 13.7376C27.6334 13.7069 27.4989 13.7054 27.3691 13.7335C26.4192 13.9325 25.4387 13.9351 24.4879 13.7409C23.537 13.5468 22.636 13.1601 21.8402 12.6046C21.6914 12.5014 21.5146 12.446 21.3335 12.446C21.1524 12.446 20.9757 12.5014 20.8269 12.6046C20.0311 13.1601 19.13 13.5468 18.1792 13.7409C17.2283 13.9351 16.2478 13.9325 15.298 13.7335C15.1681 13.7054 15.0337 13.7069 14.9045 13.7376C14.7752 13.7684 14.6546 13.8277 14.5513 13.9112C14.4482 13.9949 14.3651 14.1006 14.3082 14.2206C14.2513 14.3406 14.222 14.4718 14.2224 14.6046V21.2268C14.2216 22.5012 14.5253 23.7574 15.1082 24.8908C15.6911 26.0241 16.5364 27.0018 17.5735 27.7424L20.818 30.0535C20.9685 30.1607 21.1487 30.2183 21.3335 30.2183C21.5183 30.2183 21.6985 30.1607 21.8491 30.0535L25.0935 27.7424C26.1307 27.0018 26.9759 26.0241 27.5588 24.8908C28.1417 23.7574 28.4454 22.5012 28.4446 21.2268V14.6046C28.4451 14.4718 28.4158 14.3406 28.3589 14.2206C28.302 14.1006 28.2189 13.9949 28.1157 13.9112ZM26.6669 21.2268C26.6675 22.2177 26.4316 23.1944 25.9786 24.0757C25.5255 24.957 24.8686 25.7173 24.0624 26.2935L21.3335 28.2401L18.6046 26.2935C17.7984 25.7173 17.1415 24.957 16.6885 24.0757C16.2355 23.1944 15.9995 22.2177 16.0002 21.2268V15.6268C17.8637 15.7863 19.73 15.3539 21.3335 14.3912C22.937 15.3539 24.8034 15.7863 26.6669 15.6268V21.2268Z" fill="white"/>
<defs>
<linearGradient id="paint0_linear_2007_637" x1="21.3333" y1="0" x2="21.3333" y2="42.6667" gradientUnits="userSpaceOnUse">
<stop stop-color="white"/>
<stop offset="1" stop-color="#EFEFEF"/>
</linearGradient>
</defs>
</svg>
