<svg width="43" height="43" viewBox="0 0 43 43" fill="none" xmlns="http://www.w3.org/2000/svg">
<path d="M0 7.11112C0 3.18376 3.18375 0 7.11111 0H35.5555C39.4829 0 42.6667 3.18375 42.6667 7.11111V35.5555C42.6667 39.4829 39.4829 42.6667 35.5556 42.6667H7.11112C3.18376 42.6667 0 39.4829 0 35.5556V7.11112Z" fill="url(#paint0_linear_2007_645)" fill-opacity="0.1"/>
<path d="M29.3335 19.5557C29.4502 19.5558 29.5658 19.5328 29.6737 19.4881C29.7815 19.4435 29.8795 19.378 29.9621 19.2955C30.0446 19.2129 30.1101 19.1149 30.1548 19.0071C30.1994 18.8992 30.2224 18.7836 30.2224 18.6669V16.0002C30.2224 15.8137 30.1638 15.6319 30.0547 15.4806C29.9456 15.3293 29.7917 15.2162 29.6147 15.1573L21.6147 12.4906C21.4321 12.4299 21.2348 12.4299 21.0522 12.4906L13.0522 15.1573C12.8752 15.2162 12.7213 15.3293 12.6122 15.4806C12.5032 15.6319 12.4445 15.8137 12.4446 16.0002V18.6669C12.4445 18.7836 12.4675 18.8992 12.5122 19.0071C12.5568 19.1149 12.6223 19.2129 12.7049 19.2955C12.7874 19.378 12.8854 19.4435 12.9933 19.4881C13.1011 19.5328 13.2167 19.5558 13.3335 19.5557H14.2224V25.9418C13.7039 26.1244 13.2547 26.463 12.9364 26.9111C12.6181 27.3593 12.4463 27.895 12.4446 28.4446V30.2224C12.4445 30.3391 12.4675 30.4548 12.5122 30.5626C12.5568 30.6705 12.6223 30.7685 12.7049 30.851C12.7874 30.9336 12.8854 30.999 12.9933 31.0437C13.1011 31.0884 13.2167 31.1113 13.3335 31.1113H29.3335C29.4502 31.1113 29.5658 31.0884 29.6737 31.0437C29.7815 30.999 29.8795 30.9336 29.9621 30.851C30.0446 30.7685 30.1101 30.6705 30.1548 30.5626C30.1994 30.4548 30.2224 30.3391 30.2224 30.2224V28.4446C30.2207 27.895 30.0489 27.3593 29.7306 26.9111C29.4123 26.463 28.963 26.1244 28.4446 25.9418V19.5557H29.3335ZM28.4446 29.3335H14.2224V28.4446C14.2226 28.209 14.3163 27.983 14.483 27.8164C14.6496 27.6497 14.8756 27.556 15.1112 27.5557H27.5557C27.7914 27.556 28.0173 27.6497 28.184 27.8164C28.3506 27.983 28.4443 28.209 28.4446 28.4446V29.3335ZM16.0001 25.778V19.5557H17.7779V25.778H16.0001ZM19.5557 25.778V19.5557H23.1112V25.778H19.5557ZM24.889 25.778V19.5557H26.6668V25.778H24.889ZM14.2224 17.778V16.6408L21.3335 14.2701L28.4446 16.6408V17.778H14.2224Z" fill="white"/>
<defs>
<linearGradient id="paint0_linear_2007_645" x1="21.3333" y1="0" x2="21.3333" y2="42.6667" gradientUnits="userSpaceOnUse">
<stop stop-color="white"/>
<stop offset="1" stop-color="#EFEFEF"/>
</linearGradient>
</defs>
</svg>
