<svg width="70" height="70" viewBox="0 0 70 70" fill="none" xmlns="http://www.w3.org/2000/svg">
<path d="M0 13.3333C0 5.96953 5.96954 0 13.3333 0H56.6375C64.0013 0 69.9708 5.96954 69.9708 13.3333V56.6375C69.9708 64.0013 64.0013 69.9708 56.6375 69.9708H13.3333C5.96953 69.9708 0 64.0013 0 56.6375V13.3333Z" fill="url(#paint0_linear_2827_3308)"/>
<path d="M45.6521 40.5587V29.4121C46.2916 29.1893 46.8641 28.8077 47.3159 28.3032C47.7677 27.7986 48.084 27.1877 48.2352 26.5275C48.3863 25.8673 48.3674 25.1796 48.1801 24.5287C47.9928 23.8779 47.6434 23.2852 47.1645 22.8063C46.6856 22.3274 46.0929 21.978 45.4421 21.7907C44.7913 21.6035 44.1035 21.5845 43.4433 21.7357C42.7832 21.8868 42.1722 22.2031 41.6677 22.6549C41.1631 23.1067 40.7816 23.6792 40.5587 24.3187H29.4121C29.1893 23.6792 28.8077 23.1067 28.3032 22.6549C27.7986 22.2031 27.1877 21.8868 26.5275 21.7357C25.8673 21.5845 25.1796 21.6035 24.5287 21.7907C23.8779 21.978 23.2852 22.3274 22.8063 22.8063C22.3274 23.2852 21.978 23.8779 21.7907 24.5287C21.6035 25.1796 21.5845 25.8673 21.7357 26.5275C21.8868 27.1877 22.2031 27.7986 22.6549 28.3032C23.1067 28.8077 23.6792 29.1893 24.3187 29.4121V40.5587C23.6792 40.7816 23.1067 41.1631 22.6549 41.6677C22.2031 42.1722 21.8868 42.7832 21.7357 43.4433C21.5845 44.1035 21.6035 44.7913 21.7907 45.4421C21.978 46.0929 22.3274 46.6856 22.8063 47.1645C23.2852 47.6434 23.8779 47.9928 24.5287 48.1801C25.1796 48.3674 25.8673 48.3863 26.5275 48.2352C27.1877 48.084 27.7986 47.7677 28.3032 47.3159C28.8077 46.8641 29.1893 46.2916 29.4121 45.6521H40.5587C40.7816 46.2916 41.1631 46.8641 41.6677 47.3159C42.1722 47.7677 42.7832 48.084 43.4433 48.2352C44.1035 48.3863 44.7913 48.3674 45.4421 48.1801C46.0929 47.9928 46.6856 47.6434 47.1645 47.1645C47.6434 46.6856 47.9928 46.0929 48.1801 45.4421C48.3674 44.7913 48.3863 44.1035 48.2352 43.4433C48.084 42.7832 47.7677 42.1722 47.3159 41.6677C46.8641 41.1631 46.2916 40.7816 45.6521 40.5587V40.5587ZM44.3187 24.3187C44.5825 24.3187 44.8402 24.3969 45.0595 24.5435C45.2788 24.69 45.4497 24.8982 45.5506 25.1418C45.6515 25.3855 45.6779 25.6536 45.6265 25.9122C45.575 26.1708 45.448 26.4084 45.2616 26.5949C45.0751 26.7814 44.8375 26.9083 44.5789 26.9598C44.3202 27.0112 44.0521 26.9848 43.8085 26.8839C43.5649 26.783 43.3566 26.6121 43.2101 26.3928C43.0636 26.1736 42.9854 25.9158 42.9854 25.6521C42.9854 25.2985 43.1259 24.9593 43.3759 24.7093C43.626 24.4592 43.9651 24.3187 44.3187 24.3187V24.3187ZM25.6521 24.3187C25.9158 24.3187 26.1736 24.3969 26.3928 24.5435C26.6121 24.69 26.783 24.8982 26.8839 25.1418C26.9848 25.3855 27.0112 25.6536 26.9598 25.9122C26.9083 26.1708 26.7814 26.4084 26.5949 26.5949C26.4084 26.7814 26.1708 26.9083 25.9122 26.9598C25.6536 27.0112 25.3855 26.9848 25.1418 26.8839C24.8982 26.783 24.69 26.6121 24.5435 26.3928C24.3969 26.1736 24.3187 25.9158 24.3187 25.6521C24.3187 25.2985 24.4592 24.9593 24.7093 24.7093C24.9593 24.4592 25.2985 24.3187 25.6521 24.3187V24.3187ZM25.6521 45.6521C25.3884 45.6521 25.1306 45.5739 24.9113 45.4274C24.6921 45.2809 24.5212 45.0726 24.4202 44.829C24.3193 44.5854 24.2929 44.3173 24.3444 44.0586C24.3958 43.8 24.5228 43.5624 24.7093 43.3759C24.8957 43.1895 25.1333 43.0625 25.392 43.011C25.6506 42.9596 25.9187 42.986 26.1623 43.0869C26.406 43.1878 26.6142 43.3587 26.7607 43.578C26.9072 43.7972 26.9854 44.055 26.9854 44.3187C26.9854 44.6724 26.8449 45.0115 26.5949 45.2616C26.3448 45.5116 26.0057 45.6521 25.6521 45.6521ZM40.5587 42.9854H29.4121C29.213 42.4262 28.8919 41.9183 28.4722 41.4986C28.0525 41.0789 27.5446 40.7578 26.9854 40.5587V29.4121C27.5446 29.213 28.0525 28.8919 28.4722 28.4722C28.8919 28.0525 29.213 27.5446 29.4121 26.9854H40.5587C40.7578 27.5446 41.0789 28.0525 41.4986 28.4722C41.9183 28.8919 42.4262 29.213 42.9854 29.4121V40.5587C42.4262 40.7578 41.9183 41.0789 41.4986 41.4986C41.0789 41.9183 40.7578 42.4262 40.5587 42.9854V42.9854ZM44.3187 45.6521C44.055 45.6521 43.7972 45.5739 43.578 45.4274C43.3587 45.2809 43.1878 45.0726 43.0869 44.829C42.986 44.5854 42.9596 44.3173 43.011 44.0586C43.0625 43.8 43.1895 43.5624 43.3759 43.3759C43.5624 43.1895 43.8 43.0625 44.0586 43.011C44.3173 42.9596 44.5854 42.986 44.829 43.0869C45.0726 43.1878 45.2809 43.3587 45.4274 43.578C45.5739 43.7972 45.6521 44.055 45.6521 44.3187C45.6521 44.6724 45.5116 45.0115 45.2616 45.2616C45.0115 45.5116 44.6724 45.6521 44.3187 45.6521Z" fill="white"/>
<defs>
<linearGradient id="paint0_linear_2827_3308" x1="34.9854" y1="0" x2="34.9854" y2="69.9708" gradientUnits="userSpaceOnUse">
<stop stop-color="#003268"/>
<stop offset="1" stop-color="#5280CA"/>
</linearGradient>
</defs>
</svg>
