<svg width="70" height="70" viewBox="0 0 70 70" fill="none" xmlns="http://www.w3.org/2000/svg">
<path d="M0 13.3333C0 5.96953 5.96954 0 13.3333 0H56.6375C64.0013 0 69.9708 5.96954 69.9708 13.3333V56.6375C69.9708 64.0013 64.0013 69.9708 56.6375 69.9708H13.3333C5.96953 69.9708 0 64.0013 0 56.6375V13.3333Z" fill="url(#paint0_linear_2827_3292)"/>
<path d="M33.6519 30.9854H38.9853C39.3389 30.9854 39.678 30.8449 39.9281 30.5949C40.1781 30.3448 40.3186 30.0057 40.3186 29.6521C40.3186 29.2984 40.1781 28.9593 39.9281 28.7093C39.678 28.4592 39.3389 28.3187 38.9853 28.3187H36.3186V26.9854C36.3186 26.6318 36.1781 26.2926 35.9281 26.0426C35.678 25.7925 35.3389 25.6521 34.9853 25.6521C34.6317 25.6521 34.2925 25.7925 34.0425 26.0426C33.7924 26.2926 33.6519 26.6318 33.6519 26.9854V28.3187C32.5911 28.3187 31.5737 28.7402 30.8235 29.4903C30.0734 30.2404 29.6519 31.2579 29.6519 32.3187C29.6519 33.3796 30.0734 34.397 30.8235 35.1472C31.5737 35.8973 32.5911 36.3187 33.6519 36.3187H36.3186C36.6722 36.3187 37.0114 36.4592 37.2614 36.7093C37.5115 36.9593 37.6519 37.2984 37.6519 37.6521C37.6519 38.0057 37.5115 38.3448 37.2614 38.5949C37.0114 38.8449 36.6722 38.9854 36.3186 38.9854H30.9853C30.6317 38.9854 30.2925 39.1259 30.0425 39.3759C29.7924 39.626 29.6519 39.9651 29.6519 40.3187C29.6519 40.6723 29.7924 41.0115 30.0425 41.2615C30.2925 41.5116 30.6317 41.6521 30.9853 41.6521H33.6519V42.9854C33.6519 43.339 33.7924 43.6782 34.0425 43.9282C34.2925 44.1783 34.6317 44.3187 34.9853 44.3187C35.3389 44.3187 35.678 44.1783 35.9281 43.9282C36.1781 43.6782 36.3186 43.339 36.3186 42.9854V41.6521C37.3795 41.6521 38.3969 41.2306 39.147 40.4805C39.8972 39.7303 40.3186 38.7129 40.3186 37.6521C40.3186 36.5912 39.8972 35.5738 39.147 34.8236C38.3969 34.0735 37.3795 33.6521 36.3186 33.6521H33.6519C33.2983 33.6521 32.9592 33.5116 32.7091 33.2615C32.4591 33.0115 32.3186 32.6723 32.3186 32.3187C32.3186 31.9651 32.4591 31.626 32.7091 31.3759C32.9592 31.1259 33.2983 30.9854 33.6519 30.9854V30.9854ZM34.9853 20.3187C32.0845 20.3187 29.2488 21.1789 26.8369 22.7905C24.425 24.4021 22.5451 26.6927 21.435 29.3727C20.325 32.0527 20.0345 35.0017 20.6004 37.8467C21.1663 40.6918 22.5632 43.3051 24.6144 45.3563C26.6655 47.4075 29.2789 48.8043 32.124 49.3702C34.969 49.9362 37.918 49.6457 40.598 48.5356C43.278 47.4255 45.5686 45.5457 47.1802 43.1338C48.7918 40.7218 49.6519 37.8862 49.6519 34.9854C49.6519 31.0956 48.1067 27.365 45.3562 24.6145C42.6056 21.864 38.8751 20.3187 34.9853 20.3187V20.3187ZM34.9853 46.9854C32.6119 46.9854 30.2918 46.2816 28.3184 44.963C26.345 43.6445 24.807 41.7703 23.8987 39.5776C22.9905 37.3849 22.7528 34.9721 23.2159 32.6443C23.6789 30.3165 24.8218 28.1783 26.5 26.5001C28.1782 24.8219 30.3164 23.679 32.6442 23.216C34.972 22.7529 37.3848 22.9906 39.5775 23.8988C41.7702 24.8071 43.6443 26.3452 44.9629 28.3185C46.2815 30.2919 46.9853 32.612 46.9853 34.9854C46.9853 38.168 45.721 41.2202 43.4706 43.4707C41.2201 45.7211 38.1679 46.9854 34.9853 46.9854V46.9854Z" fill="white"/>
<defs>
<linearGradient id="paint0_linear_2827_3292" x1="34.9854" y1="0" x2="34.9854" y2="69.9708" gradientUnits="userSpaceOnUse">
<stop stop-color="#003268"/>
<stop offset="1" stop-color="#5280CA"/>
</linearGradient>
</defs>
</svg>
