<svg width="70" height="70" viewBox="0 0 70 70" fill="none" xmlns="http://www.w3.org/2000/svg">
<path d="M0 13.3333C0 5.96953 5.96954 0 13.3333 0H56.6375C64.0013 0 69.9708 5.96954 69.9708 13.3333V56.6375C69.9708 64.0013 64.0013 69.9708 56.6375 69.9708H13.3333C5.96953 69.9708 0 64.0013 0 56.6375V13.3333Z" fill="url(#paint0_linear_2827_3300)"/>
<path d="M28.3075 38.3214C28.1324 38.3214 27.959 38.3558 27.7972 38.4228C27.6355 38.4898 27.4885 38.588 27.3646 38.7118C27.2408 38.8357 27.1426 38.9827 27.0756 39.1444C27.0086 39.3062 26.9742 39.4796 26.9742 39.6547V42.0311C25.2556 40.0875 24.3071 37.5825 24.3075 34.9881C24.3073 34.596 24.3308 34.2042 24.3778 33.8149C24.3994 33.6408 24.3865 33.4642 24.3397 33.2951C24.2929 33.1261 24.2132 32.9679 24.1051 32.8297C23.9971 32.6915 23.8628 32.576 23.7101 32.4898C23.5573 32.4036 23.3891 32.3483 23.2149 32.3273C23.0408 32.3062 22.8642 32.3197 22.6953 32.367C22.5263 32.4143 22.3684 32.4945 22.2305 32.6029C22.0927 32.7113 21.9775 32.8459 21.8918 32.9989C21.806 33.152 21.7513 33.3204 21.7307 33.4946C21.6703 33.9901 21.6403 34.4889 21.6409 34.9881C21.6427 38.1696 22.7862 41.2449 24.8634 43.6547H22.9742C22.6206 43.6547 22.2814 43.7952 22.0314 44.0453C21.7814 44.2953 21.6409 44.6345 21.6409 44.9881C21.6409 45.3417 21.7814 45.6808 22.0314 45.9309C22.2814 46.1809 22.6206 46.3214 22.9742 46.3214H28.3075C28.5161 46.3188 28.721 46.2664 28.9051 46.1686C29.0893 46.0707 29.2475 45.9303 29.3664 45.759C29.3819 45.7385 29.4018 45.7233 29.4163 45.7017C29.4251 45.6884 29.4254 45.6727 29.4337 45.6592C29.4972 45.5518 29.5448 45.4358 29.575 45.3148C29.5947 45.2468 29.6088 45.1773 29.6169 45.1069C29.6207 45.0658 29.6409 45.0303 29.6409 44.9881V39.6548C29.641 39.4797 29.6065 39.3063 29.5395 39.1445C29.4725 38.9827 29.3743 38.8357 29.2505 38.7118C29.1267 38.588 28.9797 38.4898 28.8179 38.4228C28.6561 38.3558 28.4827 38.3214 28.3075 38.3214V38.3214ZM30.3075 26.9881H27.9309C29.8747 25.2696 32.3797 24.3211 34.9742 24.3214C35.3661 24.3205 35.7577 24.344 36.1467 24.3917C36.3206 24.4128 36.497 24.3995 36.6657 24.3525C36.8345 24.3054 36.9923 24.2256 37.1302 24.1176C37.2681 24.0095 37.3834 23.8754 37.4694 23.7228C37.5555 23.5703 37.6106 23.4022 37.6318 23.2283C37.6529 23.0544 37.6395 22.8781 37.5925 22.7093C37.5455 22.5406 37.4656 22.3827 37.3576 22.2449C37.2496 22.107 37.1154 21.9917 36.9629 21.9056C36.8103 21.8196 36.6422 21.7644 36.4683 21.7433C35.9726 21.6835 35.4736 21.6539 34.9742 21.6547C31.7927 21.6565 28.7174 22.7998 26.3075 24.877V22.9881C26.3075 22.6345 26.1671 22.2953 25.917 22.0453C25.667 21.7952 25.3278 21.6547 24.9742 21.6547C24.6206 21.6547 24.2814 21.7952 24.0314 22.0453C23.7814 22.2953 23.6409 22.6345 23.6409 22.9881V28.3214C23.6493 28.4095 23.6668 28.4965 23.6933 28.581L23.6936 28.5826C23.726 28.7467 23.7899 28.9029 23.8818 29.0426L23.8971 29.0652C23.9852 29.1933 24.0956 29.3046 24.2231 29.3936C24.2376 29.4043 24.2449 29.4206 24.26 29.4308C24.2791 29.4434 24.3006 29.4474 24.3201 29.459C24.3957 29.5045 24.4758 29.542 24.5592 29.571C24.6718 29.6102 24.7893 29.6339 24.9083 29.6414C24.9314 29.6427 24.9509 29.6548 24.9742 29.6548H30.3075C30.6612 29.6548 31.0003 29.5143 31.2504 29.2643C31.5004 29.0142 31.6409 28.6751 31.6409 28.3214C31.6409 27.9678 31.5004 27.6287 31.2504 27.3786C31.0003 27.1286 30.6612 26.9881 30.3075 26.9881V26.9881ZM46.2548 41.3935C46.2225 41.2294 46.1585 41.0731 46.0665 40.9334L46.0514 40.911C45.9633 40.7828 45.8528 40.6715 45.7252 40.5824C45.7106 40.5718 45.7035 40.5554 45.6884 40.5453C45.674 40.5358 45.6569 40.5355 45.6423 40.5265C45.4731 40.4325 45.2878 40.3712 45.096 40.3459C45.0538 40.3419 45.0174 40.3213 44.9742 40.3213H39.6409C39.2873 40.3213 38.9481 40.4618 38.6981 40.7119C38.448 40.9619 38.3075 41.3011 38.3075 41.6547C38.3075 42.0083 38.448 42.3474 38.6981 42.5975C38.9481 42.8475 39.2873 42.988 39.6409 42.988H42.0174C40.0737 44.7065 37.5687 45.655 34.9742 45.6547C34.5823 45.6552 34.1907 45.6313 33.8017 45.5831C33.4505 45.5404 33.0967 45.639 32.8182 45.8572C32.5397 46.0754 32.3593 46.3953 32.3167 46.7465C32.274 47.0977 32.3726 47.4514 32.5908 47.7299C32.809 48.0084 33.1289 48.1889 33.4801 48.2315C33.9759 48.2913 34.4748 48.3213 34.9742 48.3213C38.1557 48.3196 41.231 47.1762 43.6409 45.0991V46.9881C43.6409 47.3417 43.7814 47.6808 44.0314 47.9309C44.2815 48.1809 44.6206 48.3214 44.9742 48.3214C45.3278 48.3214 45.667 48.1809 45.917 47.9309C46.1671 47.6808 46.3075 47.3417 46.3075 46.9881V41.6547C46.2992 41.5666 46.2816 41.4796 46.2551 41.3951L46.2548 41.3935ZM46.9742 26.3214C47.3278 26.3214 47.667 26.1809 47.917 25.9309C48.1671 25.6808 48.3075 25.3417 48.3075 24.9881C48.3075 24.6345 48.1671 24.2953 47.917 24.0453C47.667 23.7952 47.3278 23.6547 46.9742 23.6547H41.6409C41.5541 23.6631 41.4684 23.6804 41.3851 23.7063L41.3762 23.7081C41.2143 23.7405 41.0601 23.8037 40.922 23.8942L40.8958 23.9118C40.7683 23.9998 40.6575 24.1099 40.5688 24.2369C40.5583 24.2513 40.5421 24.2583 40.5322 24.2732C40.5226 24.2876 40.5223 24.3045 40.5134 24.319C40.4182 24.4892 40.3565 24.6759 40.3315 24.8693C40.3277 24.9104 40.3075 24.9459 40.3075 24.9881V30.3214C40.3075 30.675 40.448 31.0142 40.6981 31.2642C40.9481 31.5143 41.2873 31.6547 41.6409 31.6547C41.9945 31.6547 42.3336 31.5143 42.5837 31.2642C42.8337 31.0142 42.9742 30.675 42.9742 30.3214V27.9442C44.6927 29.8882 45.6411 32.3934 45.6409 34.988C45.6411 35.3801 45.6176 35.7719 45.5706 36.1612C45.5283 36.5122 45.627 36.8656 45.845 37.1438C46.063 37.4221 46.3825 37.6026 46.7333 37.6456C46.7874 37.6518 46.8417 37.6549 46.8961 37.6547C47.2216 37.6543 47.5358 37.5347 47.7793 37.3186C48.0227 37.1025 48.1787 36.8047 48.2177 36.4815C48.2781 35.986 48.3081 35.4873 48.3075 34.9881C48.3057 31.8065 47.1622 28.7312 45.0849 26.3214H46.9742Z" fill="white"/>
<defs>
<linearGradient id="paint0_linear_2827_3300" x1="34.9854" y1="0" x2="34.9854" y2="69.9708" gradientUnits="userSpaceOnUse">
<stop stop-color="#003268"/>
<stop offset="1" stop-color="#5280CA"/>
</linearGradient>
</defs>
</svg>
