<svg width="104" height="104" viewBox="0 0 104 104" fill="none" xmlns="http://www.w3.org/2000/svg">
<path d="M51.9359 101.795C79.4722 101.795 101.795 79.4724 101.795 51.9362C101.795 24.3999 79.4722 2.07739 51.9359 2.07739C24.3997 2.07739 2.07715 24.3999 2.07715 51.9362C2.07715 79.4724 24.3997 101.795 51.9359 101.795Z" fill="#F8F9FB" stroke="#1C5396" stroke-width="2.07745"/>
<path d="M51.9359 91.4079C73.7354 91.4079 91.4074 73.7359 91.4074 51.9364C91.4074 30.1368 73.7354 12.4648 51.9359 12.4648C30.1364 12.4648 12.4644 30.1368 12.4644 51.9364C12.4644 73.7359 30.1364 91.4079 51.9359 91.4079Z" fill="white"/>
<path d="M51.9358 27.1931L36.355 33.3331V47.3674C36.355 56.1389 43.6261 61.4018 51.9358 66.6646C60.2456 61.4018 67.5167 56.1389 67.5167 47.3674V33.3331L51.9358 27.1931Z" fill="#1C5396"/>
<path d="M45.7036 45.8905L49.8585 50.0454L58.1683 39.6582" stroke="white" stroke-width="3.11617" stroke-linecap="round" stroke-linejoin="round"/>
<path d="M51.9358 90.3688C53.0832 90.3688 54.0133 89.4387 54.0133 88.2913C54.0133 87.144 53.0832 86.2139 51.9358 86.2139C50.7885 86.2139 49.8584 87.144 49.8584 88.2913C49.8584 89.4387 50.7885 90.3688 51.9358 90.3688Z" fill="#FFC916"/>
<path d="M15.5804 54.0135C16.7277 54.0135 17.6578 53.0834 17.6578 51.9361C17.6578 50.7887 16.7277 49.8586 15.5804 49.8586C14.433 49.8586 13.5029 50.7887 13.5029 51.9361C13.5029 53.0834 14.433 54.0135 15.5804 54.0135Z" fill="#FFC916"/>
<path d="M88.2913 54.0135C89.4387 54.0135 90.3688 53.0834 90.3688 51.9361C90.3688 50.7887 89.4387 49.8586 88.2913 49.8586C87.144 49.8586 86.2139 50.7887 86.2139 51.9361C86.2139 53.0834 87.144 54.0135 88.2913 54.0135Z" fill="#FFC916"/>
</svg>
