<svg width="70" height="70" viewBox="0 0 70 70" fill="none" xmlns="http://www.w3.org/2000/svg">
<path d="M0 13.3333C0 5.96953 5.96954 0 13.3333 0H56.6375C64.0013 0 69.9708 5.96954 69.9708 13.3333V56.6375C69.9708 64.0013 64.0013 69.9708 56.6375 69.9708H13.3333C5.96953 69.9708 0 64.0013 0 56.6375V13.3333Z" fill="url(#paint0_linear_2448_8368)"/>
<path d="M42.9855 24.9589C40.8637 22.8371 37.986 21.6451 34.9855 21.6451C31.9849 21.6451 29.1072 22.8371 26.9855 24.9589C24.8637 27.0806 23.6718 29.9583 23.6718 32.9589C23.6718 35.9594 24.8637 38.8371 26.9855 40.9589L34.0121 47.9989C34.1361 48.1238 34.2835 48.223 34.446 48.2907C34.6085 48.3584 34.7828 48.3932 34.9588 48.3932C35.1348 48.3932 35.3091 48.3584 35.4716 48.2907C35.634 48.223 35.7815 48.1238 35.9055 47.9989L42.9855 40.8922C45.0983 38.7793 46.2853 35.9136 46.2853 32.9255C46.2853 29.9374 45.0983 27.0718 42.9855 24.9589V24.9589ZM41.0788 38.9855L34.9855 45.1055L28.8921 38.9855C27.6883 37.7806 26.8688 36.2458 26.5371 34.5752C26.2053 32.9046 26.3764 31.1732 27.0285 29.5998C27.6807 28.0263 28.7847 26.6816 30.201 25.7355C31.6173 24.7894 33.2822 24.2844 34.9855 24.2844C36.6887 24.2844 38.3537 24.7894 39.77 25.7355C41.1862 26.6816 42.2902 28.0263 42.9424 29.5998C43.5945 31.1732 43.7656 32.9046 43.4339 34.5752C43.1022 36.2458 42.2826 37.7806 41.0788 38.9855V38.9855ZM30.9855 28.8655C29.9091 29.9452 29.3047 31.4076 29.3047 32.9322C29.3047 34.4568 29.9091 35.9192 30.9855 36.9989C31.7851 37.7999 32.8036 38.347 33.913 38.5714C35.0224 38.7958 36.1734 38.6876 37.2216 38.2604C38.2697 37.8331 39.1684 37.1059 39.8048 36.1698C40.4412 35.2338 40.787 34.1307 40.7988 32.9989C40.8048 32.2431 40.6592 31.4939 40.3707 30.7954C40.0821 30.0969 39.6564 29.4633 39.1188 28.9322C38.5904 28.3916 37.9602 27.9609 37.2647 27.6648C36.5691 27.3687 35.8219 27.2131 35.066 27.2069C34.3101 27.2007 33.5604 27.344 32.8601 27.6287C32.1598 27.9134 31.5227 28.3337 30.9855 28.8655V28.8655ZM37.2388 35.1055C36.7335 35.6185 36.0657 35.9401 35.3496 36.0152C34.6335 36.0903 33.9135 35.9144 33.3128 35.5174C32.7121 35.1205 32.2679 34.5272 32.0561 33.839C31.8444 33.1508 31.8783 32.4104 32.1521 31.7444C32.4258 31.0784 32.9224 30.5282 33.5569 30.1878C34.1914 29.8475 34.9245 29.7381 35.6307 29.8783C36.337 30.0186 36.9725 30.3999 37.4288 30.9569C37.8851 31.5139 38.1337 32.2121 38.1321 32.9322C38.1127 33.7552 37.7675 34.5369 37.1721 35.1055H37.2388Z" fill="white"/>
<defs>
<linearGradient id="paint0_linear_2448_8368" x1="34.9854" y1="0" x2="34.9854" y2="69.9708" gradientUnits="userSpaceOnUse">
<stop stop-color="#003268"/>
<stop offset="1" stop-color="#5280CA"/>
</linearGradient>
</defs>
</svg>
