<svg width="70" height="70" viewBox="0 0 70 70" fill="none" xmlns="http://www.w3.org/2000/svg">
<path d="M0 13.3333C0 5.96953 5.96954 0 13.3333 0H56.6375C64.0013 0 69.9708 5.96954 69.9708 13.3333V56.6375C69.9708 64.0013 64.0013 69.9708 56.6375 69.9708H13.3333C5.96953 69.9708 0 64.0013 0 56.6375V13.3333Z" fill="url(#paint0_linear_2448_8359)"/>
<path d="M47.9321 39.7588L41.9054 33.7455C42.0315 33.1313 42.0941 32.5058 42.0921 31.8788C42.0916 30.1597 41.6578 28.4684 40.8306 26.9613C40.0035 25.4542 38.8099 24.18 37.3599 23.2563C35.91 22.3327 34.2506 21.7895 32.5352 21.6769C30.8198 21.5643 29.1036 21.8859 27.5454 22.6121C27.348 22.7023 27.1756 22.8393 27.0431 23.0113C26.9107 23.1832 26.8222 23.3849 26.7854 23.5988C26.7487 23.81 26.7635 24.0269 26.8285 24.2312C26.8935 24.4354 27.0068 24.621 27.1587 24.7721L32.9587 30.5588L30.5587 32.9588L24.7721 27.1588C24.6196 27.0092 24.4335 26.8984 24.2293 26.8358C24.0251 26.7731 23.8088 26.7605 23.5987 26.7988C23.3862 26.8343 23.1854 26.9207 23.0135 27.0508C22.8417 27.1808 22.7039 27.3506 22.6121 27.5455C21.8834 29.1088 21.562 30.8311 21.6778 32.552C21.7935 34.2729 22.3427 35.9366 23.2741 37.3883C24.2055 38.8399 25.489 40.0325 27.005 40.8549C28.5211 41.6773 30.2206 42.1029 31.9454 42.0921C32.5724 42.0942 33.1979 42.0316 33.8121 41.9055L39.8254 47.9321C39.9493 48.0571 40.0968 48.1563 40.2593 48.224C40.4218 48.2917 40.596 48.3265 40.7721 48.3265C40.9481 48.3265 41.1223 48.2917 41.2848 48.224C41.4473 48.1563 41.5948 48.0571 41.7187 47.9321C41.8437 47.8082 41.9429 47.6607 42.0106 47.4983C42.0783 47.3358 42.1131 47.1615 42.1131 46.9855C42.1131 46.8095 42.0783 46.6352 42.0106 46.4727C41.9429 46.3102 41.8437 46.1628 41.7187 46.0388L35.1854 39.5055C35.0221 39.3433 34.8197 39.2261 34.5977 39.1654C34.3757 39.1046 34.1418 39.1024 33.9187 39.1588C33.275 39.3312 32.6118 39.4208 31.9454 39.4255C30.9481 39.4343 29.959 39.2457 29.0349 38.8705C28.1109 38.4954 27.2702 37.9411 26.5612 37.2396C25.8523 36.5381 25.2892 35.7033 24.9043 34.7833C24.5195 33.8632 24.3204 32.8761 24.3187 31.8788C24.317 31.4322 24.3527 30.9862 24.4254 30.5455L29.6521 35.7855C29.776 35.9105 29.9235 36.0096 30.086 36.0773C30.2484 36.145 30.4227 36.1799 30.5987 36.1799C30.7747 36.1799 30.949 36.145 31.1115 36.0773C31.274 36.0096 31.4214 35.9105 31.5454 35.7855L35.7854 31.5055C36.0257 31.2569 36.16 30.9246 36.16 30.5788C36.16 30.233 36.0257 29.9008 35.7854 29.6521L30.5987 24.4255C31.0395 24.3535 31.4854 24.3178 31.9321 24.3188C33.9348 24.3223 35.8543 25.1204 37.2692 26.5378C38.6841 27.9552 39.4787 29.8761 39.4787 31.8788C39.4741 32.5453 39.3845 33.2084 39.2121 33.8521C39.1556 34.0752 39.1579 34.3092 39.2186 34.5311C39.2794 34.7531 39.3965 34.9555 39.5587 35.1188L46.0921 41.6521C46.3431 41.9032 46.6837 42.0443 47.0387 42.0443C47.3938 42.0443 47.7343 41.9032 47.9854 41.6521C48.2365 41.4011 48.3775 41.0606 48.3775 40.7055C48.3775 40.3504 48.2365 40.0099 47.9854 39.7588H47.9321Z" fill="white"/>
<defs>
<linearGradient id="paint0_linear_2448_8359" x1="34.9854" y1="0" x2="34.9854" y2="69.9708" gradientUnits="userSpaceOnUse">
<stop stop-color="#003268"/>
<stop offset="1" stop-color="#5280CA"/>
</linearGradient>
</defs>
</svg>
