<svg width="70" height="70" viewBox="0 0 70 70" fill="none" xmlns="http://www.w3.org/2000/svg">
<path d="M0 13.3333C0 5.96953 5.96954 0 13.3333 0H56.6375C64.0013 0 69.9708 5.96954 69.9708 13.3333V56.6375C69.9708 64.0013 64.0013 69.9708 56.6375 69.9708H13.3333C5.96953 69.9708 0 64.0013 0 56.6375V13.3333Z" fill="url(#paint0_linear_2448_8376)"/>
<path d="M45.6522 40.5589V29.4122C46.2917 29.1894 46.8643 28.8078 47.316 28.3033C47.7678 27.7988 48.0841 27.1878 48.2353 26.5276C48.3864 25.8674 48.3675 25.1797 48.1802 24.5288C47.993 23.878 47.6435 23.2854 47.1646 22.8065C46.6857 22.3276 46.0931 21.9781 45.4422 21.7908C44.7914 21.6036 44.1036 21.5846 43.4435 21.7358C42.7833 21.8869 42.1723 22.2032 41.6678 22.655C41.1632 23.1068 40.7817 23.6793 40.5589 24.3189H29.4122C29.1894 23.6793 28.8078 23.1068 28.3033 22.655C27.7988 22.2032 27.1878 21.8869 26.5276 21.7358C25.8674 21.5846 25.1797 21.6036 24.5288 21.7908C23.878 21.9781 23.2854 22.3276 22.8065 22.8065C22.3276 23.2854 21.9781 23.878 21.7908 24.5288C21.6036 25.1797 21.5846 25.8674 21.7358 26.5276C21.8869 27.1878 22.2032 27.7988 22.655 28.3033C23.1068 28.8078 23.6793 29.1894 24.3189 29.4122V40.5589C23.6793 40.7817 23.1068 41.1632 22.655 41.6678C22.2032 42.1723 21.8869 42.7833 21.7358 43.4435C21.5846 44.1036 21.6036 44.7914 21.7908 45.4422C21.9781 46.0931 22.3276 46.6857 22.8065 47.1646C23.2854 47.6435 23.878 47.993 24.5288 48.1802C25.1797 48.3675 25.8674 48.3864 26.5276 48.2353C27.1878 48.0841 27.7988 47.7678 28.3033 47.316C28.8078 46.8643 29.1894 46.2917 29.4122 45.6522H40.5589C40.7817 46.2917 41.1632 46.8643 41.6678 47.316C42.1723 47.7678 42.7833 48.0841 43.4435 48.2353C44.1036 48.3864 44.7914 48.3675 45.4422 48.1802C46.0931 47.993 46.6857 47.6435 47.1646 47.1646C47.6435 46.6857 47.993 46.0931 48.1802 45.4422C48.3675 44.7914 48.3864 44.1036 48.2353 43.4435C48.0841 42.7833 47.7678 42.1723 47.316 41.6678C46.8643 41.1632 46.2917 40.7817 45.6522 40.5589V40.5589ZM44.3189 24.3189C44.5826 24.3189 44.8404 24.3971 45.0596 24.5436C45.2789 24.6901 45.4498 24.8983 45.5507 25.142C45.6516 25.3856 45.678 25.6537 45.6266 25.9123C45.5751 26.171 45.4481 26.4085 45.2617 26.595C45.0752 26.7815 44.8376 26.9085 44.579 26.9599C44.3203 27.0114 44.0523 26.985 43.8086 26.884C43.565 26.7831 43.3567 26.6122 43.2102 26.393C43.0637 26.1737 42.9855 25.9159 42.9855 25.6522C42.9855 25.2986 43.126 24.9594 43.3761 24.7094C43.6261 24.4593 43.9652 24.3189 44.3189 24.3189V24.3189ZM25.6522 24.3189C25.9159 24.3189 26.1737 24.3971 26.393 24.5436C26.6122 24.6901 26.7831 24.8983 26.884 25.142C26.985 25.3856 27.0114 25.6537 26.9599 25.9123C26.9085 26.171 26.7815 26.4085 26.595 26.595C26.4085 26.7815 26.171 26.9085 25.9123 26.9599C25.6537 27.0114 25.3856 26.985 25.142 26.884C24.8983 26.7831 24.6901 26.6122 24.5436 26.393C24.3971 26.1737 24.3189 25.9159 24.3189 25.6522C24.3189 25.2986 24.4593 24.9594 24.7094 24.7094C24.9594 24.4593 25.2986 24.3189 25.6522 24.3189V24.3189ZM25.6522 45.6522C25.3885 45.6522 25.1307 45.574 24.9114 45.4275C24.6922 45.281 24.5213 45.0727 24.4204 44.8291C24.3194 44.5855 24.293 44.3174 24.3445 44.0587C24.3959 43.8001 24.5229 43.5625 24.7094 43.3761C24.8959 43.1896 25.1334 43.0626 25.3921 43.0112C25.6507 42.9597 25.9188 42.9861 26.1624 43.087C26.4061 43.1879 26.6143 43.3588 26.7608 43.5781C26.9073 43.7974 26.9855 44.0552 26.9855 44.3189C26.9855 44.6725 26.8451 45.0116 26.595 45.2617C26.345 45.5117 26.0058 45.6522 25.6522 45.6522ZM40.5589 42.9855H29.4122C29.2131 42.4263 28.8921 41.9185 28.4723 41.4987C28.0526 41.079 27.5447 40.758 26.9855 40.5589V29.4122C27.5447 29.2131 28.0526 28.8921 28.4723 28.4723C28.8921 28.0526 29.2131 27.5447 29.4122 26.9855H40.5589C40.758 27.5447 41.079 28.0526 41.4987 28.4723C41.9185 28.8921 42.4263 29.2131 42.9855 29.4122V40.5589C42.4263 40.758 41.9185 41.079 41.4987 41.4987C41.079 41.9185 40.758 42.4263 40.5589 42.9855V42.9855ZM44.3189 45.6522C44.0552 45.6522 43.7974 45.574 43.5781 45.4275C43.3588 45.281 43.1879 45.0727 43.087 44.8291C42.9861 44.5855 42.9597 44.3174 43.0112 44.0587C43.0626 43.8001 43.1896 43.5625 43.3761 43.3761C43.5625 43.1896 43.8001 43.0626 44.0587 43.0112C44.3174 42.9597 44.5855 42.9861 44.8291 43.087C45.0727 43.1879 45.281 43.3588 45.4275 43.5781C45.574 43.7974 45.6522 44.0552 45.6522 44.3189C45.6522 44.6725 45.5117 45.0116 45.2617 45.2617C45.0116 45.5117 44.6725 45.6522 44.3189 45.6522Z" fill="white"/>
<defs>
<linearGradient id="paint0_linear_2448_8376" x1="34.9854" y1="0" x2="34.9854" y2="69.9708" gradientUnits="userSpaceOnUse">
<stop stop-color="#003268"/>
<stop offset="1" stop-color="#5280CA"/>
</linearGradient>
</defs>
</svg>
