<svg width="70" height="70" viewBox="0 0 70 70" fill="none" xmlns="http://www.w3.org/2000/svg">
<path d="M0 13.3333C0 5.96953 5.96954 0 13.3333 0H56.6375C64.0013 0 69.9708 5.96954 69.9708 13.3333V56.6375C69.9708 64.0013 64.0013 69.9708 56.6375 69.9708H13.3333C5.96953 69.9708 0 64.0013 0 56.6375V13.3333Z" fill="url(#paint0_linear_2448_8343)"/>
<path d="M38.0388 33.3721L33.6521 37.7721L31.9321 36.0388C31.681 35.7877 31.3405 35.6466 30.9854 35.6466C30.6304 35.6466 30.2898 35.7877 30.0388 36.0388C29.7877 36.2898 29.6466 36.6304 29.6466 36.9854C29.6466 37.3405 29.7877 37.681 30.0388 37.9321L32.7054 40.5988C32.8294 40.7237 32.9769 40.8229 33.1393 40.8906C33.3018 40.9583 33.4761 40.9932 33.6521 40.9932C33.8281 40.9932 34.0024 40.9583 34.1649 40.8906C34.3273 40.8229 34.4748 40.7237 34.5988 40.5988L39.9321 35.2654C40.1832 35.0144 40.3242 34.6738 40.3242 34.3188C40.3242 33.9637 40.1832 33.6232 39.9321 33.3721C39.681 33.121 39.3405 32.98 38.9854 32.98C38.6304 32.98 38.2898 33.121 38.0388 33.3721V33.3721ZM44.3188 26.3188H35.9454L35.5188 24.9854C35.2422 24.2031 34.7291 23.5261 34.0506 23.0483C33.3722 22.5705 32.5619 22.3156 31.7321 22.3188H25.6521C24.5912 22.3188 23.5738 22.7402 22.8237 23.4903C22.0735 24.2405 21.6521 25.2579 21.6521 26.3188V43.6521C21.6521 44.713 22.0735 45.7304 22.8237 46.4805C23.5738 47.2307 24.5912 47.6521 25.6521 47.6521H44.3188C45.3796 47.6521 46.397 47.2307 47.1472 46.4805C47.8973 45.7304 48.3188 44.713 48.3188 43.6521V30.3188C48.3188 29.2579 47.8973 28.2405 47.1472 27.4903C46.397 26.7402 45.3796 26.3188 44.3188 26.3188ZM45.6521 43.6521C45.6521 44.0057 45.5116 44.3449 45.2616 44.5949C45.0115 44.8449 44.6724 44.9854 44.3188 44.9854H25.6521C25.2985 44.9854 24.9593 44.8449 24.7093 44.5949C24.4592 44.3449 24.3188 44.0057 24.3188 43.6521V26.3188C24.3188 25.9651 24.4592 25.626 24.7093 25.3759C24.9593 25.1259 25.2985 24.9854 25.6521 24.9854H31.7321C32.0116 24.9847 32.2843 25.0718 32.5116 25.2345C32.7389 25.3972 32.9093 25.6273 32.9988 25.8921L33.7188 28.0788C33.8082 28.3436 33.9786 28.5736 34.2059 28.7363C34.4332 28.899 34.7059 28.9861 34.9854 28.9854H44.3188C44.6724 28.9854 45.0115 29.1259 45.2616 29.3759C45.5116 29.626 45.6521 29.9651 45.6521 30.3188V43.6521Z" fill="white"/>
<defs>
<linearGradient id="paint0_linear_2448_8343" x1="34.9854" y1="0" x2="34.9854" y2="69.9708" gradientUnits="userSpaceOnUse">
<stop stop-color="#003268"/>
<stop offset="1" stop-color="#5280CA"/>
</linearGradient>
</defs>
</svg>
