<svg width="70" height="70" viewBox="0 0 70 70" fill="none" xmlns="http://www.w3.org/2000/svg">
<path d="M0 13.3333C0 5.96953 5.96954 0 13.3333 0H56.6375C64.0013 0 69.9708 5.96954 69.9708 13.3333V56.6375C69.9708 64.0013 64.0013 69.9708 56.6375 69.9708H13.3333C5.96953 69.9708 0 64.0013 0 56.6375V13.3333Z" fill="url(#paint0_linear_2448_8335)"/>
<path d="M33.6522 30.9855H38.9855C39.3391 30.9855 39.6783 30.845 39.9283 30.595C40.1784 30.3449 40.3189 30.0058 40.3189 29.6522C40.3189 29.2986 40.1784 28.9594 39.9283 28.7094C39.6783 28.4593 39.3391 28.3188 38.9855 28.3188H36.3189V26.9855C36.3189 26.6319 36.1784 26.2928 35.9283 26.0427C35.6783 25.7927 35.3391 25.6522 34.9855 25.6522C34.6319 25.6522 34.2928 25.7927 34.0427 26.0427C33.7927 26.2928 33.6522 26.6319 33.6522 26.9855V28.3188C32.5913 28.3188 31.5739 28.7403 30.8238 29.4904C30.0736 30.2406 29.6522 31.258 29.6522 32.3188C29.6522 33.3797 30.0736 34.3971 30.8238 35.1473C31.5739 35.8974 32.5913 36.3188 33.6522 36.3188H36.3189C36.6725 36.3188 37.0116 36.4593 37.2617 36.7094C37.5117 36.9594 37.6522 37.2986 37.6522 37.6522C37.6522 38.0058 37.5117 38.3449 37.2617 38.595C37.0116 38.845 36.6725 38.9855 36.3189 38.9855H30.9855C30.6319 38.9855 30.2928 39.126 30.0427 39.376C29.7927 39.6261 29.6522 39.9652 29.6522 40.3188C29.6522 40.6725 29.7927 41.0116 30.0427 41.2617C30.2928 41.5117 30.6319 41.6522 30.9855 41.6522H33.6522V42.9855C33.6522 43.3391 33.7927 43.6783 34.0427 43.9283C34.2928 44.1784 34.6319 44.3188 34.9855 44.3188C35.3391 44.3188 35.6783 44.1784 35.9283 43.9283C36.1784 43.6783 36.3189 43.3391 36.3189 42.9855V41.6522C37.3797 41.6522 38.3971 41.2308 39.1473 40.4806C39.8974 39.7305 40.3189 38.713 40.3189 37.6522C40.3189 36.5913 39.8974 35.5739 39.1473 34.8238C38.3971 34.0736 37.3797 33.6522 36.3189 33.6522H33.6522C33.2986 33.6522 32.9594 33.5117 32.7094 33.2617C32.4593 33.0116 32.3189 32.6725 32.3189 32.3188C32.3189 31.9652 32.4593 31.6261 32.7094 31.376C32.9594 31.126 33.2986 30.9855 33.6522 30.9855V30.9855ZM34.9855 20.3188C32.0847 20.3188 29.2491 21.179 26.8372 22.7906C24.4252 24.4022 22.5454 26.6928 21.4353 29.3728C20.3252 32.0528 20.0348 35.0018 20.6007 37.8468C21.1666 40.6919 22.5635 43.3052 24.6146 45.3564C26.6658 47.4076 29.2791 48.8044 32.1242 49.3704C34.9693 49.9363 37.9182 49.6458 40.5982 48.5357C43.2782 47.4257 45.5688 45.5458 47.1804 43.1339C48.792 40.722 49.6522 37.8863 49.6522 34.9855C49.6522 31.0957 48.107 27.3651 45.3564 24.6146C42.6059 21.8641 38.8754 20.3188 34.9855 20.3188V20.3188ZM34.9855 46.9855C32.6121 46.9855 30.2921 46.2817 28.3187 44.9632C26.3453 43.6446 24.8072 41.7704 23.899 39.5777C22.9907 37.385 22.7531 34.9722 23.2161 32.6444C23.6791 30.3167 24.822 28.1785 26.5002 26.5002C28.1785 24.822 30.3167 23.6791 32.6444 23.2161C34.9722 22.7531 37.385 22.9907 39.5777 23.899C41.7704 24.8072 43.6446 26.3453 44.9632 28.3187C46.2817 30.2921 46.9855 32.6121 46.9855 34.9855C46.9855 38.1681 45.7212 41.2204 43.4708 43.4708C41.2204 45.7212 38.1681 46.9855 34.9855 46.9855V46.9855Z" fill="white"/>
<defs>
<linearGradient id="paint0_linear_2448_8335" x1="34.9854" y1="0" x2="34.9854" y2="69.9708" gradientUnits="userSpaceOnUse">
<stop stop-color="#003268"/>
<stop offset="1" stop-color="#5280CA"/>
</linearGradient>
</defs>
</svg>
