<svg width="70" height="70" viewBox="0 0 70 70" fill="none" xmlns="http://www.w3.org/2000/svg">
<path d="M0 13.3333C0 5.96953 5.96954 0 13.3333 0H56.6375C64.0013 0 69.9708 5.96954 69.9708 13.3333V56.6375C69.9708 64.0013 64.0013 69.9708 56.6375 69.9708H13.3333C5.96953 69.9708 0 64.0013 0 56.6375V13.3333Z" fill="url(#paint0_linear_2448_8351)"/>
<path d="M34.9854 34.9854C34.1943 34.9854 33.4209 35.22 32.7631 35.6596C32.1053 36.0991 31.5926 36.7238 31.2899 37.4547C30.9871 38.1856 30.9079 38.9899 31.0623 39.7658C31.2166 40.5417 31.5976 41.2545 32.157 41.8139C32.7164 42.3733 33.4291 42.7542 34.205 42.9086C34.981 43.0629 35.7852 42.9837 36.5161 42.681C37.247 42.3782 37.8717 41.8655 38.3113 41.2077C38.7508 40.5499 38.9854 39.7766 38.9854 38.9854C38.9854 37.9246 38.564 36.9072 37.8138 36.157C37.0637 35.4069 36.0463 34.9854 34.9854 34.9854ZM34.9854 40.3188C34.7217 40.3188 34.4639 40.2406 34.2446 40.0941C34.0254 39.9476 33.8545 39.7393 33.7536 39.4957C33.6526 39.252 33.6262 38.984 33.6777 38.7253C33.7291 38.4667 33.8561 38.2291 34.0426 38.0426C34.2291 37.8562 34.4666 37.7292 34.7253 37.6777C34.9839 37.6263 35.252 37.6527 35.4956 37.7536C35.7393 37.8545 35.9475 38.0254 36.094 38.2447C36.2405 38.4639 36.3187 38.7217 36.3187 38.9854C36.3187 39.3391 36.1783 39.6782 35.9282 39.9282C35.6782 40.1783 35.339 40.3188 34.9854 40.3188ZM34.0387 31.9321C34.1655 32.0535 34.3151 32.1486 34.4787 32.2121C34.6383 32.2826 34.8109 32.3191 34.9854 32.3191C35.1599 32.3191 35.3325 32.2826 35.4921 32.2121C35.6557 32.1486 35.8053 32.0535 35.9321 31.9321L38.9854 28.9321C39.2435 28.674 39.3886 28.3238 39.3886 27.9588C39.3886 27.5937 39.2435 27.2436 38.9854 26.9854C38.7272 26.7273 38.3771 26.5823 38.0121 26.5823C37.647 26.5823 37.2969 26.7273 37.0387 26.9854L36.3187 27.7721V22.9854C36.3187 22.6318 36.1783 22.2927 35.9282 22.0426C35.6782 21.7926 35.339 21.6521 34.9854 21.6521C34.6318 21.6521 34.2926 21.7926 34.0426 22.0426C33.7925 22.2927 33.6521 22.6318 33.6521 22.9854V27.7721L32.9321 26.9854C32.6739 26.7273 32.3238 26.5823 31.9587 26.5823C31.5937 26.5823 31.2435 26.7273 30.9854 26.9854C30.7272 27.2436 30.5822 27.5937 30.5822 27.9588C30.5822 28.3238 30.7272 28.674 30.9854 28.9321L34.0387 31.9321ZM44.3187 38.9854C44.3187 38.7217 44.2405 38.4639 44.094 38.2447C43.9475 38.0254 43.7393 37.8545 43.4956 37.7536C43.252 37.6527 42.9839 37.6263 42.7253 37.6777C42.4666 37.7292 42.2291 37.8562 42.0426 38.0426C41.8561 38.2291 41.7291 38.4667 41.6777 38.7253C41.6262 38.984 41.6526 39.252 41.7536 39.4957C41.8545 39.7393 42.0254 39.9476 42.2446 40.0941C42.4639 40.2406 42.7217 40.3188 42.9854 40.3188C43.339 40.3188 43.6782 40.1783 43.9282 39.9282C44.1783 39.6782 44.3187 39.3391 44.3187 38.9854ZM45.6521 29.6521H41.6521C41.2984 29.6521 40.9593 29.7926 40.7092 30.0426C40.4592 30.2927 40.3187 30.6318 40.3187 30.9854C40.3187 31.3391 40.4592 31.6782 40.7092 31.9282C40.9593 32.1783 41.2984 32.3188 41.6521 32.3188H45.6521C46.0057 32.3188 46.3448 32.4592 46.5949 32.7093C46.8449 32.9593 46.9854 33.2985 46.9854 33.6521V44.3188C46.9854 44.6724 46.8449 45.0115 46.5949 45.2616C46.3448 45.5116 46.0057 45.6521 45.6521 45.6521H24.3187C23.9651 45.6521 23.626 45.5116 23.3759 45.2616C23.1259 45.0115 22.9854 44.6724 22.9854 44.3188V33.6521C22.9854 33.2985 23.1259 32.9593 23.3759 32.7093C23.626 32.4592 23.9651 32.3188 24.3187 32.3188H28.3187C28.6723 32.3188 29.0115 32.1783 29.2615 31.9282C29.5116 31.6782 29.6521 31.3391 29.6521 30.9854C29.6521 30.6318 29.5116 30.2927 29.2615 30.0426C29.0115 29.7926 28.6723 29.6521 28.3187 29.6521H24.3187C23.2579 29.6521 22.2404 30.0735 21.4903 30.8237C20.7402 31.5738 20.3187 32.5912 20.3187 33.6521V44.3188C20.3187 45.3796 20.7402 46.397 21.4903 47.1472C22.2404 47.8973 23.2579 48.3188 24.3187 48.3188H45.6521C46.7129 48.3188 47.7303 47.8973 48.4805 47.1472C49.2306 46.397 49.6521 45.3796 49.6521 44.3188V33.6521C49.6521 32.5912 49.2306 31.5738 48.4805 30.8237C47.7303 30.0735 46.7129 29.6521 45.6521 29.6521ZM25.6521 38.9854C25.6521 39.2491 25.7303 39.5069 25.8768 39.7262C26.0233 39.9455 26.2315 40.1164 26.4751 40.2173C26.7188 40.3182 26.9869 40.3446 27.2455 40.2931C27.5042 40.2417 27.7417 40.1147 27.9282 39.9282C28.1147 39.7418 28.2417 39.5042 28.2931 39.2456C28.3446 38.9869 28.3181 38.7188 28.2172 38.4752C28.1163 38.2316 27.9454 38.0233 27.7262 37.8768C27.5069 37.7303 27.2491 37.6521 26.9854 37.6521C26.6318 37.6521 26.2926 37.7926 26.0426 38.0426C25.7925 38.2927 25.6521 38.6318 25.6521 38.9854Z" fill="white"/>
<defs>
<linearGradient id="paint0_linear_2448_8351" x1="34.9854" y1="0" x2="34.9854" y2="69.9708" gradientUnits="userSpaceOnUse">
<stop stop-color="#003268"/>
<stop offset="1" stop-color="#5280CA"/>
</linearGradient>
</defs>
</svg>
