<svg width="70" height="70" viewBox="0 0 70 70" fill="none" xmlns="http://www.w3.org/2000/svg">
<path d="M0 13.3333C0 5.96953 5.96954 0 13.3333 0H56.6375C64.0013 0 69.9708 5.96954 69.9708 13.3333V56.6375C69.9708 64.0013 64.0013 69.9708 56.6375 69.9708H13.3333C5.96953 69.9708 0 64.0013 0 56.6375V13.3333Z" fill="url(#paint0_linear_2448_8383)"/>
<path d="M41.6519 33.6522H42.9853C43.3389 33.6522 43.678 33.5117 43.9281 33.2617C44.1781 33.0116 44.3186 32.6725 44.3186 32.3188V30.9855C44.3186 30.6319 44.1781 30.2928 43.9281 30.0427C43.678 29.7927 43.3389 29.6522 42.9853 29.6522H41.6519C41.2983 29.6522 40.9592 29.7927 40.7091 30.0427C40.4591 30.2928 40.3186 30.6319 40.3186 30.9855V32.3188C40.3186 32.6725 40.4591 33.0116 40.7091 33.2617C40.9592 33.5117 41.2983 33.6522 41.6519 33.6522ZM26.9853 34.9855H33.6519C34.0056 34.9855 34.3447 34.845 34.5947 34.595C34.8448 34.3449 34.9853 34.0058 34.9853 33.6522C34.9853 33.2986 34.8448 32.9594 34.5947 32.7094C34.3447 32.4593 34.0056 32.3188 33.6519 32.3188H26.9853C26.6316 32.3188 26.2925 32.4593 26.0425 32.7094C25.7924 32.9594 25.6519 33.2986 25.6519 33.6522C25.6519 34.0058 25.7924 34.3449 26.0425 34.595C26.2925 34.845 26.6316 34.9855 26.9853 34.9855ZM48.3186 24.3188H21.6519C21.2983 24.3188 20.9592 24.4593 20.7091 24.7094C20.4591 24.9594 20.3186 25.2986 20.3186 25.6522V44.3188C20.3186 44.6725 20.4591 45.0116 20.7091 45.2617C20.9592 45.5117 21.2983 45.6522 21.6519 45.6522H48.3186C48.6722 45.6522 49.0114 45.5117 49.2614 45.2617C49.5115 45.0116 49.6519 44.6725 49.6519 44.3188V25.6522C49.6519 25.2986 49.5115 24.9594 49.2614 24.7094C49.0114 24.4593 48.6722 24.3188 48.3186 24.3188ZM46.9853 42.9855H22.9853V26.9855H46.9853V42.9855ZM26.9853 40.3188H33.6519C34.0056 40.3188 34.3447 40.1784 34.5947 39.9283C34.8448 39.6783 34.9853 39.3391 34.9853 38.9855C34.9853 38.6319 34.8448 38.2928 34.5947 38.0427C34.3447 37.7927 34.0056 37.6522 33.6519 37.6522H26.9853C26.6316 37.6522 26.2925 37.7927 26.0425 38.0427C25.7924 38.2928 25.6519 38.6319 25.6519 38.9855C25.6519 39.3391 25.7924 39.6783 26.0425 39.9283C26.2925 40.1784 26.6316 40.3188 26.9853 40.3188Z" fill="white"/>
<defs>
<linearGradient id="paint0_linear_2448_8383" x1="34.9854" y1="0" x2="34.9854" y2="69.9708" gradientUnits="userSpaceOnUse">
<stop stop-color="#003268"/>
<stop offset="1" stop-color="#5280CA"/>
</linearGradient>
</defs>
</svg>
