<svg width="70" height="70" viewBox="0 0 70 70" fill="none" xmlns="http://www.w3.org/2000/svg">
<path d="M0 13.3333C0 5.96953 5.96954 0 13.3333 0H56.6375C64.0013 0 69.9708 5.96954 69.9708 13.3333V56.6375C69.9708 64.0013 64.0013 69.9708 56.6375 69.9708H13.3333C5.96953 69.9708 0 64.0013 0 56.6375V13.3333Z" fill="url(#paint0_linear_2448_8392)"/>
<path d="M45.5321 39.6654H39.4921C39.1385 39.6654 38.7993 39.8059 38.5493 40.056C38.2992 40.306 38.1588 40.6451 38.1588 40.9988C38.1588 41.3524 38.2992 41.6915 38.5493 41.9416C38.7993 42.1916 39.1385 42.3321 39.4921 42.3321H42.6921C41.2214 43.8691 39.3246 44.9312 37.2457 45.382C35.1667 45.8327 33.0004 45.6516 31.0251 44.8618C29.0499 44.072 27.3559 42.7096 26.1609 40.9497C24.9659 39.1898 24.3243 37.1127 24.3188 34.9854C24.3188 34.6318 24.1783 34.2927 23.9282 34.0426C23.6782 33.7926 23.3391 33.6521 22.9854 33.6521C22.6318 33.6521 22.2927 33.7926 22.0426 34.0426C21.7926 34.2927 21.6521 34.6318 21.6521 34.9854C21.6591 37.5892 22.4284 40.1339 23.8649 42.3055C25.3014 44.4771 27.3423 46.1806 29.7358 47.2057C32.1292 48.2309 34.7704 48.5328 37.3335 48.0743C39.8965 47.6158 42.2692 46.4168 44.1588 44.6254V46.9854C44.1588 47.3391 44.2992 47.6782 44.5493 47.9282C44.7993 48.1783 45.1385 48.3188 45.4921 48.3188C45.8457 48.3188 46.1849 48.1783 46.4349 47.9282C46.685 47.6782 46.8254 47.3391 46.8254 46.9854V40.9854C46.8221 40.6409 46.6856 40.3111 46.4445 40.065C46.2034 39.819 45.8764 39.6758 45.5321 39.6654ZM34.9854 21.6521C31.5673 21.6618 28.2834 22.984 25.8121 25.3454V22.9854C25.8121 22.6318 25.6716 22.2927 25.4216 22.0426C25.1715 21.7926 24.8324 21.6521 24.4788 21.6521C24.1251 21.6521 23.786 21.7926 23.536 22.0426C23.2859 22.2927 23.1454 22.6318 23.1454 22.9854V28.9854C23.1454 29.3391 23.2859 29.6782 23.536 29.9282C23.786 30.1783 24.1251 30.3188 24.4788 30.3188H30.4788C30.8324 30.3188 31.1715 30.1783 31.4216 29.9282C31.6716 29.6782 31.8121 29.3391 31.8121 28.9854C31.8121 28.6318 31.6716 28.2927 31.4216 28.0426C31.1715 27.7926 30.8324 27.6521 30.4788 27.6521H27.2788C28.7487 26.1159 30.6442 25.0541 32.722 24.6029C34.7997 24.1517 36.9649 24.3318 38.9396 25.1199C40.9143 25.9081 42.6084 27.2684 43.8044 29.0262C45.0005 30.7841 45.6439 32.8593 45.6521 34.9854C45.6521 35.3391 45.7926 35.6782 46.0426 35.9282C46.2927 36.1783 46.6318 36.3188 46.9854 36.3188C47.3391 36.3188 47.6782 36.1783 47.9282 35.9282C48.1783 35.6782 48.3188 35.3391 48.3188 34.9854C48.3188 33.2345 47.9739 31.5007 47.3038 29.883C46.6338 28.2653 45.6516 26.7955 44.4135 25.5573C43.1754 24.3192 41.7056 23.3371 40.0879 22.667C38.4702 21.997 36.7364 21.6521 34.9854 21.6521V21.6521Z" fill="white"/>
<defs>
<linearGradient id="paint0_linear_2448_8392" x1="34.9854" y1="0" x2="34.9854" y2="69.9708" gradientUnits="userSpaceOnUse">
<stop stop-color="#003268"/>
<stop offset="1" stop-color="#5280CA"/>
</linearGradient>
</defs>
</svg>
