<svg width="32" height="32" viewBox="0 0 32 32" fill="none" xmlns="http://www.w3.org/2000/svg">
<path d="M23.9998 14.4265C23.6462 14.4265 23.3071 14.567 23.057 14.817C22.807 15.0671 22.6665 15.4062 22.6665 15.7598V25.3332C22.6665 25.6868 22.526 26.0259 22.276 26.276C22.0259 26.526 21.6868 26.6665 21.3332 26.6665H6.6665C6.31288 26.6665 5.97374 26.526 5.7237 26.276C5.47365 26.0259 5.33317 25.6868 5.33317 25.3332V10.6665C5.33317 10.3129 5.47365 9.97374 5.7237 9.72369C5.97374 9.47365 6.31288 9.33317 6.6665 9.33317H16.2398C16.5935 9.33317 16.9326 9.19269 17.1826 8.94265C17.4327 8.6926 17.5732 8.35346 17.5732 7.99984C17.5732 7.64621 17.4327 7.30708 17.1826 7.05703C16.9326 6.80698 16.5935 6.6665 16.2398 6.6665H6.6665C5.60564 6.6665 4.58822 7.08793 3.83808 7.83808C3.08793 8.58822 2.6665 9.60564 2.6665 10.6665V25.3332C2.6665 26.394 3.08793 27.4115 3.83808 28.1616C4.58822 28.9117 5.60564 29.3332 6.6665 29.3332H21.3332C22.394 29.3332 23.4115 28.9117 24.1616 28.1616C24.9117 27.4115 25.3332 26.394 25.3332 25.3332V15.7598C25.3332 15.4062 25.1927 15.0671 24.9426 14.817C24.6926 14.567 24.3535 14.4265 23.9998 14.4265ZM29.2265 3.49317C29.0912 3.16737 28.8323 2.90847 28.5065 2.77317C28.3462 2.70485 28.1741 2.66861 27.9998 2.6665H19.9998C19.6462 2.6665 19.3071 2.80698 19.057 3.05703C18.807 3.30708 18.6665 3.64622 18.6665 3.99984C18.6665 4.35346 18.807 4.6926 19.057 4.94265C19.3071 5.19269 19.6462 5.33317 19.9998 5.33317H24.7865L11.0532 19.0532C10.9282 19.1771 10.829 19.3246 10.7613 19.4871C10.6936 19.6495 10.6588 19.8238 10.6588 19.9998C10.6588 20.1759 10.6936 20.3501 10.7613 20.5126C10.829 20.6751 10.9282 20.8226 11.0532 20.9465C11.1771 21.0715 11.3246 21.1707 11.4871 21.2384C11.6495 21.306 11.8238 21.3409 11.9998 21.3409C12.1759 21.3409 12.3501 21.306 12.5126 21.2384C12.6751 21.1707 12.8226 21.0715 12.9465 20.9465L26.6665 7.21317V11.9998C26.6665 12.3535 26.807 12.6926 27.057 12.9426C27.3071 13.1927 27.6462 13.3332 27.9998 13.3332C28.3535 13.3332 28.6926 13.1927 28.9426 12.9426C29.1927 12.6926 29.3332 12.3535 29.3332 11.9998V3.99984C29.3311 3.8256 29.2948 3.65347 29.2265 3.49317Z" fill="white"/>
</svg>
