<svg width="70" height="70" viewBox="0 0 70 70" fill="none" xmlns="http://www.w3.org/2000/svg">
<path d="M0 13.3333C0 5.96953 5.96954 0 13.3333 0H56.6375C64.0013 0 69.9708 5.96954 69.9708 13.3333V56.6375C69.9708 64.0013 64.0013 69.9708 56.6375 69.9708H13.3333C5.96953 69.9708 0 64.0013 0 56.6375V13.3333Z" fill="url(#paint0_linear_2470_3385)"/>
<path d="M32.985 45.6521H26.3184C25.9647 45.6521 25.6256 45.5116 25.3756 45.2616C25.1255 45.0115 24.985 44.6724 24.985 44.3188V25.6521C24.985 25.2985 25.1255 24.9593 25.3756 24.7093C25.6256 24.4592 25.9647 24.3188 26.3184 24.3188H32.985V28.3188C32.985 29.3796 33.4065 30.397 34.1566 31.1472C34.9067 31.8973 35.9242 32.3188 36.985 32.3188H40.985C40.985 32.6724 41.1255 33.0115 41.3756 33.2616C41.6256 33.5116 41.9647 33.6521 42.3184 33.6521C42.672 33.6521 43.0111 33.5116 43.2612 33.2616C43.5112 33.0115 43.6517 32.6724 43.6517 32.3188V30.9054C43.6379 30.7829 43.6111 30.6622 43.5717 30.5454V30.4254C43.5091 30.2875 43.4234 30.1612 43.3184 30.0521L35.3184 22.0521C35.2092 21.9471 35.083 21.8614 34.945 21.7988C34.9053 21.7927 34.8648 21.7927 34.825 21.7988L34.3984 21.6521H26.3184C25.2575 21.6521 24.2401 22.0735 23.4899 22.8237C22.7398 23.5738 22.3184 24.5912 22.3184 25.6521V44.3188C22.3184 45.3796 22.7398 46.397 23.4899 47.1472C24.2401 47.8973 25.2575 48.3188 26.3184 48.3188H32.985C33.3386 48.3188 33.6778 48.1783 33.9278 47.9282C34.1779 47.6782 34.3184 47.3391 34.3184 46.9854C34.3184 46.6318 34.1779 46.2927 33.9278 46.0426C33.6778 45.7926 33.3386 45.6521 32.985 45.6521ZM35.6517 26.1988L39.105 29.6521H36.985C36.6314 29.6521 36.2923 29.5116 36.0422 29.2616C35.7922 29.0115 35.6517 28.6724 35.6517 28.3188V26.1988ZM28.985 29.6521C28.6314 29.6521 28.2923 29.7926 28.0422 30.0426C27.7922 30.2927 27.6517 30.6318 27.6517 30.9854C27.6517 31.3391 27.7922 31.6782 28.0422 31.9282C28.2923 32.1783 28.6314 32.3188 28.985 32.3188H30.3184C30.672 32.3188 31.0111 32.1783 31.2612 31.9282C31.5112 31.6782 31.6517 31.3391 31.6517 30.9854C31.6517 30.6318 31.5112 30.2927 31.2612 30.0426C31.0111 29.7926 30.672 29.6521 30.3184 29.6521H28.985ZM47.1584 37.4654C47.0035 37.3401 46.8224 37.2511 46.6286 37.205C46.4348 37.1588 46.2331 37.1567 46.0384 37.1988C45.5328 37.3053 45.0105 37.3046 44.5052 37.1966C43.9999 37.0887 43.5229 36.8759 43.105 36.5721C42.8767 36.4052 42.6012 36.3153 42.3184 36.3153C42.0355 36.3153 41.76 36.4052 41.5317 36.5721C41.1134 36.8752 40.6364 37.0875 40.1312 37.1954C39.6261 37.3033 39.104 37.3045 38.5984 37.1988C38.4015 37.1564 38.1975 37.1592 38.0018 37.207C37.8062 37.2548 37.6239 37.3462 37.4686 37.4745C37.3134 37.6028 37.1892 37.7646 37.1055 37.9478C37.0217 38.131 36.9805 38.3307 36.985 38.5321V41.6521C36.983 42.6065 37.2037 43.5483 37.6296 44.4024C38.0555 45.2565 38.6748 45.9994 39.4384 46.5721L41.5184 48.0521C41.7492 48.2252 42.0299 48.3188 42.3184 48.3188C42.6069 48.3188 42.8876 48.2252 43.1184 48.0521L45.1984 46.5054C45.9529 45.9396 46.5668 45.2073 46.9923 44.3655C47.4178 43.5238 47.6435 42.5952 47.6517 41.6521V38.4921C47.6504 38.2952 47.6055 38.101 47.5202 37.9234C47.4349 37.7459 47.3113 37.5895 47.1584 37.4654ZM44.985 41.6521C44.9913 42.1877 44.8743 42.7176 44.6431 43.2008C44.4119 43.684 44.0727 44.1076 43.6517 44.4388L42.3184 45.3988L40.985 44.4388C40.564 44.1076 40.2248 43.684 39.9936 43.2008C39.7624 42.7176 39.6454 42.1877 39.6517 41.6521V39.9454C40.5841 39.9026 41.4952 39.6521 42.3184 39.2121C43.1415 39.6521 44.0526 39.9026 44.985 39.9454V41.6521ZM32.985 40.3854H28.985C28.6314 40.3854 28.2923 40.5259 28.0422 40.776C27.7922 41.026 27.6517 41.3651 27.6517 41.7188C27.6517 42.0724 27.7922 42.4115 28.0422 42.6616C28.2923 42.9116 28.6314 43.0521 28.985 43.0521H32.985C33.3386 43.0521 33.6778 42.9116 33.9278 42.6616C34.1779 42.4115 34.3184 42.0724 34.3184 41.7188C34.3184 41.3651 34.1779 41.026 33.9278 40.776C33.6778 40.5259 33.3386 40.3854 32.985 40.3854ZM34.3184 35.0521H28.985C28.6314 35.0521 28.2923 35.1926 28.0422 35.4426C27.7922 35.6927 27.6517 36.0318 27.6517 36.3854C27.6517 36.7391 27.7922 37.0782 28.0422 37.3282C28.2923 37.5783 28.6314 37.7188 28.985 37.7188H34.3184C34.672 37.7188 35.0111 37.5783 35.2612 37.3282C35.5112 37.0782 35.6517 36.7391 35.6517 36.3854C35.6517 36.0318 35.5112 35.6927 35.2612 35.4426C35.0111 35.1926 34.672 35.0521 34.3184 35.0521Z" fill="white"/>
<defs>
<linearGradient id="paint0_linear_2470_3385" x1="34.9854" y1="0" x2="34.9854" y2="69.9708" gradientUnits="userSpaceOnUse">
<stop stop-color="#003268"/>
<stop offset="1" stop-color="#5280CA"/>
</linearGradient>
</defs>
</svg>
