<svg width="70" height="70" viewBox="0 0 70 70" fill="none" xmlns="http://www.w3.org/2000/svg">
<path d="M0 13.3333C0 5.96953 5.96954 0 13.3333 0H56.6375C64.0013 0 69.9708 5.96954 69.9708 13.3333V56.6375C69.9708 64.0013 64.0013 69.9708 56.6375 69.9708H13.3333C5.96953 69.9708 0 64.0013 0 56.6375V13.3333Z" fill="url(#paint0_linear_2470_3375)"/>
<path d="M37.6523 29.6521H38.9857C39.3393 29.6521 39.6784 29.5116 39.9285 29.2616C40.1785 29.0115 40.319 28.6724 40.319 28.3188C40.319 27.9651 40.1785 27.626 39.9285 27.376C39.6784 27.1259 39.3393 26.9854 38.9857 26.9854H37.6523C37.2987 26.9854 36.9596 27.1259 36.7095 27.376C36.4595 27.626 36.319 27.9651 36.319 28.3188C36.319 28.6724 36.4595 29.0115 36.7095 29.2616C36.9596 29.5116 37.2987 29.6521 37.6523 29.6521ZM37.6523 34.9854H38.9857C39.3393 34.9854 39.6784 34.845 39.9285 34.5949C40.1785 34.3449 40.319 34.0057 40.319 33.6521C40.319 33.2985 40.1785 32.9593 39.9285 32.7093C39.6784 32.4592 39.3393 32.3188 38.9857 32.3188H37.6523C37.2987 32.3188 36.9596 32.4592 36.7095 32.7093C36.4595 32.9593 36.319 33.2985 36.319 33.6521C36.319 34.0057 36.4595 34.3449 36.7095 34.5949C36.9596 34.845 37.2987 34.9854 37.6523 34.9854ZM30.9857 29.6521H32.319C32.6726 29.6521 33.0118 29.5116 33.2618 29.2616C33.5119 29.0115 33.6523 28.6724 33.6523 28.3188C33.6523 27.9651 33.5119 27.626 33.2618 27.376C33.0118 27.1259 32.6726 26.9854 32.319 26.9854H30.9857C30.6321 26.9854 30.2929 27.1259 30.0429 27.376C29.7928 27.626 29.6523 27.9651 29.6523 28.3188C29.6523 28.6724 29.7928 29.0115 30.0429 29.2616C30.2929 29.5116 30.6321 29.6521 30.9857 29.6521ZM30.9857 34.9854H32.319C32.6726 34.9854 33.0118 34.845 33.2618 34.5949C33.5119 34.3449 33.6523 34.0057 33.6523 33.6521C33.6523 33.2985 33.5119 32.9593 33.2618 32.7093C33.0118 32.4592 32.6726 32.3188 32.319 32.3188H30.9857C30.6321 32.3188 30.2929 32.4592 30.0429 32.7093C29.7928 32.9593 29.6523 33.2985 29.6523 33.6521C29.6523 34.0057 29.7928 34.3449 30.0429 34.5949C30.2929 34.845 30.6321 34.9854 30.9857 34.9854ZM46.9857 45.6521H45.6523V22.9854C45.6523 22.6318 45.5119 22.2927 45.2618 22.0426C45.0118 21.7926 44.6726 21.6521 44.319 21.6521H25.6523C25.2987 21.6521 24.9596 21.7926 24.7095 22.0426C24.4595 22.2927 24.319 22.6318 24.319 22.9854V45.6521H22.9857C22.6321 45.6521 22.2929 45.7926 22.0429 46.0426C21.7928 46.2927 21.6523 46.6318 21.6523 46.9854C21.6523 47.3391 21.7928 47.6782 22.0429 47.9282C22.2929 48.1783 22.6321 48.3188 22.9857 48.3188H46.9857C47.3393 48.3188 47.6784 48.1783 47.9285 47.9282C48.1785 47.6782 48.319 47.3391 48.319 46.9854C48.319 46.6318 48.1785 46.2927 47.9285 46.0426C47.6784 45.7926 47.3393 45.6521 46.9857 45.6521ZM36.319 45.6521H33.6523V40.3188H36.319V45.6521ZM42.9857 45.6521H38.9857V38.9854C38.9857 38.6318 38.8452 38.2927 38.5952 38.0426C38.3451 37.7926 38.006 37.6521 37.6523 37.6521H32.319C31.9654 37.6521 31.6262 37.7926 31.3762 38.0426C31.1262 38.2927 30.9857 38.6318 30.9857 38.9854V45.6521H26.9857V24.3188H42.9857V45.6521Z" fill="white"/>
<defs>
<linearGradient id="paint0_linear_2470_3375" x1="34.9854" y1="0" x2="34.9854" y2="69.9708" gradientUnits="userSpaceOnUse">
<stop stop-color="#003268"/>
<stop offset="1" stop-color="#5280CA"/>
</linearGradient>
</defs>
</svg>
