<svg width="70" height="70" viewBox="0 0 70 70" fill="none" xmlns="http://www.w3.org/2000/svg">
<path d="M0 13.3333C0 5.96953 5.96954 0 13.3333 0H56.6375C64.0013 0 69.9708 5.96954 69.9708 13.3333V56.6375C69.9708 64.0013 64.0013 69.9708 56.6375 69.9708H13.3333C5.96953 69.9708 0 64.0013 0 56.6375V13.3333Z" fill="url(#paint0_linear_2470_3411)"/>
<path d="M45.1589 23.8521C45.004 23.7268 44.8229 23.6378 44.6291 23.5917C44.4353 23.5455 44.2336 23.5434 44.0389 23.5854C42.6141 23.884 41.1433 23.8878 39.717 23.5966C38.2908 23.3054 36.9392 22.7253 35.7455 21.8921C35.5223 21.7373 35.2572 21.6543 34.9855 21.6543C34.7139 21.6543 34.4487 21.7373 34.2255 21.8921C33.0319 22.7253 31.6803 23.3054 30.254 23.5966C28.8277 23.8878 27.3569 23.884 25.9322 23.5854C25.7374 23.5434 25.5357 23.5455 25.3419 23.5917C25.1481 23.6378 24.9671 23.7268 24.8122 23.8521C24.6575 23.9776 24.5329 24.1362 24.4475 24.3161C24.3621 24.4961 24.3182 24.6929 24.3189 24.8921V34.8254C24.3177 36.7371 24.7732 38.6214 25.6476 40.3214C26.5219 42.0214 27.7898 43.4879 29.3455 44.5988L34.2122 48.0654C34.438 48.2262 34.7083 48.3126 34.9855 48.3126C35.2627 48.3126 35.533 48.2262 35.7589 48.0654L40.6255 44.5988C42.1813 43.4879 43.4491 42.0214 44.3235 40.3214C45.1978 38.6214 45.6534 36.7371 45.6522 34.8254V24.8921C45.6529 24.6929 45.6089 24.4961 45.5235 24.3161C45.4382 24.1362 45.3135 23.9776 45.1589 23.8521ZM42.9855 34.8254C42.9865 36.3118 42.6326 37.7769 41.9531 39.0988C41.2735 40.4207 40.2881 41.5612 39.0789 42.4254L34.9855 45.3454L30.8922 42.4254C29.6829 41.5612 28.6975 40.4207 28.018 39.0988C27.3385 37.7769 26.9845 36.3118 26.9855 34.8254V26.4254C29.7808 26.6647 32.5802 26.0161 34.9855 24.5721C37.3908 26.0161 40.1903 26.6647 42.9855 26.4254V34.8254ZM37.0389 31.7721L33.4522 35.3721L32.2655 34.1721C32.0145 33.921 31.6739 33.78 31.3189 33.78C30.9638 33.78 30.6233 33.921 30.3722 34.1721C30.1211 34.4232 29.9801 34.7637 29.9801 35.1188C29.9801 35.4738 30.1211 35.8144 30.3722 36.0654L32.5055 38.1988C32.6295 38.3237 32.7769 38.4229 32.9394 38.4906C33.1019 38.5583 33.2762 38.5932 33.4522 38.5932C33.6282 38.5932 33.8025 38.5583 33.965 38.4906C34.1274 38.4229 34.2749 38.3237 34.3989 38.1988L38.9855 33.6521C39.2366 33.401 39.3776 33.0605 39.3776 32.7054C39.3776 32.3504 39.2366 32.0098 38.9855 31.7588C38.7345 31.5077 38.3939 31.3666 38.0389 31.3666C37.6838 31.3666 37.3433 31.5077 37.0922 31.7588L37.0389 31.7721Z" fill="white"/>
<defs>
<linearGradient id="paint0_linear_2470_3411" x1="34.9854" y1="0" x2="34.9854" y2="69.9708" gradientUnits="userSpaceOnUse">
<stop stop-color="#003268"/>
<stop offset="1" stop-color="#5280CA"/>
</linearGradient>
</defs>
</svg>
