<svg width="70" height="70" viewBox="0 0 70 70" fill="none" xmlns="http://www.w3.org/2000/svg">
<path d="M0 13.3333C0 5.96953 5.96954 0 13.3333 0H56.6375C64.0013 0 69.9708 5.96954 69.9708 13.3333V56.6375C69.9708 64.0013 64.0013 69.9708 56.6375 69.9708H13.3333C5.96953 69.9708 0 64.0013 0 56.6375V13.3333Z" fill="url(#paint0_linear_2470_3357)"/>
<path d="M45.6519 30.9054C45.6381 30.7829 45.6113 30.6622 45.5719 30.5454V30.4254C45.5093 30.2875 45.4236 30.1612 45.3186 30.0521L37.3186 22.0521C37.2095 21.9471 37.0832 21.8614 36.9453 21.7988C36.9055 21.7927 36.865 21.7927 36.8253 21.7988C36.6895 21.7217 36.5401 21.6719 36.3853 21.6521H28.3186C27.2577 21.6521 26.2403 22.0735 25.4902 22.8237C24.74 23.5738 24.3186 24.5912 24.3186 25.6521V44.3188C24.3186 45.3796 24.74 46.397 25.4902 47.1472C26.2403 47.8973 27.2577 48.3188 28.3186 48.3188H41.6519C42.7128 48.3188 43.7302 47.8973 44.4804 47.1472C45.2305 46.397 45.6519 45.3796 45.6519 44.3188V30.9054ZM37.6519 26.1988L41.1053 29.6521H38.9853C38.6316 29.6521 38.2925 29.5116 38.0425 29.2616C37.7924 29.0115 37.6519 28.6724 37.6519 28.3188V26.1988ZM42.9853 44.3188C42.9853 44.6724 42.8448 45.0115 42.5947 45.2616C42.3447 45.5116 42.0056 45.6521 41.6519 45.6521H28.3186C27.965 45.6521 27.6258 45.5116 27.3758 45.2616C27.1257 45.0115 26.9853 44.6724 26.9853 44.3188V25.6521C26.9853 25.2985 27.1257 24.9593 27.3758 24.7093C27.6258 24.4592 27.965 24.3188 28.3186 24.3188H34.9853V28.3188C34.9853 29.3796 35.4067 30.397 36.1568 31.1472C36.907 31.8973 37.9244 32.3188 38.9853 32.3188H42.9853V44.3188ZM38.0386 35.3721L33.6519 39.7721L31.9319 38.0388C31.6809 37.7877 31.3403 37.6466 30.9853 37.6466C30.6302 37.6466 30.2897 37.7877 30.0386 38.0388C29.7875 38.2898 29.6465 38.6304 29.6465 38.9854C29.6465 39.3405 29.7875 39.681 30.0386 39.9321L32.7053 42.5988C32.8292 42.7237 32.9767 42.8229 33.1392 42.8906C33.3016 42.9583 33.4759 42.9932 33.6519 42.9932C33.828 42.9932 34.0022 42.9583 34.1647 42.8906C34.3272 42.8229 34.4747 42.7237 34.5986 42.5988L39.9319 37.2654C40.183 37.0144 40.3241 36.6738 40.3241 36.3188C40.3241 35.9637 40.183 35.6232 39.9319 35.3721C39.6809 35.121 39.3403 34.98 38.9853 34.98C38.6302 34.98 38.2897 35.121 38.0386 35.3721Z" fill="white"/>
<defs>
<linearGradient id="paint0_linear_2470_3357" x1="34.9854" y1="0" x2="34.9854" y2="69.9708" gradientUnits="userSpaceOnUse">
<stop stop-color="#003268"/>
<stop offset="1" stop-color="#5280CA"/>
</linearGradient>
</defs>
</svg>
