<svg width="70" height="70" viewBox="0 0 70 70" fill="none" xmlns="http://www.w3.org/2000/svg">
<path d="M0 13.3333C0 5.96953 5.96954 0 13.3333 0H56.6375C64.0013 0 69.9708 5.96954 69.9708 13.3333V56.6375C69.9708 64.0013 64.0013 69.9708 56.6375 69.9708H13.3333C5.96953 69.9708 0 64.0013 0 56.6375V13.3333Z" fill="url(#paint0_linear_2470_3394)"/>
<path d="M46.9854 32.3186C47.1605 32.3186 47.3339 32.2842 47.4957 32.2172C47.6575 32.1502 47.8045 32.052 47.9283 31.9282C48.0522 31.8044 48.1504 31.6574 48.2174 31.4956C48.2844 31.3338 48.3188 31.1604 48.3188 30.9853V26.9853C48.3189 26.7055 48.2309 26.4328 48.0673 26.2059C47.9037 25.9789 47.6728 25.8093 47.4073 25.7209L35.4073 21.7209C35.1334 21.6298 34.8374 21.6298 34.5636 21.7209L22.5636 25.7209C22.2981 25.8093 22.0672 25.9789 21.9036 26.2059C21.74 26.4328 21.652 26.7055 21.6521 26.9853V30.9853C21.6521 31.1604 21.6865 31.3338 21.7535 31.4956C21.8205 31.6574 21.9187 31.8044 22.0425 31.9282C22.1663 32.052 22.3133 32.1502 22.4751 32.2172C22.6369 32.2842 22.8103 32.3186 22.9854 32.3186H24.3188V41.8976C23.5411 42.1716 22.8673 42.6795 22.3898 43.3517C21.9123 44.0239 21.6546 44.8274 21.6521 45.6519V48.3186C21.6521 48.4937 21.6865 48.6671 21.7535 48.8289C21.8205 48.9907 21.9187 49.1377 22.0425 49.2615C22.1663 49.3853 22.3133 49.4835 22.4751 49.5505C22.6369 49.6175 22.8103 49.652 22.9854 49.6519H46.9854C47.1605 49.652 47.3339 49.6175 47.4957 49.5505C47.6575 49.4835 47.8045 49.3853 47.9283 49.2615C48.0522 49.1377 48.1504 48.9907 48.2174 48.8289C48.2844 48.6671 48.3188 48.4937 48.3188 48.3186V45.6519C48.3162 44.8274 48.0585 44.0239 47.5811 43.3517C47.1036 42.6795 46.4298 42.1716 45.6521 41.8976V32.3186H46.9854ZM45.6521 46.9853H24.3188V45.6519C24.3191 45.2984 24.4597 44.9595 24.7097 44.7095C24.9597 44.4595 25.2986 44.319 25.6521 44.3186H44.3188C44.6723 44.319 45.0112 44.4595 45.2612 44.7095C45.5112 44.9595 45.6517 45.2984 45.6521 45.6519V46.9853ZM26.9854 41.6519V32.3186H29.6521V41.6519H26.9854ZM32.3188 41.6519V32.3186H37.6521V41.6519H32.3188ZM40.3188 41.6519V32.3186H42.9854V41.6519H40.3188ZM24.3188 29.6519V27.9462L34.9854 24.3902L45.6521 27.9462V29.6519H24.3188Z" fill="white"/>
<defs>
<linearGradient id="paint0_linear_2470_3394" x1="34.9854" y1="0" x2="34.9854" y2="69.9708" gradientUnits="userSpaceOnUse">
<stop stop-color="#003268"/>
<stop offset="1" stop-color="#5280CA"/>
</linearGradient>
</defs>
</svg>
