<svg width="70" height="70" viewBox="0 0 70 70" fill="none" xmlns="http://www.w3.org/2000/svg">
<path d="M0 13.3333C0 5.96953 5.96954 0 13.3333 0H56.6375C64.0013 0 69.9708 5.96954 69.9708 13.3333V56.6375C69.9708 64.0013 64.0013 69.9708 56.6375 69.9708H13.3333C5.96953 69.9708 0 64.0013 0 56.6375V13.3333Z" fill="url(#paint0_linear_2470_3402)"/>
<path d="M47.9323 28.7052C47.8083 28.5802 47.6608 28.481 47.4984 28.4133C47.3359 28.3456 47.1616 28.3108 46.9856 28.3108C46.8096 28.3108 46.6353 28.3456 46.4728 28.4133C46.3103 28.481 46.1629 28.5802 46.0389 28.7052L37.6523 37.1052L31.9323 31.3719C31.8083 31.2469 31.6608 31.1477 31.4984 31.08C31.3359 31.0123 31.1616 30.9775 30.9856 30.9775C30.8096 30.9775 30.6353 31.0123 30.4728 31.08C30.3103 31.1477 30.1629 31.2469 30.0389 31.3719L22.0389 39.3719C21.914 39.4958 21.8148 39.6433 21.7471 39.8058C21.6794 39.9682 21.6445 40.1425 21.6445 40.3185C21.6445 40.4945 21.6794 40.6688 21.7471 40.8313C21.8148 40.9938 21.914 41.1412 22.0389 41.2652C22.1629 41.3902 22.3103 41.4894 22.4728 41.557C22.6353 41.6247 22.8096 41.6596 22.9856 41.6596C23.1616 41.6596 23.3359 41.6247 23.4984 41.557C23.6608 41.4894 23.8083 41.3902 23.9323 41.2652L30.9856 34.1985L36.7056 39.9319C36.8295 40.0568 36.977 40.156 37.1395 40.2237C37.302 40.2914 37.4762 40.3263 37.6523 40.3263C37.8283 40.3263 38.0026 40.2914 38.165 40.2237C38.3275 40.156 38.475 40.0568 38.5989 39.9319L47.9323 30.5985C48.0572 30.4746 48.1564 30.3271 48.2241 30.1646C48.2918 30.0021 48.3267 29.8279 48.3267 29.6519C48.3267 29.4758 48.2918 29.3016 48.2241 29.1391C48.1564 28.9766 48.0572 28.8291 47.9323 28.7052Z" fill="white"/>
<defs>
<linearGradient id="paint0_linear_2470_3402" x1="34.9854" y1="0" x2="34.9854" y2="69.9708" gradientUnits="userSpaceOnUse">
<stop stop-color="#003268"/>
<stop offset="1" stop-color="#5280CA"/>
</linearGradient>
</defs>
</svg>
