<svg width="70" height="70" viewBox="0 0 70 70" fill="none" xmlns="http://www.w3.org/2000/svg">
<path d="M0 13.3333C0 5.96953 5.96954 0 13.3333 0H56.6375C64.0013 0 69.9708 5.96954 69.9708 13.3333V56.6375C69.9708 64.0013 64.0013 69.9708 56.6375 69.9708H13.3333C5.96953 69.9708 0 64.0013 0 56.6375V13.3333Z" fill="url(#paint0_linear_2470_3366)"/>
<path d="M41.6517 33.6519H42.985C43.3387 33.6519 43.6778 33.5115 43.9278 33.2614C44.1779 33.0114 44.3184 32.6722 44.3184 32.3186V30.9853C44.3184 30.6316 44.1779 30.2925 43.9278 30.0425C43.6778 29.7924 43.3387 29.6519 42.985 29.6519H41.6517C41.2981 29.6519 40.9589 29.7924 40.7089 30.0425C40.4588 30.2925 40.3184 30.6316 40.3184 30.9853V32.3186C40.3184 32.6722 40.4588 33.0114 40.7089 33.2614C40.9589 33.5115 41.2981 33.6519 41.6517 33.6519ZM26.985 34.9853H33.6517C34.0053 34.9853 34.3445 34.8448 34.5945 34.5947C34.8446 34.3447 34.985 34.0056 34.985 33.6519C34.985 33.2983 34.8446 32.9592 34.5945 32.7091C34.3445 32.4591 34.0053 32.3186 33.6517 32.3186H26.985C26.6314 32.3186 26.2923 32.4591 26.0422 32.7091C25.7922 32.9592 25.6517 33.2983 25.6517 33.6519C25.6517 34.0056 25.7922 34.3447 26.0422 34.5947C26.2923 34.8448 26.6314 34.9853 26.985 34.9853ZM48.3184 24.3186H21.6517C21.2981 24.3186 20.9589 24.4591 20.7089 24.7091C20.4588 24.9592 20.3184 25.2983 20.3184 25.6519V44.3186C20.3184 44.6722 20.4588 45.0114 20.7089 45.2614C20.9589 45.5115 21.2981 45.6519 21.6517 45.6519H48.3184C48.672 45.6519 49.0111 45.5115 49.2612 45.2614C49.5112 45.0114 49.6517 44.6722 49.6517 44.3186V25.6519C49.6517 25.2983 49.5112 24.9592 49.2612 24.7091C49.0111 24.4591 48.672 24.3186 48.3184 24.3186ZM46.985 42.9853H22.985V26.9853H46.985V42.9853ZM26.985 40.3186H33.6517C34.0053 40.3186 34.3445 40.1781 34.5945 39.9281C34.8446 39.678 34.985 39.3389 34.985 38.9853C34.985 38.6316 34.8446 38.2925 34.5945 38.0425C34.3445 37.7924 34.0053 37.6519 33.6517 37.6519H26.985C26.6314 37.6519 26.2923 37.7924 26.0422 38.0425C25.7922 38.2925 25.6517 38.6316 25.6517 38.9853C25.6517 39.3389 25.7922 39.678 26.0422 39.9281C26.2923 40.1781 26.6314 40.3186 26.985 40.3186Z" fill="white"/>
<defs>
<linearGradient id="paint0_linear_2470_3366" x1="34.9854" y1="0" x2="34.9854" y2="69.9708" gradientUnits="userSpaceOnUse">
<stop stop-color="#003268"/>
<stop offset="1" stop-color="#5280CA"/>
</linearGradient>
</defs>
</svg>
