<svg width="53" height="53" viewBox="0 0 53 53" fill="none" xmlns="http://www.w3.org/2000/svg">
<path d="M0 10C0 4.47715 4.47715 0 10 0H42.4781C48.001 0 52.4781 4.47715 52.4781 10V42.4781C52.4781 48.001 48.001 52.4781 42.4781 52.4781H10C4.47715 52.4781 0 48.001 0 42.4781V10Z" fill="url(#paint0_linear_877_6636)"/>
<path d="M20.239 25.239C20.0412 25.239 19.8479 25.2977 19.6834 25.4075C19.519 25.5174 19.3908 25.6736 19.3151 25.8563C19.2394 26.0391 19.2196 26.2401 19.2582 26.4341C19.2968 26.6281 19.3921 26.8063 19.5319 26.9461C19.6718 27.086 19.8499 27.1812 20.0439 27.2198C20.2379 27.2584 20.439 27.2386 20.6217 27.1629C20.8044 27.0872 20.9606 26.959 21.0705 26.7946C21.1804 26.6301 21.239 26.4368 21.239 26.239C21.239 25.9738 21.1337 25.7194 20.9461 25.5319C20.7586 25.3444 20.5042 25.239 20.239 25.239ZM32.239 25.239C32.0412 25.239 31.8479 25.2977 31.6834 25.4075C31.519 25.5174 31.3908 25.6736 31.3151 25.8563C31.2394 26.0391 31.2196 26.2401 31.2582 26.4341C31.2968 26.6281 31.3921 26.8063 31.5319 26.9461C31.6718 27.086 31.8499 27.1812 32.0439 27.2198C32.2379 27.2584 32.439 27.2386 32.6217 27.1629C32.8044 27.0872 32.9606 26.959 33.0705 26.7946C33.1804 26.6301 33.239 26.4368 33.239 26.239C33.239 25.9738 33.1337 25.7194 32.9461 25.5319C32.7586 25.3444 32.5042 25.239 32.239 25.239ZM34.239 19.239H18.239C17.4434 19.239 16.6803 19.5551 16.1177 20.1177C15.5551 20.6803 15.239 21.4434 15.239 22.239V30.239C15.239 31.0347 15.5551 31.7977 16.1177 32.3603C16.6803 32.9229 17.4434 33.239 18.239 33.239H34.239C35.0347 33.239 35.7977 32.9229 36.3603 32.3603C36.9229 31.7977 37.239 31.0347 37.239 30.239V22.239C37.239 21.4434 36.9229 20.6803 36.3603 20.1177C35.7977 19.5551 35.0347 19.239 34.239 19.239ZM35.239 30.239C35.239 30.5042 35.1337 30.7586 34.9461 30.9461C34.7586 31.1337 34.5042 31.239 34.239 31.239H18.239C17.9738 31.239 17.7194 31.1337 17.5319 30.9461C17.3444 30.7586 17.239 30.5042 17.239 30.239V22.239C17.239 21.9738 17.3444 21.7194 17.5319 21.5319C17.7194 21.3444 17.9738 21.239 18.239 21.239H34.239C34.5042 21.239 34.7586 21.3444 34.9461 21.5319C35.1337 21.7194 35.239 21.9738 35.239 22.239V30.239ZM26.239 23.239C25.6457 23.239 25.0656 23.415 24.5723 23.7446C24.079 24.0742 23.6944 24.5428 23.4674 25.091C23.2403 25.6391 23.1809 26.2423 23.2967 26.8243C23.4124 27.4062 23.6981 27.9408 24.1177 28.3603C24.5373 28.7799 25.0718 29.0656 25.6537 29.1814C26.2357 29.2971 26.8389 29.2377 27.3871 29.0107C27.9352 28.7836 28.4038 28.3991 28.7334 27.9057C29.0631 27.4124 29.239 26.8324 29.239 26.239C29.239 25.4434 28.9229 24.6803 28.3603 24.1177C27.7977 23.5551 27.0347 23.239 26.239 23.239ZM26.239 27.239C26.0412 27.239 25.8479 27.1804 25.6834 27.0705C25.519 26.9606 25.3908 26.8044 25.3151 26.6217C25.2394 26.439 25.2196 26.2379 25.2582 26.0439C25.2968 25.8499 25.3921 25.6718 25.5319 25.5319C25.6718 25.3921 25.8499 25.2968 26.0439 25.2582C26.2379 25.2196 26.439 25.2394 26.6217 25.3151C26.8044 25.3908 26.9606 25.519 27.0705 25.6834C27.1804 25.8479 27.239 26.0412 27.239 26.239C27.239 26.5042 27.1337 26.7586 26.9461 26.9461C26.7586 27.1337 26.5042 27.239 26.239 27.239Z" fill="white"/>
<defs>
<linearGradient id="paint0_linear_877_6636" x1="26.2391" y1="0" x2="26.2391" y2="52.4781" gradientUnits="userSpaceOnUse">
<stop stop-color="#003268"/>
<stop offset="1" stop-color="#5280CA"/>
</linearGradient>
</defs>
</svg>
