<svg width="53" height="53" viewBox="0 0 53 53" fill="none" xmlns="http://www.w3.org/2000/svg">
<path d="M0 10C0 4.47715 4.47715 0 10 0H42.4781C48.001 0 52.4781 4.47715 52.4781 10V42.4781C52.4781 48.001 48.001 52.4781 42.4781 52.4781H10C4.47715 52.4781 0 48.001 0 42.4781V10Z" fill="url(#paint0_linear_877_6609)"/>
<path d="M35.2391 16.239H29.2391C28.9739 16.239 28.7195 16.3444 28.532 16.5319C28.3444 16.7194 28.2391 16.9738 28.2391 17.239C28.2391 17.5042 28.3444 17.7586 28.532 17.9461C28.7195 18.1337 28.9739 18.239 29.2391 18.239H34.2391V23.239C34.2391 23.5042 34.3444 23.7586 34.532 23.9461C34.7195 24.1337 34.9739 24.239 35.2391 24.239C35.5043 24.239 35.7586 24.1337 35.9462 23.9461C36.1337 23.7586 36.2391 23.5042 36.2391 23.239V17.239C36.2391 16.9738 36.1337 16.7194 35.9462 16.5319C35.7586 16.3444 35.5043 16.239 35.2391 16.239ZM35.2391 28.239C34.9739 28.239 34.7195 28.3444 34.532 28.5319C34.3444 28.7194 34.2391 28.9738 34.2391 29.239V34.239H29.2391C28.9739 34.239 28.7195 34.3444 28.532 34.5319C28.3444 34.7194 28.2391 34.9738 28.2391 35.239C28.2391 35.5042 28.3444 35.7586 28.532 35.9461C28.7195 36.1337 28.9739 36.239 29.2391 36.239H35.2391C35.5043 36.239 35.7586 36.1337 35.9462 35.9461C36.1337 35.7586 36.2391 35.5042 36.2391 35.239V29.239C36.2391 28.9738 36.1337 28.7194 35.9462 28.5319C35.7586 28.3444 35.5043 28.239 35.2391 28.239ZM26.2391 20.239C25.4434 20.239 24.6804 20.5551 24.1178 21.1177C23.5551 21.6803 23.2391 22.4434 23.2391 23.239V24.239C22.7086 24.239 22.1999 24.4497 21.8249 24.8248C21.4498 25.1999 21.2391 25.7086 21.2391 26.239V30.239C21.2391 30.7694 21.4498 31.2782 21.8249 31.6532C22.1999 32.0283 22.7086 32.239 23.2391 32.239H29.2391C29.7695 32.239 30.2782 32.0283 30.6533 31.6532C31.0284 31.2782 31.2391 30.7694 31.2391 30.239V26.239C31.2391 25.7086 31.0284 25.1999 30.6533 24.8248C30.2782 24.4497 29.7695 24.239 29.2391 24.239V23.239C29.2391 22.4434 28.923 21.6803 28.3604 21.1177C27.7978 20.5551 27.0347 20.239 26.2391 20.239ZM25.2391 23.239C25.2391 22.9738 25.3444 22.7194 25.532 22.5319C25.7195 22.3444 25.9739 22.239 26.2391 22.239C26.5043 22.239 26.7586 22.3444 26.9462 22.5319C27.1337 22.7194 27.2391 22.9738 27.2391 23.239V24.239H25.2391V23.239ZM29.2391 30.239H23.2391V26.239H29.2391V30.239ZM17.2391 24.239C17.5043 24.239 17.7586 24.1337 17.9462 23.9461C18.1337 23.7586 18.2391 23.5042 18.2391 23.239V18.239H23.2391C23.5043 18.239 23.7586 18.1337 23.9462 17.9461C24.1337 17.7586 24.2391 17.5042 24.2391 17.239C24.2391 16.9738 24.1337 16.7194 23.9462 16.5319C23.7586 16.3444 23.5043 16.239 23.2391 16.239H17.2391C16.9739 16.239 16.7195 16.3444 16.532 16.5319C16.3444 16.7194 16.2391 16.9738 16.2391 17.239V23.239C16.2391 23.5042 16.3444 23.7586 16.532 23.9461C16.7195 24.1337 16.9739 24.239 17.2391 24.239ZM23.2391 34.239H18.2391V29.239C18.2391 28.9738 18.1337 28.7194 17.9462 28.5319C17.7586 28.3444 17.5043 28.239 17.2391 28.239C16.9739 28.239 16.7195 28.3444 16.532 28.5319C16.3444 28.7194 16.2391 28.9738 16.2391 29.239V35.239C16.2391 35.5042 16.3444 35.7586 16.532 35.9461C16.7195 36.1337 16.9739 36.239 17.2391 36.239H23.2391C23.5043 36.239 23.7586 36.1337 23.9462 35.9461C24.1337 35.7586 24.2391 35.5042 24.2391 35.239C24.2391 34.9738 24.1337 34.7194 23.9462 34.5319C23.7586 34.3444 23.5043 34.239 23.2391 34.239Z" fill="white"/>
<defs>
<linearGradient id="paint0_linear_877_6609" x1="26.2391" y1="0" x2="26.2391" y2="52.4781" gradientUnits="userSpaceOnUse">
<stop stop-color="#003268"/>
<stop offset="1" stop-color="#5280CA"/>
</linearGradient>
</defs>
</svg>
