<svg width="53" height="53" viewBox="0 0 53 53" fill="none" xmlns="http://www.w3.org/2000/svg">
<path d="M0 10C0 4.47715 4.47715 0 10 0H42.4781C48.001 0 52.4781 4.47715 52.4781 10V42.4781C52.4781 48.001 48.001 52.4781 42.4781 52.4781H10C4.47715 52.4781 0 48.001 0 42.4781V10Z" fill="url(#paint0_linear_877_6591)"/>
<path d="M33.8691 17.889C33.7529 17.795 33.6171 17.7282 33.4718 17.6936C33.3264 17.659 33.1751 17.6574 33.0291 17.689C31.9605 17.9129 30.8574 17.9158 29.7877 17.6973C28.718 17.4789 27.7043 17.0439 26.8091 16.419C26.6417 16.3028 26.4428 16.2406 26.2391 16.2406C26.0353 16.2406 25.8365 16.3028 25.6691 16.419C24.7738 17.0439 23.7602 17.4789 22.6904 17.6973C21.6207 17.9158 20.5176 17.9129 19.4491 17.689C19.303 17.6574 19.1517 17.659 19.0064 17.6936C18.861 17.7282 18.7253 17.795 18.6091 17.889C18.4931 17.9831 18.3996 18.102 18.3356 18.237C18.2715 18.372 18.2386 18.5196 18.2391 18.669V26.119C18.2382 27.5527 18.5799 28.9659 19.2356 30.2409C19.8914 31.5159 20.8423 32.6158 22.0091 33.449L25.6591 36.049C25.8284 36.1695 26.0312 36.2343 26.2391 36.2343C26.447 36.2343 26.6497 36.1695 26.8191 36.049L30.4691 33.449C31.6359 32.6158 32.5868 31.5159 33.2425 30.2409C33.8983 28.9659 34.24 27.5527 34.2391 26.119V18.669C34.2396 18.5196 34.2066 18.372 34.1426 18.237C34.0786 18.102 33.9851 17.9831 33.8691 17.889ZM32.2391 26.119C32.2398 27.2337 31.9744 28.3325 31.4647 29.324C30.9551 30.3154 30.216 31.1708 29.3091 31.819L26.2391 34.009L23.1691 31.819C22.2621 31.1708 21.5231 30.3154 21.0134 29.324C20.5038 28.3325 20.2383 27.2337 20.2391 26.119V19.819C22.3355 19.9984 24.4351 19.512 26.2391 18.429C28.043 19.512 30.1427 19.9984 32.2391 19.819V26.119ZM27.7791 23.829L25.0891 26.529L24.1991 25.629C24.0108 25.4407 23.7554 25.3349 23.4891 25.3349C23.2228 25.3349 22.9674 25.4407 22.7791 25.629C22.5908 25.8173 22.485 26.0727 22.485 26.339C22.485 26.6053 22.5908 26.8607 22.7791 27.049L24.3791 28.649C24.472 28.7427 24.5826 28.8171 24.7045 28.8678C24.8264 28.9186 24.9571 28.9448 25.0891 28.9448C25.2211 28.9448 25.3518 28.9186 25.4737 28.8678C25.5955 28.8171 25.7061 28.7427 25.7991 28.649L29.2391 25.239C29.4274 25.0507 29.5332 24.7953 29.5332 24.529C29.5332 24.2627 29.4274 24.0073 29.2391 23.819C29.0508 23.6307 28.7954 23.5249 28.5291 23.5249C28.2628 23.5249 28.0074 23.6307 27.8191 23.819L27.7791 23.829Z" fill="white"/>
<defs>
<linearGradient id="paint0_linear_877_6591" x1="26.2391" y1="0" x2="26.2391" y2="52.4781" gradientUnits="userSpaceOnUse">
<stop stop-color="#003268"/>
<stop offset="1" stop-color="#5280CA"/>
</linearGradient>
</defs>
</svg>
