<svg width="53" height="53" viewBox="0 0 53 53" fill="none" xmlns="http://www.w3.org/2000/svg">
<path d="M0 10C0 4.47715 4.47715 0 10 0H42.4781C48.001 0 52.4781 4.47715 52.4781 10V42.4781C52.4781 48.001 48.001 52.4781 42.4781 52.4781H10C4.47715 52.4781 0 48.001 0 42.4781V10Z" fill="url(#paint0_linear_877_6582)"/>
<path d="M34.2391 23.179C34.2287 23.0871 34.2086 22.9966 34.1791 22.909V22.819C34.1321 22.7156 34.0679 22.6209 33.9891 22.539L27.9891 16.539C27.9072 16.4602 27.8125 16.396 27.7091 16.349C27.6792 16.3445 27.6489 16.3445 27.6191 16.349C27.5173 16.2912 27.4052 16.2539 27.2891 16.239H21.2391C20.4434 16.239 19.6804 16.5551 19.1178 17.1177C18.5551 17.6803 18.2391 18.4434 18.2391 19.239V33.239C18.2391 34.0347 18.5551 34.7977 19.1178 35.3603C19.6804 35.9229 20.4434 36.239 21.2391 36.239H31.2391C32.0347 36.239 32.7978 35.9229 33.3604 35.3603C33.923 34.7977 34.2391 34.0347 34.2391 33.239V23.179ZM28.2391 19.649L30.8291 22.239H29.2391C28.9739 22.239 28.7195 22.1337 28.532 21.9461C28.3444 21.7586 28.2391 21.5042 28.2391 21.239V19.649ZM32.2391 33.239C32.2391 33.5042 32.1337 33.7586 31.9462 33.9461C31.7586 34.1337 31.5043 34.239 31.2391 34.239H21.2391C20.9739 34.239 20.7195 34.1337 20.532 33.9461C20.3444 33.7586 20.2391 33.5042 20.2391 33.239V19.239C20.2391 18.9738 20.3444 18.7194 20.532 18.5319C20.7195 18.3444 20.9739 18.239 21.2391 18.239H26.2391V21.239C26.2391 22.0347 26.5551 22.7977 27.1178 23.3603C27.6804 23.9229 28.4434 24.239 29.2391 24.239H32.2391V33.239ZM28.5291 26.529L25.2391 29.829L23.9491 28.529C23.7608 28.3407 23.5054 28.2349 23.2391 28.2349C22.9728 28.2349 22.7174 28.3407 22.5291 28.529C22.3408 28.7173 22.235 28.9727 22.235 29.239C22.235 29.5053 22.3408 29.7607 22.5291 29.949L24.5291 31.949C24.622 32.0427 24.7326 32.1171 24.8545 32.1679C24.9764 32.2187 25.1071 32.2448 25.2391 32.2448C25.3711 32.2448 25.5018 32.2187 25.6237 32.1679C25.7455 32.1171 25.8561 32.0427 25.9491 31.949L29.9491 27.949C30.1374 27.7607 30.2432 27.5053 30.2432 27.239C30.2432 26.9727 30.1374 26.7173 29.9491 26.529C29.7608 26.3407 29.5054 26.2349 29.2391 26.2349C28.9728 26.2349 28.7174 26.3407 28.5291 26.529Z" fill="white"/>
<defs>
<linearGradient id="paint0_linear_877_6582" x1="26.2391" y1="0" x2="26.2391" y2="52.4781" gradientUnits="userSpaceOnUse">
<stop stop-color="#003268"/>
<stop offset="1" stop-color="#5280CA"/>
</linearGradient>
</defs>
</svg>
