<svg width="26" height="26" viewBox="0 0 26 26" fill="none" xmlns="http://www.w3.org/2000/svg">
<path d="M23.8334 11.8516C23.8221 11.7521 23.8003 11.654 23.7684 11.5591V11.4616C23.7163 11.3502 23.6468 11.2478 23.5625 11.1583L17.0625 4.65825C16.973 4.57399 16.8706 4.50451 16.7592 4.45242H16.6509C16.5455 4.39609 16.4323 4.35592 16.315 4.33325H5.41669C4.55473 4.33325 3.72808 4.67566 3.11859 5.28516C2.5091 5.89465 2.16669 6.7213 2.16669 7.58325V18.4166C2.16669 19.2785 2.5091 20.1052 3.11859 20.7147C3.72808 21.3242 4.55473 21.6666 5.41669 21.6666H20.5834C21.4453 21.6666 22.272 21.3242 22.8815 20.7147C23.4909 20.1052 23.8334 19.2785 23.8334 18.4166V11.9166C23.8334 11.9166 23.8334 11.9166 23.8334 11.8516ZM17.3334 8.02742L20.1392 10.8333H18.4167C18.1294 10.8333 17.8538 10.7191 17.6507 10.516C17.4475 10.3128 17.3334 10.0372 17.3334 9.74992V8.02742ZM21.6667 18.4166C21.6667 18.7039 21.5526 18.9795 21.3494 19.1826C21.1462 19.3858 20.8707 19.4999 20.5834 19.4999H5.41669C5.12937 19.4999 4.85382 19.3858 4.65066 19.1826C4.44749 18.9795 4.33335 18.7039 4.33335 18.4166V7.58325C4.33335 7.29593 4.44749 7.02038 4.65066 6.81722C4.85382 6.61406 5.12937 6.49992 5.41669 6.49992H15.1667V9.74992C15.1667 10.6119 15.5091 11.4385 16.1186 12.048C16.7281 12.6575 17.5547 12.9999 18.4167 12.9999H21.6667V18.4166ZM7.58335 12.9999H11.9167C12.204 12.9999 12.4796 12.8858 12.6827 12.6826C12.8859 12.4795 13 12.2039 13 11.9166C13 11.6293 12.8859 11.3537 12.6827 11.1506C12.4796 10.9474 12.204 10.8333 11.9167 10.8333H7.58335C7.29604 10.8333 7.02049 10.9474 6.81732 11.1506C6.61416 11.3537 6.50002 11.6293 6.50002 11.9166C6.50002 12.2039 6.61416 12.4795 6.81732 12.6826C7.02049 12.8858 7.29604 12.9999 7.58335 12.9999ZM7.58335 15.1666C7.29604 15.1666 7.02049 15.2807 6.81732 15.4839C6.61416 15.6871 6.50002 15.9626 6.50002 16.2499C6.50002 16.5372 6.61416 16.8128 6.81732 17.016C7.02049 17.2191 7.29604 17.3333 7.58335 17.3333H18.4167C18.704 17.3333 18.9796 17.2191 19.1827 17.016C19.3859 16.8128 19.5 16.5372 19.5 16.2499C19.5 15.9626 19.3859 15.6871 19.1827 15.4839C18.9796 15.2807 18.704 15.1666 18.4167 15.1666H7.58335Z" fill="white"/>
</svg>
