<svg width="26" height="26" viewBox="0 0 26 26" fill="none" xmlns="http://www.w3.org/2000/svg">
<path d="M22.4358 18.1026L19.8142 15.4809C19.7135 15.3794 19.5936 15.2988 19.4616 15.2438C19.3296 15.1888 19.188 15.1605 19.045 15.1605C18.902 15.1605 18.7604 15.1888 18.6284 15.2438C18.4964 15.2988 18.3765 15.3794 18.2758 15.4809L14.3975 19.3592C14.2971 19.4605 14.2177 19.5805 14.1637 19.7125C14.1098 19.8445 14.0825 19.9858 14.0833 20.1284V22.7501C14.0833 23.0374 14.1975 23.313 14.4006 23.5161C14.6038 23.7193 14.8793 23.8334 15.1667 23.8334H17.7883C17.9309 23.8342 18.0722 23.8069 18.2042 23.753C18.3362 23.6991 18.4563 23.6197 18.5575 23.5192L22.4358 19.6409C22.5374 19.5402 22.618 19.4204 22.673 19.2884C22.728 19.1564 22.7563 19.0148 22.7563 18.8717C22.7563 18.7287 22.728 18.5871 22.673 18.4551C22.618 18.3231 22.5374 18.2033 22.4358 18.1026ZM17.3333 21.6667H16.25V20.5834L19.045 17.7884L20.1283 18.8717L17.3333 21.6667ZM10.8333 21.6667H6.5C6.21268 21.6667 5.93713 21.5526 5.73397 21.3494C5.5308 21.1463 5.41667 20.8707 5.41667 20.5834V5.41675C5.41667 5.12943 5.5308 4.85388 5.73397 4.65072C5.93713 4.44755 6.21268 4.33341 6.5 4.33341H11.9167V7.58342C11.9167 8.44537 12.2591 9.27202 12.8686 9.88151C13.4781 10.491 14.3047 10.8334 15.1667 10.8334H18.4167V11.9167C18.4167 12.2041 18.5308 12.4796 18.734 12.6828C18.9371 12.8859 19.2127 13.0001 19.5 13.0001C19.7873 13.0001 20.0629 12.8859 20.266 12.6828C20.4692 12.4796 20.5833 12.2041 20.5833 11.9167V9.75008C20.5833 9.75008 20.5833 9.75008 20.5833 9.68508C20.5721 9.58556 20.5503 9.48751 20.5183 9.39258V9.29508C20.4662 9.18369 20.3968 9.0813 20.3125 8.99175L13.8125 2.49175C13.7229 2.40748 13.6206 2.338 13.5092 2.28591C13.4768 2.28132 13.444 2.28132 13.4117 2.28591L13.065 2.16675H6.5C5.63805 2.16675 4.8114 2.50916 4.2019 3.11865C3.59241 3.72814 3.25 4.55479 3.25 5.41675V20.5834C3.25 21.4454 3.59241 22.272 4.2019 22.8815C4.8114 23.491 5.63805 23.8334 6.5 23.8334H10.8333C11.1207 23.8334 11.3962 23.7193 11.5994 23.5161C11.8025 23.313 11.9167 23.0374 11.9167 22.7501C11.9167 22.4628 11.8025 22.1872 11.5994 21.984C11.3962 21.7809 11.1207 21.6667 10.8333 21.6667ZM14.0833 5.86091L16.8892 8.66675H15.1667C14.8793 8.66675 14.6038 8.55261 14.4006 8.34945C14.1975 8.14628 14.0833 7.87073 14.0833 7.58342V5.86091ZM8.66667 15.1667H15.1667C15.454 15.1667 15.7295 15.0526 15.9327 14.8494C16.1359 14.6463 16.25 14.3707 16.25 14.0834C16.25 13.7961 16.1359 13.5205 15.9327 13.3174C15.7295 13.1142 15.454 13.0001 15.1667 13.0001H8.66667C8.37935 13.0001 8.1038 13.1142 7.90063 13.3174C7.69747 13.5205 7.58333 13.7961 7.58333 14.0834C7.58333 14.3707 7.69747 14.6463 7.90063 14.8494C8.1038 15.0526 8.37935 15.1667 8.66667 15.1667ZM8.66667 10.8334H9.75C10.0373 10.8334 10.3129 10.7193 10.516 10.5161C10.7192 10.3129 10.8333 10.0374 10.8333 9.75008C10.8333 9.46276 10.7192 9.18721 10.516 8.98405C10.3129 8.78089 10.0373 8.66675 9.75 8.66675H8.66667C8.37935 8.66675 8.1038 8.78089 7.90063 8.98405C7.69747 9.18721 7.58333 9.46276 7.58333 9.75008C7.58333 10.0374 7.69747 10.3129 7.90063 10.5161C8.1038 10.7193 8.37935 10.8334 8.66667 10.8334ZM10.8333 17.3334H8.66667C8.37935 17.3334 8.1038 17.4476 7.90063 17.6507C7.69747 17.8539 7.58333 18.1294 7.58333 18.4167C7.58333 18.7041 7.69747 18.9796 7.90063 19.1828C8.1038 19.3859 8.37935 19.5001 8.66667 19.5001H10.8333C11.1207 19.5001 11.3962 19.3859 11.5994 19.1828C11.8025 18.9796 11.9167 18.7041 11.9167 18.4167C11.9167 18.1294 11.8025 17.8539 11.5994 17.6507C11.3962 17.4476 11.1207 17.3334 10.8333 17.3334Z" fill="white"/>
</svg>
