<svg width="26" height="26" viewBox="0 0 26 26" fill="none" xmlns="http://www.w3.org/2000/svg">
<path d="M23.0863 10.1675C23.2286 10.1675 23.3695 10.1395 23.501 10.0851C23.6325 10.0306 23.7519 9.95082 23.8526 9.8502C23.9532 9.74958 24.033 9.63012 24.0874 9.49865C24.1419 9.36718 24.1699 9.22627 24.1698 9.08397V5.83347C24.1699 5.60612 24.0984 5.38452 23.9655 5.2001C23.8325 5.01568 23.6449 4.87781 23.4291 4.80605L13.6776 1.55555C13.4551 1.48148 13.2145 1.48148 12.992 1.55555L3.24049 4.80605C3.02477 4.87781 2.83712 5.01568 2.70417 5.2001C2.57122 5.38452 2.49972 5.60612 2.49982 5.83347V9.08397C2.49978 9.22627 2.52778 9.36718 2.58222 9.49865C2.63666 9.63012 2.71646 9.74958 2.81708 9.8502C2.9177 9.95082 3.03716 10.0306 3.16864 10.0851C3.30011 10.1395 3.44102 10.1675 3.58332 10.1675H4.66682V17.9516C4.03485 18.1742 3.48728 18.587 3.09928 19.1332C2.71128 19.6795 2.50188 20.3324 2.49982 21.0025V23.1695C2.49978 23.3118 2.52778 23.4527 2.58222 23.5841C2.63666 23.7156 2.71646 23.8351 2.81708 23.9357C2.9177 24.0363 3.03716 24.1161 3.16864 24.1706C3.30011 24.225 3.44102 24.253 3.58332 24.253H23.0863C23.2286 24.253 23.3695 24.225 23.501 24.1706C23.6325 24.1161 23.7519 24.0363 23.8526 23.9357C23.9532 23.8351 24.033 23.7156 24.0874 23.5841C24.1419 23.4527 24.1699 23.3118 24.1698 23.1695V21.0025C24.1678 20.3324 23.9584 19.6795 23.5704 19.1332C23.1824 18.587 22.6348 18.1742 22.0028 17.9516V10.1675H23.0863ZM22.0028 22.086H4.66682V21.0025C4.6671 20.7152 4.78135 20.4398 4.98448 20.2366C5.18762 20.0335 5.46304 19.9193 5.75032 19.919H20.9193C21.2066 19.9193 21.482 20.0335 21.6852 20.2366C21.8883 20.4398 22.0025 20.7152 22.0028 21.0025V22.086ZM6.83382 17.752V10.1675H9.00082V17.752H6.83382ZM11.1678 17.752V10.1675H15.5018V17.752H11.1678ZM17.6688 17.752V10.1675H19.8358V17.752H17.6688ZM4.66682 8.00047V6.61435L13.3348 3.72465L22.0028 6.61435V8.00047H4.66682Z" fill="white"/>
</svg>
