<svg width="26" height="26" viewBox="0 0 26 26" fill="none" xmlns="http://www.w3.org/2000/svg">
<path d="M18.4167 11.9166H19.5C19.7873 11.9166 20.0629 11.8024 20.266 11.5993C20.4692 11.3961 20.5833 11.1206 20.5833 10.8333V9.74992C20.5833 9.4626 20.4692 9.18705 20.266 8.98389C20.0629 8.78072 19.7873 8.66659 19.5 8.66659H18.4167C18.1293 8.66659 17.8538 8.78072 17.6506 8.98389C17.4475 9.18705 17.3333 9.4626 17.3333 9.74992V10.8333C17.3333 11.1206 17.4475 11.3961 17.6506 11.5993C17.8538 11.8024 18.1293 11.9166 18.4167 11.9166ZM6.5 12.9999H11.9167C12.204 12.9999 12.4795 12.8858 12.6827 12.6826C12.8859 12.4795 13 12.2039 13 11.9166C13 11.6293 12.8859 11.3537 12.6827 11.1506C12.4795 10.9474 12.204 10.8333 11.9167 10.8333H6.5C6.21268 10.8333 5.93713 10.9474 5.73396 11.1506C5.5308 11.3537 5.41666 11.6293 5.41666 11.9166C5.41666 12.2039 5.5308 12.4795 5.73396 12.6826C5.93713 12.8858 6.21268 12.9999 6.5 12.9999ZM23.8333 4.33325H2.16666C1.87934 4.33325 1.60379 4.44739 1.40063 4.65055C1.19746 4.85372 1.08333 5.12927 1.08333 5.41659V20.5833C1.08333 20.8706 1.19746 21.1461 1.40063 21.3493C1.60379 21.5525 1.87934 21.6666 2.16666 21.6666H23.8333C24.1206 21.6666 24.3962 21.5525 24.5994 21.3493C24.8025 21.1461 24.9167 20.8706 24.9167 20.5833V5.41659C24.9167 5.12927 24.8025 4.85372 24.5994 4.65055C24.3962 4.44739 24.1206 4.33325 23.8333 4.33325ZM22.75 19.4999H3.24999V6.49992H22.75V19.4999ZM6.5 17.3333H11.9167C12.204 17.3333 12.4795 17.2191 12.6827 17.016C12.8859 16.8128 13 16.5372 13 16.2499C13 15.9626 12.8859 15.6871 12.6827 15.4839C12.4795 15.2807 12.204 15.1666 11.9167 15.1666H6.5C6.21268 15.1666 5.93713 15.2807 5.73396 15.4839C5.5308 15.6871 5.41666 15.9626 5.41666 16.2499C5.41666 16.5372 5.5308 16.8128 5.73396 17.016C5.93713 17.2191 6.21268 17.3333 6.5 17.3333Z" fill="white"/>
</svg>
