<svg width="53" height="53" viewBox="0 0 53 53" fill="none" xmlns="http://www.w3.org/2000/svg">
<path d="M0 10C0 4.47715 4.47715 0 10 0H42.4781C48.001 0 52.4781 4.47715 52.4781 10V42.4781C52.4781 48.001 48.001 52.4781 42.4781 52.4781H10C4.47715 52.4781 0 48.001 0 42.4781V10Z" fill="url(#paint0_linear_872_4033)"/>
<path d="M34.149 29.749H29.619C29.3538 29.749 29.0994 29.8544 28.9119 30.0419C28.7244 30.2294 28.619 30.4838 28.619 30.749C28.619 31.0142 28.7244 31.2686 28.9119 31.4561C29.0994 31.6437 29.3538 31.749 29.619 31.749H32.019C30.916 32.9017 29.4934 33.6983 27.9342 34.0364C26.3749 34.3745 24.7502 34.2386 23.2688 33.6463C21.7874 33.0539 20.5169 32.0321 19.6206 30.7122C18.7243 29.3923 18.2432 27.8345 18.239 26.239C18.239 25.9738 18.1337 25.7194 17.9461 25.5319C17.7586 25.3444 17.5042 25.239 17.239 25.239C16.9738 25.239 16.7194 25.3444 16.5319 25.5319C16.3444 25.7194 16.239 25.9738 16.239 26.239C16.2443 28.1918 16.8212 30.1003 17.8986 31.729C18.976 33.3578 20.5067 34.6354 22.3018 35.4042C24.0968 36.1731 26.0777 36.3996 28 36.0557C29.9223 35.7118 31.7018 34.8126 33.119 33.469V35.239C33.119 35.5042 33.2244 35.7586 33.4119 35.9461C33.5994 36.1337 33.8538 36.239 34.119 36.239C34.3842 36.239 34.6386 36.1337 34.8261 35.9461C35.0137 35.7586 35.119 35.5042 35.119 35.239V30.739C35.1165 30.4806 35.0142 30.2333 34.8333 30.0487C34.6525 29.8642 34.4073 29.7568 34.149 29.749ZM26.239 16.239C23.6754 16.2463 21.2125 17.2379 19.359 19.009V17.239C19.359 16.9738 19.2537 16.7194 19.0661 16.5319C18.8786 16.3444 18.6242 16.239 18.359 16.239C18.0938 16.239 17.8394 16.3444 17.6519 16.5319C17.4644 16.7194 17.359 16.9738 17.359 17.239V21.739C17.359 22.0042 17.4644 22.2586 17.6519 22.4461C17.8394 22.6337 18.0938 22.739 18.359 22.739H22.859C23.1242 22.739 23.3786 22.6337 23.5661 22.4461C23.7537 22.2586 23.859 22.0042 23.859 21.739C23.859 21.4738 23.7537 21.2194 23.5661 21.0319C23.3786 20.8444 23.1242 20.739 22.859 20.739H20.459C21.5615 19.5869 22.9831 18.7905 24.5414 18.4521C26.0997 18.1137 27.7236 18.2488 29.2046 18.8399C30.6856 19.431 31.9562 20.4512 32.8532 21.7696C33.7503 23.088 34.2329 24.6444 34.239 26.239C34.239 26.5042 34.3444 26.7586 34.5319 26.9461C34.7194 27.1337 34.9738 27.239 35.239 27.239C35.5042 27.239 35.7586 27.1337 35.9461 26.9461C36.1337 26.7586 36.239 26.5042 36.239 26.239C36.239 24.9258 35.9804 23.6254 35.4778 22.4122C34.9753 21.1989 34.2387 20.0965 33.3101 19.1679C32.3815 18.2394 31.2791 17.5028 30.0658 17.0002C28.8526 16.4977 27.5522 16.239 26.239 16.239Z" fill="white"/>
<defs>
<linearGradient id="paint0_linear_872_4033" x1="26.2391" y1="0" x2="26.2391" y2="52.4781" gradientUnits="userSpaceOnUse">
<stop stop-color="#003268"/>
<stop offset="1" stop-color="#5280CA"/>
</linearGradient>
</defs>
</svg>
