<svg width="53" height="53" viewBox="0 0 53 53" fill="none" xmlns="http://www.w3.org/2000/svg">
<path d="M0 10C0 4.47715 4.47715 0 10 0H42.4781C48.001 0 52.4781 4.47715 52.4781 10V42.4781C52.4781 48.001 48.001 52.4781 42.4781 52.4781H10C4.47715 52.4781 0 48.001 0 42.4781V10Z" fill="url(#paint0_linear_872_4000)"/>
<path d="M35.949 29.819L31.429 25.309C31.5236 24.8484 31.5705 24.3793 31.569 23.909C31.5686 22.6197 31.2432 21.3512 30.6229 20.2209C30.0026 19.0906 29.1073 18.1349 28.0199 17.4422C26.9324 16.7494 25.6879 16.342 24.4013 16.2576C23.1147 16.1731 21.8276 16.4144 20.659 16.959C20.5109 17.0267 20.3816 17.1294 20.2823 17.2584C20.1829 17.3873 20.1166 17.5386 20.089 17.699C20.0615 17.8574 20.0726 18.0201 20.1213 18.1733C20.17 18.3265 20.255 18.4656 20.369 18.579L24.719 22.919L22.919 24.719L18.579 20.369C18.4646 20.2568 18.325 20.1737 18.1719 20.1267C18.0187 20.0798 17.8566 20.0703 17.699 20.099C17.5395 20.1256 17.389 20.1905 17.2601 20.288C17.1312 20.3855 17.0279 20.5128 16.959 20.659C16.4125 21.8315 16.1714 23.1232 16.2583 24.4139C16.3451 25.7046 16.7569 26.9523 17.4555 28.0411C18.154 29.1299 19.1166 30.0243 20.2537 30.6411C21.3908 31.2579 22.6654 31.5771 23.959 31.569C24.4292 31.5705 24.8983 31.5236 25.359 31.429L29.869 35.949C29.9619 36.0427 30.0725 36.1171 30.1944 36.1679C30.3162 36.2187 30.447 36.2448 30.579 36.2448C30.711 36.2448 30.8417 36.2187 30.9635 36.1679C31.0854 36.1171 31.196 36.0427 31.289 35.949C31.3827 35.8561 31.4571 35.7455 31.5079 35.6236C31.5586 35.5017 31.5848 35.371 31.5848 35.239C31.5848 35.107 31.5586 34.9763 31.5079 34.8544C31.4571 34.7326 31.3827 34.622 31.289 34.529L26.389 29.629C26.2665 29.5074 26.1147 29.4195 25.9482 29.3739C25.7817 29.3284 25.6063 29.3267 25.439 29.369C24.9561 29.4983 24.4588 29.5655 23.959 29.569C23.211 29.5756 22.4692 29.4342 21.7761 29.1528C21.0831 28.8714 20.4525 28.4557 19.9209 27.9296C19.3892 27.4035 18.9668 26.7774 18.6782 26.0874C18.3895 25.3973 18.2403 24.657 18.239 23.909C18.2377 23.574 18.2644 23.2395 18.319 22.909L22.239 26.839C22.3319 26.9327 22.4425 27.0071 22.5644 27.0579C22.6862 27.1087 22.817 27.1348 22.949 27.1348C23.081 27.1348 23.2117 27.1087 23.3335 27.0579C23.4554 27.0071 23.566 26.9327 23.659 26.839L26.839 23.629C27.0192 23.4426 27.12 23.1934 27.12 22.934C27.12 22.6747 27.0192 22.4255 26.839 22.239L22.949 18.319C23.2795 18.265 23.614 18.2383 23.949 18.239C25.451 18.2417 26.8906 18.8402 27.9518 19.9033C29.013 20.9663 29.609 22.407 29.609 23.909C29.6055 24.4088 29.5383 24.9062 29.409 25.389C29.3666 25.5563 29.3683 25.7318 29.4139 25.8982C29.4595 26.0647 29.5473 26.2166 29.669 26.339L34.569 31.239C34.7573 31.4273 35.0127 31.5331 35.279 31.5331C35.5453 31.5331 35.8007 31.4273 35.989 31.239C36.1773 31.0507 36.2831 30.7953 36.2831 30.529C36.2831 30.2627 36.1773 30.0073 35.989 29.819H35.949Z" fill="white"/>
<defs>
<linearGradient id="paint0_linear_872_4000" x1="26.2391" y1="0" x2="26.2391" y2="52.4781" gradientUnits="userSpaceOnUse">
<stop stop-color="#003268"/>
<stop offset="1" stop-color="#5280CA"/>
</linearGradient>
</defs>
</svg>
