<svg width="53" height="53" viewBox="0 0 53 53" fill="none" xmlns="http://www.w3.org/2000/svg">
<path d="M0 10C0 4.47715 4.47715 0 10 0H42.4781C48.001 0 52.4781 4.47715 52.4781 10V42.4781C52.4781 48.001 48.001 52.4781 42.4781 52.4781H10C4.47715 52.4781 0 48.001 0 42.4781V10Z" fill="url(#paint0_linear_872_4009)"/>
<path d="M32.2391 18.719C30.6478 17.1277 28.4895 16.2338 26.2391 16.2338C23.9886 16.2338 21.8304 17.1277 20.2391 18.719C18.6478 20.3103 17.7538 22.4686 17.7538 24.719C17.7538 26.9695 18.6478 29.1277 20.2391 30.719L25.5091 35.999C25.602 36.0928 25.7126 36.1672 25.8345 36.2179C25.9564 36.2687 26.0871 36.2948 26.2191 36.2948C26.3511 36.2948 26.4818 36.2687 26.6037 36.2179C26.7255 36.1672 26.8361 36.0928 26.9291 35.999L32.2391 30.669C33.8237 29.0844 34.714 26.9351 34.714 24.694C34.714 22.453 33.8237 20.3037 32.2391 18.719ZM30.8091 29.239L26.2391 33.829L21.6691 29.239C20.7662 28.3354 20.1516 27.1843 19.9028 25.9313C19.654 24.6784 19.7823 23.3798 20.2714 22.1997C20.7605 21.0197 21.5885 20.0111 22.6507 19.3015C23.7129 18.592 24.9617 18.2132 26.2391 18.2132C27.5165 18.2132 28.7652 18.592 29.8274 19.3015C30.8897 20.0111 31.7177 21.0197 32.2068 22.1997C32.6959 23.3798 32.8242 24.6784 32.5754 25.9313C32.3266 27.1843 31.7119 28.3354 30.8091 29.239ZM23.2391 21.649C22.4318 22.4588 21.9785 23.5556 21.9785 24.699C21.9785 25.8425 22.4318 26.9393 23.2391 27.749C23.8388 28.3498 24.6027 28.7601 25.4347 28.9284C26.2668 29.0968 27.13 29.0156 27.9162 28.6952C28.7023 28.3748 29.3763 27.8293 29.8536 27.1273C30.3309 26.4253 30.5902 25.5979 30.5991 24.749C30.6036 24.1823 30.4944 23.6203 30.278 23.0964C30.0616 22.5726 29.7423 22.0974 29.3391 21.699C28.9428 21.2936 28.4702 20.9706 27.9485 20.7485C27.4268 20.5264 26.8664 20.4097 26.2995 20.4051C25.7325 20.4004 25.1703 20.5079 24.6451 20.7214C24.1198 20.9349 23.642 21.2502 23.2391 21.649ZM27.9291 26.329C27.5501 26.7138 27.0493 26.955 26.5122 27.0113C25.9751 27.0676 25.4351 26.9357 24.9846 26.638C24.534 26.3403 24.2009 25.8953 24.0421 25.3791C23.8833 24.863 23.9087 24.3077 24.114 23.8082C24.3193 23.3087 24.6918 22.8961 25.1677 22.6408C25.6436 22.3855 26.1933 22.3035 26.723 22.4087C27.2527 22.5139 27.7294 22.7998 28.0716 23.2176C28.4138 23.6353 28.6002 24.159 28.5991 24.699C28.5845 25.3163 28.3256 25.9026 27.8791 26.329H27.9291Z" fill="white"/>
<defs>
<linearGradient id="paint0_linear_872_4009" x1="26.2391" y1="0" x2="26.2391" y2="52.4781" gradientUnits="userSpaceOnUse">
<stop stop-color="#003268"/>
<stop offset="1" stop-color="#5280CA"/>
</linearGradient>
</defs>
</svg>
