<svg width="24" height="24" viewBox="0 0 24 24" fill="none" xmlns="http://www.w3.org/2000/svg">
<path d="M13 16.0001H6.99999C6.73478 16.0001 6.48042 16.1054 6.29289 16.293C6.10535 16.4805 5.99999 16.7349 5.99999 17.0001C5.99999 17.2653 6.10535 17.5196 6.29289 17.7072C6.48042 17.8947 6.73478 18.0001 6.99999 18.0001H13C13.2652 18.0001 13.5196 17.8947 13.7071 17.7072C13.8946 17.5196 14 17.2653 14 17.0001C14 16.7349 13.8946 16.4805 13.7071 16.293C13.5196 16.1054 13.2652 16.0001 13 16.0001ZM8.99999 10.0001H11C11.2652 10.0001 11.5196 9.89471 11.7071 9.70717C11.8946 9.51964 12 9.26528 12 9.00007C12 8.73485 11.8946 8.4805 11.7071 8.29296C11.5196 8.10543 11.2652 8.00007 11 8.00007H8.99999C8.73478 8.00007 8.48042 8.10543 8.29289 8.29296C8.10535 8.4805 7.99999 8.73485 7.99999 9.00007C7.99999 9.26528 8.10535 9.51964 8.29289 9.70717C8.48042 9.89471 8.73478 10.0001 8.99999 10.0001ZM21 12.0001H18V3.00007C18.0007 2.82386 17.9548 2.65059 17.867 2.49781C17.7792 2.34504 17.6526 2.21817 17.5 2.13007C17.348 2.0423 17.1755 1.99609 17 1.99609C16.8245 1.99609 16.652 2.0423 16.5 2.13007L13.5 3.85007L10.5 2.13007C10.348 2.0423 10.1755 1.99609 9.99999 1.99609C9.82446 1.99609 9.65201 2.0423 9.49999 2.13007L6.49999 3.85007L3.49999 2.13007C3.34797 2.0423 3.17553 1.99609 2.99999 1.99609C2.82446 1.99609 2.65201 2.0423 2.49999 2.13007C2.34739 2.21817 2.22077 2.34504 2.13297 2.49781C2.04517 2.65059 1.99929 2.82386 1.99999 3.00007V19.0001C1.99999 19.7957 2.31606 20.5588 2.87867 21.1214C3.44128 21.684 4.20434 22.0001 4.99999 22.0001H19C19.7956 22.0001 20.5587 21.684 21.1213 21.1214C21.6839 20.5588 22 19.7957 22 19.0001V13.0001C22 12.7349 21.8946 12.4805 21.7071 12.293C21.5196 12.1054 21.2652 12.0001 21 12.0001ZM4.99999 20.0001C4.73478 20.0001 4.48042 19.8947 4.29289 19.7072C4.10535 19.5196 3.99999 19.2653 3.99999 19.0001V4.73007L5.99999 5.87007C6.15433 5.95068 6.32587 5.99278 6.49999 5.99278C6.67411 5.99278 6.84565 5.95068 6.99999 5.87007L9.99999 4.15007L13 5.87007C13.1543 5.95068 13.3259 5.99278 13.5 5.99278C13.6741 5.99278 13.8457 5.95068 14 5.87007L16 4.73007V19.0001C16.0027 19.3412 16.0636 19.6794 16.18 20.0001H4.99999ZM20 19.0001C20 19.2653 19.8946 19.5196 19.7071 19.7072C19.5196 19.8947 19.2652 20.0001 19 20.0001C18.7348 20.0001 18.4804 19.8947 18.2929 19.7072C18.1053 19.5196 18 19.2653 18 19.0001V14.0001H20V19.0001ZM13 12.0001H6.99999C6.73478 12.0001 6.48042 12.1054 6.29289 12.293C6.10535 12.4805 5.99999 12.7349 5.99999 13.0001C5.99999 13.2653 6.10535 13.5196 6.29289 13.7072C6.48042 13.8947 6.73478 14.0001 6.99999 14.0001H13C13.2652 14.0001 13.5196 13.8947 13.7071 13.7072C13.8946 13.5196 14 13.2653 14 13.0001C14 12.7349 13.8946 12.4805 13.7071 12.293C13.5196 12.1054 13.2652 12.0001 13 12.0001Z" fill="white"/>
</svg>
