<svg width="35" height="35" viewBox="0 0 35 35" fill="none" xmlns="http://www.w3.org/2000/svg">
<path d="M30.7807 13.5566C30.9704 13.5567 31.1583 13.5193 31.3336 13.4468C31.5089 13.3742 31.6682 13.2678 31.8023 13.1336C31.9365 12.9994 32.0429 12.8402 32.1155 12.6649C32.1881 12.4896 32.2254 12.3017 32.2254 12.112V7.77796C32.2255 7.47483 32.1302 7.17936 31.9529 6.93347C31.7756 6.68758 31.5254 6.50375 31.2378 6.40807L18.2358 2.07407C17.9391 1.97531 17.6183 1.97531 17.3216 2.07407L4.31959 6.40807C4.03196 6.50375 3.78177 6.68758 3.6045 6.93347C3.42724 7.17936 3.33191 7.47483 3.33203 7.77796V12.112C3.33198 12.3017 3.36932 12.4896 3.4419 12.6649C3.51448 12.8402 3.62089 12.9994 3.75505 13.1336C3.88921 13.2678 4.04849 13.3742 4.22379 13.4468C4.39909 13.5193 4.58697 13.5567 4.7767 13.5566H6.22136V23.9355C5.37874 24.2323 4.64865 24.7826 4.13132 25.511C3.61399 26.2393 3.33478 27.1099 3.33203 28.0033V30.8926C3.33198 31.0824 3.36932 31.2702 3.4419 31.4455C3.51448 31.6208 3.62089 31.7801 3.75505 31.9143C3.88921 32.0484 4.04849 32.1548 4.22379 32.2274C4.39909 32.3 4.58697 32.3373 4.7767 32.3373H30.7807C30.9704 32.3373 31.1583 32.3 31.3336 32.2274C31.5089 32.1548 31.6682 32.0484 31.8023 31.9143C31.9365 31.7801 32.0429 31.6208 32.1155 31.4455C32.1881 31.2702 32.2254 31.0824 32.2254 30.8926V28.0033C32.2226 27.1099 31.9434 26.2393 31.4261 25.511C30.9087 24.7826 30.1787 24.2323 29.336 23.9355V13.5566H30.7807ZM29.336 29.448H6.22136V28.0033C6.22175 27.6203 6.37408 27.253 6.64492 26.9822C6.91576 26.7113 7.283 26.559 7.66603 26.5586H27.8914C28.2744 26.559 28.6416 26.7113 28.9125 26.9822C29.1833 27.253 29.3356 27.6203 29.336 28.0033V29.448ZM9.1107 23.6693V13.5566H12V23.6693H9.1107ZM14.8894 23.6693V13.5566H20.668V23.6693H14.8894ZM23.5574 23.6693V13.5566H26.4467V23.6693H23.5574ZM6.22136 10.6673V8.81913L17.7787 4.9662L29.336 8.81913V10.6673H6.22136Z" fill="white"/>
</svg>
