<svg width="35" height="35" viewBox="0 0 35 35" fill="none" xmlns="http://www.w3.org/2000/svg">
<path d="M23.1108 20.2222H11.5552C11.1721 20.2222 10.8047 20.3744 10.5339 20.6453C10.263 20.9162 10.1108 21.2836 10.1108 21.6667C10.1108 22.0498 10.263 22.4172 10.5339 22.6881C10.8047 22.959 11.1721 23.1111 11.5552 23.1111H23.1108C23.4939 23.1111 23.8613 22.959 24.1322 22.6881C24.403 22.4172 24.5552 22.0498 24.5552 21.6667C24.5552 21.2836 24.403 20.9162 24.1322 20.6453C23.8613 20.3744 23.4939 20.2222 23.1108 20.2222ZM23.1108 14.4445H14.4441C14.061 14.4445 13.6936 14.5967 13.4227 14.8675C13.1519 15.1384 12.9997 15.5058 12.9997 15.8889C12.9997 16.272 13.1519 16.6394 13.4227 16.9103C13.6936 17.1812 14.061 17.3334 14.4441 17.3334H23.1108C23.4939 17.3334 23.8613 17.1812 24.1322 16.9103C24.403 16.6394 24.5552 16.272 24.5552 15.8889C24.5552 15.5058 24.403 15.1384 24.1322 14.8675C23.8613 14.5967 23.4939 14.4445 23.1108 14.4445ZM28.8886 5.77781H24.5552V4.33336C24.5552 3.95027 24.403 3.58287 24.1322 3.31198C23.8613 3.0411 23.4939 2.88892 23.1108 2.88892C22.7277 2.88892 22.3603 3.0411 22.0894 3.31198C21.8185 3.58287 21.6663 3.95027 21.6663 4.33336V5.77781H18.7775V4.33336C18.7775 3.95027 18.6253 3.58287 18.3544 3.31198C18.0835 3.0411 17.7161 2.88892 17.333 2.88892C16.9499 2.88892 16.5825 3.0411 16.3116 3.31198C16.0407 3.58287 15.8886 3.95027 15.8886 4.33336V5.77781H12.9997V4.33336C12.9997 3.95027 12.8475 3.58287 12.5766 3.31198C12.3057 3.0411 11.9383 2.88892 11.5552 2.88892C11.1721 2.88892 10.8047 3.0411 10.5339 3.31198C10.263 3.58287 10.1108 3.95027 10.1108 4.33336V5.77781H5.77745C5.39436 5.77781 5.02696 5.92999 4.75608 6.20087C4.48519 6.47176 4.33301 6.83916 4.33301 7.22225V27.4445C4.33301 28.5937 4.78955 29.6959 5.60221 30.5086C6.41487 31.3213 7.51707 31.7778 8.66634 31.7778H25.9997C27.1489 31.7778 28.2511 31.3213 29.0638 30.5086C29.8765 29.6959 30.333 28.5937 30.333 27.4445V7.22225C30.333 6.83916 30.1808 6.47176 29.9099 6.20087C29.6391 5.92999 29.2717 5.77781 28.8886 5.77781ZM27.4441 27.4445C27.4441 27.8276 27.2919 28.195 27.0211 28.4659C26.7502 28.7367 26.3828 28.8889 25.9997 28.8889H8.66634C8.28325 28.8889 7.91585 28.7367 7.64497 28.4659C7.37408 28.195 7.2219 27.8276 7.2219 27.4445V8.66669H10.1108V10.1111C10.1108 10.4942 10.263 10.8616 10.5339 11.1325C10.8047 11.4034 11.1721 11.5556 11.5552 11.5556C11.9383 11.5556 12.3057 11.4034 12.5766 11.1325C12.8475 10.8616 12.9997 10.4942 12.9997 10.1111V8.66669H15.8886V10.1111C15.8886 10.4942 16.0407 10.8616 16.3116 11.1325C16.5825 11.4034 16.9499 11.5556 17.333 11.5556C17.7161 11.5556 18.0835 11.4034 18.3544 11.1325C18.6253 10.8616 18.7775 10.4942 18.7775 10.1111V8.66669H21.6663V10.1111C21.6663 10.4942 21.8185 10.8616 22.0894 11.1325C22.3603 11.4034 22.7277 11.5556 23.1108 11.5556C23.4939 11.5556 23.8613 11.4034 24.1322 11.1325C24.403 10.8616 24.5552 10.4942 24.5552 10.1111V8.66669H27.4441V27.4445Z" fill="white"/>
</svg>
