<svg width="35" height="35" viewBox="0 0 35 35" fill="none" xmlns="http://www.w3.org/2000/svg">
<path d="M28.354 5.27219C28.1862 5.13645 27.9901 5.04003 27.7801 4.99004C27.5702 4.94005 27.3517 4.93775 27.1407 4.9833C25.5972 5.30678 24.0038 5.3109 22.4587 4.99541C20.9136 4.67993 19.4494 4.05151 18.1562 3.14886C17.9144 2.98112 17.6272 2.89124 17.3329 2.89124C17.0386 2.89124 16.7514 2.98112 16.5096 3.14886C15.2164 4.05151 13.7522 4.67993 12.2071 4.99541C10.662 5.3109 9.06861 5.30678 7.52513 4.9833C7.31415 4.93775 7.09565 4.94005 6.88568 4.99004C6.6757 5.04003 6.47961 5.13645 6.3118 5.27219C6.14421 5.40814 6.00922 5.57991 5.91673 5.77488C5.82424 5.96985 5.77662 6.18307 5.77735 6.39886V17.16C5.77607 19.2309 6.26958 21.2723 7.21679 23.1139C8.164 24.9556 9.5375 26.5443 11.2229 27.7477L16.4951 31.5033C16.7398 31.6775 17.0326 31.7711 17.3329 31.7711C17.6332 31.7711 17.9261 31.6775 18.1707 31.5033L23.4429 27.7477C25.1283 26.5443 26.5018 24.9556 27.449 23.1139C28.3962 21.2723 28.8897 19.2309 28.8885 17.16V6.39886C28.8892 6.18307 28.8416 5.96985 28.7491 5.77488C28.6566 5.57991 28.5216 5.40814 28.354 5.27219ZM25.9996 17.16C26.0007 18.7702 25.6172 20.3574 24.8811 21.7894C24.1449 23.2215 23.0774 24.4571 21.7674 25.3933L17.3329 28.5566L12.8985 25.3933C11.5884 24.4571 10.5209 23.2215 9.78475 21.7894C9.04861 20.3574 8.66513 18.7702 8.66624 17.16V8.05997C11.6944 8.31915 14.7272 7.61656 17.3329 6.05219C19.9386 7.61656 22.9714 8.31915 25.9996 8.05997V17.16ZM19.5574 13.8522L15.6718 17.7522L14.3862 16.4522C14.1142 16.1802 13.7453 16.0274 13.3607 16.0274C12.976 16.0274 12.6071 16.1802 12.3351 16.4522C12.0631 16.7242 11.9103 17.0931 11.9103 17.4778C11.9103 17.8624 12.0631 18.2313 12.3351 18.5033L14.6462 20.8144C14.7805 20.9498 14.9403 21.0573 15.1163 21.1306C15.2923 21.2039 15.4811 21.2417 15.6718 21.2417C15.8625 21.2417 16.0513 21.2039 16.2273 21.1306C16.4033 21.0573 16.5631 20.9498 16.6974 20.8144L21.6662 15.8889C21.9382 15.6169 22.091 15.248 22.091 14.8633C22.091 14.4786 21.9382 14.1097 21.6662 13.8377C21.3942 13.5658 21.0253 13.413 20.6407 13.413C20.256 13.413 19.8871 13.5658 19.6151 13.8377L19.5574 13.8522Z" fill="white"/>
</svg>
