<svg width="16" height="16" viewBox="0 0 16 16" fill="none" xmlns="http://www.w3.org/2000/svg">
<path d="M5.99984 6.66683H6.6665C6.84331 6.66683 7.01288 6.59659 7.13791 6.47157C7.26293 6.34654 7.33317 6.17697 7.33317 6.00016C7.33317 5.82335 7.26293 5.65378 7.13791 5.52876C7.01288 5.40373 6.84331 5.3335 6.6665 5.3335H5.99984C5.82303 5.3335 5.65346 5.40373 5.52843 5.52876C5.40341 5.65378 5.33317 5.82335 5.33317 6.00016C5.33317 6.17697 5.40341 6.34654 5.52843 6.47157C5.65346 6.59659 5.82303 6.66683 5.99984 6.66683ZM9.99984 8.00016H5.99984C5.82303 8.00016 5.65346 8.0704 5.52843 8.19543C5.40341 8.32045 5.33317 8.49002 5.33317 8.66683C5.33317 8.84364 5.40341 9.01321 5.52843 9.13823C5.65346 9.26326 5.82303 9.3335 5.99984 9.3335H9.99984C10.1766 9.3335 10.3462 9.26326 10.4712 9.13823C10.5963 9.01321 10.6665 8.84364 10.6665 8.66683C10.6665 8.49002 10.5963 8.32045 10.4712 8.19543C10.3462 8.0704 10.1766 8.00016 9.99984 8.00016ZM9.99984 10.6668H5.99984C5.82303 10.6668 5.65346 10.7371 5.52843 10.8621C5.40341 10.9871 5.33317 11.1567 5.33317 11.3335C5.33317 11.5103 5.40341 11.6799 5.52843 11.8049C5.65346 11.9299 5.82303 12.0002 5.99984 12.0002H9.99984C10.1766 12.0002 10.3462 11.9299 10.4712 11.8049C10.5963 11.6799 10.6665 11.5103 10.6665 11.3335C10.6665 11.1567 10.5963 10.9871 10.4712 10.8621C10.3462 10.7371 10.1766 10.6668 9.99984 10.6668ZM13.1398 13.5268C13.1082 13.4982 13.0748 13.4714 13.0398 13.4468C13.0027 13.4216 12.9623 13.4014 12.9198 13.3868L12.7998 13.3335C12.6698 13.3081 12.5352 13.322 12.4132 13.3735C12.3304 13.4034 12.2553 13.4512 12.1931 13.5134C12.1309 13.5756 12.0831 13.6508 12.0532 13.7335C12.0138 13.8167 11.9954 13.9082 11.9998 14.0002C11.9987 14.0993 12.0196 14.1975 12.0612 14.2876C12.1028 14.3776 12.164 14.4572 12.2403 14.5206C12.3165 14.584 12.406 14.6296 12.5021 14.6541C12.5982 14.6785 12.6986 14.6812 12.7959 14.662C12.8932 14.6427 12.985 14.602 13.0645 14.5428C13.1441 14.4836 13.2094 14.4073 13.2558 14.3197C13.3022 14.232 13.3284 14.1351 13.3325 14.036C13.3367 13.9369 13.3187 13.8381 13.2798 13.7468C13.2461 13.666 13.1987 13.5916 13.1398 13.5268ZM13.3332 5.96016C13.3262 5.89892 13.3128 5.83858 13.2932 5.78016V5.72016C13.2611 5.65162 13.2184 5.58861 13.1665 5.5335L9.1665 1.5335C9.11139 1.48164 9.04838 1.43888 8.97984 1.40683C8.95994 1.404 8.93974 1.404 8.91984 1.40683C8.85211 1.36799 8.77732 1.34306 8.69984 1.3335H4.6665C4.13607 1.3335 3.62736 1.54421 3.25229 1.91928C2.87722 2.29436 2.6665 2.80306 2.6665 3.3335V12.6668C2.6665 13.1973 2.87722 13.706 3.25229 14.081C3.62736 14.4561 4.13607 14.6668 4.6665 14.6668H9.99984C10.1766 14.6668 10.3462 14.5966 10.4712 14.4716C10.5963 14.3465 10.6665 14.177 10.6665 14.0002C10.6665 13.8234 10.5963 13.6538 10.4712 13.5288C10.3462 13.4037 10.1766 13.3335 9.99984 13.3335H4.6665C4.48969 13.3335 4.32012 13.2633 4.1951 13.1382C4.07008 13.0132 3.99984 12.8436 3.99984 12.6668V3.3335C3.99984 3.15669 4.07008 2.98712 4.1951 2.86209C4.32012 2.73707 4.48969 2.66683 4.6665 2.66683H7.99984V4.66683C7.99984 5.19726 8.21055 5.70597 8.58562 6.08104C8.9607 6.45612 9.4694 6.66683 9.99984 6.66683H11.9998V8.00016C11.9998 8.17697 12.0701 8.34654 12.1951 8.47157C12.3201 8.59659 12.4897 8.66683 12.6665 8.66683C12.8433 8.66683 13.0129 8.59659 13.1379 8.47157C13.2629 8.34654 13.3332 8.17697 13.3332 8.00016V6.00016C13.3332 6.00016 13.3332 6.00016 13.3332 5.96016ZM9.99984 5.3335C9.82303 5.3335 9.65346 5.26326 9.52843 5.13823C9.40341 5.01321 9.33317 4.84364 9.33317 4.66683V3.60683L11.0598 5.3335H9.99984ZM12.6665 10.0002C12.4897 10.0002 12.3201 10.0704 12.1951 10.1954C12.0701 10.3204 11.9998 10.49 11.9998 10.6668V12.0002C11.9998 12.177 12.0701 12.3465 12.1951 12.4716C12.3201 12.5966 12.4897 12.6668 12.6665 12.6668C12.8433 12.6668 13.0129 12.5966 13.1379 12.4716C13.2629 12.3465 13.3332 12.177 13.3332 12.0002V10.6668C13.3332 10.49 13.2629 10.3204 13.1379 10.1954C13.0129 10.0704 12.8433 10.0002 12.6665 10.0002Z" fill="white"/>
</svg>
