<svg width="35" height="35" viewBox="0 0 35 35" fill="none" xmlns="http://www.w3.org/2000/svg">
<path d="M31.3586 29.3077L25.9997 23.9922C28.0798 21.3985 29.0872 18.1065 28.8146 14.7929C28.5421 11.4794 27.0103 8.39618 24.5343 6.17732C22.0583 3.95845 18.8263 2.77257 15.5028 2.86351C12.1793 2.95445 9.01696 4.31531 6.66602 6.66626C4.31507 9.01721 2.95421 12.1796 2.86327 15.5031C2.77232 18.8266 3.95821 22.0586 6.17707 24.5346C8.39594 27.0106 11.4791 28.5423 14.7927 28.8149C18.1062 29.0875 21.3983 28.0801 23.9919 25.9999L29.3075 31.3155C29.4418 31.4509 29.6015 31.5583 29.7775 31.6317C29.9536 31.705 30.1424 31.7428 30.333 31.7428C30.5237 31.7428 30.7125 31.705 30.8885 31.6317C31.0646 31.5583 31.2243 31.4509 31.3586 31.3155C31.6189 31.0462 31.7645 30.6862 31.7645 30.3116C31.7645 29.937 31.6189 29.5771 31.3586 29.3077ZM15.8886 25.9999C13.8888 25.9999 11.9339 25.4069 10.2712 24.2959C8.60839 23.1849 7.31243 21.6058 6.54714 19.7582C5.78185 17.9106 5.58162 15.8776 5.97176 13.9163C6.3619 11.9549 7.32489 10.1533 8.73895 8.7392C10.153 7.32513 11.9546 6.36214 13.916 5.972C15.8774 5.58186 17.9104 5.7821 19.7579 6.54738C21.6055 7.31267 23.1846 8.60864 24.2957 10.2714C25.4067 11.9342 25.9997 13.889 25.9997 15.8888C25.9997 18.5705 24.9344 21.1423 23.0382 23.0385C21.142 24.9347 18.5702 25.9999 15.8886 25.9999Z" fill="white"/>
</svg>
