<svg width="53" height="53" viewBox="0 0 53 53" fill="none" xmlns="http://www.w3.org/2000/svg">
<path d="M0 10C0 4.47715 4.47715 0 10 0H42.4781C48.001 0 52.4781 4.47715 52.4781 10V42.4781C52.4781 48.001 48.001 52.4781 42.4781 52.4781H10C4.47715 52.4781 0 48.001 0 42.4781V10Z" fill="url(#paint0_linear_150_6204)"/>
<path d="M34.2391 30.4191V22.0591C34.7187 21.8919 35.1481 21.6058 35.4869 21.2274C35.8258 20.849 36.063 20.3907 36.1764 19.8956C36.2897 19.4005 36.2755 18.8847 36.1351 18.3965C35.9946 17.9084 35.7325 17.4639 35.3734 17.1048C35.0142 16.7456 34.5697 16.4835 34.0816 16.343C33.5934 16.2026 33.0776 16.1884 32.5825 16.3017C32.0874 16.4151 31.6291 16.6523 31.2507 16.9912C30.8723 17.33 30.5862 17.7594 30.4191 18.2391H22.0591C21.8919 17.7594 21.6058 17.33 21.2274 16.9912C20.849 16.6523 20.3907 16.4151 19.8956 16.3017C19.4005 16.1884 18.8847 16.2026 18.3965 16.343C17.9084 16.4835 17.4639 16.7456 17.1048 17.1048C16.7456 17.4639 16.4835 17.9084 16.343 18.3965C16.2026 18.8847 16.1884 19.4005 16.3017 19.8956C16.4151 20.3907 16.6523 20.849 16.9912 21.2274C17.33 21.6058 17.7594 21.8919 18.2391 22.0591V30.4191C17.7594 30.5862 17.33 30.8723 16.9912 31.2507C16.6523 31.6291 16.4151 32.0874 16.3017 32.5825C16.1884 33.0776 16.2026 33.5934 16.343 34.0816C16.4835 34.5697 16.7456 35.0142 17.1048 35.3734C17.4639 35.7325 17.9084 35.9946 18.3965 36.1351C18.8847 36.2755 19.4005 36.2897 19.8956 36.1764C20.3907 36.063 20.849 35.8258 21.2274 35.4869C21.6058 35.1481 21.8919 34.7187 22.0591 34.2391H30.4191C30.5862 34.7187 30.8723 35.1481 31.2507 35.4869C31.6291 35.8258 32.0874 36.063 32.5825 36.1764C33.0776 36.2897 33.5934 36.2755 34.0816 36.1351C34.5697 35.9946 35.0142 35.7325 35.3734 35.3734C35.7325 35.0142 35.9946 34.5697 36.1351 34.0816C36.2755 33.5934 36.2897 33.0776 36.1764 32.5825C36.063 32.0874 35.8258 31.6291 35.4869 31.2507C35.1481 30.8723 34.7187 30.5862 34.2391 30.4191ZM33.2391 18.2391C33.4368 18.2391 33.6302 18.2977 33.7946 18.4076C33.9591 18.5175 34.0872 18.6736 34.1629 18.8564C34.2386 19.0391 34.2584 19.2402 34.2198 19.4341C34.1813 19.6281 34.086 19.8063 33.9462 19.9462C33.8063 20.086 33.6281 20.1813 33.4341 20.2198C33.2402 20.2584 33.0391 20.2386 32.8564 20.1629C32.6736 20.0873 32.5175 19.9591 32.4076 19.7946C32.2977 19.6302 32.2391 19.4368 32.2391 19.2391C32.2391 18.9738 32.3444 18.7195 32.5319 18.532C32.7195 18.3444 32.9738 18.2391 33.2391 18.2391ZM19.2391 18.2391C19.4368 18.2391 19.6302 18.2977 19.7946 18.4076C19.9591 18.5175 20.0873 18.6736 20.1629 18.8564C20.2386 19.0391 20.2584 19.2402 20.2198 19.4341C20.1813 19.6281 20.086 19.8063 19.9462 19.9462C19.8063 20.086 19.6281 20.1813 19.4341 20.2198C19.2402 20.2584 19.0391 20.2386 18.8564 20.1629C18.6736 20.0873 18.5175 19.9591 18.4076 19.7946C18.2977 19.6302 18.2391 19.4368 18.2391 19.2391C18.2391 18.9738 18.3444 18.7195 18.532 18.532C18.7195 18.3444 18.9738 18.2391 19.2391 18.2391ZM19.2391 34.2391C19.0413 34.2391 18.8479 34.1804 18.6835 34.0705C18.519 33.9606 18.3909 33.8045 18.3152 33.6217C18.2395 33.439 18.2197 33.2379 18.2583 33.044C18.2969 32.85 18.3921 32.6718 18.532 32.5319C18.6718 32.3921 18.85 32.2969 19.044 32.2583C19.2379 32.2197 19.439 32.2395 19.6217 32.3152C19.8045 32.3909 19.9606 32.519 20.0705 32.6835C20.1804 32.8479 20.2391 33.0413 20.2391 33.2391C20.2391 33.5043 20.1337 33.7586 19.9462 33.9462C19.7586 34.1337 19.5043 34.2391 19.2391 34.2391ZM30.4191 32.2391H22.0591C21.9097 31.8197 21.669 31.4388 21.3542 31.124C21.0394 30.8092 20.6585 30.5684 20.2391 30.4191V22.0591C20.6585 21.9097 21.0394 21.669 21.3542 21.3542C21.669 21.0394 21.9097 20.6585 22.0591 20.2391H30.4191C30.5684 20.6585 30.8092 21.0394 31.124 21.3542C31.4388 21.669 31.8197 21.9097 32.2391 22.0591V30.4191C31.8197 30.5684 31.4388 30.8092 31.124 31.124C30.8092 31.4388 30.5684 31.8197 30.4191 32.2391ZM33.2391 34.2391C33.0413 34.2391 32.8479 34.1804 32.6835 34.0705C32.519 33.9606 32.3909 33.8045 32.3152 33.6217C32.2395 33.439 32.2197 33.2379 32.2583 33.044C32.2969 32.85 32.3921 32.6718 32.5319 32.5319C32.6718 32.3921 32.85 32.2969 33.044 32.2583C33.2379 32.2197 33.439 32.2395 33.6217 32.3152C33.8045 32.3909 33.9606 32.519 34.0705 32.6835C34.1804 32.8479 34.2391 33.0413 34.2391 33.2391C34.2391 33.5043 34.1337 33.7586 33.9462 33.9462C33.7586 34.1337 33.5043 34.2391 33.2391 34.2391Z" fill="white"/>
<defs>
<linearGradient id="paint0_linear_150_6204" x1="26.2391" y1="0" x2="26.2391" y2="52.4781" gradientUnits="userSpaceOnUse">
<stop stop-color="#003268"/>
<stop offset="1" stop-color="#5280CA"/>
</linearGradient>
</defs>
</svg>
