<svg width="53" height="53" viewBox="0 0 53 53" fill="none" xmlns="http://www.w3.org/2000/svg">
<path d="M0 10C0 4.47715 4.47715 0 10 0H42.4781C48.001 0 52.4781 4.47715 52.4781 10V42.4781C52.4781 48.001 48.001 52.4781 42.4781 52.4781H10C4.47715 52.4781 0 48.001 0 42.4781V10Z" fill="url(#paint0_linear_150_6221)"/>
<path d="M26.2391 16.239C24.1173 16.239 22.0825 17.0819 20.5822 18.5822C19.0819 20.0825 18.2391 22.1173 18.2391 24.239C18.2391 29.639 25.2891 35.739 25.5891 35.999C25.7702 36.1539 26.0007 36.2391 26.2391 36.2391C26.4774 36.2391 26.7079 36.1539 26.8891 35.999C27.2391 35.739 34.2391 29.639 34.2391 24.239C34.2391 22.1173 33.3962 20.0825 31.8959 18.5822C30.3956 17.0819 28.3608 16.239 26.2391 16.239ZM26.2391 33.889C24.1091 31.889 20.2391 27.579 20.2391 24.239C20.2391 22.6477 20.8712 21.1216 21.9964 19.9964C23.1217 18.8712 24.6478 18.239 26.2391 18.239C27.8304 18.239 29.3565 18.8712 30.4817 19.9964C31.6069 21.1216 32.2391 22.6477 32.2391 24.239C32.2391 27.579 28.3691 31.899 26.2391 33.889ZM26.2391 20.239C25.4479 20.239 24.6746 20.4736 24.0168 20.9131C23.359 21.3527 22.8463 21.9774 22.5436 22.7083C22.2408 23.4392 22.1616 24.2435 22.3159 25.0194C22.4703 25.7953 22.8512 26.508 23.4106 27.0674C23.9701 27.6269 24.6828 28.0078 25.4587 28.1622C26.2346 28.3165 27.0389 28.2373 27.7698 27.9345C28.5007 27.6318 29.1254 27.1191 29.565 26.4613C30.0045 25.8035 30.2391 25.0301 30.2391 24.239C30.2391 23.1781 29.8176 22.1607 29.0675 21.4106C28.3174 20.6604 27.2999 20.239 26.2391 20.239ZM26.2391 26.239C25.8435 26.239 25.4568 26.1217 25.1279 25.902C24.799 25.6822 24.5427 25.3698 24.3913 25.0044C24.2399 24.6389 24.2003 24.2368 24.2775 23.8488C24.3547 23.4609 24.5452 23.1045 24.8249 22.8248C25.1046 22.5451 25.4609 22.3546 25.8489 22.2774C26.2369 22.2003 26.639 22.2399 27.0044 22.3913C27.3699 22.5426 27.6823 22.799 27.902 23.1279C28.1218 23.4568 28.2391 23.8435 28.2391 24.239C28.2391 24.7694 28.0284 25.2782 27.6533 25.6532C27.2782 26.0283 26.7695 26.239 26.2391 26.239Z" fill="white"/>
<defs>
<linearGradient id="paint0_linear_150_6221" x1="26.2391" y1="0" x2="26.2391" y2="52.4781" gradientUnits="userSpaceOnUse">
<stop stop-color="#003268"/>
<stop offset="1" stop-color="#5280CA"/>
</linearGradient>
</defs>
</svg>
