<svg width="53" height="53" viewBox="0 0 53 53" fill="none" xmlns="http://www.w3.org/2000/svg">
<path d="M0 10C0 4.47715 4.47715 0 10 0H42.4781C48.001 0 52.4781 4.47715 52.4781 10V42.4781C52.4781 48.001 48.001 52.4781 42.4781 52.4781H10C4.47715 52.4781 0 48.001 0 42.4781V10Z" fill="url(#paint0_linear_150_6188)"/>
<path d="M21.2308 28.741C21.0994 28.7409 20.9694 28.7668 20.8481 28.817C20.7267 28.8673 20.6165 28.9409 20.5236 29.0338C20.4307 29.1267 20.3571 29.2369 20.3068 29.3583C20.2566 29.4796 20.2307 29.6096 20.2308 29.741V31.5233C18.9418 30.0656 18.2305 28.1868 18.2308 26.241C18.2306 25.9469 18.2482 25.6531 18.2835 25.3611C18.2997 25.2305 18.29 25.0981 18.2549 24.9713C18.2198 24.8445 18.16 24.7259 18.079 24.6222C17.9979 24.5186 17.8973 24.4319 17.7827 24.3673C17.6681 24.3026 17.5419 24.2612 17.4113 24.2454C17.2807 24.2296 17.1483 24.2397 17.0216 24.2752C16.8949 24.3106 16.7764 24.3708 16.673 24.4521C16.5696 24.5334 16.4833 24.6344 16.419 24.7491C16.3546 24.8639 16.3136 24.9902 16.2982 25.1209C16.2529 25.4925 16.2304 25.8666 16.2308 26.241C16.2321 28.6271 17.0897 30.9336 18.6476 32.741H17.2308C16.9656 32.741 16.7112 32.8463 16.5237 33.0339C16.3361 33.2214 16.2308 33.4758 16.2308 33.741C16.2308 34.0062 16.3361 34.2605 16.5237 34.4481C16.7112 34.6356 16.9656 34.741 17.2308 34.741H21.2308C21.3872 34.739 21.5408 34.6997 21.679 34.6263C21.8171 34.553 21.9357 34.4477 22.0249 34.3192C22.0366 34.3038 22.0515 34.2924 22.0623 34.2762C22.069 34.2662 22.0692 34.2544 22.0754 34.2443C22.123 34.1638 22.1587 34.0768 22.1814 33.986C22.1962 33.935 22.2067 33.8829 22.2128 33.8301C22.2157 33.7992 22.2308 33.7726 22.2308 33.741V29.741C22.2308 29.6097 22.205 29.4796 22.1548 29.3583C22.1045 29.2369 22.0309 29.1267 21.938 29.0338C21.8451 28.9409 21.7349 28.8673 21.6135 28.817C21.4922 28.7668 21.3621 28.7409 21.2308 28.741ZM22.7308 20.241H20.9483C22.4061 18.9521 24.2849 18.2408 26.2308 18.241C26.5247 18.2403 26.8184 18.2579 27.1102 18.2937C27.2406 18.3096 27.3729 18.2996 27.4994 18.2643C27.626 18.229 27.7443 18.1691 27.8478 18.0881C27.9512 18.0071 28.0376 17.9065 28.1022 17.792C28.1667 17.6776 28.2081 17.5516 28.2239 17.4212C28.2398 17.2907 28.2298 17.1585 28.1945 17.0319C28.1592 16.9054 28.0994 16.787 28.0183 16.6836C27.9373 16.5801 27.8367 16.4937 27.7223 16.4291C27.6078 16.3646 27.4818 16.3232 27.3514 16.3074C26.9795 16.2625 26.6053 16.2404 26.2308 16.241C23.8446 16.2423 21.5382 17.0998 19.7308 18.6577V17.241C19.7308 16.9758 19.6254 16.7214 19.4379 16.5339C19.2503 16.3463 18.996 16.241 18.7308 16.241C18.4656 16.241 18.2112 16.3463 18.0237 16.5339C17.8361 16.7214 17.7308 16.9758 17.7308 17.241V21.241C17.7371 21.3071 17.7502 21.3723 17.7701 21.4357L17.7703 21.4369C17.7946 21.56 17.8426 21.6771 17.9115 21.7819L17.9229 21.7988C17.989 21.8949 18.0718 21.9784 18.1674 22.0451C18.1783 22.0531 18.1838 22.0654 18.1951 22.073C18.2094 22.0825 18.2256 22.0855 18.2402 22.0942C18.2969 22.1283 18.357 22.1564 18.4195 22.1782C18.504 22.2076 18.5921 22.2253 18.6813 22.231C18.6987 22.2319 18.7133 22.241 18.7308 22.241H22.7308C22.996 22.241 23.2503 22.1357 23.4379 21.9481C23.6254 21.7606 23.7308 21.5062 23.7308 21.241C23.7308 20.9758 23.6254 20.7214 23.4379 20.5339C23.2503 20.3464 22.996 20.241 22.7308 20.241V20.241ZM34.6912 31.0451C34.667 30.922 34.619 30.8048 34.55 30.7L34.5387 30.6832C34.4726 30.587 34.3897 30.5035 34.294 30.4367C34.2831 30.4288 34.2777 30.4165 34.2664 30.4089C34.2556 30.4018 34.2428 30.4015 34.2318 30.3948C34.105 30.3243 33.966 30.2783 33.8221 30.2594C33.7905 30.2564 33.7632 30.2409 33.7308 30.2409H29.7308C29.4656 30.2409 29.2112 30.3463 29.0237 30.5338C28.8361 30.7214 28.7308 30.9757 28.7308 31.2409C28.7308 31.5061 28.8361 31.7605 29.0237 31.948C29.2112 32.1356 29.4656 32.2409 29.7308 32.2409H31.5132C30.0554 33.5298 28.1766 34.2412 26.2308 34.2409C25.9368 34.2413 25.6431 34.2234 25.3514 34.1872C25.088 34.1552 24.8227 34.2292 24.6138 34.3928C24.4049 34.5565 24.2696 34.7964 24.2376 35.0598C24.2056 35.3232 24.2796 35.5885 24.4432 35.7974C24.6069 36.0062 24.8468 36.1416 25.1102 36.1735C25.482 36.2184 25.8562 36.2409 26.2308 36.2409C28.6169 36.2396 30.9234 35.3821 32.7308 33.8242V35.241C32.7308 35.5062 32.8361 35.7605 33.0237 35.9481C33.2112 36.1356 33.4656 36.241 33.7308 36.241C33.996 36.241 34.2504 36.1356 34.4379 35.9481C34.6254 35.7605 34.7308 35.5062 34.7308 35.241V31.241C34.7245 31.1749 34.7113 31.1096 34.6915 31.0463L34.6912 31.0451ZM35.2308 19.741C35.496 19.741 35.7504 19.6356 35.9379 19.4481C36.1254 19.2606 36.2308 19.0062 36.2308 18.741C36.2308 18.4758 36.1254 18.2214 35.9379 18.0339C35.7504 17.8463 35.496 17.741 35.2308 17.741H31.2308C31.1657 17.7473 31.1014 17.7602 31.0389 17.7797L31.0323 17.781C30.9108 17.8053 30.7952 17.8527 30.6916 17.9205L30.672 17.9338C30.5763 17.9998 30.4933 18.0823 30.4267 18.1776C30.4188 18.1884 30.4067 18.1937 30.3992 18.2048C30.3921 18.2156 30.3919 18.2283 30.3851 18.2392C30.3138 18.3668 30.2675 18.5069 30.2488 18.6519C30.2459 18.6828 30.2308 18.7094 30.2308 18.741V22.741C30.2308 23.0062 30.3361 23.2606 30.5237 23.4481C30.7112 23.6356 30.9656 23.741 31.2308 23.741C31.496 23.741 31.7503 23.6356 31.9379 23.4481C32.1254 23.2606 32.2308 23.0062 32.2308 22.741V20.9581C33.5196 22.4161 34.2309 24.295 34.2308 26.2409C34.231 26.535 34.2134 26.8289 34.178 27.1208C34.1463 27.384 34.2204 27.6491 34.3839 27.8578C34.5474 28.0665 34.787 28.2018 35.0501 28.2341C35.0906 28.2388 35.1314 28.2411 35.1722 28.2409C35.4164 28.2406 35.652 28.151 35.8346 27.9889C36.0172 27.8268 36.1341 27.6035 36.1634 27.361C36.2087 26.9894 36.2312 26.6154 36.2308 26.241C36.2294 23.8548 35.3718 21.5483 33.8138 19.741H35.2308Z" fill="white"/>
<defs>
<linearGradient id="paint0_linear_150_6188" x1="26.2391" y1="0" x2="26.2391" y2="52.4781" gradientUnits="userSpaceOnUse">
<stop stop-color="#003268"/>
<stop offset="1" stop-color="#5280CA"/>
</linearGradient>
</defs>
</svg>
