<svg width="53" height="53" viewBox="0 0 53 53" fill="none" xmlns="http://www.w3.org/2000/svg">
<path d="M0 10C0 4.47715 4.47715 0 10 0H42.4781C48.001 0 52.4781 4.47715 52.4781 10V42.4781C52.4781 48.001 48.001 52.4781 42.4781 52.4781H10C4.47715 52.4781 0 48.001 0 42.4781V10Z" fill="url(#paint0_linear_150_6212)"/>
<path d="M26.239 26.239C25.6457 26.239 25.0656 26.415 24.5723 26.7446C24.079 27.0742 23.6944 27.5428 23.4674 28.091C23.2403 28.6391 23.1809 29.2423 23.2967 29.8243C23.4124 30.4062 23.6981 30.9408 24.1177 31.3603C24.5373 31.7799 25.0718 32.0656 25.6537 32.1814C26.2357 32.2971 26.8389 32.2377 27.3871 32.0107C27.9352 31.7836 28.4038 31.3991 28.7334 30.9057C29.0631 30.4124 29.239 29.8324 29.239 29.239C29.239 28.4434 28.9229 27.6803 28.3603 27.1177C27.7977 26.5551 27.0347 26.239 26.239 26.239ZM26.239 30.239C26.0412 30.239 25.8479 30.1804 25.6834 30.0705C25.519 29.9606 25.3908 29.8044 25.3151 29.6217C25.2394 29.439 25.2196 29.2379 25.2582 29.0439C25.2968 28.8499 25.3921 28.6718 25.5319 28.5319C25.6718 28.3921 25.8499 28.2968 26.0439 28.2582C26.2379 28.2196 26.439 28.2394 26.6217 28.3151C26.8044 28.3908 26.9606 28.519 27.0705 28.6834C27.1804 28.8479 27.239 29.0412 27.239 29.239C27.239 29.5042 27.1337 29.7586 26.9461 29.9461C26.7586 30.1337 26.5042 30.239 26.239 30.239ZM25.529 23.949C25.6241 24.0401 25.7363 24.1114 25.859 24.159C25.9787 24.2119 26.1081 24.2392 26.239 24.2392C26.3699 24.2392 26.4993 24.2119 26.619 24.159C26.7418 24.1114 26.8539 24.0401 26.949 23.949L29.239 21.699C29.4326 21.5054 29.5414 21.2428 29.5414 20.969C29.5414 20.6952 29.4326 20.4326 29.239 20.239C29.0454 20.0454 28.7828 19.9366 28.509 19.9366C28.2352 19.9366 27.9726 20.0454 27.779 20.239L27.239 20.829V17.239C27.239 16.9738 27.1337 16.7194 26.9461 16.5319C26.7586 16.3444 26.5042 16.239 26.239 16.239C25.9738 16.239 25.7194 16.3444 25.5319 16.5319C25.3444 16.7194 25.239 16.9738 25.239 17.239V20.829L24.699 20.239C24.5054 20.0454 24.2428 19.9366 23.969 19.9366C23.6952 19.9366 23.4326 20.0454 23.239 20.239C23.0454 20.4326 22.9366 20.6952 22.9366 20.969C22.9366 21.2428 23.0454 21.5054 23.239 21.699L25.529 23.949ZM33.239 29.239C33.239 29.0412 33.1804 28.8479 33.0705 28.6834C32.9606 28.519 32.8044 28.3908 32.6217 28.3151C32.439 28.2394 32.2379 28.2196 32.0439 28.2582C31.8499 28.2968 31.6718 28.3921 31.5319 28.5319C31.3921 28.6718 31.2968 28.8499 31.2582 29.0439C31.2196 29.2379 31.2394 29.439 31.3151 29.6217C31.3908 29.8044 31.519 29.9606 31.6834 30.0705C31.8479 30.1804 32.0412 30.239 32.239 30.239C32.5042 30.239 32.7586 30.1337 32.9461 29.9461C33.1337 29.7586 33.239 29.5042 33.239 29.239ZM34.239 22.239H31.239C30.9738 22.239 30.7194 22.3444 30.5319 22.5319C30.3444 22.7194 30.239 22.9738 30.239 23.239C30.239 23.5042 30.3444 23.7586 30.5319 23.9461C30.7194 24.1337 30.9738 24.239 31.239 24.239H34.239C34.5042 24.239 34.7586 24.3444 34.9461 24.5319C35.1337 24.7194 35.239 24.9738 35.239 25.239V33.239C35.239 33.5042 35.1337 33.7586 34.9461 33.9461C34.7586 34.1337 34.5042 34.239 34.239 34.239H18.239C17.9738 34.239 17.7194 34.1337 17.5319 33.9461C17.3444 33.7586 17.239 33.5042 17.239 33.239V25.239C17.239 24.9738 17.3444 24.7194 17.5319 24.5319C17.7194 24.3444 17.9738 24.239 18.239 24.239H21.239C21.5042 24.239 21.7586 24.1337 21.9461 23.9461C22.1337 23.7586 22.239 23.5042 22.239 23.239C22.239 22.9738 22.1337 22.7194 21.9461 22.5319C21.7586 22.3444 21.5042 22.239 21.239 22.239H18.239C17.4434 22.239 16.6803 22.5551 16.1177 23.1177C15.5551 23.6803 15.239 24.4434 15.239 25.239V33.239C15.239 34.0347 15.5551 34.7977 16.1177 35.3603C16.6803 35.9229 17.4434 36.239 18.239 36.239H34.239C35.0347 36.239 35.7977 35.9229 36.3603 35.3603C36.9229 34.7977 37.239 34.0347 37.239 33.239V25.239C37.239 24.4434 36.9229 23.6803 36.3603 23.1177C35.7977 22.5551 35.0347 22.239 34.239 22.239ZM19.239 29.239C19.239 29.4368 19.2977 29.6301 19.4075 29.7946C19.5174 29.959 19.6736 30.0872 19.8563 30.1629C20.0391 30.2386 20.2401 30.2584 20.4341 30.2198C20.6281 30.1812 20.8063 30.086 20.9461 29.9461C21.086 29.8063 21.1812 29.6281 21.2198 29.4341C21.2584 29.2401 21.2386 29.0391 21.1629 28.8563C21.0872 28.6736 20.959 28.5174 20.7946 28.4075C20.6301 28.2977 20.4368 28.239 20.239 28.239C19.9738 28.239 19.7194 28.3444 19.5319 28.5319C19.3444 28.7194 19.239 28.9738 19.239 29.239Z" fill="white"/>
<defs>
<linearGradient id="paint0_linear_150_6212" x1="26.2391" y1="0" x2="26.2391" y2="52.4781" gradientUnits="userSpaceOnUse">
<stop stop-color="#003268"/>
<stop offset="1" stop-color="#5280CA"/>
</linearGradient>
</defs>
</svg>
