<svg width="53" height="53" viewBox="0 0 53 53" fill="none" xmlns="http://www.w3.org/2000/svg">
<path d="M0 10C0 4.47715 4.47715 0 10 0H42.4781C48.001 0 52.4781 4.47715 52.4781 10V42.4781C52.4781 48.001 48.001 52.4781 42.4781 52.4781H10C4.47715 52.4781 0 48.001 0 42.4781V10Z" fill="url(#paint0_linear_150_6229)"/>
<path d="M35.2391 24.239C35.3704 24.239 35.5005 24.2132 35.6218 24.163C35.7431 24.1127 35.8534 24.0391 35.9463 23.9462C36.0391 23.8533 36.1128 23.7431 36.163 23.6217C36.2133 23.5004 36.2391 23.3703 36.2391 23.239V20.239C36.2392 20.0292 36.1732 19.8247 36.0505 19.6545C35.9278 19.4843 35.7546 19.357 35.5555 19.2908L26.5555 16.2908C26.3501 16.2224 26.1281 16.2224 25.9227 16.2908L16.9227 19.2908C16.7236 19.357 16.5504 19.4843 16.4277 19.6545C16.305 19.8247 16.239 20.0292 16.2391 20.239V23.239C16.239 23.3703 16.2649 23.5004 16.3151 23.6217C16.3654 23.7431 16.439 23.8533 16.5319 23.9462C16.6248 24.0391 16.735 24.1127 16.8564 24.163C16.9777 24.2132 17.1077 24.239 17.2391 24.239H18.2391V31.4233C17.6558 31.6287 17.1504 32.0097 16.7923 32.5138C16.4342 33.018 16.241 33.6206 16.2391 34.239V36.239C16.239 36.3703 16.2649 36.5004 16.3151 36.6217C16.3654 36.7431 16.439 36.8533 16.5319 36.9462C16.6248 37.0391 16.735 37.1127 16.8564 37.163C16.9777 37.2132 17.1077 37.239 17.2391 37.239H35.2391C35.3704 37.239 35.5005 37.2132 35.6218 37.163C35.7431 37.1127 35.8534 37.0391 35.9463 36.9462C36.0391 36.8533 36.1128 36.7431 36.163 36.6217C36.2133 36.5004 36.2391 36.3703 36.2391 36.239V34.239C36.2372 33.6206 36.0439 33.018 35.6858 32.5138C35.3277 32.0097 34.8223 31.6287 34.2391 31.4233V24.239H35.2391ZM34.2391 35.239H18.2391V34.239C18.2393 33.9739 18.3448 33.7197 18.5323 33.5322C18.7197 33.3447 18.9739 33.2393 19.2391 33.239H33.2391C33.5042 33.2393 33.7584 33.3447 33.9459 33.5322C34.1334 33.7197 34.2388 33.9739 34.2391 34.239V35.239ZM20.2391 31.239V24.239H22.2391V31.239H20.2391ZM24.2391 31.239V24.239H28.2391V31.239H24.2391ZM30.2391 31.239V24.239H32.2391V31.239H30.2391ZM18.2391 22.239V20.9597L26.2391 18.2927L34.2391 20.9597V22.239H18.2391Z" fill="white"/>
<defs>
<linearGradient id="paint0_linear_150_6229" x1="26.2391" y1="0" x2="26.2391" y2="52.4781" gradientUnits="userSpaceOnUse">
<stop stop-color="#003268"/>
<stop offset="1" stop-color="#5280CA"/>
</linearGradient>
</defs>
</svg>
