<svg width="53" height="53" viewBox="0 0 53 53" fill="none" xmlns="http://www.w3.org/2000/svg">
<path d="M0 10C0 4.47715 4.47715 0 10 0H42.4781C48.001 0 52.4781 4.47715 52.4781 10V42.4781C52.4781 48.001 48.001 52.4781 42.4781 52.4781H10C4.47715 52.4781 0 48.001 0 42.4781V10Z" fill="url(#paint0_linear_150_6237)"/>
<path d="M26.2074 34.9001H19.3674C19.065 34.9001 18.7751 34.786 18.5613 34.5829C18.3475 34.3798 18.2274 34.1043 18.2274 33.8171V18.6548C18.2274 18.3676 18.3475 18.0921 18.5613 17.889C18.7751 17.6859 19.065 17.5718 19.3674 17.5718H25.0674V20.8209C25.0674 21.6826 25.4277 22.509 26.0691 23.1183C26.7105 23.7276 27.5804 24.0699 28.4874 24.0699H31.9074V29.485C31.9074 29.7722 32.0275 30.0477 32.2413 30.2508C32.4551 30.4539 32.7451 30.568 33.0474 30.568C33.3498 30.568 33.6397 30.4539 33.8535 30.2508C34.0673 30.0477 34.1874 29.7722 34.1874 29.485V22.9869C34.1874 22.9869 34.1874 22.9869 34.1874 22.9219C34.1756 22.8224 34.1526 22.7244 34.119 22.6295V22.532C34.0642 22.4207 33.9911 22.3183 33.9024 22.2288L27.0624 15.7307C26.9682 15.6464 26.8604 15.577 26.7432 15.5249C26.7055 15.5186 26.6669 15.5186 26.6292 15.5249C26.5184 15.4686 26.3992 15.4284 26.2758 15.4058H19.3674C18.4604 15.4058 17.5905 15.7481 16.9491 16.3574C16.3077 16.9667 15.9474 17.7931 15.9474 18.6548V33.8171C15.9474 34.6788 16.3077 35.5052 16.9491 36.1145C17.5905 36.7238 18.4604 37.0661 19.3674 37.0661H26.2074C26.5098 37.0661 26.7997 36.952 27.0135 36.7489C27.2273 36.5458 27.3474 36.2704 27.3474 35.9831C27.3474 35.6959 27.2273 35.4204 27.0135 35.2173C26.7997 35.0142 26.5098 34.9001 26.2074 34.9001ZM27.3474 19.0989L30.3 21.9039H28.4874C28.1851 21.9039 27.8951 21.7898 27.6813 21.5867C27.4675 21.3836 27.3474 21.1081 27.3474 20.8209V19.0989ZM21.6474 28.402H28.4874C28.7898 28.402 29.0797 28.2879 29.2935 28.0848C29.5073 27.8817 29.6274 27.6062 29.6274 27.319C29.6274 27.0317 29.5073 26.7563 29.2935 26.5532C29.0797 26.3501 28.7898 26.236 28.4874 26.236H21.6474C21.3451 26.236 21.0551 26.3501 20.8413 26.5532C20.6275 26.7563 20.5074 27.0317 20.5074 27.319C20.5074 27.6062 20.6275 27.8817 20.8413 28.0848C21.0551 28.2879 21.3451 28.402 21.6474 28.402ZM26.2074 30.568H21.6474C21.3451 30.568 21.0551 30.6821 20.8413 30.8852C20.6275 31.0883 20.5074 31.3638 20.5074 31.6511C20.5074 31.9383 20.6275 32.2138 20.8413 32.4169C21.0551 32.62 21.3451 32.7341 21.6474 32.7341H26.2074C26.5098 32.7341 26.7997 32.62 27.0135 32.4169C27.2273 32.2138 27.3474 31.9383 27.3474 31.6511C27.3474 31.3638 27.2273 31.0883 27.0135 30.8852C26.7997 30.6821 26.5098 30.568 26.2074 30.568ZM21.6474 24.0699H22.7874C23.0898 24.0699 23.3797 23.9558 23.5935 23.7527C23.8073 23.5496 23.9274 23.2741 23.9274 22.9869C23.9274 22.6997 23.8073 22.4242 23.5935 22.2211C23.3797 22.018 23.0898 21.9039 22.7874 21.9039H21.6474C21.3451 21.9039 21.0551 22.018 20.8413 22.2211C20.6275 22.4242 20.5074 22.6997 20.5074 22.9869C20.5074 23.2741 20.6275 23.5496 20.8413 23.7527C21.0551 23.9558 21.3451 24.0699 21.6474 24.0699ZM37.2768 30.8821C37.1709 30.7806 37.0448 30.7 36.9059 30.645C36.7669 30.5901 36.6179 30.5618 36.4674 30.5618C36.3169 30.5618 36.1679 30.5901 36.029 30.645C35.8901 30.7 35.764 30.7806 35.658 30.8821L31.9074 34.4561L30.4368 33.0481C30.3305 32.9472 30.2043 32.8671 30.0655 32.8124C29.9266 32.7578 29.7777 32.7296 29.6274 32.7296C29.4771 32.7296 29.3283 32.7578 29.1894 32.8124C29.0505 32.8671 28.9243 32.9472 28.818 33.0481C28.7117 33.1491 28.6274 33.269 28.5699 33.4009C28.5124 33.5329 28.4828 33.6743 28.4828 33.8171C28.4828 33.9599 28.5124 34.1013 28.5699 34.2332C28.6274 34.3652 28.7117 34.4851 28.818 34.586L31.098 36.7521C31.204 36.8536 31.3301 36.9342 31.469 36.9891C31.6079 37.0441 31.7569 37.0724 31.9074 37.0724C32.0579 37.0724 32.2069 37.0441 32.3458 36.9891C32.4848 36.9342 32.6109 36.8536 32.7168 36.7521L37.2768 32.42C37.3837 32.3193 37.4685 32.1995 37.5264 32.0676C37.5843 31.9356 37.6141 31.794 37.6141 31.6511C37.6141 31.5081 37.5843 31.3665 37.5264 31.2345C37.4685 31.1026 37.3837 30.9828 37.2768 30.8821Z" fill="white"/>
<defs>
<linearGradient id="paint0_linear_150_6237" x1="26.2391" y1="0" x2="26.2391" y2="52.4781" gradientUnits="userSpaceOnUse">
<stop stop-color="#003268"/>
<stop offset="1" stop-color="#5280CA"/>
</linearGradient>
</defs>
</svg>
