<svg width="32" height="32" viewBox="0 0 32 32" fill="none" xmlns="http://www.w3.org/2000/svg">
<path d="M17.3334 21.3333H9.33343C8.9798 21.3333 8.64067 21.4738 8.39062 21.7239C8.14057 21.9739 8.00009 22.3131 8.00009 22.6667C8.00009 23.0203 8.14057 23.3594 8.39062 23.6095C8.64067 23.8595 8.9798 24 9.33343 24H17.3334C17.687 24 18.0262 23.8595 18.2762 23.6095C18.5263 23.3594 18.6668 23.0203 18.6668 22.6667C18.6668 22.3131 18.5263 21.9739 18.2762 21.7239C18.0262 21.4738 17.687 21.3333 17.3334 21.3333ZM12.0001 13.3333H14.6668C15.0204 13.3333 15.3595 13.1929 15.6096 12.9428C15.8596 12.6928 16.0001 12.3536 16.0001 12C16.0001 11.6464 15.8596 11.3072 15.6096 11.0572C15.3595 10.8072 15.0204 10.6667 14.6668 10.6667H12.0001C11.6465 10.6667 11.3073 10.8072 11.0573 11.0572C10.8072 11.3072 10.6668 11.6464 10.6668 12C10.6668 12.3536 10.8072 12.6928 11.0573 12.9428C11.3073 13.1929 11.6465 13.3333 12.0001 13.3333ZM28.0001 16H24.0001V4.00001C24.001 3.76506 23.9399 3.53404 23.8228 3.33034C23.7057 3.12663 23.5369 2.95748 23.3334 2.84001C23.1307 2.72299 22.9008 2.66138 22.6668 2.66138C22.4327 2.66138 22.2028 2.72299 22.0001 2.84001L18.0001 5.13334L14.0001 2.84001C13.7974 2.72299 13.5675 2.66138 13.3334 2.66138C13.0994 2.66138 12.8695 2.72299 12.6668 2.84001L8.66676 5.13334L4.66676 2.84001C4.46407 2.72299 4.23414 2.66138 4.00009 2.66138C3.76604 2.66138 3.53612 2.72299 3.33343 2.84001C3.12995 2.95748 2.96113 3.12663 2.84406 3.33034C2.72699 3.53404 2.66583 3.76506 2.66676 4.00001V25.3333C2.66676 26.3942 3.08819 27.4116 3.83833 28.1618C4.58848 28.9119 5.60589 29.3333 6.66676 29.3333H25.3334C26.3943 29.3333 27.4117 28.9119 28.1619 28.1618C28.912 27.4116 29.3334 26.3942 29.3334 25.3333V17.3333C29.3334 16.9797 29.193 16.6406 28.9429 16.3905C28.6929 16.1405 28.3537 16 28.0001 16ZM6.66676 26.6667C6.31314 26.6667 5.974 26.5262 5.72395 26.2762C5.4739 26.0261 5.33343 25.687 5.33343 25.3333V6.30668L8.00009 7.82668C8.20588 7.93416 8.4346 7.99029 8.66676 7.99029C8.89892 7.99029 9.12764 7.93416 9.33343 7.82668L13.3334 5.53334L17.3334 7.82668C17.5392 7.93416 17.7679 7.99029 18.0001 7.99029C18.2323 7.99029 18.461 7.93416 18.6668 7.82668L21.3334 6.30668V25.3333C21.337 25.7882 21.4182 26.2391 21.5734 26.6667H6.66676ZM26.6668 25.3333C26.6668 25.687 26.5263 26.0261 26.2762 26.2762C26.0262 26.5262 25.687 26.6667 25.3334 26.6667C24.9798 26.6667 24.6407 26.5262 24.3906 26.2762C24.1406 26.0261 24.0001 25.687 24.0001 25.3333V18.6667H26.6668V25.3333ZM17.3334 16H9.33343C8.9798 16 8.64067 16.1405 8.39062 16.3905C8.14057 16.6406 8.00009 16.9797 8.00009 17.3333C8.00009 17.687 8.14057 18.0261 8.39062 18.2762C8.64067 18.5262 8.9798 18.6667 9.33343 18.6667H17.3334C17.687 18.6667 18.0262 18.5262 18.2762 18.2762C18.5263 18.0261 18.6668 17.687 18.6668 17.3333C18.6668 16.9797 18.5263 16.6406 18.2762 16.3905C18.0262 16.1405 17.687 16 17.3334 16Z" fill="white"/>
</svg>
