<svg width="32" height="32" viewBox="0 0 32 32" fill="none" xmlns="http://www.w3.org/2000/svg">
<path d="M28.0001 13.3332C28.1752 13.3333 28.3486 13.2988 28.5104 13.2318C28.6722 13.1649 28.8192 13.0666 28.943 12.9428C29.0668 12.819 29.165 12.672 29.232 12.5102C29.299 12.3484 29.3335 12.175 29.3334 11.9999V7.99992C29.3335 7.72015 29.2455 7.44745 29.0819 7.22051C28.9183 6.99357 28.6874 6.82391 28.422 6.7356L16.422 2.7356C16.1481 2.64445 15.8521 2.64445 15.5782 2.7356L3.5782 6.7356C3.31274 6.82391 3.08183 6.99357 2.91822 7.22051C2.75462 7.44745 2.66663 7.72015 2.66675 7.99992V11.9999C2.6667 12.175 2.70116 12.3484 2.76815 12.5102C2.83514 12.672 2.93335 12.819 3.05717 12.9428C3.18099 13.0666 3.328 13.1649 3.48978 13.2318C3.65157 13.2988 3.82497 13.3333 4.00008 13.3332H5.33341V22.9123C4.55573 23.1862 3.8819 23.6941 3.40444 24.3663C2.92697 25.0386 2.66928 25.8421 2.66675 26.6666V29.3333C2.6667 29.5084 2.70116 29.6818 2.76815 29.8435C2.83514 30.0053 2.93335 30.1523 3.05717 30.2762C3.18099 30.4 3.328 30.4982 3.48978 30.5652C3.65157 30.6322 3.82497 30.6666 4.00008 30.6666H28.0001C28.1752 30.6666 28.3486 30.6322 28.5104 30.5652C28.6722 30.4982 28.8192 30.4 28.943 30.2762C29.0668 30.1523 29.165 30.0053 29.232 29.8435C29.299 29.6818 29.3335 29.5084 29.3334 29.3333V26.6666C29.3309 25.8421 29.0732 25.0386 28.5957 24.3663C28.1183 23.6941 27.4444 23.1862 26.6667 22.9123V13.3332H28.0001ZM26.6667 27.9999H5.33341V26.6666C5.33377 26.3131 5.47436 25.9741 5.72433 25.7242C5.9743 25.4742 6.31323 25.3336 6.66675 25.3333H25.3334C25.6869 25.3336 26.0259 25.4742 26.2758 25.7242C26.5258 25.9741 26.6664 26.3131 26.6667 26.6666V27.9999ZM8.00008 22.6666V13.3332H10.6667V22.6666H8.00008ZM13.3334 22.6666V13.3332H18.6667V22.6666H13.3334ZM21.3334 22.6666V13.3332H24.0001V22.6666H21.3334ZM5.33341 10.6666V8.96085L16.0001 5.40485L26.6667 8.96085V10.6666H5.33341Z" fill="white"/>
</svg>
