<svg width="32" height="32" viewBox="0 0 32 32" fill="none" xmlns="http://www.w3.org/2000/svg">
<path d="M27.36 5.16008C26.81 4.01106 25.9424 3.04366 24.8598 2.37238C23.7772 1.70109 22.5249 1.35403 21.2512 1.37227C19.9775 1.3905 18.7356 1.77327 17.6727 2.47528C16.6097 3.17728 15.7702 4.16912 15.2533 5.33341H9.33333C8.27246 5.33341 7.25504 5.75484 6.5049 6.50499C5.75475 7.25513 5.33333 8.27255 5.33333 9.33341V14.6667C5.33333 15.0204 5.4738 15.3595 5.72385 15.6096C5.9739 15.8596 6.31304 16.0001 6.66666 16.0001C7.02028 16.0001 7.35942 15.8596 7.60947 15.6096C7.85952 15.3595 7.99999 15.0204 7.99999 14.6667V9.33341C7.99999 8.97979 8.14047 8.64065 8.39052 8.3906C8.64056 8.14055 8.9797 8.00008 9.33333 8.00008H13.04C12.3763 8.73026 12.0059 9.68001 12 10.6667C12 11.7276 12.4214 12.745 13.1716 13.4952C13.9217 14.2453 14.9391 14.6667 16 14.6667H25.7733C26.9343 14.6751 28.0603 14.2693 28.9489 13.5221C29.8376 12.7749 30.4308 11.7354 30.6219 10.5902C30.813 9.44505 30.5896 8.26924 29.9918 7.27397C29.3939 6.27871 28.4608 5.52921 27.36 5.16008ZM25.7733 12.0001H16C15.6464 12.0001 15.3072 11.8596 15.0572 11.6096C14.8071 11.3595 14.6667 11.0204 14.6667 10.6667C14.6667 10.3131 14.8071 9.97399 15.0572 9.72394C15.3072 9.47389 15.6464 9.33341 16 9.33341C16.3536 9.33341 16.6928 9.19294 16.9428 8.94289C17.1928 8.69284 17.3333 8.3537 17.3333 8.00008C17.3226 7.04855 17.6514 6.12436 18.2607 5.39346C18.8701 4.66256 19.72 4.17284 20.658 4.01223C21.5959 3.85163 22.5604 4.03066 23.3782 4.51719C24.196 5.00371 24.8136 5.76585 25.12 6.66675C25.1962 6.89587 25.3332 7.09999 25.5164 7.25732C25.6995 7.41466 25.922 7.5193 26.16 7.56008C26.6814 7.64646 27.1543 7.91767 27.4922 8.32409C27.83 8.73052 28.0103 9.24499 28 9.77341C28 10.0658 27.9424 10.3554 27.8305 10.6255C27.7186 10.8957 27.5546 11.1411 27.3478 11.3479C27.1411 11.5547 26.8956 11.7187 26.6254 11.8306C26.3553 11.9425 26.0657 12.0001 25.7733 12.0001ZM25.3333 17.3334C24.9797 17.3334 24.6406 17.4739 24.3905 17.7239C24.1405 17.974 24 18.3131 24 18.6667V22.6667C24 23.0204 23.8595 23.3595 23.6095 23.6096C23.3594 23.8596 23.0203 24.0001 22.6667 24.0001H19.6533C19.3956 23.3402 18.9974 22.7444 18.4862 22.254C17.9751 21.7635 17.3633 21.3903 16.6933 21.1601C16.0891 19.8778 15.0919 18.8215 13.8466 18.1446C12.6012 17.4676 11.1725 17.2052 9.76783 17.3955C8.36318 17.5857 7.05574 18.2187 6.03533 19.2026C5.01492 20.1865 4.33466 21.47 4.09333 22.8667C3.19037 23.1635 2.42261 23.7721 1.92759 24.5835C1.43258 25.3949 1.24267 26.3561 1.3919 27.2948C1.54113 28.2335 2.01974 29.0883 2.74197 29.7062C3.4642 30.3241 4.38285 30.6646 5.33333 30.6667H15.1067C16.2483 30.6667 17.3537 30.2665 18.2308 29.5357C19.1078 28.8048 19.7008 27.7896 19.9067 26.6667H22.6667C23.7275 26.6667 24.7449 26.2453 25.4951 25.4952C26.2452 24.745 26.6667 23.7276 26.6667 22.6667V18.6667C26.6667 18.3131 26.5262 17.974 26.2761 17.7239C26.0261 17.4739 25.6869 17.3334 25.3333 17.3334ZM15.1067 28.0001H5.33333C4.9797 28.0001 4.64056 27.8596 4.39052 27.6096C4.14047 27.3595 3.99999 27.0204 3.99999 26.6667C3.99999 26.3131 4.14047 25.974 4.39052 25.7239C4.64056 25.4739 4.9797 25.3334 5.33333 25.3334C5.68695 25.3334 6.02609 25.1929 6.27613 24.9429C6.52618 24.6928 6.66666 24.3537 6.66666 24.0001C6.6559 23.0486 6.98472 22.1244 7.59406 21.3935C8.20341 20.6626 9.05336 20.1728 9.9913 20.0122C10.9292 19.8516 11.8937 20.0307 12.7115 20.5172C13.5293 21.0037 14.1469 21.7659 14.4533 22.6667C14.5295 22.8959 14.6665 23.1 14.8497 23.2573C15.0329 23.4147 15.2553 23.5193 15.4933 23.5601C16.0147 23.6465 16.4876 23.9177 16.8255 24.3241C17.1634 24.7305 17.3436 25.245 17.3333 25.7734C17.3333 26.0658 17.2757 26.3554 17.1638 26.6255C17.0519 26.8957 16.8879 27.1411 16.6811 27.3479C16.4744 27.5547 16.2289 27.7187 15.9588 27.8306C15.6886 27.9425 15.3991 28.0001 15.1067 28.0001Z" fill="white"/>
</svg>
