<svg width="26" height="26" viewBox="0 0 26 26" fill="none" xmlns="http://www.w3.org/2000/svg">
<path d="M20.9386 3.89338C20.8147 3.79313 20.6699 3.72194 20.5148 3.68502C20.3598 3.6481 20.1984 3.6464 20.0426 3.68004C18.9028 3.91892 17.7262 3.92196 16.5852 3.68899C15.4441 3.45601 14.3629 2.99195 13.4079 2.32538C13.2294 2.20151 13.0173 2.13513 12.7999 2.13513C12.5826 2.13513 12.3705 2.20151 12.1919 2.32538C11.237 2.99195 10.1558 3.45601 9.01473 3.68899C7.87371 3.92196 6.69708 3.91892 5.55727 3.68004C5.40148 3.6464 5.24012 3.6481 5.08506 3.68502C4.93001 3.72194 4.7852 3.79313 4.66127 3.89338C4.53752 3.99377 4.43783 4.12062 4.36953 4.26459C4.30124 4.40857 4.26607 4.56602 4.26661 4.72538V12.672C4.26566 14.2014 4.6301 15.7088 5.32958 17.0688C6.02906 18.4288 7.04333 19.602 8.28794 20.4907L12.1813 23.264C12.3619 23.3927 12.5782 23.4618 12.7999 23.4618C13.0217 23.4618 13.238 23.3927 13.4186 23.264L17.3119 20.4907C18.5566 19.602 19.5708 18.4288 20.2703 17.0688C20.9698 15.7088 21.3342 14.2014 21.3333 12.672V4.72538C21.3338 4.56602 21.2986 4.40857 21.2304 4.26459C21.1621 4.12062 21.0624 3.99377 20.9386 3.89338ZM19.1999 12.672C19.2008 13.8611 18.9176 15.0332 18.374 16.0907C17.8304 17.1483 17.042 18.0607 16.0746 18.752L12.7999 21.088L9.52527 18.752C8.55785 18.0607 7.76953 17.1483 7.22591 16.0907C6.6823 15.0332 6.39912 13.8611 6.39994 12.672V5.95204C8.63613 6.14344 10.8757 5.6246 12.7999 4.46938C14.7242 5.6246 16.9638 6.14344 19.1999 5.95204V12.672ZM14.4426 10.2294L11.5733 13.1094L10.6239 12.1494C10.4231 11.9485 10.1507 11.8357 9.86661 11.8357C9.58255 11.8357 9.31013 11.9485 9.10927 12.1494C8.90842 12.3502 8.79558 12.6227 8.79558 12.9067C8.79558 13.1908 8.90842 13.4632 9.10927 13.664L10.8159 15.3707C10.9151 15.4707 11.0331 15.55 11.1631 15.6042C11.293 15.6583 11.4325 15.6862 11.5733 15.6862C11.7141 15.6862 11.8535 15.6583 11.9835 15.6042C12.1135 15.55 12.2314 15.4707 12.3306 15.3707L15.9999 11.7334C16.2008 11.5325 16.3136 11.2601 16.3136 10.976C16.3136 10.692 16.2008 10.4196 15.9999 10.2187C15.7991 10.0179 15.5267 9.90501 15.2426 9.90501C14.9586 9.90501 14.6861 10.0179 14.4853 10.2187L14.4426 10.2294Z" fill="white"/>
</svg>
