<svg width="32" height="32" viewBox="0 0 32 32" fill="none" xmlns="http://www.w3.org/2000/svg">
<path d="M25.3334 8H21.3334V6.66667C21.3334 5.95942 21.0525 5.28115 20.5524 4.78105C20.0523 4.28095 19.374 4 18.6667 4H13.3334C12.6262 4 11.9479 4.28095 11.4478 4.78105C10.9477 5.28115 10.6667 5.95942 10.6667 6.66667V8H6.66675C5.60588 8 4.58847 8.42143 3.83832 9.17157C3.08818 9.92172 2.66675 10.9391 2.66675 12V24C2.66675 25.0609 3.08818 26.0783 3.83832 26.8284C4.58847 27.5786 5.60588 28 6.66675 28H25.3334C26.3943 28 27.4117 27.5786 28.1618 26.8284C28.912 26.0783 29.3334 25.0609 29.3334 24V12C29.3334 10.9391 28.912 9.92172 28.1618 9.17157C27.4117 8.42143 26.3943 8 25.3334 8ZM13.3334 6.66667H18.6667V8H13.3334V6.66667ZM26.6667 24C26.6667 24.3536 26.5263 24.6928 26.2762 24.9428C26.0262 25.1929 25.687 25.3333 25.3334 25.3333H6.66675C6.31313 25.3333 5.97399 25.1929 5.72394 24.9428C5.47389 24.6928 5.33341 24.3536 5.33341 24V17.3333H10.6667V18.6667C10.6667 19.0203 10.8072 19.3594 11.0573 19.6095C11.3073 19.8595 11.6465 20 12.0001 20C12.3537 20 12.6928 19.8595 12.9429 19.6095C13.1929 19.3594 13.3334 19.0203 13.3334 18.6667V17.3333H18.6667V18.6667C18.6667 19.0203 18.8072 19.3594 19.0573 19.6095C19.3073 19.8595 19.6465 20 20.0001 20C20.3537 20 20.6928 19.8595 20.9429 19.6095C21.1929 19.3594 21.3334 19.0203 21.3334 18.6667V17.3333H26.6667V24ZM26.6667 14.6667H5.33341V12C5.33341 11.6464 5.47389 11.3072 5.72394 11.0572C5.97399 10.8071 6.31313 10.6667 6.66675 10.6667H25.3334C25.687 10.6667 26.0262 10.8071 26.2762 11.0572C26.5263 11.3072 26.6667 11.6464 26.6667 12V14.6667Z" fill="white"/>
</svg>
