<svg width="26" height="26" viewBox="0 0 26 26" fill="none" xmlns="http://www.w3.org/2000/svg">
<path d="M17.0669 14.9333H8.53353C8.25063 14.9333 7.97932 15.0457 7.77928 15.2457C7.57924 15.4458 7.46686 15.7171 7.46686 16C7.46686 16.2829 7.57924 16.5542 7.77928 16.7542C7.97932 16.9543 8.25063 17.0666 8.53353 17.0666H17.0669C17.3498 17.0666 17.6211 16.9543 17.8211 16.7542C18.0211 16.5542 18.1335 16.2829 18.1335 16C18.1335 15.7171 18.0211 15.4458 17.8211 15.2457C17.6211 15.0457 17.3498 14.9333 17.0669 14.9333ZM17.0669 10.6666H10.6669C10.384 10.6666 10.1127 10.779 9.91262 10.9791C9.71258 11.1791 9.6002 11.4504 9.6002 11.7333C9.6002 12.0162 9.71258 12.2875 9.91262 12.4875C10.1127 12.6876 10.384 12.8 10.6669 12.8H17.0669C17.3498 12.8 17.6211 12.6876 17.8211 12.4875C18.0211 12.2875 18.1335 12.0162 18.1335 11.7333C18.1335 11.4504 18.0211 11.1791 17.8211 10.9791C17.6211 10.779 17.3498 10.6666 17.0669 10.6666ZM21.3335 4.26663H18.1335V3.19997C18.1335 2.91707 18.0211 2.64576 17.8211 2.44572C17.6211 2.24568 17.3498 2.1333 17.0669 2.1333C16.784 2.1333 16.5127 2.24568 16.3126 2.44572C16.1126 2.64576 16.0002 2.91707 16.0002 3.19997V4.26663H13.8669V3.19997C13.8669 2.91707 13.7545 2.64576 13.5544 2.44572C13.3544 2.24568 13.0831 2.1333 12.8002 2.1333C12.5173 2.1333 12.246 2.24568 12.0459 2.44572C11.8459 2.64576 11.7335 2.91707 11.7335 3.19997V4.26663H9.6002V3.19997C9.6002 2.91707 9.48781 2.64576 9.28778 2.44572C9.08774 2.24568 8.81643 2.1333 8.53353 2.1333C8.25063 2.1333 7.97932 2.24568 7.77928 2.44572C7.57924 2.64576 7.46686 2.91707 7.46686 3.19997V4.26663H4.26686C3.98396 4.26663 3.71265 4.37901 3.51261 4.57905C3.31258 4.77909 3.2002 5.0504 3.2002 5.3333V20.2666C3.2002 21.1153 3.53734 21.9293 4.13745 22.5294C4.73757 23.1295 5.5515 23.4666 6.4002 23.4666H19.2002C20.0489 23.4666 20.8628 23.1295 21.4629 22.5294C22.0631 21.9293 22.4002 21.1153 22.4002 20.2666V5.3333C22.4002 5.0504 22.2878 4.77909 22.0878 4.57905C21.8877 4.37901 21.6164 4.26663 21.3335 4.26663ZM20.2669 20.2666C20.2669 20.5495 20.1545 20.8208 19.9544 21.0209C19.7544 21.2209 19.4831 21.3333 19.2002 21.3333H6.4002C6.1173 21.3333 5.84599 21.2209 5.64595 21.0209C5.44591 20.8208 5.33353 20.5495 5.33353 20.2666V6.39997H7.46686V7.46663C7.46686 7.74953 7.57924 8.02084 7.77928 8.22088C7.97932 8.42092 8.25063 8.5333 8.53353 8.5333C8.81643 8.5333 9.08774 8.42092 9.28778 8.22088C9.48781 8.02084 9.6002 7.74953 9.6002 7.46663V6.39997H11.7335V7.46663C11.7335 7.74953 11.8459 8.02084 12.0459 8.22088C12.246 8.42092 12.5173 8.5333 12.8002 8.5333C13.0831 8.5333 13.3544 8.42092 13.5544 8.22088C13.7545 8.02084 13.8669 7.74953 13.8669 7.46663V6.39997H16.0002V7.46663C16.0002 7.74953 16.1126 8.02084 16.3126 8.22088C16.5127 8.42092 16.784 8.5333 17.0669 8.5333C17.3498 8.5333 17.6211 8.42092 17.8211 8.22088C18.0211 8.02084 18.1335 7.74953 18.1335 7.46663V6.39997H20.2669V20.2666Z" fill="white"/>
</svg>
