<svg width="26" height="26" viewBox="0 0 26 26" fill="none" xmlns="http://www.w3.org/2000/svg">
<path d="M23.4337 10.6807L21.3859 9.99806L22.3502 8.06944C22.4479 7.86756 22.4806 7.64033 22.4437 7.41909C22.4069 7.19785 22.3022 6.9935 22.1443 6.83425L19.8365 4.52639C19.6763 4.36613 19.47 4.26007 19.2465 4.22315C19.023 4.18622 18.7936 4.22028 18.5904 4.32053L16.6618 5.28484L15.9792 3.23703C15.9071 3.02357 15.7703 2.83789 15.5877 2.70584C15.4052 2.57379 15.186 2.50192 14.9607 2.50025H11.7102C11.4831 2.49966 11.2615 2.57048 11.0768 2.70269C10.8921 2.8349 10.7536 3.02182 10.6809 3.23703L9.99828 5.28484L8.06965 4.32053C7.86778 4.22277 7.64054 4.19008 7.4193 4.22695C7.19806 4.26382 6.99371 4.36845 6.83446 4.52639L4.52661 6.83425C4.36634 6.99435 4.26029 7.20066 4.22336 7.42416C4.18643 7.64767 4.22049 7.87713 4.32074 8.08027L5.28506 10.0089L3.23724 10.6915C3.02378 10.7636 2.83811 10.9004 2.70605 11.083C2.574 11.2655 2.50213 11.4847 2.50046 11.71V14.9605C2.49988 15.1876 2.57069 15.4092 2.7029 15.5939C2.83512 15.7786 3.02204 15.9171 3.23724 15.9898L5.28506 16.6724L4.32074 18.601C4.22299 18.8029 4.19029 19.0302 4.22716 19.2514C4.26404 19.4726 4.36866 19.677 4.52661 19.8362L6.83446 22.1441C6.99456 22.3044 7.20087 22.4104 7.42438 22.4473C7.64788 22.4843 7.87734 22.4502 8.08048 22.35L10.0091 21.3856L10.6917 23.4335C10.7644 23.6487 10.9029 23.8356 11.0876 23.9678C11.2723 24.1 11.4939 24.1708 11.721 24.1702H14.9715C15.1987 24.1708 15.4203 24.1 15.605 23.9678C15.7897 23.8356 15.9282 23.6487 16.0009 23.4335L16.6835 21.3856L18.6121 22.35C18.8127 22.4452 19.0377 22.4766 19.2567 22.4398C19.4757 22.403 19.6781 22.2997 19.8365 22.1441L22.1443 19.8362C22.3046 19.6761 22.4106 19.4698 22.4475 19.2463C22.4845 19.0228 22.4504 18.7934 22.3502 18.5902L21.3859 16.6616L23.4337 15.979C23.6471 15.9069 23.8328 15.7701 23.9649 15.5875C24.0969 15.405 24.1688 15.1858 24.1705 14.9605V11.71C24.171 11.4828 24.1002 11.2613 23.968 11.0765C23.8358 10.8918 23.6489 10.7534 23.4337 10.6807ZM22.0035 14.1804L20.7033 14.6138C20.4043 14.7108 20.13 14.8716 19.8994 15.0852C19.6688 15.2988 19.4874 15.56 19.3678 15.8507C19.2482 16.1414 19.1933 16.4546 19.2069 16.7686C19.2205 17.0826 19.3022 17.39 19.4464 17.6692L20.064 18.9044L18.8721 20.0963L17.6695 19.4462C17.3916 19.3077 17.0872 19.2306 16.777 19.22C16.4667 19.2095 16.1578 19.2657 15.8712 19.3848C15.5845 19.504 15.3269 19.6834 15.1156 19.9108C14.9043 20.1383 14.7443 20.4084 14.6465 20.703L14.2131 22.0032H12.4903L12.0569 20.703C11.9599 20.4041 11.7991 20.1297 11.5855 19.8991C11.3719 19.6685 11.1107 19.4872 10.82 19.3676C10.5293 19.248 10.2161 19.1931 9.90209 19.2067C9.58806 19.2202 9.28075 19.302 9.00146 19.4462L7.76627 20.0638L6.57442 18.8719L7.22452 17.6692C7.36873 17.39 7.45045 17.0826 7.46402 16.7686C7.47759 16.4546 7.42269 16.1414 7.30311 15.8507C7.18354 15.56 7.00216 15.2988 6.77156 15.0852C6.54095 14.8716 6.26664 14.7108 5.96766 14.6138L4.66746 14.1804V12.4901L5.96766 12.0567C6.26664 11.9597 6.54095 11.7989 6.77156 11.5853C7.00216 11.3717 7.18354 11.1105 7.30311 10.8198C7.42269 10.5291 7.47759 10.2159 7.46402 9.90188C7.45045 9.58785 7.36873 9.28053 7.22452 9.00125L6.60692 7.79856L7.79877 6.60671L9.00146 7.22431C9.28075 7.36851 9.58806 7.45024 9.90209 7.46381C10.2161 7.47738 10.5293 7.42247 10.82 7.3029C11.1107 7.18333 11.3719 7.00195 11.5855 6.77134C11.7991 6.54074 11.9599 6.26643 12.0569 5.96745L12.4903 4.66725H14.1806L14.614 5.96745C14.711 6.26643 14.8718 6.54074 15.0854 6.77134C15.299 7.00195 15.5602 7.18333 15.8509 7.3029C16.1416 7.42247 16.4548 7.47738 16.7688 7.46381C17.0828 7.45024 17.3902 7.36851 17.6695 7.22431L18.9046 6.60671L20.0965 7.79856L19.4464 9.00125C19.308 9.2791 19.2308 9.58346 19.2203 9.89371C19.2097 10.204 19.2659 10.5129 19.3851 10.7995C19.5042 11.0862 19.6836 11.3438 19.911 11.5551C20.1385 11.7664 20.4086 11.9264 20.7033 12.0242L22.0035 12.4576V14.1804ZM13.3355 9.00125C12.4783 9.00125 11.6403 9.25543 10.9276 9.73166C10.2149 10.2079 9.65939 10.8848 9.33136 11.6767C9.00333 12.4686 8.91751 13.34 9.08473 14.1808C9.25196 15.0215 9.66474 15.7937 10.2709 16.3998C10.877 17.006 11.6492 17.4187 12.4899 17.586C13.3306 17.7532 14.2021 17.6674 14.994 17.3393C15.7859 17.0113 16.4628 16.4558 16.939 15.7431C17.4153 15.0304 17.6695 14.1924 17.6695 13.3352C17.6695 12.1858 17.2128 11.0834 16.4001 10.2706C15.5873 9.45786 14.4849 9.00125 13.3355 9.00125ZM13.3355 15.5022C12.9069 15.5022 12.4879 15.3751 12.1315 15.137C11.7752 14.8989 11.4974 14.5605 11.3334 14.1645C11.1694 13.7685 11.1265 13.3328 11.2101 12.9125C11.2937 12.4921 11.5001 12.106 11.8032 11.8029C12.1062 11.4999 12.4923 11.2935 12.9127 11.2099C13.3331 11.1263 13.7688 11.1692 14.1647 11.3332C14.5607 11.4972 14.8991 11.775 15.1372 12.1313C15.3754 12.4877 15.5025 12.9067 15.5025 13.3352C15.5025 13.91 15.2741 14.4612 14.8678 14.8675C14.4614 15.2739 13.9102 15.5022 13.3355 15.5022Z" fill="white"/>
</svg>
