<svg width="32" height="32" viewBox="0 0 32 32" fill="none" xmlns="http://www.w3.org/2000/svg">
<path d="M29.3333 19.9999H26.6666V15.9999C26.6666 15.6463 26.5261 15.3072 26.2761 15.0571C26.026 14.8071 25.6869 14.6666 25.3333 14.6666H17.3333V11.9999H19.9999C20.3535 11.9999 20.6927 11.8594 20.9427 11.6094C21.1928 11.3593 21.3333 11.0202 21.3333 10.6666V2.66659C21.3333 2.31296 21.1928 1.97382 20.9427 1.72378C20.6927 1.47373 20.3535 1.33325 19.9999 1.33325H11.9999C11.6463 1.33325 11.3072 1.47373 11.0571 1.72378C10.8071 1.97382 10.6666 2.31296 10.6666 2.66659V10.6666C10.6666 11.0202 10.8071 11.3593 11.0571 11.6094C11.3072 11.8594 11.6463 11.9999 11.9999 11.9999H14.6666V14.6666H6.66659C6.31296 14.6666 5.97383 14.8071 5.72378 15.0571C5.47373 15.3072 5.33325 15.6463 5.33325 15.9999V19.9999H2.66659C2.31296 19.9999 1.97382 20.1404 1.72378 20.3904C1.47373 20.6405 1.33325 20.9796 1.33325 21.3333V29.3333C1.33325 29.6869 1.47373 30.026 1.72378 30.2761C1.97382 30.5261 2.31296 30.6666 2.66659 30.6666H10.6666C11.0202 30.6666 11.3593 30.5261 11.6094 30.2761C11.8594 30.026 11.9999 29.6869 11.9999 29.3333V21.3333C11.9999 20.9796 11.8594 20.6405 11.6094 20.3904C11.3593 20.1404 11.0202 19.9999 10.6666 19.9999H7.99992V17.3333H23.9999V19.9999H21.3333C20.9796 19.9999 20.6405 20.1404 20.3904 20.3904C20.1404 20.6405 19.9999 20.9796 19.9999 21.3333V29.3333C19.9999 29.6869 20.1404 30.026 20.3904 30.2761C20.6405 30.5261 20.9796 30.6666 21.3333 30.6666H29.3333C29.6869 30.6666 30.026 30.5261 30.2761 30.2761C30.5261 30.026 30.6666 29.6869 30.6666 29.3333V21.3333C30.6666 20.9796 30.5261 20.6405 30.2761 20.3904C30.026 20.1404 29.6869 19.9999 29.3333 19.9999ZM9.33325 22.6666V27.9999H3.99992V22.6666H9.33325ZM13.3333 9.33325V3.99992H18.6666V9.33325H13.3333ZM27.9999 27.9999H22.6666V22.6666H27.9999V27.9999Z" fill="white"/>
</svg>
