<svg width="32" height="32" viewBox="0 0 32 32" fill="none" xmlns="http://www.w3.org/2000/svg">
<path d="M28 13.3332C28.1751 13.3333 28.3485 13.2988 28.5103 13.2318C28.672 13.1649 28.8191 13.0666 28.9429 12.9428C29.0667 12.819 29.1649 12.672 29.2319 12.5102C29.2989 12.3484 29.3333 12.175 29.3333 11.9999V7.99992C29.3334 7.72015 29.2454 7.44745 29.0818 7.22051C28.9182 6.99357 28.6873 6.82391 28.4218 6.7356L16.4218 2.7356C16.148 2.64445 15.8519 2.64445 15.5781 2.7356L3.57808 6.7356C3.31262 6.82391 3.0817 6.99357 2.9181 7.22051C2.7545 7.44745 2.66651 7.72015 2.66663 7.99992V11.9999C2.66658 12.175 2.70104 12.3484 2.76803 12.5102C2.83502 12.672 2.93323 12.819 3.05705 12.9428C3.18087 13.0666 3.32787 13.1649 3.48966 13.2318C3.65145 13.2988 3.82485 13.3333 3.99996 13.3332H5.33329V22.9123C4.55561 23.1862 3.88178 23.6941 3.40432 24.3663C2.92685 25.0386 2.66916 25.8421 2.66663 26.6666V29.3333C2.66658 29.5084 2.70104 29.6818 2.76803 29.8435C2.83502 30.0053 2.93323 30.1523 3.05705 30.2762C3.18087 30.4 3.32787 30.4982 3.48966 30.5652C3.65145 30.6322 3.82485 30.6666 3.99996 30.6666H28C28.1751 30.6666 28.3485 30.6322 28.5103 30.5652C28.672 30.4982 28.8191 30.4 28.9429 30.2762C29.0667 30.1523 29.1649 30.0053 29.2319 29.8435C29.2989 29.6818 29.3333 29.5084 29.3333 29.3333V26.6666C29.3308 25.8421 29.0731 25.0386 28.5956 24.3663C28.1181 23.6941 27.4443 23.1862 26.6666 22.9123V13.3332H28ZM26.6666 27.9999H5.33329V26.6666C5.33365 26.3131 5.47423 25.9741 5.72421 25.7242C5.97418 25.4742 6.31311 25.3336 6.66663 25.3333H25.3333C25.6868 25.3336 26.0257 25.4742 26.2757 25.7242C26.5257 25.9741 26.6663 26.3131 26.6666 26.6666V27.9999ZM7.99996 22.6666V13.3332H10.6666V22.6666H7.99996ZM13.3333 22.6666V13.3332H18.6666V22.6666H13.3333ZM21.3333 22.6666V13.3332H24V22.6666H21.3333ZM5.33329 10.6666V8.96085L16 5.40485L26.6666 8.96085V10.6666H5.33329Z" fill="white"/>
</svg>
