<svg width="32" height="32" viewBox="0 0 32 32" fill="none" xmlns="http://www.w3.org/2000/svg">
<path d="M26.5466 20.6801H20.5066C20.153 20.6801 19.8139 20.8206 19.5638 21.0706C19.3138 21.3207 19.1733 21.6598 19.1733 22.0134C19.1733 22.367 19.3138 22.7062 19.5638 22.9562C19.8139 23.2063 20.153 23.3467 20.5066 23.3467H23.7066C22.2359 24.8837 20.3392 25.9458 18.2602 26.3966C16.1812 26.8474 14.0149 26.6662 12.0397 25.8764C10.0644 25.0866 8.37045 23.7242 7.17541 21.9643C5.98038 20.2044 5.33886 18.1274 5.33329 16.0001C5.33329 15.6465 5.19282 15.3073 4.94277 15.0573C4.69272 14.8072 4.35358 14.6667 3.99996 14.6667C3.64634 14.6667 3.3072 14.8072 3.05715 15.0573C2.8071 15.3073 2.66663 15.6465 2.66663 16.0001C2.67367 18.6038 3.44292 21.1485 4.87943 23.3201C6.31594 25.4917 8.35685 27.1952 10.7503 28.2204C13.1437 29.2455 15.7849 29.5475 18.348 29.0889C20.911 28.6304 23.2837 27.4315 25.1733 25.6401V28.0001C25.1733 28.3537 25.3138 28.6928 25.5638 28.9429C25.8139 29.1929 26.153 29.3334 26.5066 29.3334C26.8602 29.3334 27.1994 29.1929 27.4494 28.9429C27.6995 28.6928 27.84 28.3537 27.84 28.0001V22.0001C27.8367 21.6556 27.7002 21.3258 27.4591 21.0797C27.218 20.8336 26.891 20.6904 26.5466 20.6801ZM16 2.66675C12.5818 2.6765 9.29795 3.99863 6.82663 6.36008V4.00008C6.82663 3.64646 6.68615 3.30732 6.4361 3.05727C6.18605 2.80722 5.84691 2.66675 5.49329 2.66675C5.13967 2.66675 4.80053 2.80722 4.55048 3.05727C4.30044 3.30732 4.15996 3.64646 4.15996 4.00008V10.0001C4.15996 10.3537 4.30044 10.6928 4.55048 10.9429C4.80053 11.1929 5.13967 11.3334 5.49329 11.3334H11.4933C11.8469 11.3334 12.1861 11.1929 12.4361 10.9429C12.6862 10.6928 12.8266 10.3537 12.8266 10.0001C12.8266 9.64646 12.6862 9.30732 12.4361 9.05727C12.1861 8.80722 11.8469 8.66675 11.4933 8.66675H8.29329C9.76325 7.13058 11.6587 6.06875 13.7365 5.61756C15.8142 5.16637 17.9794 5.34641 19.9541 6.13456C21.9288 6.92272 23.6229 8.28303 24.8189 10.0409C26.015 11.7987 26.6584 13.8739 26.6666 16.0001C26.6666 16.3537 26.8071 16.6928 27.0571 16.9429C27.3072 17.1929 27.6463 17.3334 28 17.3334C28.3536 17.3334 28.6927 17.1929 28.9428 16.9429C29.1928 16.6928 29.3333 16.3537 29.3333 16.0001C29.3333 14.2491 28.9884 12.5153 28.3184 10.8976C27.6483 9.27996 26.6662 7.81011 25.4281 6.57199C24.1899 5.33388 22.7201 4.35175 21.1024 3.68169C19.4847 3.01162 17.7509 2.66675 16 2.66675V2.66675Z" fill="white"/>
</svg>
