<svg width="32" height="32" viewBox="0 0 32 32" fill="none" xmlns="http://www.w3.org/2000/svg">
<path d="M28.9468 20.7733L22.9201 14.76C23.0462 14.1458 23.1088 13.5203 23.1068 12.8933C23.1063 11.1742 22.6725 9.48294 21.8454 7.97585C21.0183 6.46877 19.8246 5.19451 18.3746 4.27086C16.9247 3.34722 15.2653 2.80399 13.5499 2.69139C11.8345 2.5788 10.1183 2.90047 8.5601 3.62667C8.36268 3.71686 8.19026 3.85387 8.05782 4.02582C7.92538 4.19776 7.83691 4.39944 7.8001 4.61334C7.76344 4.82452 7.77823 5.04143 7.84322 5.24568C7.9082 5.44993 8.02148 5.63551 8.17343 5.78667L13.9734 11.5733L11.5734 13.9733L5.78677 8.17334C5.63432 8.02374 5.44817 7.91296 5.24398 7.85031C5.0398 7.78766 4.82354 7.77498 4.61343 7.81334C4.40088 7.8488 4.20008 7.93525 4.02824 8.06529C3.85641 8.19533 3.71865 8.36508 3.62677 8.56001C2.89813 10.1233 2.57674 11.8456 2.69249 13.5665C2.80824 15.2874 3.35736 16.9511 4.28878 18.4028C5.2202 19.8545 6.50366 21.047 8.01976 21.8694C9.53585 22.6919 11.2353 23.1175 12.9601 23.1067C13.5871 23.1087 14.2126 23.0461 14.8268 22.92L20.8401 28.9467C20.9641 29.0716 21.1115 29.1708 21.274 29.2385C21.4365 29.3062 21.6108 29.3411 21.7868 29.3411C21.9628 29.3411 22.1371 29.3062 22.2995 29.2385C22.462 29.1708 22.6095 29.0716 22.7334 28.9467C22.8584 28.8227 22.9576 28.6753 23.0253 28.5128C23.093 28.3503 23.1278 28.176 23.1278 28C23.1278 27.824 23.093 27.6497 23.0253 27.4872C22.9576 27.3248 22.8584 27.1773 22.7334 27.0533L16.2001 20.52C16.0368 20.3578 15.8344 20.2407 15.6124 20.1799C15.3904 20.1192 15.1565 20.1169 14.9334 20.1733C14.2897 20.3457 13.6265 20.4354 12.9601 20.44C11.9628 20.4488 10.9737 20.2602 10.0496 19.885C9.12556 19.5099 8.28486 18.9556 7.57595 18.2541C6.86704 17.5527 6.30393 16.7179 5.91906 15.7978C5.53418 14.8778 5.33515 13.8906 5.33343 12.8933C5.33171 12.4467 5.36739 12.0007 5.4401 11.56L10.6668 16.8C10.7907 16.925 10.9382 17.0242 11.1007 17.0919C11.2631 17.1596 11.4374 17.1944 11.6134 17.1944C11.7894 17.1944 11.9637 17.1596 12.1262 17.0919C12.2887 17.0242 12.4362 16.925 12.5601 16.8L16.8001 12.52C17.0404 12.2714 17.1748 11.9391 17.1748 11.5933C17.1748 11.2476 17.0404 10.9153 16.8001 10.6667L11.6134 5.44001C12.0542 5.36802 12.5002 5.33235 12.9468 5.33334C14.9495 5.33687 16.869 6.13493 18.2839 7.55232C19.6988 8.96971 20.4934 10.8906 20.4934 12.8933C20.4888 13.5598 20.3992 14.2229 20.2268 14.8667C20.1703 15.0898 20.1726 15.3237 20.2333 15.5456C20.2941 15.7676 20.4113 15.9701 20.5734 16.1333L27.1068 22.6667C27.3578 22.9177 27.6984 23.0588 28.0534 23.0588C28.4085 23.0588 28.749 22.9177 29.0001 22.6667C29.2512 22.4156 29.3922 22.0751 29.3922 21.72C29.3922 21.3649 29.2512 21.0244 29.0001 20.7733H28.9468Z" fill="white"/>
</svg>
