<svg width="35" height="35" viewBox="0 0 35 35" fill="none" xmlns="http://www.w3.org/2000/svg">
<path d="M13 17.3335H10.1112C9.72806 17.3335 9.36066 17.4857 9.08977 17.7566C8.81889 18.0274 8.66671 18.3948 8.66671 18.7779C8.66671 19.161 8.81889 19.5284 9.08977 19.7993C9.36066 20.0702 9.72806 20.2224 10.1112 20.2224H13C13.3831 20.2224 13.7505 20.0702 14.0214 19.7993C14.2923 19.5284 14.4445 19.161 14.4445 18.7779C14.4445 18.3948 14.2923 18.0274 14.0214 17.7566C13.7505 17.4857 13.3831 17.3335 13 17.3335ZM11.5556 14.4446H17.3334C17.7165 14.4446 18.0839 14.2924 18.3547 14.0215C18.6256 13.7506 18.7778 13.3832 18.7778 13.0002C18.7778 12.6171 18.6256 12.2497 18.3547 11.9788C18.0839 11.7079 17.7165 11.5557 17.3334 11.5557H11.5556C11.1725 11.5557 10.8051 11.7079 10.5342 11.9788C10.2633 12.2497 10.1112 12.6171 10.1112 13.0002C10.1112 13.3832 10.2633 13.7506 10.5342 14.0215C10.8051 14.2924 11.1725 14.4446 11.5556 14.4446ZM13 23.1113H10.1112C9.72806 23.1113 9.36066 23.2634 9.08977 23.5343C8.81889 23.8052 8.66671 24.1726 8.66671 24.5557C8.66671 24.9388 8.81889 25.3062 9.08977 25.5771C9.36066 25.848 9.72806 26.0002 10.1112 26.0002H13C13.3831 26.0002 13.7505 25.848 14.0214 25.5771C14.2923 25.3062 14.4445 24.9388 14.4445 24.5557C14.4445 24.1726 14.2923 23.8052 14.0214 23.5343C13.7505 23.2634 13.3831 23.1113 13 23.1113ZM30.3334 17.3335H26V4.33349C26.0011 4.07896 25.9348 3.82869 25.808 3.60801C25.6811 3.38733 25.4982 3.20408 25.2778 3.07682C25.0582 2.95004 24.8091 2.8833 24.5556 2.8833C24.302 2.8833 24.053 2.95004 23.8334 3.07682L19.5 5.56126L15.1667 3.07682C14.9471 2.95004 14.698 2.8833 14.4445 2.8833C14.1909 2.8833 13.9418 2.95004 13.7223 3.07682L9.38893 5.56126L5.05559 3.07682C4.83601 2.95004 4.58692 2.8833 4.33337 2.8833C4.07982 2.8833 3.83073 2.95004 3.61115 3.07682C3.39072 3.20408 3.20783 3.38733 3.08101 3.60801C2.95418 3.82869 2.88792 4.07896 2.88893 4.33349V27.4446C2.88893 28.5939 3.34547 29.6961 4.15813 30.5087C4.97079 31.3214 6.07299 31.7779 7.22226 31.7779H27.4445C28.5938 31.7779 29.696 31.3214 30.5086 30.5087C31.3213 29.6961 31.7778 28.5939 31.7778 27.4446V18.7779C31.7778 18.3948 31.6256 18.0274 31.3548 17.7566C31.0839 17.4857 30.7165 17.3335 30.3334 17.3335ZM7.22226 28.889C6.83917 28.889 6.47177 28.7369 6.20088 28.466C5.93 28.1951 5.77782 27.8277 5.77782 27.4446V6.83238L8.66671 8.47904C8.88964 8.59548 9.13742 8.65629 9.38893 8.65629C9.64044 8.65629 9.88822 8.59548 10.1112 8.47904L14.4445 5.9946L18.7778 8.47904C19.0007 8.59548 19.2485 8.65629 19.5 8.65629C19.7515 8.65629 19.9993 8.59548 20.2223 8.47904L23.1112 6.83238V27.4446C23.1151 27.9374 23.203 28.4258 23.3712 28.889H7.22226ZM28.8889 27.4446C28.8889 27.8277 28.7367 28.1951 28.4659 28.466C28.195 28.7369 27.8276 28.889 27.4445 28.889C27.0614 28.889 26.694 28.7369 26.4231 28.466C26.1522 28.1951 26 27.8277 26 27.4446V20.2224H28.8889V27.4446ZM19.5867 23.3568C19.5062 23.3022 19.4188 23.2584 19.3267 23.2268C19.2407 23.1828 19.1479 23.1535 19.0523 23.1402C18.8202 23.0937 18.5803 23.105 18.3536 23.173C18.1269 23.241 17.9204 23.3636 17.7523 23.5302C17.4883 23.807 17.3387 24.1733 17.3334 24.5557C17.3311 24.7435 17.3654 24.9299 17.4345 25.1046C17.513 25.2801 17.6204 25.4413 17.7523 25.5813C17.8927 25.7089 18.0539 25.8115 18.2289 25.8846C18.4018 25.961 18.5888 26.0005 18.7778 26.0005C18.9669 26.0005 19.1538 25.961 19.3267 25.8846C19.5018 25.8115 19.663 25.7089 19.8034 25.5813C19.9372 25.4463 20.0432 25.2862 20.115 25.1102C20.1869 24.9343 20.2234 24.7458 20.2223 24.5557C20.2169 24.1733 20.0673 23.807 19.8034 23.5302C19.7347 23.468 19.6624 23.4102 19.5867 23.3568ZM19.7889 17.7524C19.6203 17.5881 19.414 17.4676 19.1881 17.4013C18.9622 17.3349 18.7235 17.3248 18.4929 17.3718C18.2622 17.4188 18.0465 17.5215 17.8645 17.6709C17.6826 17.8203 17.5399 18.0119 17.4489 18.229C17.359 18.4479 17.3242 18.6854 17.3477 18.9209C17.3711 19.1563 17.4519 19.3823 17.5832 19.5792C17.7144 19.776 17.892 19.9376 18.1003 20.0498C18.3086 20.1619 18.5412 20.2212 18.7778 20.2224C19.1609 20.2224 19.5283 20.0702 19.7992 19.7993C20.0701 19.5284 20.2223 19.161 20.2223 18.7779C20.22 18.5892 20.1807 18.4027 20.1067 18.229C20.0371 18.0487 19.9286 17.886 19.7889 17.7524Z" fill="white"/>
</svg>
