<svg width="32" height="32" viewBox="0 0 32 32" fill="none" xmlns="http://www.w3.org/2000/svg">
<path d="M28.0001 26.6665H26.6667V6.6665C26.6667 6.31288 26.5263 5.97374 26.2762 5.7237C26.0262 5.47365 25.687 5.33317 25.3334 5.33317C24.9798 5.33317 24.6407 5.47365 24.3906 5.7237C24.1406 5.97374 24.0001 6.31288 24.0001 6.6665V26.6665H21.3334V17.3332C21.3334 16.9795 21.1929 16.6404 20.9429 16.3904C20.6928 16.1403 20.3537 15.9998 20.0001 15.9998C19.6465 15.9998 19.3073 16.1403 19.0573 16.3904C18.8072 16.6404 18.6667 16.9795 18.6667 17.3332V26.6665H16.0001V11.9998C16.0001 11.6462 15.8596 11.3071 15.6096 11.057C15.3595 10.807 15.0204 10.6665 14.6667 10.6665C14.3131 10.6665 13.974 10.807 13.7239 11.057C13.4739 11.3071 13.3334 11.6462 13.3334 11.9998V26.6665H10.6667V22.6665C10.6667 22.3129 10.5263 21.9737 10.2762 21.7237C10.0262 21.4736 9.68704 21.3332 9.33342 21.3332C8.97979 21.3332 8.64065 21.4736 8.39061 21.7237C8.14056 21.9737 8.00008 22.3129 8.00008 22.6665V26.6665H5.33341V3.99984C5.33341 3.64622 5.19294 3.30708 4.94289 3.05703C4.69284 2.80698 4.3537 2.6665 4.00008 2.6665C3.64646 2.6665 3.30732 2.80698 3.05727 3.05703C2.80722 3.30708 2.66675 3.64622 2.66675 3.99984V27.9998C2.66675 28.3535 2.80722 28.6926 3.05727 28.9426C3.30732 29.1927 3.64646 29.3332 4.00008 29.3332H28.0001C28.3537 29.3332 28.6928 29.1927 28.9429 28.9426C29.1929 28.6926 29.3334 28.3535 29.3334 27.9998C29.3334 27.6462 29.1929 27.3071 28.9429 27.057C28.6928 26.807 28.3537 26.6665 28.0001 26.6665Z" fill="white"/>
</svg>
