<svg width="32" height="32" viewBox="0 0 32 32" fill="none" xmlns="http://www.w3.org/2000/svg">
<path d="M13.6133 19.6665C13.7372 19.7915 13.8847 19.8907 14.0472 19.9584C14.2097 20.0261 14.3839 20.0609 14.56 20.0609C14.736 20.0609 14.9102 20.0261 15.0727 19.9584C15.2352 19.8907 15.3827 19.7915 15.5066 19.6665L20.9466 14.2265C21.1977 13.9754 21.3387 13.6349 21.3387 13.2798C21.3387 12.9248 21.1977 12.5842 20.9466 12.3332C20.6956 12.0821 20.355 11.941 20 11.941C19.6449 11.941 19.3044 12.0821 19.0533 12.3332L14.56 16.8398L12.9466 15.2132C12.6956 14.9621 12.355 14.821 12 14.821C11.6449 14.821 11.3044 14.9621 11.0533 15.2132C10.8022 15.4642 10.6612 15.8048 10.6612 16.1598C10.6612 16.5149 10.8022 16.8554 11.0533 17.1065L13.6133 19.6665ZM28 2.6665H3.99996C3.64634 2.6665 3.3072 2.80698 3.05715 3.05703C2.8071 3.30708 2.66663 3.64622 2.66663 3.99984V27.9998C2.66663 28.3535 2.8071 28.6926 3.05715 28.9426C3.3072 29.1927 3.64634 29.3332 3.99996 29.3332H28C28.3536 29.3332 28.6927 29.1927 28.9428 28.9426C29.1928 28.6926 29.3333 28.3535 29.3333 27.9998V3.99984C29.3333 3.64622 29.1928 3.30708 28.9428 3.05703C28.6927 2.80698 28.3536 2.6665 28 2.6665ZM26.6666 26.6665H5.33329V5.33317H26.6666V26.6665Z" fill="white"/>
</svg>
