<svg width="32" height="32" viewBox="0 0 32 32" fill="none" xmlns="http://www.w3.org/2000/svg">
<path d="M15.3334 26.6665H7.33337C6.97975 26.6665 6.64061 26.526 6.39057 26.276C6.14052 26.0259 6.00004 25.6868 6.00004 25.3332V6.6665C6.00004 6.31288 6.14052 5.97374 6.39057 5.7237C6.64061 5.47365 6.97975 5.33317 7.33337 5.33317H14V9.33317C14 10.394 14.4215 11.4115 15.1716 12.1616C15.9218 12.9117 16.9392 13.3332 18 13.3332H22V19.9998C22 20.3535 22.1405 20.6926 22.3906 20.9426C22.6406 21.1927 22.9798 21.3332 23.3334 21.3332C23.687 21.3332 24.0261 21.1927 24.2762 20.9426C24.5262 20.6926 24.6667 20.3535 24.6667 19.9998V11.9998C24.6667 11.9998 24.6667 11.9998 24.6667 11.9198C24.6528 11.7973 24.626 11.6767 24.5867 11.5598V11.4398C24.5226 11.3027 24.4371 11.1767 24.3334 11.0665L16.3334 3.0665C16.2232 2.96279 16.0971 2.87728 15.96 2.81317C15.9159 2.80545 15.8708 2.80545 15.8267 2.81317C15.6971 2.74384 15.5577 2.6944 15.4134 2.6665H7.33337C6.27251 2.6665 5.25509 3.08793 4.50495 3.83808C3.7548 4.58822 3.33337 5.60564 3.33337 6.6665V25.3332C3.33337 26.394 3.7548 27.4115 4.50495 28.1616C5.25509 28.9117 6.27251 29.3332 7.33337 29.3332H15.3334C15.687 29.3332 16.0261 29.1927 16.2762 28.9426C16.5262 28.6926 16.6667 28.3535 16.6667 27.9998C16.6667 27.6462 16.5262 27.3071 16.2762 27.057C16.0261 26.807 15.687 26.6665 15.3334 26.6665ZM16.6667 7.21317L20.12 10.6665H18C17.6464 10.6665 17.3073 10.526 17.0572 10.276C16.8072 10.0259 16.6667 9.68679 16.6667 9.33317V7.21317ZM10 18.6665H18C18.3537 18.6665 18.6928 18.526 18.9429 18.276C19.1929 18.0259 19.3334 17.6868 19.3334 17.3332C19.3334 16.9795 19.1929 16.6404 18.9429 16.3904C18.6928 16.1403 18.3537 15.9998 18 15.9998H10C9.64642 15.9998 9.30728 16.1403 9.05723 16.3904C8.80718 16.6404 8.66671 16.9795 8.66671 17.3332C8.66671 17.6868 8.80718 18.0259 9.05723 18.276C9.30728 18.526 9.64642 18.6665 10 18.6665ZM15.3334 21.3332H10C9.64642 21.3332 9.30728 21.4736 9.05723 21.7237C8.80718 21.9737 8.66671 22.3129 8.66671 22.6665C8.66671 23.0201 8.80718 23.3593 9.05723 23.6093C9.30728 23.8594 9.64642 23.9998 10 23.9998H15.3334C15.687 23.9998 16.0261 23.8594 16.2762 23.6093C16.5262 23.3593 16.6667 23.0201 16.6667 22.6665C16.6667 22.3129 16.5262 21.9737 16.2762 21.7237C16.0261 21.4736 15.687 21.3332 15.3334 21.3332ZM10 13.3332H11.3334C11.687 13.3332 12.0261 13.1927 12.2762 12.9426C12.5262 12.6926 12.6667 12.3535 12.6667 11.9998C12.6667 11.6462 12.5262 11.3071 12.2762 11.057C12.0261 10.807 11.687 10.6665 11.3334 10.6665H10C9.64642 10.6665 9.30728 10.807 9.05723 11.057C8.80718 11.3071 8.66671 11.6462 8.66671 11.9998C8.66671 12.3535 8.80718 12.6926 9.05723 12.9426C9.30728 13.1927 9.64642 13.3332 10 13.3332ZM28.28 21.7198C28.1561 21.5949 28.0086 21.4957 27.8461 21.428C27.6837 21.3603 27.5094 21.3254 27.3334 21.3254C27.1574 21.3254 26.9831 21.3603 26.8206 21.428C26.6581 21.4957 26.5107 21.5949 26.3867 21.7198L22 26.1198L20.28 24.3865C20.1557 24.2622 20.0081 24.1636 19.8457 24.0963C19.6833 24.029 19.5092 23.9944 19.3334 23.9944C19.1576 23.9944 18.9835 24.029 18.821 24.0963C18.6586 24.1636 18.511 24.2622 18.3867 24.3865C18.2624 24.5108 18.1638 24.6584 18.0965 24.8208C18.0292 24.9833 17.9946 25.1574 17.9946 25.3332C17.9946 25.509 18.0292 25.6831 18.0965 25.8455C18.1638 26.0079 18.2624 26.1555 18.3867 26.2798L21.0534 28.9465C21.1773 29.0715 21.3248 29.1707 21.4873 29.2384C21.6498 29.3061 21.824 29.3409 22 29.3409C22.1761 29.3409 22.3503 29.3061 22.5128 29.2384C22.6753 29.1707 22.8228 29.0715 22.9467 28.9465L28.28 23.6132C28.405 23.4892 28.5042 23.3418 28.5719 23.1793C28.6396 23.0168 28.6744 22.8425 28.6744 22.6665C28.6744 22.4905 28.6396 22.3162 28.5719 22.1537C28.5042 21.9913 28.405 21.8438 28.28 21.7198Z" fill="white"/>
</svg>
