<svg width="157" height="102" viewBox="0 0 157 102" fill="none" xmlns="http://www.w3.org/2000/svg">
<mask id="mask0_82_11562" style="mask-type:luminance" maskUnits="userSpaceOnUse" x="0" y="0" width="157" height="102">
<path d="M157 0H0V101.84H157V0Z" fill="white"/>
</mask>
<g mask="url(#mask0_82_11562)">
<path d="M56.1677 6.3897L42.2963 5.26738L44.5571 2.56934L56.926 3.45374L56.1677 6.3897Z" fill="#005C9F"/>
<path d="M32.9937 16.3655L52.9162 18.7748L50.5626 27.7843L26.4623 24.1519L32.9937 16.3655Z" fill="#005C9F"/>
<path d="M42.8677 5.21163L31.3388 9.2501L25.7555 6.64253L37.0968 3.2627L42.8677 5.21163Z" fill="#005C9F"/>
<path d="M52.0681 18.9185L63.0465 12.0105L74.5473 15.8834L64.795 24.8541L52.0681 18.9185Z" fill="#005C9F"/>
<path d="M31.633 8.98193L33.5091 16.6597L19.4226 18.7198L20.5999 10.2439L31.633 8.98193Z" fill="#005C9F"/>
<path d="M63.0502 12.3345L55.6581 6.23945L63.9492 5.29224L72.8925 10.8951L63.0502 12.3345Z" fill="#005C9F"/>
<path d="M57.3383 1.90065L45.7661 1.13003L46.7151 0L57.6534 0.681797L57.3383 1.90065Z" fill="#1AA9C1"/>
<path d="M20.5317 31.2266L48.3584 36.208L45.5975 46.7484L13.3309 39.8163L20.5317 31.2266Z" fill="#1AA9C1"/>
<path d="M33.8534 2.17325L22.6857 5.21173L20.2224 4.06011L31.2173 1.2854L33.8534 2.17325Z" fill="#1AA9C1"/>
<path d="M75.2629 29.7353L83.5473 18.9182L92.9956 22.1007L86.77 35.1064L75.2629 29.7353Z" fill="#1AA9C1"/>
<path d="M12.9995 11.1101L9.50593 20.1696L0 21.5626L5.82737 11.929L12.9995 11.1101Z" fill="#1AA9C1"/>
<path d="M78.7476 10.0403L68.9456 4.72007L73.2139 4.23218L83.6936 9.3119L78.7476 10.0403Z" fill="#1AA9C1"/>
<path d="M59.2741 100.73H58.2646L57.7004 99.5634H54.9728L54.4081 100.73H53.4196L55.6563 96.1169H57.0306L59.2741 100.73ZM56.3199 96.7825L55.3381 98.8058H57.3351L56.3602 96.7825H56.3199Z" fill="#131315"/>
<path d="M66.5279 98.5689C66.5279 100.084 65.8366 100.73 64.085 100.73H61.5165V96.1169H64.0719C65.824 96.1169 66.5279 96.7628 66.5279 98.2852V98.5689ZM62.4124 96.875V99.9718H63.9521C65.3065 99.9718 65.6121 99.4782 65.6121 98.4764V98.3772C65.6121 97.3629 65.3065 96.875 63.9521 96.875H62.4124Z" fill="#131315"/>
<path d="M68.2999 100.73H67.4039V96.1169H70.4503C71.0537 96.1169 71.4922 96.2292 71.7638 96.4464C72.0433 96.6636 72.1825 97.0397 72.1825 97.5858V97.7573C72.1825 98.7263 71.6911 99.1945 70.4503 99.1945H68.2999V100.73ZM68.2999 96.8678V98.4426H70.2906C71.0866 98.4426 71.2792 98.2327 71.2792 97.6918V97.6196C71.2792 97.0652 71.0678 96.8678 70.2844 96.8678H68.2999Z" fill="#131315"/>
<path d="M80.6587 100.73H79.4441L78.1237 97.1974L76.796 100.73H75.5348L74.1281 96.1177H75.1098L76.1989 99.8208H76.2449L77.6192 96.1177H78.6538L80.0344 99.8208H80.0747L81.1564 96.1177H82.066L80.6587 100.73Z" fill="#131315"/>
<path d="M84.8931 100.796C83.1415 100.796 82.425 100.149 82.425 98.6342V98.2185C82.425 96.6961 83.1415 96.0508 84.8931 96.0508H85.2851C87.0309 96.0508 87.761 96.6961 87.761 98.2185V98.6342C87.761 100.149 87.0309 100.796 85.2851 100.796L84.8931 100.796ZM85.2118 100.025C86.5594 100.011 86.8378 99.5435 86.8378 98.5349V98.311C86.8378 97.303 86.5594 96.8348 85.2118 96.8219H84.9732C83.6198 96.8348 83.3404 97.303 83.3404 98.311V98.5349C83.3404 99.5435 83.6198 100.011 84.9732 100.025H85.2118Z" fill="#131315"/>
<path d="M89.5263 100.73H88.6304V96.1169H91.7426C92.9442 96.1169 93.4089 96.4464 93.4089 97.2964V97.4679C93.4089 98.16 93.1504 98.4426 92.5726 98.5159V98.5486C93.1305 98.6411 93.4089 98.7991 93.4089 99.5961V100.73H92.5062V99.7084C92.5062 99.115 92.3204 98.983 91.4642 98.983H89.5263V100.73ZM89.5263 96.875V98.2254H91.5841C92.2942 98.2254 92.5062 98.068 92.5062 97.5739V97.5344C92.5062 97.0138 92.2743 96.875 91.4511 96.875H89.5263Z" fill="#131315"/>
<path d="M98.2675 100.73H94.3247V96.1177H95.2212V99.9455H98.2675V100.73Z" fill="#131315"/>
<path d="M103.976 98.5689C103.976 100.084 103.284 100.73 101.533 100.73H98.9641V96.1169H101.52C103.272 96.1169 103.976 96.7628 103.976 98.2852V98.5689ZM99.8606 96.875V99.9718H101.4C102.754 99.9718 103.06 99.4782 103.06 98.4764V98.3772C103.06 97.3629 102.754 96.875 101.4 96.875H99.8606Z" fill="#131315"/>
<path d="M108.761 100.796C107.036 100.796 106.359 100.149 106.359 98.6342V98.2122C106.359 96.6971 107.036 96.0513 108.761 96.0513H109.199C109.922 96.0513 110.467 96.1697 110.831 96.4134C111.196 96.6571 111.435 97.0463 111.542 97.5867H110.62C110.454 97.053 110.049 96.8218 109.086 96.8218H108.874C107.56 96.8218 107.274 97.2962 107.274 98.3115V98.5349C107.274 99.5502 107.56 100.024 108.874 100.024H109.087C110.049 100.024 110.454 99.7939 110.62 99.2608H111.542C111.436 99.8001 111.197 100.189 110.831 100.433C110.466 100.677 109.922 100.796 109.199 100.796H108.761Z" fill="#131315"/>
<path d="M114.024 100.796C112.783 100.796 112.139 100.295 112.139 99.0754V98.891C112.139 97.672 112.789 97.1711 114.031 97.1711H114.262C115.504 97.1711 116.141 97.672 116.141 98.891V99.0754C116.141 100.295 115.497 100.796 114.256 100.796H114.024ZM115.318 99.0427V98.9237C115.318 98.0212 114.887 97.8695 114.143 97.8695C113.401 97.8695 112.968 98.0212 112.968 98.9237V99.0427C112.968 99.9452 113.401 100.097 114.143 100.097C114.887 100.097 115.318 99.9452 115.318 99.0427Z" fill="#131315"/>
<path d="M122.859 100.73H122.03V98.7003C122.03 97.9952 121.671 97.8762 121.193 97.8762C120.602 97.8762 120.231 98.0939 120.231 98.8515V100.73H119.402V98.7003C119.402 97.9952 119.056 97.8762 118.564 97.8762C117.974 97.8762 117.602 98.0939 117.602 98.8515V100.73H116.773V97.2371H117.602V97.8237H117.635C117.801 97.4221 118.146 97.1711 118.817 97.1711C119.447 97.1711 119.918 97.3358 120.125 97.8435H120.158C120.336 97.4221 120.721 97.1711 121.431 97.1711C122.281 97.1711 122.859 97.4746 122.859 98.4893V100.73Z" fill="#131315"/>
<path d="M123.542 97.2371H124.365V97.7905H124.391C124.57 97.4024 124.929 97.1711 125.699 97.1711H125.798C126.821 97.1711 127.544 97.5603 127.544 98.8645V99.0952C127.544 100.407 126.821 100.796 125.798 100.796H125.699C124.929 100.796 124.57 100.565 124.391 100.176H124.365V101.85H123.542V97.2371ZM124.365 98.918V99.0427C124.365 99.9452 124.782 100.097 125.54 100.097C126.303 100.097 126.714 99.9452 126.714 99.0427V98.9237C126.714 98.0212 126.303 97.8695 125.54 97.8695C124.782 97.8695 124.365 98.0279 124.365 98.918Z" fill="#131315"/>
<path d="M131.778 100.73H130.955V100.169H130.929C130.764 100.545 130.365 100.796 129.508 100.796C128.56 100.796 128.035 100.433 128.035 99.7151V99.6756C128.035 99.0167 128.413 98.6738 129.237 98.6411L130.949 98.5688V98.5023C130.949 97.896 130.617 97.7713 129.967 97.7713C129.402 97.7713 129.138 97.9032 129.011 98.2451H128.175C128.341 97.5276 128.845 97.1711 129.96 97.1711H130.073C131.24 97.1711 131.779 97.5073 131.779 98.5688L131.778 100.73ZM128.871 99.6823C128.871 100.071 129.19 100.222 129.748 100.222C130.517 100.222 130.949 99.9063 130.949 99.3461V99.1149L129.508 99.1747C129.064 99.1944 128.871 99.3264 128.871 99.6485V99.6823Z" fill="#131315"/>
<path d="M136.047 100.73H135.224V98.7003C135.224 97.9952 134.838 97.8762 134.315 97.8762C133.996 97.8762 133.743 97.9422 133.557 98.0809C133.378 98.2124 133.285 98.4696 133.285 98.8442V100.73H132.456V97.2371H133.285V97.83H133.318C133.498 97.4418 133.856 97.1711 134.573 97.1711C135.436 97.1711 136.047 97.4678 136.047 98.5351V100.73Z" fill="#131315"/>
<path d="M138.23 101.85H137.354L137.931 100.717L136.319 97.2366H137.208L138.357 99.7815H138.396L139.511 97.2366H140.361L138.23 101.85Z" fill="#131315"/>
<path d="M115.686 47.5131L115.997 46.096H98.0926L97.3924 48.9923H108.937C108.078 49.9249 92.5866 66.8468 92.5866 66.8468L92.2334 68.4336H111.732L112.362 65.6975C113.524 67.7551 115.548 68.9491 118.143 68.9491C121.681 68.9491 124.108 66.9476 125.437 65.5769C125.2 66.6364 124.786 68.4336 124.786 68.4336H128.966L134.125 46.1933L133.71 46.1252C131.849 45.8244 130.09 45.5408 127.955 45.5408C121.019 45.5408 117.022 48.6741 114.895 51.3014C112.216 54.6037 111.261 58.5027 111.261 61.0456C111.261 62.7306 111.599 64.2062 112.206 65.4112H99.2534C100.112 64.4796 115.686 47.5131 115.686 47.5131ZM126.92 48.5656C127.738 48.5684 128.554 48.6366 129.36 48.7699C129.226 49.356 126.446 61.2841 126.427 61.3672C126.303 61.5667 125.241 62.8522 124.95 63.1463C123.186 64.9358 121.4 65.8372 119.651 65.8372C117.231 65.8372 115.728 63.9849 115.728 61.004C115.728 57.6854 118.383 48.5656 126.92 48.5656Z" fill="#131315"/>
<path d="M87.5123 68.4337C87.5123 68.4337 91.969 49.3508 92.0721 48.9095H96.2902L96.9428 46.0959H92.7147C93.3422 43.0152 94.2827 39.3854 99.9226 39.5044L100.162 39.512L100.584 37.7235L100.313 37.6484C99.4877 37.4131 98.4672 37.1218 97.0459 37.1218C92.5305 37.1218 90.5633 40.1888 90.0703 41.1257C89.4518 42.2144 89.0865 43.5333 88.4239 46.0959H85.274L84.6214 48.9095H87.7661C87.6002 49.6008 83.2445 68.4337 83.2445 68.4337H87.5123Z" fill="#131315"/>
<path d="M77.4868 45.5408C70.5505 45.5408 66.5543 48.6741 64.427 51.3014C61.7444 54.6036 60.793 58.5026 60.793 61.0455C60.793 65.8465 63.4939 68.949 67.6748 68.949C71.2094 68.949 73.6361 66.9475 74.9695 65.5768C74.7293 66.6363 74.3201 68.4335 74.3201 68.4335H78.4979L83.6569 46.1932L83.2387 46.1252C81.3772 45.8244 79.6225 45.5408 77.4868 45.5408ZM75.9623 61.3671C75.832 61.5666 74.7764 62.8521 74.4797 63.1462C72.7129 64.9356 70.932 65.8371 69.1773 65.8371C66.7605 65.8371 65.2617 63.9848 65.2617 61.0039C65.2617 57.6853 67.9124 48.5655 76.4537 48.5655C77.2706 48.5688 78.086 48.6371 78.8919 48.7698C78.7543 49.3559 75.978 61.285 75.9623 61.3671Z" fill="#131315"/>
<path d="M58.7402 37.5298L51.5332 66.2811C50.6902 69.5467 49.5321 74.0194 44.776 74.0194C41.6783 74.0194 40.4289 72.2143 39.677 71.1325L39.4696 70.8395L37.4224 71.6937L37.5561 72.0834C38.084 73.612 39.486 77.682 45.2909 77.682C53.7413 77.682 55.4045 70.5386 56.4014 66.2717L63.6177 37.5298H58.7402V37.5298Z" fill="#131315"/>
<path d="M99.9159 85.6568L100.157 84.6628L100.07 84.5698L98.808 84.574L98.6546 84.668L98.4092 85.663L98.5212 85.7732L99.7693 85.769L99.9159 85.6568Z" fill="#131315"/>
<path d="M93.9363 92.1413H95.4508L97.4468 84.2092L95.8726 84.4264L93.9363 92.1413Z" fill="#131315"/>
<path d="M119.086 89.4072C119.236 88.778 119.495 87.7134 118.893 86.9023C118.368 86.204 117.485 86.1255 116.988 86.1255C114.933 86.1255 113.506 87.4977 113.082 89.1822C112.638 90.9468 113.375 92.3751 115.458 92.3751C117.451 92.3751 118.212 91.1941 118.618 90.5664L118.29 90.3872C117.766 90.8922 117.215 91.4206 116.164 91.4206C114.374 91.4206 114.58 89.8354 114.633 89.4072H119.086ZM116.713 87.0696C117.843 87.0696 117.731 88.0168 117.668 88.5333H114.887C115.177 87.9591 115.626 87.0696 116.713 87.0696Z" fill="#131315"/>
<path d="M96.7625 92.1415H98.2707L99.7161 86.3865H98.2116L96.7625 92.1415Z" fill="#131315"/>
<path d="M109.787 86.3859L108.345 92.1409H109.859L110.98 87.6792C111.283 87.5103 111.679 87.2859 112.232 87.2859C112.65 87.2859 112.913 87.4204 113.162 87.555L113.491 86.2519C113.351 86.228 113.21 86.2165 113.069 86.2171C112.039 86.2171 111.423 86.8136 111.124 87.1056L111.305 86.3859H109.787Z" fill="#131315"/>
<path d="M79.4689 89.4072C79.6155 88.778 79.8719 87.7134 79.2716 86.9023C78.7415 86.204 77.8613 86.1255 77.361 86.1255C75.3132 86.1255 73.8829 87.4977 73.4585 89.1822C73.0173 90.9468 73.7547 92.3751 75.8402 92.3751C77.8299 92.3751 78.5877 91.1941 78.9974 90.5664L78.6693 90.3872C78.1486 90.8922 77.5954 91.4206 76.5404 91.4206C74.7537 91.4206 74.9594 89.8354 75.0096 89.4072H79.4689ZM77.0925 87.0696C78.2229 87.0696 78.1109 88.0168 78.0486 88.5333H75.2661C75.556 87.9591 76.0029 87.0696 77.0925 87.0696Z" fill="#131315"/>
<path d="M65.8017 89.4072C65.9487 88.778 66.202 87.7134 65.6054 86.9023C65.0769 86.204 64.1929 86.1255 63.6911 86.1255C61.6422 86.1255 60.2151 87.4977 59.7907 89.1822C59.3469 90.9468 60.0863 92.3751 62.1692 92.3751C64.1621 92.3751 64.9214 91.1941 65.327 90.5664L64.9989 90.3872C64.4776 90.8922 63.9224 91.4206 62.8726 91.4206C61.0833 91.4206 61.289 89.8354 61.3392 89.4072H65.8017ZM63.4221 87.0696C64.5525 87.0696 64.4405 88.0168 64.3813 88.5333H61.5951C61.885 87.9591 62.3351 87.0696 63.4221 87.0696Z" fill="#131315"/>
<path d="M81.7268 84.4254L79.792 92.1403H81.306L83.2973 84.2083L81.7268 84.4254Z" fill="#131315"/>
<path d="M91.2111 90.3877L91.5602 92.1413H93.2809L91.6036 84.2092L90.894 84.4264L85.2671 92.1413H86.6738L87.9042 90.3877H91.2111ZM90.4429 86.7703L90.9824 89.3433H88.641L90.4429 86.7703Z" fill="#131315"/>
<path d="M68.0588 84.4249L66.1199 92.1409H67.6375L67.7867 91.5418C67.9181 91.7798 68.2703 92.3976 69.2588 92.3976C70.3908 92.3976 72.0461 91.522 72.6307 89.2073C73.076 87.4204 72.4768 86.151 70.9283 86.151C69.8324 86.151 69.217 86.7465 68.9171 87.038L69.6293 84.2078L68.0588 84.4249ZM70.1448 87.0697C70.7226 87.0697 71.0099 87.3965 71.125 87.8574C71.2344 88.3084 71.1371 88.8228 71.0471 89.1964C70.5729 91.084 69.5911 91.4774 69.005 91.4774C68.3582 91.4774 68.1185 91.0736 67.972 90.8144L68.724 87.8231C68.724 87.8142 69.2698 87.0697 70.1448 87.0697Z" fill="#131315"/>
<path d="M104.917 84.4257L102.98 92.1406H104.589L105.481 88.5679H108.402L108.682 87.4533H105.762L106.306 85.2861H109.677L109.956 84.1965H105.147L104.917 84.4257Z" fill="#131315"/>
<path d="M139.508 92.3753C141.635 92.3753 142.961 90.8368 143.364 89.2297C143.893 87.1409 142.659 86.1257 141.117 86.1506C139.799 86.1724 137.937 87.0032 137.363 89.2884C136.895 91.1511 137.744 92.3753 139.508 92.3753ZM138.968 89.2416C139.283 87.9936 139.98 87.0697 140.907 87.0697C141.891 87.0697 142.065 88.0388 141.748 89.3196C141.45 90.497 140.751 91.4639 139.806 91.4639C138.865 91.4639 138.646 90.5443 138.968 89.2416Z" fill="#131315"/>
<path d="M156.817 89.4072C156.965 88.778 157.221 87.7134 156.621 86.9023C156.093 86.204 155.21 86.1255 154.71 86.1255C152.665 86.1255 151.235 87.4977 150.813 89.1822C150.37 90.9468 151.106 92.3751 153.189 92.3751C155.178 92.3751 155.94 91.1941 156.346 90.5664L156.018 90.3872C155.497 90.8922 154.944 91.4206 153.895 91.4206C152.106 91.4206 152.309 89.8354 152.361 89.4072H156.817ZM154.441 87.0696C155.572 87.0696 155.459 88.0168 155.397 88.5333H152.615C152.909 87.9591 153.355 87.0696 154.441 87.0696Z" fill="#131315"/>
<path d="M55.3901 92.3756C56.129 92.3829 56.8486 92.1418 57.4321 91.6913C58.1533 91.1182 58.3783 90.4885 58.5814 89.6691L59.9525 84.2092L58.2909 84.4264L57.0857 89.2191C56.868 90.0967 56.7047 90.5233 56.398 90.8829C56.2515 91.0606 56.0673 91.204 55.8585 91.3027C55.6502 91.4019 55.422 91.4539 55.1902 91.4549C55.0169 91.4586 54.8453 91.4217 54.6888 91.3474C54.5323 91.2731 54.3958 91.1629 54.29 91.0268C54.1775 90.8709 54.0948 90.6958 54.0472 90.5103L53.5574 90.7015C53.5783 90.9956 53.5945 91.4076 53.8944 91.7698C54.1623 92.1288 54.6616 92.3756 55.3901 92.3756Z" fill="#131315"/>
<path d="M145.155 86.3864L143.71 92.1414H145.212L146.289 87.8579C146.626 87.5685 147.101 87.1518 147.723 87.1518C148.268 87.1518 148.466 87.4983 148.474 87.8236C148.471 88.0226 148.439 88.22 148.378 88.4097L147.441 92.1414H148.961L149.935 88.2538C150.055 87.769 150.171 87.1959 149.851 86.747C149.627 86.4332 149.19 86.2175 148.593 86.2175C147.494 86.2175 146.851 86.8021 146.47 87.1419L146.663 86.3864H145.155Z" fill="#131315"/>
<path d="M129.145 92.1413H136.068L136.349 91.0268H131.773L137.87 84.6015L137.969 84.2092H131.64L131.421 84.4264L131.196 85.3097H135.362L129.229 91.7927L129.145 92.1413Z" fill="#131315"/>
<path d="M125.925 89.4072C126.072 88.778 126.324 87.7134 125.729 86.9023C125.201 86.204 124.313 86.1255 123.818 86.1255C121.769 86.1255 120.336 87.4977 119.917 89.1822C119.473 90.9468 120.214 92.3751 122.293 92.3751C124.286 92.3751 125.046 91.1941 125.451 90.5664L125.125 90.3872C124.604 90.8922 124.052 91.4206 122.999 91.4206C121.21 91.4206 121.416 89.8354 121.462 89.4072H125.925ZM123.549 87.0696C124.677 87.0696 124.567 88.0168 124.508 88.5333H121.722C122.012 87.9591 122.459 87.0696 123.549 87.0696Z" fill="#131315"/>
<path d="M99.3765 74.9862C99.3943 74.8517 99.3681 74.715 99.3011 74.5965C99.2546 74.5456 99.1975 74.5051 99.1342 74.477C99.0709 74.4484 99.0023 74.4339 98.9332 74.4329C98.558 74.4329 98.3272 74.6116 98.2456 74.9654C98.2278 75.033 98.2241 75.1026 98.2346 75.1712C98.2456 75.2398 98.2707 75.3053 98.3078 75.364C98.3832 75.4793 98.5172 75.538 98.6988 75.538C99.0641 75.538 99.2922 75.3536 99.3765 74.9862Z" fill="#131315"/>
<path d="M113.114 79.1723H114.147L116.052 70.9846L115.908 71.1249C115.799 71.2387 115.599 71.4174 115.324 71.6544C115.202 71.7422 115.024 71.8622 114.799 72.0025L114.78 72.0155L113.131 79.1027L113.114 79.1723Z" fill="#131315"/>
<path d="M56.3172 81.5413C56.2021 81.6473 56.1215 81.7855 56.0859 81.9372C56.0655 82.0068 56.0608 82.0801 56.0723 82.1523C56.0838 82.224 56.111 82.2926 56.1519 82.3523C56.2361 82.4713 56.3759 82.5337 56.5669 82.5337C56.738 82.5404 56.9049 82.4859 57.0389 82.3804C57.1724 82.2749 57.2634 82.1253 57.2953 81.9585C57.3199 81.8177 57.2922 81.6727 57.2163 81.5511C57.1687 81.4909 57.1075 81.4431 57.0379 81.4103C56.9677 81.3781 56.8913 81.362 56.8144 81.3641C56.6318 81.3568 56.4533 81.4207 56.3172 81.5418" fill="#131315"/>
<path d="M60.6172 75.5101C60.1006 75.6296 59.5961 75.7985 59.1121 76.0136C58.0727 76.4895 57.4672 77.0808 57.3076 77.7693L56.9978 79.1005C56.8172 79.7682 56.5299 80.1262 56.1332 80.1605C55.9082 80.1838 55.5591 80.0389 55.0902 79.7396L54.9495 79.6476L55.0055 79.8071C55.2493 80.4551 55.5843 80.7834 56.0087 80.7834H56.0239C56.5127 80.7886 56.9863 80.6146 57.3547 80.295C57.6959 79.9859 57.9293 79.577 58.0225 79.128L58.3349 77.7942C58.3611 77.6191 58.4411 77.4555 58.5631 77.3261C58.7279 77.1764 58.9153 77.0528 59.1178 76.9593C59.1932 76.9218 59.2717 76.8834 59.3559 76.846L58.8159 79.1706H70.2266L70.4579 78.1694H68.5718C68.4677 78.1694 68.3777 78.1122 68.2992 77.9943C68.2196 77.8841 68.1872 77.747 68.2092 77.6134C68.2322 77.4368 68.3133 77.2726 68.44 77.1468C68.4944 77.0876 68.5603 77.0408 68.6341 77.0086C68.7079 76.9764 68.7874 76.9603 68.868 76.9608H70.7416L70.9697 75.9606H69.0737C68.8372 75.9585 68.6027 76.0027 68.3834 76.091C68.1642 76.1793 67.9648 76.3098 67.7968 76.4755C67.4864 76.7587 67.2792 77.1359 67.207 77.5485C67.1567 77.8306 67.1908 78.0364 67.3164 78.1694H64.3559L65.7856 72.0179L65.7484 71.9982C65.4297 71.8387 65.1979 71.5534 65.0618 71.145L64.9985 70.9585L63.3217 78.1694H60.0834L60.7051 75.4867L60.6172 75.5101ZM56.0087 80.7278V80.7247H56.0097L56.0087 80.7278Z" fill="#131315"/>
<path d="M85.4898 79.6663C85.3825 79.7656 85.3087 79.895 85.2778 80.0368C85.2339 80.2259 85.2491 80.3714 85.3276 80.4707C85.4019 80.5611 85.5269 80.6078 85.6991 80.6078H85.7242C85.8959 80.6058 86.0618 80.5445 86.1931 80.4343C86.3025 80.3454 86.3763 80.2207 86.4014 80.0825C86.436 79.8965 86.4145 79.7542 86.3334 79.6575C86.2544 79.5635 86.1262 79.5188 85.9456 79.5188C85.7802 79.5099 85.618 79.5624 85.4898 79.6663Z" fill="#131315"/>
<path d="M95.9468 78.2119L95.7228 79.1721H98.5729L99.3259 75.9397L99.2323 75.9646C98.7194 76.0914 98.2191 76.2624 97.736 76.4759C96.7056 76.9571 96.1006 77.5421 95.9468 78.2119ZM97.3708 77.619C97.5738 77.5161 97.7701 77.4096 97.9731 77.3026L97.7701 78.1708H96.9908C97.0431 77.9458 97.1787 77.7489 97.3708 77.619Z" fill="#131315"/>
<path d="M78.6749 71.1263C78.5211 71.3029 78.3531 71.4666 78.173 71.6157C77.8889 71.809 77.6921 71.9358 77.5702 71.9992L77.545 72.0116L75.8992 79.1004C75.7212 79.7686 75.4313 80.1261 75.0367 80.1609C74.8122 80.1838 74.4631 80.0393 73.9953 79.74L73.8508 79.6476L73.9063 79.8071C74.1507 80.4488 74.4909 80.7761 74.9127 80.7761H74.9278C75.413 80.7782 75.8829 80.6052 76.2498 80.2892C76.5743 79.9842 76.8045 79.594 76.9139 79.1643L77.1169 79.1659V79.1721H91.887L93.5392 72.0636L93.548 72.0194L93.5114 71.9997C93.1964 71.8402 92.9682 71.5554 92.8269 71.1455L92.7646 70.9595L91.0847 78.1709H87.7595C87.5349 78.1709 87.3916 78.1293 87.3377 78.0509C87.2414 77.8913 87.1885 77.6482 87.1812 77.3328C87.1979 77.1275 87.1513 76.9218 87.0477 76.743C86.998 76.6537 86.9295 76.5762 86.8462 76.5165C86.763 76.4562 86.6678 76.4152 86.5668 76.396H85.6892L85.4578 77.3956H86.0204C86.1256 77.3956 86.1727 77.5692 86.1952 77.7121C86.2109 77.8669 86.2392 78.0202 86.2795 78.1709H81.7228L82.3723 75.3833L82.232 75.5262C82.0781 75.6841 81.9154 75.8338 81.7448 75.9735C81.4669 76.1762 81.2612 76.3201 81.1204 76.4037L81.0979 76.4173L80.6924 78.1709H77.151L78.8256 70.9693L78.6749 71.1263ZM74.9127 80.7205V80.7179H74.9137L74.9127 80.7205Z" fill="#131315"/>
<path d="M80.7555 79.8661C80.5712 79.8635 80.3933 79.929 80.2562 80.0506C80.1316 80.1529 80.0463 80.2948 80.0149 80.4522C79.9987 80.5234 79.9971 80.5967 80.0102 80.6684C80.0233 80.7401 80.0505 80.8081 80.0903 80.8695C80.1683 80.9978 80.3122 81.0601 80.5058 81.0601H80.5121C80.8983 81.0097 81.1265 80.8149 81.1856 80.4735C81.216 80.3338 81.1924 80.1883 81.1207 80.0646C81.0846 80.0007 81.0313 79.9482 80.9669 79.9129C80.902 79.8781 80.8287 79.862 80.7549 79.8661" fill="#131315"/>
<path d="M97.3746 75.5474C97.7174 75.5396 97.9336 75.3551 98.0152 74.9976C98.034 74.9327 98.0382 74.8641 98.0278 74.7971C98.0178 74.7306 97.9932 74.6667 97.9561 74.6095C97.9184 74.5529 97.866 74.5066 97.8048 74.4754C97.7436 74.4448 97.675 74.4297 97.6065 74.4328C97.4359 74.4266 97.27 74.4838 97.1402 74.5934C97.0256 74.6921 96.946 74.8241 96.9125 74.9711C96.8942 75.0402 96.8916 75.113 96.9052 75.1836C96.9183 75.2543 96.9476 75.3208 96.9905 75.3785C97.0292 75.4351 97.0821 75.4808 97.1438 75.5115C97.2056 75.5422 97.2742 75.5562 97.3432 75.5525C97.3537 75.5541 97.3647 75.552 97.3746 75.5474Z" fill="#131315"/>
<path d="M102.665 76.8667C102.51 77.0475 102.341 77.2153 102.159 77.3691C101.877 77.5515 101.678 77.6741 101.556 77.7396L101.533 77.7516L101.222 79.1009C101.04 79.7686 100.753 80.1266 100.356 80.1609C100.132 80.1843 99.7821 80.0393 99.3132 79.7406L99.1693 79.6481L99.229 79.8076C99.4728 80.4488 99.8135 80.7766 100.238 80.7766H100.253C100.737 80.7787 101.206 80.6057 101.57 80.2892C101.897 79.9853 102.129 79.5951 102.239 79.1649L102.44 79.1664L102.436 79.1726H112.325L113.981 72.0636L113.987 72.0194L113.946 71.9997C113.637 71.8402 113.406 71.5549 113.265 71.1455L113.2 70.9595L111.523 78.1709H108.198C107.973 78.1709 107.826 78.1293 107.776 78.0509C107.678 77.895 107.626 77.6482 107.62 77.3328C107.633 77.127 107.586 76.9218 107.482 76.743C107.435 76.6531 107.367 76.5747 107.284 76.5144C107.201 76.4541 107.106 76.4136 107.005 76.396H106.127L105.896 77.3956H106.459C106.561 77.3956 106.612 77.5692 106.633 77.7121C106.65 77.8664 106.678 78.0197 106.715 78.1709H102.47L102.761 76.9192L102.665 76.8667ZM100.238 80.7205V80.7179H100.239L100.238 80.7205Z" fill="#131315"/>
<path d="M54.6445 81.9358C54.6236 82.0086 54.621 82.0855 54.6361 82.1593C54.6513 82.2336 54.6843 82.3027 54.7319 82.3619C54.7764 82.4185 54.834 82.4632 54.8999 82.4934C54.9658 82.523 55.0375 82.5365 55.1098 82.5323H55.1401C55.5117 82.5256 55.7461 82.3313 55.834 81.9592C55.8518 81.8896 55.855 81.8174 55.8429 81.7462C55.8304 81.6755 55.8032 81.6085 55.7629 81.5487C55.7215 81.488 55.665 81.4386 55.5991 81.4059C55.5326 81.3736 55.4588 81.3586 55.385 81.3627C54.9821 81.3627 54.7324 81.556 54.6445 81.9358Z" fill="#131315"/>
<path d="M128.058 73.3703C128.18 73.2638 128.262 73.1193 128.292 72.9609C128.308 72.8871 128.308 72.8112 128.293 72.7369C128.279 72.6631 128.248 72.593 128.205 72.5317C128.158 72.473 128.097 72.4262 128.028 72.3961C127.959 72.3659 127.883 72.3524 127.808 72.3571C127.631 72.3504 127.457 72.4106 127.323 72.5255C127.199 72.6335 127.113 72.778 127.078 72.9375C127.055 73.0082 127.048 73.083 127.059 73.1562C127.07 73.2295 127.098 73.2996 127.14 73.3604C127.218 73.4753 127.361 73.534 127.561 73.534C127.741 73.5423 127.918 73.4836 128.058 73.3703Z" fill="#131315"/>
<path d="M142.582 74.8152C142.987 74.8058 143.228 74.6187 143.297 74.2566C143.331 74.0586 143.306 73.9069 143.222 73.804C143.14 73.7084 143.006 73.657 142.825 73.657C142.428 73.657 142.185 73.8466 142.101 74.2119C142.081 74.2836 142.078 74.359 142.09 74.4322C142.102 74.5055 142.131 74.5751 142.172 74.6369C142.215 74.6967 142.273 74.7445 142.339 74.7757C142.406 74.8068 142.48 74.8203 142.553 74.8152H142.582Z" fill="#131315"/>
<path d="M153.043 79.1718H154.069L155.975 70.9856L155.835 71.1243C155.722 71.2397 155.522 71.4169 155.251 71.6538C155.125 71.7416 154.951 71.8616 154.726 72.0019L154.708 72.0149L153.058 79.1021L153.043 79.1718Z" fill="#131315"/>
<path d="M126.14 73.5556H126.146C126.349 73.5302 126.499 73.4735 126.602 73.3795C126.722 73.2699 126.803 73.1244 126.833 72.9649C126.858 72.8194 126.838 72.6692 126.774 72.5357C126.729 72.478 126.672 72.4323 126.606 72.4011C126.539 72.3699 126.467 72.3549 126.394 72.3569C126.209 72.3523 126.029 72.4146 125.888 72.532C125.755 72.6344 125.665 72.7814 125.634 72.9451C125.618 73.0179 125.617 73.0937 125.63 73.167C125.644 73.2408 125.674 73.3104 125.715 73.3727C125.806 73.4933 125.947 73.5551 126.138 73.5551L126.14 73.5556Z" fill="#131315"/>
<path d="M121.622 74.9862C121.639 74.8517 121.611 74.715 121.545 74.5965C121.498 74.5451 121.441 74.504 121.378 74.4755C121.314 74.4474 121.245 74.4329 121.176 74.4329C120.804 74.4329 120.576 74.6116 120.492 74.9654C120.473 75.0325 120.469 75.1026 120.48 75.1717C120.491 75.2403 120.516 75.3058 120.554 75.364C120.63 75.4793 120.764 75.538 120.945 75.538C121.31 75.538 121.538 75.3536 121.622 74.9862Z" fill="#131315"/>
<path d="M119.621 75.5474C119.962 75.5396 120.177 75.3551 120.261 74.9976C120.279 74.9322 120.282 74.8641 120.271 74.7971C120.26 74.73 120.236 74.6661 120.199 74.6095C120.162 74.5523 120.11 74.5061 120.049 74.4749C119.988 74.4443 119.92 74.4297 119.852 74.4328C119.681 74.4266 119.514 74.4838 119.383 74.5934C119.271 74.6937 119.191 74.8251 119.155 74.9711C119.137 75.0402 119.134 75.113 119.148 75.1836C119.161 75.2538 119.19 75.3208 119.233 75.3785C119.273 75.4351 119.326 75.4808 119.389 75.5115C119.451 75.5422 119.52 75.5562 119.59 75.5525C119.601 75.5536 119.611 75.5515 119.621 75.5474Z" fill="#131315"/>
<path d="M118.191 78.2119L117.966 79.1721H145.371C145.415 79.407 145.538 79.6195 145.72 79.7748C145.938 79.9551 146.215 80.0497 146.498 80.0404C146.811 80.0372 147.117 79.9489 147.382 79.7842C147.642 79.6278 147.861 79.4122 148.021 79.155H148.155L148.15 79.1721H152.254L153.905 72.0636L153.914 72.0194L153.876 71.9997C153.561 71.8402 153.333 71.5549 153.194 71.1455L153.127 70.9595L151.45 78.1709H149.115V78.1688H148.265C148.215 77.9085 148.073 77.6747 147.865 77.5089C147.656 77.3432 147.395 77.2569 147.129 77.2657C146.813 77.2678 146.503 77.3577 146.236 77.5255C145.969 77.6835 145.746 77.9043 145.586 78.1688L142.398 78.1704L143.045 75.3828L142.904 75.5256C142.751 75.6841 142.589 75.8332 142.42 75.973C142.142 76.1756 141.932 76.3196 141.795 76.4032L141.777 76.4173L141.367 78.1704H137.832C137.929 77.6788 137.857 77.2668 137.623 76.9431C137.361 76.5783 136.93 76.3954 136.353 76.3954H131.865L133.083 71.1761L132.98 71.1325C132.693 71.5087 132.313 71.8064 131.878 71.9976L131.853 72.009L130.419 78.1704H127.165L128.092 74.182L128.004 74.2017C127.493 74.3233 126.993 74.4916 126.513 74.7042C125.483 75.1785 124.88 75.761 124.72 76.4406L124.498 77.3956H126.316L126.136 78.1704H121.051L121.57 75.9398L121.482 75.9647C120.968 76.0904 120.466 76.2614 119.983 76.4754C118.949 76.9581 118.347 77.5416 118.191 78.2119ZM146.395 78.6894C146.422 78.5746 146.49 78.4733 146.585 78.4031C146.673 78.3257 146.786 78.2815 146.904 78.279C146.951 78.2758 146.998 78.2847 147.041 78.3034C147.084 78.3221 147.122 78.3512 147.152 78.387C147.181 78.4234 147.201 78.4665 147.211 78.5122C147.221 78.558 147.219 78.6052 147.207 78.6505C147.178 78.7622 147.113 78.8614 147.022 78.9331C146.936 79.0079 146.825 79.05 146.71 79.0511C146.662 79.0542 146.614 79.0459 146.57 79.0277C146.525 79.009 146.485 78.9809 146.454 78.9451C146.423 78.9113 146.401 78.8697 146.391 78.825C146.38 78.7798 146.382 78.7336 146.395 78.6894ZM131.634 77.3956H136.143C136.398 77.3956 136.583 77.4606 136.693 77.5863C136.802 77.7121 136.837 77.9085 136.802 78.1709H131.453L131.634 77.3956ZM125.767 76.396C125.825 76.1673 125.966 75.9678 126.163 75.8364C126.36 75.735 126.553 75.6327 126.747 75.5319L126.544 76.3954L125.767 76.396ZM119.621 77.6191C119.819 77.5162 120.018 77.4097 120.221 77.3026L120.014 78.1709H119.233C119.287 77.9443 119.425 77.7469 119.621 77.6191Z" fill="#131315"/>
</g>
</svg>
