<svg width="24" height="24" viewBox="0 0 24 24" fill="none" xmlns="http://www.w3.org/2000/svg">
<path d="M20 9.66992V9.49992C20.0061 7.79887 19.4664 6.14072 18.4602 4.76914C17.454 3.39756 16.0344 2.38488 14.41 1.87992H14.35C13.511 1.62416 12.6369 1.50266 11.76 1.51992C9.67183 1.63452 7.7061 2.54167 6.264 4.05625C4.8219 5.57083 4.01215 7.57864 4 9.66992C3.41401 9.87606 2.90646 10.259 2.54742 10.7659C2.18838 11.2729 1.99554 11.8787 1.99554 12.4999C1.99554 13.1211 2.18838 13.727 2.54742 14.2339C2.90646 14.7408 3.41401 15.1238 4 15.3299C4.20597 17.3047 5.13892 19.1323 6.61748 20.4575C8.09604 21.7826 10.0145 22.5106 12 22.4999H12.23C14.15 22.407 15.9749 21.6368 17.3809 20.326C18.7868 19.0152 19.6829 17.2487 19.91 15.3399C20.5029 15.1454 21.0204 14.7709 21.3904 14.2685C21.7605 13.7661 21.9647 13.1609 21.9746 12.537C21.9845 11.9131 21.7996 11.3016 21.4457 10.7878C21.0918 10.2739 20.5864 9.88312 20 9.66992ZM12.18 20.4999C10.7324 20.5418 9.3185 20.0587 8.19921 19.1397C7.07991 18.2208 6.33077 16.928 6.09 15.4999H17.86C17.6159 16.8518 16.922 18.0815 15.8908 18.9892C14.8597 19.8969 13.5519 20.4293 12.18 20.4999ZM19 13.4999H5C4.73479 13.4999 4.48043 13.3946 4.2929 13.207C4.10536 13.0195 4 12.7651 4 12.4999C4 12.2347 4.10536 11.9804 4.2929 11.7928C4.48043 11.6053 4.73479 11.4999 5 11.4999H7C7.26522 11.4999 7.51957 11.3946 7.70711 11.207C7.89465 11.0195 8 10.7651 8 10.4999C8 10.2347 7.89465 9.98035 7.70711 9.79282C7.51957 9.60528 7.26522 9.49992 7 9.49992H6C6.04477 8.46253 6.34127 7.45161 6.86392 6.55439C7.38658 5.65717 8.11969 4.90058 9 4.34992V7.49992C9 7.76514 9.10536 8.01949 9.2929 8.20703C9.48043 8.39457 9.73479 8.49992 10 8.49992C10.2652 8.49992 10.5196 8.39457 10.7071 8.20703C10.8946 8.01949 11 7.76514 11 7.49992V3.58992C11.2714 3.54457 11.5452 3.51453 11.82 3.49992H12C12.3351 3.50464 12.6694 3.53473 13 3.58992V7.49992C13 7.76514 13.1054 8.01949 13.2929 8.20703C13.4804 8.39457 13.7348 8.49992 14 8.49992C14.2652 8.49992 14.5196 8.39457 14.7071 8.20703C14.8946 8.01949 15 7.76514 15 7.49992V4.31992C15.4242 4.56555 15.8199 4.85732 16.18 5.18992C16.7566 5.74982 17.2148 6.41984 17.5274 7.16022C17.84 7.9006 18.0008 8.69624 18 9.49992H17C16.7348 9.49992 16.4804 9.60528 16.2929 9.79282C16.1054 9.98035 16 10.2347 16 10.4999C16 10.7651 16.1054 11.0195 16.2929 11.207C16.4804 11.3946 16.7348 11.4999 17 11.4999H19C19.2652 11.4999 19.5196 11.6053 19.7071 11.7928C19.8946 11.9804 20 12.2347 20 12.4999C20 12.7651 19.8946 13.0195 19.7071 13.207C19.5196 13.3946 19.2652 13.4999 19 13.4999Z" fill="white"/>
</svg>
