<svg width="70" height="70" viewBox="0 0 70 70" fill="none" xmlns="http://www.w3.org/2000/svg">
<path d="M0 11.6622C0 5.22135 5.22136 0 11.6622 0H58.3111C64.752 0 69.9733 5.22136 69.9733 11.6622V58.3111C69.9733 64.752 64.752 69.9733 58.3111 69.9733H11.6622C5.22135 69.9733 0 64.752 0 58.3111V11.6622Z" fill="url(#paint0_linear_3002_710)"/>
<path d="M31.6533 32.9866H34.9867C35.3403 32.9866 35.6794 32.8461 35.9295 32.5961C36.1795 32.346 36.32 32.0069 36.32 31.6532C36.32 31.2996 36.1795 30.9605 35.9295 30.7104C35.6794 30.4604 35.3403 30.3199 34.9867 30.3199H33.6533V29.6532C33.6533 29.2996 33.5129 28.9605 33.2628 28.7104C33.0128 28.4604 32.6736 28.3199 32.32 28.3199C31.9664 28.3199 31.6272 28.4604 31.3772 28.7104C31.1271 28.9605 30.9867 29.2996 30.9867 29.6532V30.3866C30.1766 30.5511 29.4565 31.0107 28.9662 31.6763C28.4759 32.3418 28.2504 33.1658 28.3335 33.9882C28.4166 34.8107 28.8023 35.5729 29.4158 36.127C30.0292 36.6811 30.8267 36.9874 31.6533 36.9866H32.9867C33.1635 36.9866 33.333 37.0568 33.4581 37.1818C33.5831 37.3069 33.6533 37.4764 33.6533 37.6532C33.6533 37.8301 33.5831 37.9996 33.4581 38.1247C33.333 38.2497 33.1635 38.3199 32.9867 38.3199H29.6533C29.2997 38.3199 28.9606 38.4604 28.7105 38.7104C28.4605 38.9605 28.32 39.2996 28.32 39.6532C28.32 40.0069 28.4605 40.346 28.7105 40.5961C28.9606 40.8461 29.2997 40.9866 29.6533 40.9866H30.9867V41.6532C30.9867 42.0069 31.1271 42.346 31.3772 42.5961C31.6272 42.8461 31.9664 42.9866 32.32 42.9866C32.6736 42.9866 33.0128 42.8461 33.2628 42.5961C33.5129 42.346 33.6533 42.0069 33.6533 41.6532V40.9199C34.4634 40.7554 35.1835 40.2958 35.6738 39.6302C36.1641 38.9647 36.3895 38.1407 36.3065 37.3183C36.2234 36.4958 35.8377 35.7336 35.2242 35.1795C34.6108 34.6254 33.8133 34.3191 32.9867 34.3199H31.6533C31.4765 34.3199 31.307 34.2497 31.1819 34.1247C31.0569 33.9996 30.9867 33.8301 30.9867 33.6532C30.9867 33.4764 31.0569 33.3069 31.1819 33.1818C31.307 33.0568 31.4765 32.9866 31.6533 32.9866ZM46.9867 34.9866H42.9867V22.9866C42.9876 22.7516 42.9264 22.5206 42.8094 22.3169C42.6923 22.1132 42.5235 21.9441 42.32 21.8266C42.1173 21.7096 41.8874 21.6479 41.6533 21.6479C41.4193 21.6479 41.1894 21.7096 40.9867 21.8266L36.9867 24.1199L32.9867 21.8266C32.784 21.7096 32.554 21.6479 32.32 21.6479C32.0859 21.6479 31.856 21.7096 31.6533 21.8266L27.6533 24.1199L23.6533 21.8266C23.4506 21.7096 23.2207 21.6479 22.9867 21.6479C22.7526 21.6479 22.5227 21.7096 22.32 21.8266C22.1165 21.9441 21.9477 22.1132 21.8306 22.3169C21.7136 22.5206 21.6524 22.7516 21.6533 22.9866V44.3199C21.6533 45.3808 22.0748 46.3982 22.8249 47.1483C23.575 47.8985 24.5925 48.3199 25.6533 48.3199H44.32C45.3809 48.3199 46.3983 47.8985 47.1484 47.1483C47.8986 46.3982 48.32 45.3808 48.32 44.3199V36.3199C48.32 35.9663 48.1795 35.6272 47.9295 35.3771C47.6794 35.1271 47.3403 34.9866 46.9867 34.9866ZM25.6533 45.6532C25.2997 45.6532 24.9606 45.5128 24.7105 45.2627C24.4605 45.0127 24.32 44.6735 24.32 44.3199V25.2932L26.9867 26.8132C27.1924 26.9207 27.4212 26.9769 27.6533 26.9769C27.8855 26.9769 28.1142 26.9207 28.32 26.8132L32.32 24.5199L36.32 26.8132C36.5258 26.9207 36.7545 26.9769 36.9867 26.9769C37.2188 26.9769 37.4475 26.9207 37.6533 26.8132L40.32 25.2932V44.3199C40.3236 44.7748 40.4048 45.2257 40.56 45.6532H25.6533ZM45.6533 44.3199C45.6533 44.6735 45.5129 45.0127 45.2628 45.2627C45.0128 45.5128 44.6736 45.6532 44.32 45.6532C43.9664 45.6532 43.6272 45.5128 43.3772 45.2627C43.1271 45.0127 42.9867 44.6735 42.9867 44.3199V37.6532H45.6533V44.3199Z" fill="white"/>
<defs>
<linearGradient id="paint0_linear_3002_710" x1="34.9867" y1="0" x2="34.9867" y2="69.9733" gradientUnits="userSpaceOnUse">
<stop stop-color="#003268"/>
<stop offset="1" stop-color="#5280CA"/>
</linearGradient>
</defs>
</svg>
