<svg width="70" height="70" viewBox="0 0 70 70" fill="none" xmlns="http://www.w3.org/2000/svg">
<path d="M0 11.6622C0 5.22135 5.22136 0 11.6622 0H58.3111C64.752 0 69.9733 5.22136 69.9733 11.6622V58.3111C69.9733 64.752 64.752 69.9733 58.3111 69.9733H11.6622C5.22135 69.9733 0 64.752 0 58.3111V11.6622Z" fill="url(#paint0_linear_3002_694)"/>
<path d="M38.04 33.3737L33.6533 37.7737L31.9333 36.0403C31.6822 35.7893 31.3417 35.6482 30.9867 35.6482C30.6316 35.6482 30.2911 35.7893 30.04 36.0403C29.7889 36.2914 29.6479 36.6319 29.6479 36.987C29.6479 37.3421 29.7889 37.6826 30.04 37.9337L32.7067 40.6003C32.8306 40.7253 32.9781 40.8245 33.1406 40.8922C33.303 40.9599 33.4773 40.9947 33.6533 40.9947C33.8293 40.9947 34.0036 40.9599 34.1661 40.8922C34.3286 40.8245 34.476 40.7253 34.6 40.6003L39.9333 35.267C40.1844 35.0159 40.3254 34.6754 40.3254 34.3203C40.3254 33.9653 40.1844 33.6247 39.9333 33.3737C39.6822 33.1226 39.3417 32.9816 38.9867 32.9816C38.6316 32.9816 38.2911 33.1226 38.04 33.3737V33.3737ZM44.32 26.3203H35.9467L35.52 24.987C35.2434 24.2046 34.7303 23.5277 34.0519 23.0499C33.3734 22.5721 32.5631 22.3171 31.7333 22.3203H25.6533C24.5925 22.3203 23.575 22.7418 22.8249 23.4919C22.0747 24.2421 21.6533 25.2595 21.6533 26.3203V43.6537C21.6533 44.7145 22.0747 45.732 22.8249 46.4821C23.575 47.2323 24.5925 47.6537 25.6533 47.6537H44.32C45.3809 47.6537 46.3983 47.2323 47.1484 46.4821C47.8986 45.732 48.32 44.7145 48.32 43.6537V30.3203C48.32 29.2595 47.8986 28.2421 47.1484 27.4919C46.3983 26.7418 45.3809 26.3203 44.32 26.3203ZM45.6533 43.6537C45.6533 44.0073 45.5128 44.3464 45.2628 44.5965C45.0127 44.8465 44.6736 44.987 44.32 44.987H25.6533C25.2997 44.987 24.9606 44.8465 24.7105 44.5965C24.4605 44.3464 24.32 44.0073 24.32 43.6537V26.3203C24.32 25.9667 24.4605 25.6276 24.7105 25.3775C24.9606 25.1275 25.2997 24.987 25.6533 24.987H31.7333C32.0128 24.9863 32.2855 25.0734 32.5128 25.2361C32.7401 25.3988 32.9105 25.6288 33 25.8937L33.72 28.0803C33.8094 28.3452 33.9799 28.5752 34.2071 28.7379C34.4344 28.9006 34.7071 28.9877 34.9867 28.987H44.32C44.6736 28.987 45.0127 29.1275 45.2628 29.3775C45.5128 29.6276 45.6533 29.9667 45.6533 30.3203V43.6537Z" fill="white"/>
<defs>
<linearGradient id="paint0_linear_3002_694" x1="34.9867" y1="0" x2="34.9867" y2="69.9733" gradientUnits="userSpaceOnUse">
<stop stop-color="#003268"/>
<stop offset="1" stop-color="#5280CA"/>
</linearGradient>
</defs>
</svg>
