<svg width="70" height="70" viewBox="0 0 70 70" fill="none" xmlns="http://www.w3.org/2000/svg">
<path d="M0 11.6622C0 5.22135 5.22136 0 11.6622 0H58.3111C64.752 0 69.9733 5.22136 69.9733 11.6622V58.3111C69.9733 64.752 64.752 69.9733 58.3111 69.9733H11.6622C5.22135 69.9733 0 64.752 0 58.3111V11.6622Z" fill="url(#paint0_linear_3002_702)"/>
<path d="M47.5329 30.5068C47.5329 30.5068 47.5329 30.5068 47.5329 30.4402C46.5935 27.8751 44.8888 25.6605 42.6496 24.096C40.4104 22.5314 37.7446 21.6924 35.0129 21.6924C32.2813 21.6924 29.6155 22.5314 27.3763 24.096C25.137 25.6605 23.4324 27.8751 22.4929 30.4402C22.4929 30.4402 22.4929 30.4402 22.4929 30.5068C21.4438 33.4013 21.4438 36.5723 22.4929 39.4668C22.4929 39.4668 22.4929 39.4668 22.4929 39.5335C23.4324 42.0985 25.137 44.3131 27.3763 45.8777C29.6155 47.4422 32.2813 48.2813 35.0129 48.2813C37.7446 48.2813 40.4104 47.4422 42.6496 45.8777C44.8888 44.3131 46.5935 42.0985 47.5329 39.5335C47.5329 39.5335 47.5329 39.5335 47.5329 39.4668C48.5821 36.5723 48.5821 33.4013 47.5329 30.5068V30.5068ZM24.6663 37.6535C24.2039 35.9058 24.2039 34.0679 24.6663 32.3202H27.1463C26.933 34.0915 26.933 35.8821 27.1463 37.6535H24.6663ZM25.7596 40.3202H27.6263C27.9392 41.5093 28.3865 42.6589 28.9596 43.7468C27.652 42.8561 26.5589 41.6856 25.7596 40.3202ZM27.6263 29.6535H25.7596C26.5474 28.2923 27.6265 27.1221 28.9196 26.2268C28.3603 27.3165 27.9265 28.466 27.6263 29.6535V29.6535ZM33.6529 45.2535C32.0153 44.0517 30.8651 42.3005 30.4129 40.3202H33.6529V45.2535ZM33.6529 37.6535H29.8396C29.5908 35.8844 29.5908 34.0892 29.8396 32.3202H33.6529V37.6535ZM33.6529 29.6535H30.4129C30.8651 27.6732 32.0153 25.9219 33.6529 24.7202V29.6535ZM44.2129 29.6535H42.3463C42.0333 28.4644 41.586 27.3147 41.0129 26.2268C42.3205 27.1176 43.4136 28.2881 44.2129 29.6535ZM36.3196 24.7202C37.9572 25.9219 39.1074 27.6732 39.5596 29.6535H36.3196V24.7202ZM36.3196 45.2535V40.3202H39.5596C39.1074 42.3005 37.9572 44.0517 36.3196 45.2535V45.2535ZM40.1329 37.6535H36.3196V32.3202H40.1329C40.3817 34.0892 40.3817 35.8844 40.1329 37.6535ZM41.0529 43.7468C41.626 42.6589 42.0733 41.5093 42.3863 40.3202H44.2529C43.4536 41.6856 42.3605 42.8561 41.0529 43.7468ZM45.3063 37.6535H42.8263C42.9347 36.7688 42.9881 35.8782 42.9863 34.9868C42.9877 34.0955 42.9343 33.2049 42.8263 32.3202H45.3063C45.7686 34.0679 45.7686 35.9058 45.3063 37.6535Z" fill="white"/>
<defs>
<linearGradient id="paint0_linear_3002_702" x1="34.9867" y1="0" x2="34.9867" y2="69.9733" gradientUnits="userSpaceOnUse">
<stop stop-color="#003268"/>
<stop offset="1" stop-color="#5280CA"/>
</linearGradient>
</defs>
</svg>
