<svg width="70" height="70" viewBox="0 0 70 70" fill="none" xmlns="http://www.w3.org/2000/svg">
<path d="M0 11.6622C0 5.22135 5.22136 0 11.6622 0H58.3111C64.752 0 69.9733 5.22136 69.9733 11.6622V58.3111C69.9733 64.752 64.752 69.9733 58.3111 69.9733H11.6622C5.22135 69.9733 0 64.752 0 58.3111V11.6622Z" fill="url(#paint0_linear_3002_677)"/>
<path d="M34.986 40.3202C34.7223 40.3202 34.4645 40.3984 34.2452 40.5449C34.0259 40.6914 33.855 40.8996 33.7541 41.1433C33.6532 41.3869 33.6268 41.655 33.6782 41.9136C33.7297 42.1723 33.8567 42.4099 34.0432 42.5963C34.2296 42.7828 34.4672 42.9098 34.7258 42.9612C34.9845 43.0127 35.2526 42.9863 35.4962 42.8854C35.7398 42.7844 35.9481 42.6135 36.0946 42.3943C36.2411 42.175 36.3193 41.9172 36.3193 41.6535C36.3193 41.2999 36.1788 40.9608 35.9288 40.7107C35.6787 40.4607 35.3396 40.3202 34.986 40.3202ZM49.2126 42.2802L38.4793 23.6135C38.1324 22.9915 37.6257 22.4735 37.0116 22.1128C36.3974 21.7522 35.6982 21.562 34.986 21.562C34.2738 21.562 33.5745 21.7522 32.9604 22.1128C32.3462 22.4735 31.8396 22.9915 31.4926 23.6135L20.826 42.2802C20.467 42.8855 20.2741 43.5749 20.2668 44.2786C20.2595 44.9823 20.438 45.6756 20.7842 46.2883C21.1305 46.901 21.6322 47.4115 22.2389 47.7682C22.8455 48.125 23.5355 48.3154 24.2393 48.3202H45.7326C46.442 48.3272 47.1405 48.1454 47.7565 47.7934C48.3725 47.4414 48.8838 46.932 49.2379 46.3173C49.5921 45.7026 49.7764 45.0047 49.772 44.2953C49.7675 43.5859 49.5745 42.8904 49.2126 42.2802V42.2802ZM46.906 44.9469C46.7891 45.1548 46.6186 45.3276 46.4122 45.4472C46.2058 45.5668 45.9711 45.6288 45.7326 45.6269H24.2393C24.0008 45.6288 23.7661 45.5668 23.5597 45.4472C23.3533 45.3276 23.1828 45.1548 23.066 44.9469C22.9489 44.7442 22.8873 44.5142 22.8873 44.2802C22.8873 44.0461 22.9489 43.8162 23.066 43.6135L33.7326 24.9469C33.8445 24.7285 34.0145 24.5452 34.2239 24.4172C34.4333 24.2892 34.6739 24.2215 34.9193 24.2215C35.1647 24.2215 35.4053 24.2892 35.6147 24.4172C35.8241 24.5452 35.9941 24.7285 36.106 24.9469L46.8393 43.6135C46.9716 43.8133 47.0476 44.045 47.0593 44.2844C47.0711 44.5237 47.0181 44.7618 46.906 44.9735V44.9469ZM34.986 29.6535C34.6323 29.6535 34.2932 29.794 34.0432 30.044C33.7931 30.2941 33.6526 30.6332 33.6526 30.9869V36.3202C33.6526 36.6738 33.7931 37.0129 34.0432 37.263C34.2932 37.513 34.6323 37.6535 34.986 37.6535C35.3396 37.6535 35.6787 37.513 35.9288 37.263C36.1788 37.0129 36.3193 36.6738 36.3193 36.3202V30.9869C36.3193 30.6332 36.1788 30.2941 35.9288 30.044C35.6787 29.794 35.3396 29.6535 34.986 29.6535Z" fill="white"/>
<defs>
<linearGradient id="paint0_linear_3002_677" x1="34.9867" y1="0" x2="34.9867" y2="69.9733" gradientUnits="userSpaceOnUse">
<stop stop-color="#003268"/>
<stop offset="1" stop-color="#5280CA"/>
</linearGradient>
</defs>
</svg>
