<svg width="70" height="70" viewBox="0 0 70 70" fill="none" xmlns="http://www.w3.org/2000/svg">
<path d="M0 11.6622C0 5.22135 5.22136 0 11.6622 0H58.3111C64.752 0 69.9733 5.22136 69.9733 11.6622V58.3111C69.9733 64.752 64.752 69.9733 58.3111 69.9733H11.6622C5.22135 69.9733 0 64.752 0 58.3111V11.6622Z" fill="url(#paint0_linear_3002_685)"/>
<path d="M47.9326 39.7602L41.9059 33.7468C42.0321 33.1327 42.0946 32.5071 42.0926 31.8802C42.0921 30.161 41.6583 28.4698 40.8312 26.9627C40.0041 25.4556 38.8104 24.1813 37.3605 23.2577C35.9106 22.334 34.2512 21.7908 32.5357 21.6782C30.8203 21.5656 29.1042 21.8873 27.5459 22.6135C27.3485 22.7037 27.1761 22.8407 27.0437 23.0126C26.9112 23.1846 26.8227 23.3863 26.7859 23.6002C26.7493 23.8113 26.7641 24.0282 26.8291 24.2325C26.894 24.4368 27.0073 24.6223 27.1593 24.7735L32.9593 30.5602L30.5593 32.9602L24.7726 27.1602C24.6202 27.0106 24.434 26.8998 24.2298 26.8371C24.0256 26.7745 23.8094 26.7618 23.5993 26.8002C23.3867 26.8356 23.1859 26.9221 23.0141 27.0521C22.8422 27.1821 22.7045 27.3519 22.6126 27.5468C21.884 29.1102 21.5626 30.8324 21.6783 32.5533C21.7941 34.2742 22.3432 35.9379 23.2746 37.3896C24.206 38.8413 25.4895 40.0338 27.0056 40.8562C28.5217 41.6787 30.2212 42.1043 31.9459 42.0935C32.5729 42.0955 33.1984 42.033 33.8126 41.9068L39.8259 47.9335C39.9499 48.0585 40.0974 48.1577 40.2598 48.2253C40.4223 48.293 40.5966 48.3279 40.7726 48.3279C40.9486 48.3279 41.1229 48.293 41.2854 48.2253C41.4479 48.1577 41.5953 48.0585 41.7193 47.9335C41.8442 47.8095 41.9434 47.6621 42.0111 47.4996C42.0788 47.3371 42.1137 47.1628 42.1137 46.9868C42.1137 46.8108 42.0788 46.6365 42.0111 46.4741C41.9434 46.3116 41.8442 46.1641 41.7193 46.0402L35.1859 39.5068C35.0227 39.3446 34.8202 39.2275 34.5982 39.1667C34.3763 39.106 34.1424 39.1037 33.9193 39.1602C33.2755 39.3326 32.6124 39.4222 31.9459 39.4268C30.9487 39.4356 29.9595 39.247 29.0355 38.8719C28.1114 38.4967 27.2707 37.9424 26.5618 37.241C25.8529 36.5395 25.2898 35.7047 24.9049 34.7846C24.52 33.8646 24.321 32.8775 24.3193 31.8802C24.3175 31.4335 24.3532 30.9875 24.4259 30.5468L29.6526 35.7868C29.7766 35.9118 29.924 36.011 30.0865 36.0787C30.249 36.1464 30.4233 36.1812 30.5993 36.1812C30.7753 36.1812 30.9496 36.1464 31.112 36.0787C31.2745 36.011 31.422 35.9118 31.5459 35.7868L35.7859 31.5068C36.0263 31.2582 36.1606 30.9259 36.1606 30.5802C36.1606 30.2344 36.0263 29.9021 35.7859 29.6535L30.5993 24.4268C31.0401 24.3548 31.486 24.3192 31.9326 24.3202C33.9353 24.3237 35.8548 25.1217 37.2697 26.5391C38.6846 27.9565 39.4793 29.8774 39.4793 31.8802C39.4746 32.5466 39.385 33.2097 39.2126 33.8535C39.1562 34.0766 39.1584 34.3105 39.2192 34.5325C39.2799 34.7544 39.3971 34.9569 39.5593 35.1202L46.0926 41.6535C46.3437 41.9046 46.6842 42.0456 47.0393 42.0456C47.3943 42.0456 47.7349 41.9046 47.9859 41.6535C48.237 41.4024 48.3781 41.0619 48.3781 40.7068C48.3781 40.3518 48.237 40.0112 47.9859 39.7602H47.9326Z" fill="white"/>
<defs>
<linearGradient id="paint0_linear_3002_685" x1="34.9867" y1="0" x2="34.9867" y2="69.9733" gradientUnits="userSpaceOnUse">
<stop stop-color="#003268"/>
<stop offset="1" stop-color="#5280CA"/>
</linearGradient>
</defs>
</svg>
