<svg width="70" height="70" viewBox="0 0 70 70" fill="none" xmlns="http://www.w3.org/2000/svg">
<path d="M0 11.6622C0 5.22135 5.22136 0 11.6622 0H58.3111C64.752 0 69.9733 5.22136 69.9733 11.6622V58.3111C69.9733 64.752 64.752 69.9733 58.3111 69.9733H11.6622C5.22135 69.9733 0 64.752 0 58.3111V11.6622Z" fill="url(#paint0_linear_3002_669)"/>
<path d="M48.3196 33.5734C48.3057 33.4509 48.2789 33.3302 48.2396 33.2134V33.0934C48.1755 32.9563 48.09 32.8303 47.9863 32.7201V32.7201L39.9862 24.7201C39.876 24.6164 39.75 24.5308 39.6129 24.4667H39.4929C39.3575 24.3891 39.2079 24.3392 39.0529 24.3201H33.1996C32.846 24.3201 32.5068 24.4605 32.2568 24.7106C32.0067 24.9606 31.8663 25.2998 31.8663 25.6534C31.8663 26.007 32.0067 26.3462 32.2568 26.5962C32.5068 26.8463 32.846 26.9867 33.1996 26.9867H37.6529V30.9867C37.6529 32.0476 38.0743 33.065 38.8245 33.8152C39.5746 34.5653 40.5921 34.9867 41.6529 34.9867H45.6529V39.4401C45.6529 39.7937 45.7934 40.1328 46.0434 40.3829C46.2935 40.6329 46.6326 40.7734 46.9863 40.7734C47.3399 40.7734 47.679 40.6329 47.9291 40.3829C48.1791 40.1328 48.3196 39.7937 48.3196 39.4401V33.6534C48.3196 33.6534 48.3196 33.6534 48.3196 33.5734ZM41.6529 32.3201C41.2993 32.3201 40.9602 32.1796 40.7101 31.9295C40.4601 31.6795 40.3196 31.3404 40.3196 30.9867V28.8667L43.7729 32.3201H41.6529ZM23.9329 22.0401C23.8086 21.9158 23.661 21.8171 23.4986 21.7499C23.3362 21.6826 23.1621 21.6479 22.9862 21.6479C22.8104 21.6479 22.6363 21.6826 22.4739 21.7499C22.3115 21.8171 22.1639 21.9158 22.0396 22.0401C21.7885 22.2911 21.6475 22.6317 21.6475 22.9867C21.6475 23.3418 21.7885 23.6823 22.0396 23.9334L23.2529 25.1334C22.7579 25.5046 22.3558 25.9856 22.0782 26.5386C21.8006 27.0915 21.655 27.7013 21.6529 28.3201V41.6534C21.6529 42.7143 22.0743 43.7317 22.8245 44.4818C23.5746 45.232 24.5921 45.6534 25.6529 45.6534H43.7729L46.0396 47.9334C46.1635 48.0584 46.311 48.1576 46.4735 48.2253C46.636 48.293 46.8102 48.3278 46.9863 48.3278C47.1623 48.3278 47.3365 48.293 47.499 48.2253C47.6615 48.1576 47.809 48.0584 47.9329 47.9334C48.0579 47.8095 48.1571 47.662 48.2248 47.4995C48.2925 47.337 48.3273 47.1628 48.3273 46.9867C48.3273 46.8107 48.2925 46.6364 48.2248 46.474C48.1571 46.3115 48.0579 46.164 47.9329 46.0401L23.9329 22.0401ZM25.6529 42.9867C25.2993 42.9867 24.9602 42.8463 24.7101 42.5962C24.4601 42.3462 24.3196 42.007 24.3196 41.6534V28.3201C24.3224 28.0483 24.4082 27.784 24.5655 27.5623C24.7228 27.3407 24.944 27.1725 25.1996 27.0801L41.1063 42.9867H25.6529Z" fill="white"/>
<defs>
<linearGradient id="paint0_linear_3002_669" x1="34.9867" y1="0" x2="34.9867" y2="69.9733" gradientUnits="userSpaceOnUse">
<stop stop-color="#003268"/>
<stop offset="1" stop-color="#5280CA"/>
</linearGradient>
</defs>
</svg>
